<?xml version="1.0" standalone="no"?>
<!DOCTYPE svg PUBLIC "-//W3C//DTD SVG 20010904//EN"
 "http://www.w3.org/TR/2001/REC-SVG-20010904/DTD/svg10.dtd">
<svg version="1.0" xmlns="http://www.w3.org/2000/svg"
 width="224.000000pt" height="224.000000pt" viewBox="0 0 224.000000 224.000000"
 preserveAspectRatio="xMidYMid meet">

<g transform="translate(0.000000,224.000000) scale(0.100000,-0.100000)"
fill="#000000" stroke="none">
<path d="M965 2076 c-274 -62 -458 -177 -609 -379 -76 -101 -144 -242 -160
-329 l-7 -38 38 0 c59 1 126 19 151 42 l22 21 1 -99 0 -99 23 85 c41 152 104
258 217 364 78 74 169 128 277 164 68 23 94 26 217 26 119 0 151 -3 210 -22
77 -25 197 -87 240 -123 57 -49 111 -106 143 -150 l33 -46 102 -6 c56 -3 121
-13 145 -21 43 -15 43 -15 36 7 -4 12 -20 49 -37 82 -127 254 -342 426 -635
506 -99 28 -317 35 -407 15z m200 -76 c3 -5 -2 -10 -11 -10 -16 0 -16 -1 1
-14 11 -8 16 -19 12 -30 -7 -17 -37 -23 -37 -6 0 6 7 10 15 10 8 0 15 5 15 10
0 6 -7 10 -15 10 -8 0 -15 6 -15 13 0 25 23 36 35 17z m-118 -45 l-13 -38 -22
34 c-11 18 -19 36 -16 39 3 3 10 -3 15 -13 13 -23 25 -21 32 5 4 12 9 20 12
17 3 -3 -1 -23 -8 -44z m58 14 c16 -30 16 -31 -6 -24 -14 5 -24 2 -30 -6 -14
-24 -19 -4 -7 29 15 40 23 40 43 1z m191 16 c11 -8 13 -19 8 -39 -6 -26 -8
-27 -19 -13 -15 21 -25 22 -25 3 0 -10 -8 -12 -32 -7 -35 7 -54 30 -45 55 8
19 87 20 113 1z m-295 -33 c12 -17 16 -32 10 -32 -6 0 -11 5 -11 10 0 17 -28
11 -40 -7 -10 -15 -11 -14 -6 7 3 14 6 33 6 43 0 26 17 17 41 -21z m-61 -20
c0 -26 -26 -40 -43 -22 -9 9 -8 11 8 8 17 -3 20 2 17 32 -1 26 0 31 8 20 5 -8
10 -25 10 -38z m445 18 c0 -18 -5 -25 -17 -24 -10 1 -18 -2 -18 -6 0 -5 -9 -8
-20 -7 -23 1 -24 6 -11 40 7 18 16 24 38 23 23 -1 28 -5 28 -26z m60 0 c11 -5
15 -9 8 -9 -6 -1 -16 -14 -22 -31 -13 -39 -24 -39 -16 1 5 22 3 34 -6 40 -19
12 8 11 36 -1z m-693 -76 c9 -19 14 -21 29 -13 12 6 19 6 19 0 0 -5 -13 -14
-30 -19 -24 -9 -31 -8 -40 6 -8 14 -9 12 -10 -10 0 -28 -13 -37 -25 -18 -3 6
-11 10 -18 10 -8 0 -8 -3 1 -12 7 -7 12 -17 12 -22 -1 -6 -11 1 -23 16 -16 20
-26 25 -37 18 -12 -7 -11 -13 10 -34 13 -15 19 -26 13 -26 -5 0 -18 9 -27 19
-10 11 -24 17 -32 14 -11 -4 -10 -10 6 -31 11 -14 18 -28 15 -31 -4 -3 -10 0
-14 7 -12 19 -33 -11 -25 -34 6 -16 3 -15 -19 5 -27 25 -39 53 -13 32 17 -14
39 9 31 32 -4 9 5 23 22 36 15 11 34 26 41 31 9 8 18 7 34 -5 32 -22 38 -19
38 18 0 40 26 47 42 11z m886 -26 c20 -20 13 -32 -8 -13 -21 19 -50 14 -50 -8
0 -13 60 -67 75 -67 3 0 3 11 -1 24 -7 31 13 44 34 21 16 -17 16 -17 0 -12
-14 5 -18 1 -18 -18 0 -18 -5 -25 -20 -25 -11 0 -20 4 -20 9 0 6 -12 16 -27
23 -28 13 -39 38 -29 64 7 17 47 19 64 2z m100 -93 c4 -20 4 -20 -13 0 -16 19
-16 19 -10 -8 7 -34 -18 -48 -43 -23 -10 9 -12 16 -5 16 7 0 15 -5 18 -10 4
-6 11 -8 16 -4 6 4 6 11 -1 19 -7 8 -9 19 -5 25 11 17 39 7 43 -15z"/>
<path d="M1194 1976 c-9 -22 4 -36 32 -36 21 0 25 4 22 23 -4 26 -45 37 -54
13z"/>
<path d="M1270 1970 c0 -5 7 -10 16 -10 8 0 12 5 9 10 -3 6 -10 10 -16 10 -5
0 -9 -4 -9 -10z"/>
<path d="M1356 1963 c-11 -11 -6 -23 9 -23 8 0 15 4 15 9 0 13 -16 22 -24 14z"/>
<path d="M970 1780 c-207 -57 -363 -183 -455 -368 -28 -55 -64 -170 -65 -204
0 -22 255 12 390 52 41 12 181 57 310 100 261 88 368 115 483 126 l77 7 -27
36 c-49 65 -67 82 -133 131 -83 61 -155 96 -252 120 -97 25 -237 25 -328 0z
m564 -240 c9 -22 16 -43 16 -45 0 -3 -175 -5 -389 -5 l-390 0 4 -32 c2 -18 6
-66 9 -106 l5 -73 -47 3 -47 3 -7 80 c-4 44 -9 91 -12 105 -3 20 3 30 35 52
21 15 39 35 39 43 0 13 48 15 384 15 l384 0 16 -40z"/>
<path d="M748 1333 c-11 -3 -18 -13 -17 -26 1 -17 2 -18 6 -4 2 9 9 15 14 11
5 -3 7 -10 4 -15 -4 -5 -2 -9 4 -9 15 0 23 18 11 25 -6 4 -8 11 -5 16 4 5 5 8
3 8 -2 -1 -11 -3 -20 -6z"/>
<path d="M1558 1293 c-20 -5 -22 -14 -37 -117 -10 -69 -27 -95 -63 -96 -14 0
-18 8 -18 34 0 41 15 86 30 86 5 0 10 -7 10 -16 0 -9 6 -14 13 -11 21 7 14 42
-9 45 -52 7 -106 -79 -90 -143 7 -28 42 -34 79 -13 12 7 35 13 52 13 28 0 30
2 40 64 14 86 35 94 35 13 0 -52 3 -62 20 -67 12 -4 28 -1 36 6 9 7 34 12 56
10 47 -2 88 28 88 66 0 13 4 23 9 23 4 0 6 -11 3 -25 -6 -35 23 -65 63 -65 36
0 65 26 65 58 0 11 5 24 10 27 6 4 10 -12 10 -40 0 -39 4 -47 25 -57 20 -9 28
-9 38 1 9 9 9 14 -2 20 -14 9 -13 42 5 142 5 28 3 37 -11 43 -25 9 -32 1 -39
-49 -8 -49 -25 -58 -41 -22 -14 31 -68 36 -92 8 -22 -26 -39 -27 -46 -1 -4 15
-14 20 -39 20 -45 0 -78 -35 -85 -89 -9 -64 -31 -52 -29 17 l1 57 -37 -1 c-36
-1 -36 -1 -31 32 3 19 4 33 2 33 -2 -1 -12 -3 -21 -6z m210 -101 c2 -42 -18
-79 -36 -68 -17 10 -15 52 3 87 20 37 31 31 33 -19z m146 6 c7 -37 -16 -80
-39 -72 -18 7 -19 43 -3 79 15 34 34 32 42 -7z"/>
<path d="M1290 1247 c-13 -7 -29 -25 -34 -40 -9 -26 -7 -32 32 -67 23 -22 42
-48 42 -59 0 -25 -28 -53 -49 -49 -22 4 -27 39 -7 50 20 11 21 28 1 28 -19 0
-55 -40 -55 -62 0 -9 11 -24 23 -33 47 -30 137 25 137 84 0 31 -13 50 -52 74
-31 20 -38 61 -12 71 22 9 37 -3 31 -25 -6 -23 18 -26 27 -4 15 41 -31 59 -84
32z"/>
<path d="M1055 1108 c-80 -28 -102 -53 -107 -124 -2 -21 -9 -39 -17 -42 -11
-4 -13 5 -9 44 3 27 4 55 1 62 -5 14 -49 16 -57 3 -3 -5 -14 -7 -24 -5 -30 7
-42 -10 -48 -74 -4 -35 -11 -65 -16 -68 -19 -12 -25 12 -19 69 7 58 2 67 -28
48 -7 -5 -16 -35 -20 -67 -5 -47 -10 -59 -25 -62 -17 -4 -18 0 -13 34 4 22 9
66 13 98 6 54 6 59 -10 53 -10 -4 -22 -7 -27 -7 -5 0 -9 -14 -9 -32 0 -63 -22
-158 -36 -158 -17 0 -17 7 -3 105 6 42 9 79 7 81 -2 2 -13 1 -25 -2 -17 -5
-22 -16 -28 -60 -3 -30 -9 -54 -12 -54 -3 0 -16 11 -29 25 -30 32 -49 32 -85
-4 -22 -22 -29 -39 -29 -68 0 -45 14 -63 48 -63 39 0 61 18 72 60 13 49 34 54
25 7 -5 -24 -2 -39 9 -50 16 -15 51 -13 62 4 3 5 14 4 25 -1 13 -8 25 -7 42 1
12 7 40 13 62 14 80 4 95 18 95 91 0 37 25 77 34 54 3 -8 5 -35 3 -60 -2 -42
0 -45 24 -48 14 -2 31 3 37 11 7 8 23 12 37 9 21 -4 23 -7 14 -24 -23 -44 18
-65 61 -30 17 14 24 34 30 94 5 43 12 93 16 113 7 37 5 38 -41 23z m-11 -70
c-12 -74 -37 -103 -50 -54 -7 30 20 96 41 96 12 0 14 -8 9 -42z m-548 -100 c3
-42 -16 -74 -40 -65 -20 8 -20 27 -1 73 18 44 36 40 41 -8z m520 -46 c-14 -14
-16 -14 -16 -1 0 20 23 44 29 28 2 -6 -4 -18 -13 -27z"/>
<path d="M730 1085 c-22 -27 12 -49 38 -23 8 8 9 15 1 25 -15 17 -24 16 -39
-2z"/>
<path d="M232 1063 c-28 -14 -33 -21 -30 -46 4 -42 28 -48 28 -7 0 26 6 33 35
45 51 22 87 6 83 -37 -2 -22 -9 -34 -21 -36 -16 -3 -18 2 -15 30 2 28 -1 33
-19 36 -24 4 -26 -2 -38 -88 -3 -25 -8 -60 -11 -77 -6 -30 -4 -33 19 -33 23 0
25 5 32 56 5 44 10 55 23 52 13 -3 17 -15 17 -58 0 -47 3 -55 20 -58 18 -2 20
4 23 57 2 34 -1 62 -7 66 -7 4 -5 14 5 30 20 31 6 59 -37 74 -43 15 -68 14
-107 -6z"/>
<path d="M1700 923 c-108 -16 -222 -43 -385 -88 -168 -47 -263 -71 -450 -115
-27 -7 -102 -18 -165 -24 l-115 -12 74 -73 c226 -221 594 -254 861 -77 86 56
183 167 228 257 22 46 44 96 48 112 6 26 5 27 -32 26 -22 -1 -50 -3 -64 -6z"/>
<path d="M1812 819 c-22 -64 -110 -186 -181 -251 -79 -73 -208 -144 -316 -173
-94 -26 -264 -26 -355 -1 -144 41 -300 138 -383 239 l-36 44 -103 8 c-57 4
-122 10 -145 15 -24 4 -43 5 -43 2 0 -17 80 -147 125 -203 128 -159 296 -268
510 -332 60 -19 95 -21 255 -21 173 0 191 2 275 28 100 30 206 84 299 150 140
100 289 296 331 434 6 21 4 22 -58 22 -47 0 -76 -6 -110 -23 l-46 -24 -3 61
-3 61 -13 -36z m-1214 -349 c5 -13 3 -13 -14 0 -17 14 -18 14 -6 -2 19 -24 7
-41 -19 -28 -10 6 -19 16 -19 22 0 7 5 7 14 -1 12 -10 13 -8 9 9 -5 17 -2 21
12 19 10 -2 21 -11 23 -19z m1137 9 c4 -6 4 -13 0 -17 -4 -4 -10 -1 -12 6 -9
25 -25 12 -18 -15 5 -23 4 -26 -6 -15 -21 20 -32 14 -24 -15 4 -16 4 -25 0
-21 -4 3 -15 -2 -26 -13 -10 -10 -25 -16 -34 -13 -22 9 -15 48 9 52 10 2 30
17 43 33 25 29 56 38 68 18z m-1089 -44 c6 -14 8 -13 21 2 13 16 14 16 9 1 -2
-9 2 -19 10 -22 8 -3 14 -12 14 -20 0 -9 7 -12 19 -9 13 3 24 -2 32 -15 7 -11
19 -17 29 -15 10 3 24 -2 31 -10 12 -12 15 -12 26 2 10 13 11 9 3 -19 -6 -19
-10 -36 -10 -38 0 -2 -6 0 -12 5 -7 4 -20 8 -28 8 -8 0 -19 10 -25 22 -8 15
-15 19 -22 12 -13 -13 -43 -1 -43 17 0 9 -6 11 -17 7 -16 -6 -16 -5 -4 11 11
13 12 19 2 29 -10 9 -16 8 -27 -8 l-16 -20 2 20 c1 11 2 26 1 33 -1 17 -31 15
-31 -3 0 -8 5 -15 10 -15 6 0 10 -4 10 -10 0 -14 -28 -1 -34 17 -3 8 -4 19 0
24 9 15 44 10 50 -6z m932 -46 c-24 -14 -23 -33 2 -26 22 6 28 -8 8 -16 -20
-7 -38 4 -38 22 0 22 9 31 29 31 14 -1 13 -2 -1 -11z m-51 -63 c-4 -9 -14 -16
-24 -16 -15 0 -16 2 -3 10 27 17 -11 11 -40 -6 -14 -8 -17 -13 -7 -10 9 3 17
1 17 -4 0 -6 -12 -10 -26 -10 -27 0 -78 -33 -67 -44 3 -3 1 -6 -5 -6 -7 0 -12
9 -12 21 0 19 -1 19 -16 5 -8 -9 -22 -16 -30 -16 -22 0 -29 29 -11 47 13 13
19 14 31 4 13 -11 17 -10 22 3 7 19 35 21 52 4 9 -9 12 -7 12 9 0 25 18 34 43
21 12 -6 17 -5 17 6 0 8 6 16 13 19 18 7 41 -19 34 -37z m-627 -14 c-8 -3 -21
-12 -28 -21 -12 -14 -13 -14 -8 2 3 10 6 22 6 27 0 4 10 6 22 2 16 -4 18 -7 8
-10z m91 -29 c-2 -21 -6 -32 -8 -26 -3 9 -10 10 -22 3 -24 -12 -57 11 -48 34
7 19 38 21 55 4 9 -9 12 -8 12 5 0 9 4 17 8 17 4 0 6 -17 3 -37z m27 1 c-2
-36 -18 -60 -18 -27 0 22 11 63 16 63 3 0 4 -16 2 -36z m24 -9 c-2 -19 -6 -35
-8 -35 -2 0 -4 16 -4 35 0 19 4 35 8 35 4 0 6 -16 4 -35z m238 15 c0 -5 -5 -9
-11 -7 -6 1 -14 -4 -16 -10 -3 -7 2 -13 11 -13 9 0 16 -4 16 -10 0 -15 -26
-12 -40 5 -10 12 -10 18 0 30 14 17 40 20 40 5z m-112 -38 c4 -35 -14 -50 -45
-37 -12 5 -14 9 -5 12 6 3 10 9 7 13 -3 5 -12 7 -20 3 -10 -3 -15 2 -15 16 0
28 -14 27 -28 -1 -10 -23 -11 -23 -11 4 -1 27 0 27 57 25 57 -2 57 -2 60 -35z
m38 29 c-19 -7 -19 -8 2 -13 31 -9 27 -28 -5 -27 -25 0 -26 1 -8 9 17 7 17 9
3 9 -10 1 -18 8 -18 16 0 9 9 15 23 14 20 0 21 -1 3 -8z"/>
<path d="M1615 409 c-10 -15 1 -23 20 -15 9 3 13 10 10 16 -8 13 -22 13 -30
-1z"/>
<path d="M716 373 c-12 -12 -5 -23 14 -23 11 0 20 4 20 9 0 11 -26 22 -34 14z"/>
<path d="M777 344 c-13 -13 -7 -24 14 -24 11 0 19 5 17 12 -5 14 -22 21 -31
12z"/>
<path d="M1370 295 c0 -8 7 -15 15 -15 8 0 15 7 15 15 0 8 -7 15 -15 15 -8 0
-15 -7 -15 -15z"/>
<path d="M1307 284 c-11 -11 3 -24 18 -18 8 4 12 10 9 15 -6 11 -18 12 -27 3z"/>
<path d="M930 286 c0 -9 7 -16 16 -16 17 0 14 22 -4 28 -7 2 -12 -3 -12 -12z"/>
<path d="M1125 270 c-3 -6 1 -13 10 -16 19 -8 30 0 20 15 -8 14 -22 14 -30 1z"/>
</g>
</svg>
