<?xml version="1.0" standalone="no"?>
<!DOCTYPE svg PUBLIC "-//W3C//DTD SVG 20010904//EN"
 "http://www.w3.org/TR/2001/REC-SVG-20010904/DTD/svg10.dtd">
<svg version="1.0" xmlns="http://www.w3.org/2000/svg"
 width="225.000000pt" height="225.000000pt" viewBox="0 0 225.000000 225.000000"
 preserveAspectRatio="xMidYMid meet">

<g transform="translate(0.000000,225.000000) scale(0.100000,-0.100000)"
fill="#000000" stroke="none">
<path d="M1485 2039 c-232 -27 -405 -214 -422 -456 l-6 -83 -51 6 c-79 10
-223 50 -306 84 -157 65 -339 193 -441 311 -69 78 -88 78 -122 2 -35 -81 -51
-165 -43 -241 8 -77 44 -180 80 -226 34 -45 33 -50 -5 -31 -50 26 -73 17 -77
-30 -10 -108 55 -252 154 -344 61 -58 63 -60 36 -63 -21 -2 -28 -9 -30 -30 -5
-42 54 -146 119 -210 55 -53 166 -118 203 -118 35 0 13 -21 -56 -54 -124 -59
-206 -78 -362 -82 -77 -2 -144 -8 -149 -13 -30 -30 71 -100 238 -165 173 -66
291 -87 485 -87 197 1 364 33 523 102 442 193 736 629 773 1143 l7 99 74 70
c80 76 143 156 143 180 0 30 -31 36 -82 16 -63 -25 -74 -24 -54 4 36 48 78
146 71 167 -9 28 -35 25 -115 -15 -37 -19 -95 -42 -128 -51 l-59 -16 -54 41
c-95 72 -217 104 -344 90z"/>
</g>
</svg>
