<svg xmlns="http://www.w3.org/2000/svg">
<defs>
<font id="Aleo-Regular" horiz-adv-x="0" >
  <font-face 
    font-family="Aleo"
    font-weight="400"
    font-stretch="normal"
    units-per-em="1000"
    panose-1="0 0 5 0 0 0 0 0 0 0"
    ascent="805"
    descent="-195"
    x-height="506"
    cap-height="716"
    bbox="-674 -314.003 1108 934.001"
    underline-thickness="60"
    underline-position="20"
    unicode-range="U+000D-U+FB02"
  />
<missing-glyph horiz-adv-x="594" 
d="M538 0h-486v716h486v-716zM510 689h-434v-662h434v662zM182 590c2.66699 2 7.1709 4.8291 13.5039 8.49609s12.166 6.83398 17.499 9.50098c12.667 5.33301 25 9.33301 37 12c11.333 2.66699 25.666 4 42.999 4c20.667 0 39.667 -3 57 -9c16 -6 30.667 -14.333 44 -25
c11.333 -9.33301 20.666 -22 27.999 -38c6.66699 -14 10 -30.667 10 -50c0 -18.667 -2.33301 -34.667 -7 -48c-5.33301 -14.667 -11.666 -26.667 -18.999 -36c-8.66699 -11.333 -16.667 -19.666 -24 -24.999l-26 -20c-2.66699 -2 -9.33398 -8.33301 -20.001 -19
c-6 -6 -10 -12.667 -12 -20l-8 -52h-61l-6 58l-1 8c0 6.66699 2 14 6 22c4.66699 10 10.667 18 18 24c12.667 11.333 20.667 18 24 20c10 6.66699 18.667 13.667 26 21c8 8.66699 14.667 17 20 25c5.33301 8.66699 8 20.334 8 35.001c0 17.333 -6 31 -18 41
c-11.333 9.33301 -26.666 14 -45.999 14c-14.667 0 -26.334 -1.33301 -35.001 -4c-10.667 -3.33301 -18.667 -6.66602 -24 -9.99902c-2.66699 -2 -5.5 -3.83301 -8.5 -5.5s-5.83301 -3.16699 -8.5 -4.5c-3.33301 -2.66699 -7.33301 -4 -12 -4
c-8.66699 0 -14.667 3.33301 -18 10l-24 38h-2c5.33301 5.33301 14.666 12 27.999 20zM242.004 184.996c10.667 10.667 23.9971 16 39.9971 16c7.33301 0 14.333 -1.66699 21 -5s12.334 -7.33301 17.001 -12c5.33301 -5.33301 9.33301 -11.333 12 -18
c3.33301 -8 5 -15 5 -21c0 -7.33301 -1.66699 -14.333 -5 -21c-4 -8 -8 -14 -12 -18c-5.33301 -5.33301 -10.666 -9.33301 -15.999 -12s-12.666 -4 -21.999 -4c-15.333 0 -28.333 5.33301 -39 16c-10 10 -15 23 -15 39l-1 1c0 16 5 29 15 39z" />
    <glyph glyph-name="fi" unicode="fi" horiz-adv-x="597" 
d="M573 43v-43.001h-233v43c0 10.667 5 17 15 19l57 11v359h-214v-359c36.667 -5.33301 58.667 -9 66 -11c10 -2 15 -8.33301 15 -19v-43h-249v43c0 10.667 5.33301 17 16 19l36 6c-1.33301 -0.666992 7.33398 1 26.001 5v357l-56 7c-16 4 -24 11.667 -24 23v36h80v28
c0 62.667 19.333 113.334 58 152.001c39.333 37.333 96.666 57 171.999 59c62 0 113.333 -15.667 154 -47c18.667 -14.667 28 -32 28 -52c0 -17.333 -6.66699 -32 -20 -44c-12 -12 -24.667 -18 -38 -18c-14.667 0 -24.667 1.33301 -30 4c-8 4 -14.667 8.66699 -20 14
c-12 12 -18 26.667 -18 44c0 9.33301 0.666992 16 2 20c-20.667 7.33301 -40.667 11 -60 11c-10.667 0 -21 -1 -31 -3c-29.333 -6 -52.333 -16.667 -69 -32c-27.333 -24 -41 -60.667 -41 -110v-26h306v-423l57 -11c10 -2 15 -8.33301 15 -19z" />
    <glyph glyph-name="fl" unicode="fl" horiz-adv-x="654" 
d="M522 723l0.000976562 -587.999c0 -25.333 5.66699 -44.333 17 -57c11.333 -12 29.666 -18 54.999 -18h20c4.66699 0 8.33398 -0.666992 11.001 -2c3.33301 -3.33301 5 -6 5 -8l4 -48c-20 -6.66699 -40.667 -10 -62 -10c-46.667 0 -82 14 -106 42
c-22.667 26 -34 60 -34 102v527h-101c-42.667 0 -76.334 -12.333 -101.001 -37c-22.667 -22.667 -34 -57.334 -34 -104.001v-26h132v-64h-130v-359c36.667 -5.33301 58.667 -9 66 -11c10.667 -2 16 -8.33301 16 -19v-43h-249v43c0 10.667 5 17 15 19l62 12v350l-56 8
c-16 4 -24 12 -24 24v40h80v28c0 58 17.333 106.333 52 145c38.667 40.667 90.667 61 156 61l156 -7h50z" />
    <glyph glyph-name=".notdef" horiz-adv-x="594" 
d="M538 0h-486v716h486v-716zM510 689h-434v-662h434v662zM182 590c2.66699 2 7.1709 4.8291 13.5039 8.49609s12.166 6.83398 17.499 9.50098c12.667 5.33301 25 9.33301 37 12c11.333 2.66699 25.666 4 42.999 4c20.667 0 39.667 -3 57 -9c16 -6 30.667 -14.333 44 -25
c11.333 -9.33301 20.666 -22 27.999 -38c6.66699 -14 10 -30.667 10 -50c0 -18.667 -2.33301 -34.667 -7 -48c-5.33301 -14.667 -11.666 -26.667 -18.999 -36c-8.66699 -11.333 -16.667 -19.666 -24 -24.999l-26 -20c-2.66699 -2 -9.33398 -8.33301 -20.001 -19
c-6 -6 -10 -12.667 -12 -20l-8 -52h-61l-6 58l-1 8c0 6.66699 2 14 6 22c4.66699 10 10.667 18 18 24c12.667 11.333 20.667 18 24 20c10 6.66699 18.667 13.667 26 21c8 8.66699 14.667 17 20 25c5.33301 8.66699 8 20.334 8 35.001c0 17.333 -6 31 -18 41
c-11.333 9.33301 -26.666 14 -45.999 14c-14.667 0 -26.334 -1.33301 -35.001 -4c-10.667 -3.33301 -18.667 -6.66602 -24 -9.99902c-2.66699 -2 -5.5 -3.83301 -8.5 -5.5s-5.83301 -3.16699 -8.5 -4.5c-3.33301 -2.66699 -7.33301 -4 -12 -4
c-8.66699 0 -14.667 3.33301 -18 10l-24 38h-2c5.33301 5.33301 14.666 12 27.999 20zM242.004 184.996c10.667 10.667 23.9971 16 39.9971 16c7.33301 0 14.333 -1.66699 21 -5s12.334 -7.33301 17.001 -12c5.33301 -5.33301 9.33301 -11.333 12 -18
c3.33301 -8 5 -15 5 -21c0 -7.33301 -1.66699 -14.333 -5 -21c-4 -8 -8 -14 -12 -18c-5.33301 -5.33301 -10.666 -9.33301 -15.999 -12s-12.666 -4 -21.999 -4c-15.333 0 -28.333 5.33301 -39 16c-10 10 -15 23 -15 39l-1 1c0 16 5 29 15 39z" />
    <glyph glyph-name="nonmarkingreturn" unicode="&#xd;" horiz-adv-x="131" 
 />
    <glyph glyph-name="space" unicode=" " horiz-adv-x="215" 
 />
    <glyph glyph-name="exclam" unicode="!" horiz-adv-x="194" 
d="M138 386c0 -10.667 -0.668945 -25.333 -2.00195 -44c-1.33301 -20 -2.66602 -34.667 -3.99902 -44c-1.33301 -10.667 -2 -18.667 -2 -24l-2 -24h-61l-5 48c-1.33301 8.66699 -2.66602 23.667 -3.99902 45c-1.33301 18.667 -2 33 -2 43v330h84l-2 -286v-44zM36.998 78.001
c2.66699 7.33301 7 14 13 20c4 4 10.667 8.33301 20 13c6.66699 3.33301 14.667 5 24 5s17.333 -1.66699 24 -5c8 -4 14.333 -8.33301 19 -13c6 -6 10.333 -12.667 13 -20s4 -15.333 4 -24s-1.33301 -16.667 -4 -24s-7 -14 -13 -20s-12.333 -10.333 -19 -13
c-8.66699 -3.33301 -16.667 -5 -24 -5s-15.333 1.66699 -24 5c-7.33301 2.66699 -14 7 -20 13s-10.333 12.667 -13 20c-3.33301 8.66699 -5 16.667 -5 24s1.66699 15.333 5 24z" />
    <glyph glyph-name="quotedbl" unicode="&#x22;" horiz-adv-x="330" 
d="M113 494c-0.666992 -9.33301 -3.66602 -17.666 -8.99902 -24.999c-4 -6 -11.333 -9 -22 -9c-8.66699 0 -15.334 3 -20.001 9c-4.66699 5.33301 -8 13.666 -10 24.999l-8 78v144h77v-145zM280.001 493c-0.666992 -9.33301 -3.66602 -17.667 -8.99902 -25
c-3.33301 -5.33301 -11 -8 -23 -8c-8.66699 0 -15.334 2.66699 -20.001 8c-4 5.33301 -7.33301 14 -10 26l-8 77v145h78v-146z" />
    <glyph glyph-name="numbersign" unicode="#" horiz-adv-x="569" 
d="M308 -2c-7.33301 0 -14.001 3.00195 -20.001 9.00195c-5.33301 5.33301 -8 12.666 -8 21.999v4l1 4l35 173h-123l-35 -178c-2 -12 -7.33301 -20.667 -16 -26c-7.33301 -4.66699 -15.666 -7 -24.999 -7h-39l42 211h-73c-8 0 -14 2 -18 6
c-4.66699 4.66699 -7 11.334 -7 20.001v6c0 1.33301 0.333008 2.33301 1 3s1 1.66699 1 3l4 28h102l32 164h-116l6 36c2 10.667 6 18 12 22s15.333 6 28 6h80l36 180c2 9.33301 6.33301 17 13 23c7.33301 6 15.666 9 24.999 9h40l-42 -212h124l42 212h40
c6.66699 0 13.334 -2.66699 20.001 -8c6 -4.66699 9 -11.334 9 -20.001l-1 -6l-36 -177h106l-6 -37c-2 -10.667 -6 -18 -12 -22s-15.333 -6 -28 -6h-69l-33 -163h90c8 0 14 -2 18 -6c4.66699 -4.66699 7 -11.334 7 -20.001v-5l-1 -6l-4 -28h-118l-44 -214h-40z
M357.999 438.002h-123l-33 -162h124z" />
    <glyph glyph-name="dollar" unicode="$" horiz-adv-x="515" 
d="M100 21c-32.667 16 -61 36.3281 -85 60.9951l27 42c1.33301 2.66699 4.66602 5.33398 9.99902 8.00098s10 4 14 4c5.33301 0 12.333 -3.33301 21 -10c13.333 -10 23 -17 29 -21c8 -5.33301 22 -13 42 -23c17.333 -8.66699 36.666 -14 57.999 -16l18 266
c-22 6 -44.667 14 -68 24c-24 10 -44.333 21.333 -61 34c-17.333 13.333 -31.666 31.333 -42.999 54s-17 49.667 -17 81c0 24.667 5 48.334 15 71.001c10.667 24.667 24.334 45.334 41.001 62.001c16 16 38.333 30.667 67 44c24 11.333 54.667 18 92 20l4 72
c0 4.66699 2.66699 10.334 8 17.001c4 4.66699 10 7 18 7h33l-7 -98c32 -4 62 -13.333 90 -28c27.333 -14.667 50 -31 68 -49l-21 -33c-6 -10 -13.667 -15 -23 -15c-3.33301 0 -8.66602 2 -15.999 6l-25 15c-6 3.33301 -11.833 6.33301 -17.5 9s-10.834 5 -15.501 7
c-11.333 6 -26 10 -44 12l-16 -242l71 -24c24 -8 45 -19 63 -33s33 -31 45 -51c11.333 -18.667 17 -44 17 -76c0 -32.667 -4.66699 -61 -14 -85c-10 -25.333 -24.667 -48.333 -44 -69c-20 -21.333 -43.333 -37.666 -70 -48.999c-28 -12 -60 -19 -96 -21l-6 -88
c0 -6 -2.33301 -12 -7 -18c-4 -4.66699 -9.66699 -7 -17 -7h-33l7 113l-2 -2c-42 4 -78.667 13.667 -110 29zM137 490.995c6 -12.667 13.6689 -23 23.002 -31c12 -10.667 24 -18.667 36 -24c23.333 -10 37.666 -16 42.999 -18l15 226
c-16.667 -1.33301 -35.334 -6 -56.001 -14c-16 -6 -29 -14 -39 -24s-17.667 -21.333 -23 -34c-4.66699 -11.333 -7 -24.333 -7 -39h-1c0 -16 3 -30 9 -42zM398.002 243.995c-5.33301 11.333 -13.998 21.667 -25.998 31c-12.667 10 -25 17.667 -37 23
c-4.66699 2 -20.334 8 -47.001 18l-16 -250c21.333 2 40.666 7 57.999 15c16.667 8 30.667 17.667 42 29c12 12 20.667 25.333 26 40c6 16 9 33 9 51h-1c0 18 -2.66699 32.333 -8 43z" />
    <glyph glyph-name="percent" unicode="%" horiz-adv-x="765" 
d="M332 468c-6.66699 -19.333 -18.334 -37.665 -35.001 -54.998c-14.667 -15.333 -31.667 -27 -51 -35c-20 -8 -40 -12 -60 -12c-22.667 0 -43.667 4 -63 12s-36 19.667 -50 35s-25 33.666 -33 54.999c-8 22 -12 47.333 -12 76s4 54 12 76s19 41 33 57
c12.667 14 29.667 25.667 51 35c19.333 8 40 12 62 12s43 -4 63 -12c20.667 -8.66699 37.667 -20.334 51 -35.001c12.667 -14.667 23.334 -33.667 32.001 -57c8 -22 12 -47.333 12 -76s-4 -54 -12 -76zM608 712.001c4.66699 2.66699 11 4 19 4h64l-523 -702
c-5.33301 -5.33301 -9.33301 -8.66602 -12 -9.99902c-5.33301 -2.66699 -11 -4 -17 -4h-66l521 698v1c3.33301 5.33301 8 9.66602 14 12.999zM267 600.001c-3.33301 14 -9.66602 26.666 -18.999 37.999c-8 10 -17.333 17 -28 21c-12.667 4.66699 -24.667 7 -36 7
c-10 0 -21.333 -2.33301 -34 -7c-11.333 -4 -21 -11 -29 -21c-9.33301 -11.333 -15.666 -24 -18.999 -38c-4 -16 -6 -34.667 -6 -56c0 -20 2.33301 -38.667 7 -56c3.33301 -12 9.66602 -24 18.999 -36c8 -10 17.333 -17 28 -21c11.333 -4 23.333 -6 36 -6
c12 0 23.333 2 34 6c11.333 4 21 11 29 21c9.33301 12 15.666 24 18.999 36c4.66699 17.333 7 36 7 56h-1c0 18.667 -2.33301 37.334 -7 56.001zM724 94c-7.33301 -20 -18.667 -38.3301 -34 -54.9971c-14 -14.667 -31 -26.334 -51 -35.001c-18.667 -8 -38.667 -12 -60 -12
c-22.667 0 -43.667 4 -63 12s-36 19.667 -50 35s-25 33.666 -33 54.999c-8 22 -12 47.333 -12 76s4 54 12 76s19 41 33 57c12.667 14 29.667 25.667 51 35c19.333 8 40.333 12 63 12c21.333 0 42 -4 62 -12c22 -8.66699 39.333 -20.334 52 -35.001c14 -16 25 -35 33 -57
s12 -47.333 12 -76h-2c0 -26.667 -4.33301 -52 -13 -76zM659.999 225.003c-3.33301 12.667 -9.66309 24.999 -18.9961 36.999c-8.66699 10.667 -18.334 18 -29.001 22s-22 6 -34 6c-12.667 0 -24.667 -2 -36 -6c-10 -3.33301 -19.333 -10.666 -28 -21.999
c-8.66699 -10.667 -14.667 -23 -18 -37c-4.66699 -18.667 -7 -37.334 -7 -56.001c0 -19.333 2.33301 -37.666 7 -54.999c3.33301 -12 9.66602 -24 18.999 -36c8 -10 17.667 -17 29 -21s22.666 -6 33.999 -6c13.333 0 25.333 2 36 6s20 11 28 21
c9.33301 12 15.666 24 18.999 36c4.66699 17.333 7 36 7 56l-1 -2c0 19.333 -2.33301 38.333 -7 57z" />
    <glyph glyph-name="ampersand" unicode="&#x26;" horiz-adv-x="700" 
d="M382 710c20.667 -7.33301 39.6699 -18.665 57.0029 -33.998c15.333 -13.333 27.666 -29.333 36.999 -48c8.66699 -16.667 14 -36 16 -58l-55 -11l-5 -1c-2.66699 0 -6.66699 1.33301 -12 4c-3.33301 1.33301 -6 5.33301 -8 12c-2 8 -5.66699 17.333 -11 28
c-4 8 -10.333 16.333 -19 25c-7.33301 7.33301 -17.333 13.666 -30 18.999s-26 8 -40 8c-18 0 -33.333 -2.66699 -46 -8s-24 -13 -34 -23s-17.333 -21 -22 -33c-5.33301 -14 -8 -28 -8 -42c0 -11.333 1.66699 -22.666 5 -33.999c3.33301 -12 7.66602 -22.667 12.999 -32
c4.66699 -8.66699 12 -19.667 22 -33c8 -10.667 18.667 -22.667 32 -36l206 -209c11.333 20.667 21.333 44 30 70s14 50.667 16 74c0 5.33301 2 10 6 14s8.66699 6 14 6h54c0 -38 -6 -75.667 -18 -113c-12.667 -39.333 -29.334 -74 -50.001 -104l150 -152h-86
c-10 0 -18 1 -24 3c-4 1.33301 -10.667 6.66602 -20 15.999l-72 72c-32.667 -30.667 -68.667 -54.667 -108 -72s-84.333 -26 -135 -26c-26.667 0 -52.667 4.33301 -78 13c-26 9.33301 -49 22.333 -69 39s-36 37.334 -48 62.001c-12 24 -18 52 -18 84
c0 23.333 4 45.333 12 66c8.66699 22 19.334 41.333 32.001 58c13.333 17.333 30 33.333 50 48c18.667 13.333 39.334 25.333 62.001 36c-18.667 24 -33.334 49 -44.001 75c-10 24 -15 49 -15 75c0 25.333 4.33301 48.666 13 69.999c8 19.333 21 38 39 56
c15.333 15.333 35.666 27.666 60.999 36.999c23.333 8.66699 50 13 80 13l-4 -2c26 0 50 -4 72 -12zM125.003 140.001c8 -16.667 18.334 -30.667 31.001 -42c11.333 -10 26.333 -18.667 45 -26c16 -6 33 -9 51 -9c36.667 0 70 7 100 21s56 32 78 54l-211 213
c-34.667 -18 -61.334 -40.667 -80.001 -68c-18 -26 -27 -55 -27 -87l1 1c0 -22 4 -41 12 -57z" />
    <glyph glyph-name="quotesingle" unicode="'" horiz-adv-x="164" 
d="M113 494c-0.666992 -9.33301 -3.66602 -17.666 -8.99902 -24.999c-4 -6 -11.333 -9 -22 -9c-8.66699 0 -15.334 3 -20.001 9c-4.66699 5.33301 -8 13.666 -10 24.999l-8 78v144h77v-145z" />
    <glyph glyph-name="parenleft" unicode="(" horiz-adv-x="240" 
d="M136 106c17.333 -64.667 43.668 -128.67 79.001 -192.003c2.66699 -5.33301 4 -8.33301 4 -9l1 -7c0 -4 -1.33301 -8 -4 -12s-5.33398 -6.66699 -8.00098 -8l-40 -24c-24 36 -45.333 74 -64 114c-15.333 32.667 -29.333 70.667 -42 114c-10.667 38 -18.667 76 -24 114
c-5.33301 40.667 -8 80.334 -8 119.001s2.66699 78.334 8 119.001c5.33301 38 13.333 76 24 114c12.667 43.333 26.667 81.333 42 114c18.667 40 40 78 64 114l40 -24c4 -2 7 -4.66699 9 -8c2 -2.66699 3 -6.66699 3 -12c0 -7.33301 -1.33301 -13 -4 -17
c-35.333 -61.333 -62 -125.333 -80 -192c-18 -68 -27 -137.667 -27 -209h-1c0 -69.333 9.33301 -138.666 28 -207.999z" />
    <glyph glyph-name="parenright" unicode=")" horiz-adv-x="240" 
d="M104 522c-18 69.333 -44.333 133.338 -79 192.005c-3.33301 5.33301 -5 11 -5 17c0 3.33301 1.33301 7 4 11s5.33398 6.66699 8.00098 8l40 25c24 -36 45.333 -74 64 -114c16 -33.333 30 -71 42 -113c10.667 -38 18.667 -76 24 -114
c5.33301 -40.667 8 -80.334 8 -119.001s-2.66699 -78.334 -8 -119.001c-4.66699 -38 -12.667 -76 -24 -114c-12.667 -43.333 -26.667 -81.333 -42 -114c-18.667 -40 -40 -78 -64 -114l-39 24c-3.33301 2 -6.33301 4.66699 -9 8c-2.66699 4 -4 8 -4 12l2 8
c0 1.33301 0.5 2.66602 1.5 3.99902s1.83301 2.66602 2.5 3.99902c35.333 63.333 61.666 127.333 78.999 192c18 67.333 27 136.666 27 207.999c0 68 -9.33301 137.333 -28 208z" />
    <glyph glyph-name="asterisk" unicode="*" horiz-adv-x="368" 
d="M162 548l4.00098 15.999c-6.66699 -8.66699 -15.334 -16 -26.001 -22l-86 -50l-22 38l86 50c12 7.33301 24 11.333 36 12c-4 0 -10 1.33301 -18 4c-6 2 -12 5 -18 9l-86 51l22 37l86 -50c8.66699 -4.66699 18 -13 28 -25c-2.66699 6 -4.66699 12 -6 18
c-0.666992 4 -1 10 -1 18v100h44v-99c0 -12 -2.33301 -24 -7 -36l12 13c2 2 4.5 3.83301 7.5 5.5s5.5 3.16699 7.5 4.5l86 50l22 -38l-86 -50c-4.66699 -3.33301 -10.334 -6 -17.001 -8c-8 -2.66699 -13.333 -4 -16 -4c3.33301 0 9 -1.33301 17 -4
c6.66699 -2 12.334 -4.66699 17.001 -8l86 -50l-22 -38l-86 50c-10 6.66699 -15.333 10.334 -16 11.001c-6.66699 6.66699 -10.667 11 -12 13c5.33301 -10 8 -22 8 -36v-98h-44l-2 98c0 4 0.666992 10 2 18z" />
    <glyph glyph-name="plus" unicode="+" horiz-adv-x="534" 
d="M506 370v-68h-203v-215h-73v215h-202v68h202v213h73v-213h203z" />
    <glyph glyph-name="comma" unicode="," horiz-adv-x="208" 
d="M56 -121c-4 4 -6 8.66895 -6 14.002c0 3.33301 0.833008 6.16602 2.5 8.49902s4 5 7 8s6.5 6.83301 10.5 11.5c10.667 12.667 19.5 26 26.5 40s11.5 27 13.5 39h-6c-18 0 -32.333 6 -43 18s-16 26.333 -16 43c0 15.333 5.83301 28.666 17.5 39.999s25.5 17 41.5 17
c20.667 0 36.167 -6.66699 46.5 -20s15.5 -30.333 15.5 -51c0 -33.333 -9.16699 -66.833 -27.5 -100.5s-40.833 -61.167 -67.5 -82.5z" />
    <glyph glyph-name="hyphen" unicode="-" horiz-adv-x="341" 
d="M294 262h-246v76h246v-76z" />
    <glyph glyph-name="period" unicode="." horiz-adv-x="211" 
d="M49 78c2.66699 7.33301 7 14 13 20c5.33301 5.33301 12 10 20 14c5.33301 2.66699 13.333 4 24 4s18.667 -1.33301 24 -4c6.66699 -3.33301 13 -8 19 -14s10.333 -12.667 13 -20s4 -15.333 4 -24s-1.33301 -16.667 -4 -24s-7 -14 -13 -20
c-5.33301 -5.33301 -11.666 -9.33301 -18.999 -12c-8.66699 -3.33301 -16.667 -5 -24 -5s-15.333 1.66699 -24 5s-15.334 7.33301 -20.001 12c-6 6 -10.333 12.667 -13 20c-3.33301 8.66699 -5 16.667 -5 24s1.66699 15.333 5 24z" />
    <glyph glyph-name="slash" unicode="/" horiz-adv-x="420" 
d="M82 -36c-8 -5.33301 -17.332 -7.99902 -27.999 -7.99902h-38l301 748c4 9.33301 10.333 17.333 19 24c7.33301 5.33301 16.666 8 27.999 8h38l-299 -746h-1c-3.33301 -10.667 -10 -19.334 -20 -26.001z" />
    <glyph glyph-name="zero" unicode="0" horiz-adv-x="589" 
d="M534 195c-14.667 -48.667 -33 -86.667 -55 -114c-25.333 -31.333 -53 -53.666 -83 -66.999c-33.333 -14.667 -67.333 -22 -102 -22s-68.667 7.33301 -102 22c-30 13.333 -57.667 35.666 -83 66.999c-22 27.333 -40.333 65.333 -55 114c-13.333 44 -20 98.333 -20 163
s6.66699 119 20 163c14.667 48.667 33 86.667 55 114c25.333 31.333 53 53.666 83 66.999c33.333 14.667 67.333 22 102 22s68.667 -7.33301 102 -22c30 -13.333 57.667 -35.666 83 -66.999c22 -27.333 40.333 -65.333 55 -114c14 -46 21 -100.333 21 -163h-1
c0 -64.667 -6.66699 -119 -20 -163zM448 494c-9.33301 39.333 -21.667 69.333 -37 90c-16.667 23.333 -34.667 39.666 -54 48.999c-20 10 -41 15 -63 15c-22.667 0 -44 -5 -64 -15c-19.333 -9.33301 -37.333 -25.666 -54 -48.999c-14.667 -20 -26.667 -49.667 -36 -89
c-9.33301 -38.667 -14 -84.334 -14 -137.001c0 -53.333 4.66699 -99.333 14 -138c10 -40.667 22 -70.667 36 -90c16 -22 34 -38 54 -48s41.333 -15 64 -15s44 5 64 15c19.333 9.33301 37.333 25.666 54 48.999c14.667 20 26.667 49.667 36 89
c9.33301 38.667 14 84.334 14 137.001s-4.66699 98.334 -14 137.001z" />
    <glyph glyph-name="one" unicode="1" horiz-adv-x="465" 
d="M446 40v-40h-384v40c0 10 4.66699 16 14 18l140 10v488c0 20 0.333008 35 1 45l-128 -109c-6 -5.33301 -13 -8 -21 -8c-9.33301 0 -16.333 3.66699 -21 11l-28 39l213 184h72v-650l128 -10c9.33301 -2 14 -8 14 -18z" />
    <glyph glyph-name="two" unicode="2" horiz-adv-x="531" 
d="M24 0l0.00390625 30c0 5.33301 1.33301 12 4 20c2 6 6 12 12 18l230 230c23.333 24 40.666 42.667 51.999 56c14.667 16.667 28 34.667 40 54c9.33301 15.333 17.666 34 24.999 56c6 18 9 37.667 9 59c0 18.667 -3.33301 37 -10 55c-6.66699 16.667 -15.667 30 -27 40
c-13.333 10.667 -27 18.334 -41 23.001c-14.667 4.66699 -31.334 7 -50.001 7c-19.333 0 -36 -2.66699 -50 -8c-18 -6.66699 -31.667 -14 -41 -22c-12.667 -10.667 -22.667 -22 -30 -34s-13 -26 -17 -42c-2 -10.667 -6 -18 -12 -22s-13.333 -6 -22 -6h-4l-7 1l-47 8
c4 32 13.333 61 28 87c14 24.667 30.667 45.334 50 62.001c20.667 17.333 44.334 30.666 71.001 39.999c25.333 8.66699 53.666 13 84.999 13c32 0 60.667 -4.33301 86 -13s48 -22 68 -40s35.333 -38.667 46 -62s16 -51.333 16 -84c0 -27.333 -4 -52 -12 -74
c-9.33301 -24.667 -20 -46.334 -32 -65.001c-13.333 -20 -29.333 -40.333 -48 -61c-18 -20 -37 -40 -57 -60l-189 -192c10 2.66699 23.667 5.33398 41 8.00098c14 2 27 3 39 3h196c1.33301 16.667 2.66602 29.667 3.99902 39s2 15.333 2 18
c1.33301 5.33301 4 9.66602 8 12.999s8.33301 5 13 5h49v-98l-1 -62h-477z" />
    <glyph glyph-name="three" unicode="3" horiz-adv-x="530" 
d="M363 712c24 -7.33301 45.999 -20.001 65.999 -38.001c18.667 -16.667 33 -36 43 -58c10.667 -23.333 16 -48 16 -74c0 -22.667 -3 -43 -9 -61c-6 -17.333 -14.333 -33 -25 -47c-9.33301 -12 -22.666 -23.333 -39.999 -34c-14 -8.66699 -31.333 -16.334 -52 -23.001
c46.667 -12 82 -32.667 106 -62c23.333 -28 35 -64.333 35 -109c0 -32 -6.33301 -61.667 -19 -89c-12.667 -28 -29.334 -50.333 -50.001 -67c-23.333 -19.333 -48.666 -33.666 -75.999 -42.999c-28.667 -10 -59.667 -15 -93 -15c-39.333 0 -71.666 4.66699 -96.999 14
c-27.333 10 -50.333 23.333 -69 40s-34 36.334 -46 59.001c-12.667 24.667 -23 49.667 -31 75l38 16c6 2.66699 13.333 4 22 4c6.66699 0 12.334 -1.33301 17.001 -4c5.33301 -3.33301 9 -8 11 -14c0 -0.666992 0.333008 -1.33398 1 -2.00098s1 -1.33398 1 -2.00098
s0.333008 -1.5 1 -2.5s1 -1.83301 1 -2.5c1.33301 -3.33301 6.66602 -14.333 15.999 -33c6.66699 -13.333 15.667 -24.666 27 -33.999c10.667 -8.66699 25 -17.334 43 -26.001c17.333 -8 38 -12 62 -12c25.333 0 47.333 4 66 12c20 8.66699 36 19.334 48 32.001
c12.667 14 22 28.667 28 44c6.66699 18 10 33.667 10 47c0 18 -2.66699 35.667 -8 53c-5.33301 16.667 -14.666 30.667 -27.999 42s-32 20 -56 26c-26.667 6.66699 -57.334 10 -92.001 10v65c25.333 0 51.333 3.66699 78 11c19.333 5.33301 36.666 14 51.999 26
c14.667 11.333 24.667 24.333 30 39c6 16 9 33 9 51c0 20 -3 38 -9 54c-5.33301 14 -14.666 26.667 -27.999 38c-12 10 -25.333 17.333 -40 22c-17.333 5.33301 -34 8 -50 8c-19.333 0 -36 -2.66699 -50 -8c-18 -6.66699 -31.667 -14 -41 -22
c-12.667 -10.667 -22.667 -22 -30 -34c-8 -13.333 -14 -27.666 -18 -42.999c-2 -10 -6 -17 -12 -21s-13 -6 -21 -6h-12l-46 8c4 33.333 13 62.333 27 87s31 45.667 51 63c19.333 16.667 42.666 29.667 69.999 39c25.333 8.66699 54 13 86 13h3c30 0 58 -4 84 -12z" />
    <glyph glyph-name="four" unicode="4" horiz-adv-x="584" 
d="M563 207c0 -4 -1.66504 -8.33301 -4.99805 -13c-2.66699 -4 -7.33398 -6 -14.001 -6h-89v-188h-79v188h-317c-6.66699 0 -12.334 2 -17.001 6s-8 8.66699 -10 14l-8 46l348 462h83v-458h108v-51zM377.002 582c0 10 1 20 3 30l-260 -354h256v296z" />
    <glyph glyph-name="five" unicode="5" horiz-adv-x="507" 
d="M442 646c-8 -8 -21.333 -11.998 -40 -11.998h-226l-32 -188c38 8 72.333 12 103 12c37.333 0 70.333 -5.66699 99 -17c29.333 -11.333 53.333 -26.333 72 -45s33.334 -42 44.001 -70c10 -26 15 -54.667 15 -86c0 -39.333 -6.66699 -73.333 -20 -102
c-14.667 -32 -33 -58.333 -55 -79c-22.667 -21.333 -49.667 -38 -81 -50c-30 -11.333 -64 -17 -102 -17c-20.667 0 -41 2 -61 6c-21.333 4 -39.333 9.33301 -54 16c-18 8 -33.333 16 -46 24c-16.667 10.667 -29.334 20 -38.001 28l27 38c6.66699 9.33301 14.667 14 24 14
c6.66699 0 14.334 -2.66699 23.001 -8c10.667 -6.66699 20.667 -12.334 30 -17.001c14 -6.66699 28 -12.334 42 -17.001c17.333 -5.33301 36.666 -8 57.999 -8c25.333 0 48 4 68 12c19.333 8 36.333 19.667 51 35c14 14.667 25 32.334 33 53.001c7.33301 18.667 11 42 11 70
c0 22 -3 42 -9 60c-6 17.333 -16 32.666 -30 45.999c-14.667 14 -31 24 -49 30c-19.333 6.66699 -42.333 10 -69 10c-19.333 0 -38 -1.33301 -56 -4c-13.333 -2 -33.333 -7 -60 -15l-56 17l58 334h340v-38l-2 -2c0 -12 -4 -22 -12 -30z" />
    <glyph glyph-name="six" unicode="6" horiz-adv-x="537" 
d="M380 424c24.667 -9.33301 47.001 -23.002 67.001 -41.002c18.667 -16.667 34.334 -39 47.001 -67c10.667 -23.333 16 -53.333 16 -90c0 -33.333 -6 -64 -18 -92c-12.667 -29.333 -29.334 -54 -50.001 -74c-22.667 -21.333 -48.667 -38 -78 -50
c-30 -12 -63.333 -18 -100 -18c-36 0 -68.667 6 -98 18c-31.333 12.667 -56 28.667 -74 48c-21.333 22.667 -37.333 48.334 -48 77.001c-10.667 29.333 -16 63 -16 101c0 31.333 7 65 21 101c13.333 34 35.666 72 66.999 114l181 245
c3.33301 4.66699 9.66602 9.33398 18.999 14.001c8 4 17.667 6 29 6h79l-248 -314c16.667 12 35.334 21 56.001 27c22 6.66699 44.333 10 67 10l-1 -1c30.667 0 58 -4.66699 82 -14zM124.001 157.998c6 -18.667 15.6631 -35.334 28.9961 -50.001
c10.667 -11.333 26.334 -21.666 47.001 -30.999c16.667 -7.33301 37.667 -11 63 -11c23.333 0 45 4 65 12c21.333 8.66699 38 19 50 31c12.667 12.667 23.334 28.667 32.001 48c8 18 12 38.333 12 61c0 24 -4 45.333 -12 64c-8.66699 21.333 -19 37.333 -31 48
c-14 13.333 -30 23.333 -48 30c-17.333 6.66699 -37.666 10 -60.999 10c-24 0 -46 -4 -66 -12c-18 -7.33301 -34.333 -18.333 -49 -33c-13.333 -13.333 -23.666 -29.333 -30.999 -48c-6.66699 -17.333 -10 -36.333 -10 -57c0 -20 3.33301 -40.667 10 -62z" />
    <glyph glyph-name="seven" unicode="7" horiz-adv-x="543" 
d="M518 676c0 -18 -3.66797 -33.332 -11.001 -45.999l-297 -598c-10 -21.333 -26 -32 -48 -32h-64l301 591c10.667 19.333 20.334 33.666 29.001 42.999h-320c-4 -44 -6.66699 -69 -8 -75c-2 -11.333 -8.66699 -17 -20 -17h-49v174h487v-40z" />
    <glyph glyph-name="eight" unicode="8" horiz-adv-x="537" 
d="M171 4c-30 10 -55.668 23.666 -77.001 40.999c-20 16.667 -36.333 38 -49 64c-11.333 23.333 -17 51.666 -17 84.999c0 46 12 84 36 114c24.667 30.667 58.667 52 102 64c-36.667 13.333 -64.667 34.333 -84 63s-29 62 -29 100c0 26.667 5 51.334 15 74.001
s24.667 42.667 44 60c17.333 16 40.333 29.333 69 40c26 10 55.667 15 89 15c32.667 0 62 -5 88 -15c27.333 -10.667 50 -24 68 -40c19.333 -17.333 34 -37.333 44 -60c10.667 -24.667 16 -49.334 16 -74.001c0 -38.667 -9.66699 -71.667 -29 -99
c-21.333 -29.333 -49.666 -50.666 -84.999 -63.999c44 -12 78 -33 102 -63s36 -68 36 -114c0 -31.333 -6 -59.666 -18 -84.999c-12 -24.667 -28.333 -46 -49 -64c-18.667 -16 -44 -29.333 -76 -40c-28 -9.33301 -60.333 -14 -97 -14l-2 -2c-36.667 0 -69 4.66699 -97 14z
M323.999 413.999c17.333 8 31.001 17.666 41.001 28.999c12 14.667 19.667 28.334 23 41.001c4 16 6 32 6 48c0 18 -2.66699 33.333 -8 46c-7.33301 17.333 -15.333 30.333 -24 39c-12 12 -25.333 20.667 -40 26c-16 6 -34.667 9 -56 9s-40 -3 -56 -9
s-29.667 -14.667 -41 -26c-10 -9.33301 -18.333 -22.333 -25 -39c-5.33301 -12.667 -8 -28 -8 -46c0 -10.667 2.66699 -26.667 8 -48c3.33301 -14 10.666 -27.667 21.999 -41c10 -12 23.333 -21.667 40 -29c15.333 -6.66699 35 -10 59 -10s43.667 3.33301 59 10zM330 69.998
c16.667 5.33301 32.001 14.665 46.001 27.998c13.333 12 23.333 26 30 42c7.33301 16.667 11 35 11 55c0 24 -4 45 -12 63c-8 17.333 -19 31.666 -33 42.999s-30 19.333 -48 24c-16.667 4.66699 -35.334 7 -56.001 7c-21.333 0 -40.333 -2.33301 -57 -7
c-18 -4.66699 -34 -12.667 -48 -24s-25 -25.666 -33 -42.999c-8 -18 -12 -38.667 -12 -62c0 -21.333 3.33301 -39.666 10 -54.999c7.33301 -17.333 17.333 -31.666 30 -42.999s28.667 -20.333 48 -27c18 -6 38.667 -9 62 -9l-2 -2c22.667 0 44 3.33301 64 10z" />
    <glyph glyph-name="nine" unicode="9" horiz-adv-x="522" 
d="M151 308c-24.667 9.33301 -45.6641 22.667 -62.9971 40c-19.333 19.333 -34 40.666 -44 63.999c-11.333 26.667 -17 56 -17 88s5.66699 61.333 17 88c12 27.333 28.667 51.333 50 72s46 36.667 74 48c29.333 12 61.333 18 96 18c36 0 67.333 -5.66699 94 -17
c28 -12 52 -28 72 -48c19.333 -19.333 34.666 -43.666 45.999 -72.999c10.667 -27.333 16 -59 16 -95c0 -21.333 -2 -41 -6 -59c-5.33301 -24 -10.666 -42 -15.999 -54c-8 -17.333 -16.667 -34.666 -26 -51.999c-8.66699 -16 -20.334 -34 -35.001 -54l-175 -252
c-4.66699 -6.66699 -10.667 -12 -18 -16c-8 -4 -17.333 -6 -28 -6h-82l218 286l22 27l18 25c-16 -12.667 -36.667 -23.334 -62 -32.001c-22.667 -8 -47.334 -12 -74.001 -12s-52.334 4.66699 -77.001 14zM396.003 563.001c-6.66699 17.333 -16.666 32.6641 -29.999 45.9971
c-12.667 12.667 -27.667 22.334 -45 29.001c-18.667 7.33301 -37.667 11 -57 11c-21.333 0 -41.333 -3.66699 -60 -11c-18 -6.66699 -33.667 -16.334 -47 -29.001c-12.667 -12 -22.667 -27 -30 -45c-7.33301 -18.667 -11 -38 -11 -58s3.33301 -40 10 -60
c6 -18 15.333 -33.333 28 -46c13.333 -13.333 28.333 -22.666 45 -27.999c20 -6.66699 39.667 -10 59 -10c24.667 0 46 4 64 12c18.667 8 34 18.667 46 32c13.333 14.667 22.666 29.334 27.999 44.001c6.66699 18.667 10 36.334 10 53.001c0 22.667 -3.33301 42.667 -10 60z
" />
    <glyph glyph-name="colon" unicode=":" horiz-adv-x="207" 
d="M47 453c2.66699 6.66699 7 12.999 13 18.999c5.33301 5.33301 12 10 20 14c6.66699 3.33301 14.667 5 24 5s17.333 -1.66699 24 -5s13 -8 19 -14s10.333 -12.333 13 -19c2.66699 -7.33301 4 -15.333 4 -24c0 -9.33301 -1.33301 -17.666 -4 -24.999
c-2.66699 -6.66699 -7 -13 -13 -19s-12.333 -10.333 -19 -13c-7.33301 -2.66699 -15.333 -4 -24 -4s-16.667 1.33301 -24 4s-14 7 -20 13s-10.333 12.333 -13 19c-3.33301 8.66699 -5 17 -5 25c0 7.33301 1.66699 15.333 5 24zM47 77.999c2.66699 7.33301 7 14 13 20
c5.33301 5.33301 12 10 20 14c5.33301 2.66699 13.333 4 24 4s18.667 -1.33301 24 -4c6.66699 -3.33301 13 -8 19 -14s10.333 -12.667 13 -20s4 -15.333 4 -24s-1.33301 -16.667 -4 -24s-7 -14 -13 -20c-5.33301 -5.33301 -11.666 -9.33301 -18.999 -12
c-8.66699 -3.33301 -16.667 -5 -24 -5s-15.333 1.66699 -24 5s-15.334 7.33301 -20.001 12c-6 6 -10.333 12.667 -13 20c-3.33301 8.66699 -5 16.667 -5 24s1.66699 15.333 5 24z" />
    <glyph glyph-name="semicolon" unicode=";" horiz-adv-x="206" 
d="M46 453c2.66699 6.66699 7 13.001 13 19.001s12.333 10.667 19 14s14.667 5 24 5s17.333 -1.66699 24 -5c8 -4 14.667 -8.66699 20 -14c6 -6 10.333 -12.333 13 -19c3.33301 -8.66699 5 -16.667 5 -24c0 -8 -1.66699 -16.333 -5 -25c-2.66699 -6.66699 -7 -13 -13 -19
s-12.667 -10.333 -20 -13s-15.333 -4 -24 -4s-16.667 1.33301 -24 4c-6.66699 2.66699 -13 7 -19 13s-10.333 12.333 -13 19c-2.66699 7.33301 -4 15.666 -4 24.999c0 8.66699 1.33301 16.667 4 24zM49 83.001c3.33301 7.33301 7.33496 13.3311 12.002 17.998
c5.33301 5.33301 11.666 9.33301 18.999 12c8.66699 3.33301 16.667 5 24 5c10 0 19 -2 27 -6c7.33301 -4 13.666 -9 18.999 -15c6 -7.33301 10 -15 12 -23c2.66699 -10.667 4 -19.667 4 -27c0 -15.333 -2 -31 -6 -47c-3.33301 -13.333 -9.66602 -29.333 -18.999 -48
c-7.33301 -15.333 -17.333 -30.666 -30 -45.999c-13.333 -17.333 -27 -31.333 -41 -42l-14 15c-4.66699 4.66699 -7 9.33398 -7 14.001c0 4 2.33301 8.33301 7 13l13 15l16 21c6.66699 8.66699 11.667 17.334 15 26.001c5.33301 12.667 8.66602 23.334 9.99902 32.001h-6
c-10 0 -18 1.33301 -24 4c-7.33301 3.33301 -13.333 7.66602 -18 12.999c-6 7.33301 -10 13.666 -12 18.999c-2.66699 7.33301 -4 16 -4 26l-2 -1c0 6.66699 1.66699 14 5 22z" />
    <glyph glyph-name="less" unicode="&#x3c;" horiz-adv-x="454" 
d="M418 492c0 -4.66699 -1.33594 -9.66602 -4.00293 -14.999c-1.33301 -2 -3.66602 -4.16699 -6.99902 -6.5s-5.66602 -3.83301 -6.99902 -4.5l-224 -114c-5.33301 -4 -12.666 -7 -21.999 -9l-24 -7l24 -6c10.667 -2.66699 18 -5.33398 22 -8.00098l224 -114
c8 -5.33301 12.667 -9.33301 14 -12c2.66699 -5.33301 4 -10.333 4 -15v-64l-388 201v37l388 200v-63z" />
    <glyph glyph-name="equal" unicode="=" horiz-adv-x="526" 
d="M478 387h-430v67h430v-67zM478 220h-430v67h430v-67z" />
    <glyph glyph-name="greater" unicode="&#x3e;" horiz-adv-x="455" 
d="M42 196c1.33301 2.66699 6 6.66797 14 12.001l224 113c6 4 12.667 7 20 9l24 6l-23 7c-8.66699 2.66699 -15.667 5.66699 -21 9l-224 114c-8 5.33301 -12.667 9.33301 -14 12c-2.66699 5.33301 -4 10 -4 14v64l387 -201v-37l-387 -201v63
c0 5.33301 1.33301 10.666 4 15.999z" />
    <glyph glyph-name="question" unicode="?" horiz-adv-x="411" 
d="M52 680c15.333 10 29.333 17.668 42 23.001c19.333 7.33301 35.333 12.666 48 15.999c16.667 4 35 6 55 6c28.667 0 53 -3.66699 73 -11c24 -8.66699 43.667 -19.667 59 -33c16 -14 29 -31 39 -51c9.33301 -18.667 14 -41.334 14 -68.001
c0 -27.333 -3.66699 -49.333 -11 -66c-8.66699 -19.333 -18.334 -35.333 -29.001 -48c-14 -16.667 -26.333 -28.667 -37 -36l-38 -28c-12 -9.33301 -22.333 -18.666 -31 -27.999c-7.33301 -8 -12 -18 -14 -30l-10 -76h-60l-6 83v5c0 15.333 3.66699 28 11 38s17 20 29 30
l36 29c20 15.333 32.667 25.666 38 30.999c8 8 17.333 21.333 28 40c8 14 12 31.333 12 52c0 13.333 -3 26 -9 38c-6.66699 12.667 -14.334 22.667 -23.001 30c-11.333 9.33301 -22.666 15.666 -33.999 18.999c-15.333 4.66699 -29.333 7 -42 7
c-20 0 -37.333 -2.66699 -52 -8c-15.333 -5.33301 -27.333 -10.666 -36 -15.999s-16.667 -11 -24 -17c-5.33301 -4.66699 -10.666 -7 -15.999 -7c-8.66699 0 -15 3.66699 -19 11l-23 37l-4 2c6.66699 6.66699 18 15.334 34 26.001zM120 80.001
c2 5.33301 6.66504 11.666 13.998 18.999c4.66699 4.66699 11 9 19 13s16 6 24 6s16 -2 24 -6s14.333 -8.33301 19 -13c7.33301 -7.33301 12 -13.666 14 -18.999c2.66699 -7.33301 4 -15.333 4 -24c0 -9.33301 -1.33301 -17.666 -4 -24.999
c-2 -5.33301 -6.66699 -11.666 -14 -18.999s-13.666 -12 -18.999 -14c-7.33301 -2.66699 -15.333 -4 -24 -4s-16.667 1.33301 -24 4c-5.33301 2 -11.666 6.66699 -18.999 14s-12 13.666 -14 18.999c-2.66699 7.33301 -4 15.666 -4 24.999c0 8.66699 1.33301 16.667 4 24z
" />
    <glyph glyph-name="at" unicode="@" horiz-adv-x="799" 
d="M504 110c-16.667 12.667 -27.002 32.0049 -31.002 58.0049c-19.333 -26.667 -40.333 -46 -63 -58c-20.667 -11.333 -45 -17 -73 -17c-20 0 -37.333 3.66699 -52 11c-15.333 8 -27.666 17.333 -36.999 28s-16.666 25 -21.999 43c-5.33301 17.333 -8 35.333 -8 54
c0 27.333 5.66699 56 17 86c11.333 29.333 27.666 55.333 48.999 78c24 25.333 50.667 44.333 80 57c33.333 14.667 70 22 110 22c22 0 41.667 -2 59 -6c21.333 -4.66699 37.333 -9.33398 48 -14.001l-47 -181c-6 -24.667 -9 -45.334 -9 -62.001
c0 -11.333 1.66699 -21.333 5 -30s7.33301 -15 12 -19c4 -2.66699 10 -5.33398 18 -8.00098c7.33301 -2 14.666 -3 21.999 -3c17.333 0 32.666 4.66699 45.999 14c16 11.333 28.667 24.333 38 39c12.667 19.333 21.667 40 27 62c6.66699 26.667 10 53.334 10 80.001
c0 45.333 -7.66699 85.333 -23 120c-16 36 -36.333 65 -61 87c-25.333 22.667 -55.666 40 -90.999 52c-33.333 11.333 -71.333 17 -114 17c-46 0 -88 -8.33301 -126 -25c-38.667 -16.667 -72.667 -40.334 -102 -71.001c-30 -30.667 -52.667 -66 -68 -106
c-16.667 -42.667 -25 -87.334 -25 -134.001c0 -56 9 -105.667 27 -149c18 -42.667 42.667 -78.667 74 -108c32 -30 68 -51.667 108 -65c44 -14.667 88.667 -22 134 -22c51.333 0 96 5.33301 134 16c39.333 11.333 73 25.333 101 42c4.66699 2.66699 9 4 13 4
c6.66699 0 12 -4 16 -12l12 -32c-37.333 -24.667 -77.666 -43.667 -120.999 -57c-46 -14 -97.667 -21 -155 -21c-54.667 0 -108 9.33301 -160 28c-48 17.333 -91 44 -129 80c-36.667 34.667 -65.334 76.667 -86.001 126s-31 106 -31 170c0 38 4.33301 73.333 13 106
c8 30 21 61.333 39 94c15.333 28 35.333 54.333 60 79c23.333 23.333 49.333 43.666 78 60.999c26.667 16 57.334 29.333 92.001 40c32.667 10 67.334 15 104.001 15c26.667 0 56.667 -3.33301 90 -10c28 -5.33301 55.667 -15 83 -29c26 -12.667 50 -28.667 72 -48
c22 -18.667 41 -40.667 57 -66s28.667 -53.333 38 -84c8.66699 -28.667 13 -61.334 13 -98.001s-5 -70 -15 -100c-10.667 -32 -24.667 -58.667 -42 -80c-18.667 -23.333 -39.667 -40.666 -63 -51.999c-25.333 -12.667 -51.333 -19 -78 -19l-3 -1c-26.667 0 -48 6 -64 18z
M385.998 154.005c11.333 4.66699 21.667 10.666 31 17.999c8.66699 6.66699 17.667 18.334 27 35.001c6.66699 12 13.334 30 20.001 54l38 147c-14.667 3.33301 -28.667 5 -42 5c-24.667 0 -47.667 -5 -69 -15c-19.333 -9.33301 -37.333 -23.333 -54 -42
c-16 -18 -27.667 -37.333 -35 -58c-8 -22 -12 -44.667 -12 -68c0 -24.667 5.33301 -43.667 16 -57c11.333 -14 27.666 -21 48.999 -21v-2c14 0 24.333 1.33301 31 4z" />
    <glyph glyph-name="A" unicode="A" horiz-adv-x="772" 
d="M748 40v-40h-206v40c0 8.66699 4.66699 14 14 16l41 12l-56 144h-309l-56 -144l41 -12c8.66699 -2 13 -7.33301 13 -16v-40h-205v40c0 8.66699 4.33301 14 13 16l40 12l260 648h98l259 -648l40 -12c8.66699 -2 13 -7.33301 13 -16zM408 557
c-5.33301 13.333 -12.667 36.001 -22 68.001c-8 -30.667 -14.667 -53.334 -20 -68.001l-107 -275h255z" />
    <glyph glyph-name="B" unicode="B" horiz-adv-x="630" 
d="M610 204c0 -64.667 -23.332 -114.834 -69.999 -150.501s-107.334 -53.5 -182.001 -53.5h-325v44c0 10 5 16 15 18l57 12v568l-57 12c-10 2 -15 8 -15 18v44h301c78 0 139.5 -14.667 184.5 -44s67.5 -74.666 67.5 -135.999c0 -43.333 -11 -78.666 -33 -105.999
s-55.667 -48 -101 -62c105.333 -20.667 158 -75.334 158 -164.001zM330.001 396c50.667 0 89.999 9.83203 117.999 29.499s42 49.834 42 90.501c0 43.333 -13.167 74.5 -39.5 93.5s-65.166 28.5 -116.499 28.5h-132v-242h128zM472.5 296.999
c-27.667 19.333 -66.168 29.002 -115.501 29.002h-155v-249h156c52.667 -0.666992 91.834 10.166 117.501 32.499s38.5 54.5 38.5 96.5c0 41.333 -13.833 71.666 -41.5 90.999z" />
    <glyph glyph-name="C" unicode="C" horiz-adv-x="635" 
d="M608 506l-47.999 0.000976562c-12.667 0 -20 6 -22 18l-8 90c-56 18 -106.333 27 -151 27c-75.333 0 -137.333 -25.333 -186 -76c-48.667 -52.667 -73 -121.667 -73 -207c0 -55.333 10.167 -104.333 30.5 -147s49.333 -75.834 87 -99.501s81.5 -35.5 131.5 -35.5
c38.667 0 72.5 4.83301 101.5 14.5s56.167 26.167 81.5 49.5c6 5.33301 12 8 18 8c5.33301 0 10 -2 14 -6l38 -42c-62 -72 -148 -108 -258 -108c-69.333 0 -129.833 15.833 -181.5 47.5s-91.334 75.167 -119.001 130.5s-41.5 118 -41.5 188
c0 107.333 33.333 195.333 100 264c66 68 156.333 102 271 102c53.333 0 125 -16.667 215 -50v-168z" />
    <glyph glyph-name="D" unicode="D" horiz-adv-x="743" 
d="M674 171c-29.333 -54 -70.666 -96 -123.999 -126s-115 -45 -185 -45h-331v42c0 10.667 5.33301 17 16 19l56 11v571l-56 12c-10.667 2 -16 8.33301 -16 19v42h331c71.333 0 133.666 -15.167 186.999 -45.5s94.333 -72.5 123 -126.5s43 -116 43 -186
c0 -70.667 -14.667 -133 -44 -187zM552 562c-44 50.667 -106.333 76 -187 76h-161v-560h161c80 0 142.167 25 186.5 75s66.5 118.333 66.5 205c0 85.333 -22 153.333 -66 204z" />
    <glyph glyph-name="E" unicode="E" horiz-adv-x="587" 
d="M548 543h-48c-12 0 -19 5.66699 -21 17l-7 77h-268v-238h264v-76h-264v-245h268l6 72c2 10.667 9.33301 16 22 16h48v-166h-514v42c0 10.667 5 17 15 19l57 11v571c-32 6 -51 10 -57 12c-10 2 -15 8.33301 -15 19v42h514v-173z" />
    <glyph glyph-name="F" unicode="F" horiz-adv-x="584" 
d="M565 543h-49c-11.333 0 -18 5.66699 -20 17c0 2 -0.833008 9.83301 -2.5 23.5s-3.5 31.5 -5.5 53.5h-284v-251h272v-78h-272v-236l56 -11c10.667 -2 16 -8.33301 16 -19v-42h-242v42c0 10.667 5 17 15 19l57 11v571c-32 6 -51 10 -57 12c-10 2 -15 8.33301 -15 19v42h531
v-173z" />
    <glyph glyph-name="G" unicode="G" horiz-adv-x="684" 
d="M561 112l0.000976562 158h-111c-6.66699 0 -12 2 -16 6s-6 8.33301 -6 13v55h220v-275c-71.333 -51.333 -162 -77 -272 -77c-104.667 0 -189.667 33.667 -255 101c-66 68 -99 156.333 -99 265c0 110.667 32.667 198.667 98 264c67.333 68 156.666 102 267.999 102
c76 0 160.333 -17.333 253 -52v-166h-48c-12 0 -19 5.33301 -21 16c0 3.33301 -0.833008 11.666 -2.5 24.999s-3.5 35.333 -5.5 66c-21.333 6.66699 -33.666 10.334 -36.999 11.001c-40.667 10.667 -83.667 16 -129 16c-48.667 0 -89.334 -6.66699 -122.001 -20
c-32 -13.333 -59.667 -32 -83 -56c-47.333 -50 -71 -118.667 -71 -206c0 -90 24.333 -160.667 73 -212c48.667 -50.667 111.667 -76 189 -76c65.333 0 124.333 14 177 42z" />
    <glyph glyph-name="H" unicode="H" horiz-adv-x="789" 
d="M686 73l59.999 -12c8 -2 12 -8 12 -18v-43h-242v43c0 10.667 5.33301 17 16 19l56 11v253h-386v-253c48 -10 72 -20 72 -30v-43h-241v43c0 10.667 5 17 15 19l57 11v571l-60 12c-8 2 -12 8 -12 18v42h241v-42c0 -10 -3.33301 -16 -10 -18
c-7.33301 -2 -27.666 -6 -60.999 -12v-247h386v247l-60 12c-8 2 -12 8 -12 18v42h242v-42c0 -10.667 -5 -17 -15 -19l-58 -11v-571z" />
    <glyph glyph-name="I" unicode="I" horiz-adv-x="305" 
d="M202 73l61 -12c8 -2 12 -8 12 -18v-43h-241v43c0 10.667 4.66699 17 14 19l58 11v571l-60 12c-8 2 -12 8 -12 18v42h241v-42c0 -10.667 -5 -17 -15 -19l-58 -11v-571z" />
    <glyph glyph-name="J" unicode="J" horiz-adv-x="442" 
d="M257 245l0.000976562 398c-39.333 6 -61.666 10 -66.999 12c-9.33301 2 -14 8.33301 -14 19v42h250v-42c0 -10.667 -5.33301 -17 -16 -19l-56 -11v-396c0 -122.667 -43.333 -202 -130 -238c-28 -12 -59 -18 -93 -18c-36.667 0 -71.334 4.66699 -104.001 14
c3.33301 42.667 7 66 11 70s9.33301 6 16 6c7.33301 0 15.333 -1.33301 24 -4c11.333 -3.33301 24.666 -5 39.999 -5v-1c92.667 0 139 57.667 139 173z" />
    <glyph glyph-name="K" unicode="K" horiz-adv-x="710" 
d="M684 42v-39.999h-235v40c0 9.33301 4.66699 15 14 17c4 0 19.333 3 46 9l-207 238c-12.667 12.667 -23 20 -31 22c-6 1.33301 -14.333 2 -25 2h-44v-256l56 -12c10.667 -2 16 -8 16 -18v-43h-241v43c0 10 5 16 15 18l57 12v570c-32 6 -51 10 -57 12
c-10 2 -15 8.33301 -15 19v43h241v-43c0 -10.667 -5.33301 -17 -16 -19l-56 -12v-240h36c23.333 0 40.666 6.66699 51.999 20l200 228l-44 8c-9.33301 2 -14 8 -14 18v40h226l2 -38c0 -10.667 -5.33301 -17 -16 -19c-9.33301 -3.33301 -24.666 -7.33301 -45.999 -12
l-213 -241c-12.667 -14.667 -25.667 -25.334 -39 -32.001c14.667 -4 30 -16 46 -36l227 -270l27 -6l24 -5l-1 1c10 -2 15 -8 15 -18z" />
    <glyph glyph-name="L" unicode="L" horiz-adv-x="570" 
d="M34 0l0.000976562 42.998c0 4.66699 1.33301 8.83398 4 12.501s6.33398 5.83398 11.001 6.50098l57 11v571l-57 11c-4.66699 0.666992 -8.33398 2.83398 -11.001 6.50098s-4 7.83398 -4 12.501v42h240v-42c0 -4.66699 -1.33301 -8.83398 -4 -12.501
s-6.33398 -5.83398 -11.001 -6.50098l-57 -11v-562h258c2 30.667 4 49.667 6 57c0.666992 4.66699 3 8.66699 7 12s8.66699 5 14 5h49v-156h-502z" />
    <glyph glyph-name="M" unicode="M" horiz-adv-x="954" 
d="M851 644v-570c32 -6 51 -10 57 -12c10.667 -2 16 -8 16 -18v-44h-240v44c0 10 5 16 15 18l67 12v453c0 20.667 0.666992 36.334 2 47.001l-246 -448c-8 -15.333 -19.333 -23 -34 -23h-14c-16 0 -28 7.66699 -36 23l-249 447c2 -16.667 3 -31.667 3 -45v-454l68 -12
c8.66699 -2 13 -8 13 -18v-44h-239v44c0 10 5.33301 16 16 18l56 12v570c-30.667 6 -49.334 10 -56.001 12c-10.667 2 -16 8 -16 18v44h144c9.33301 0 16 -1 20 -3c6 -2.66699 10.333 -7 13 -13l247 -442c6 -10.667 13.667 -28 23 -52c5.33301 15.333 13 33 23 53l242 441
c2.66699 5.33301 7.33398 9.66602 14.001 12.999c4 2 10.667 3 20 3h144v-44c0 -10 -5.33301 -16 -16 -18z" />
    <glyph glyph-name="N" unicode="N" horiz-adv-x="776" 
d="M760 672c0 -10 -5.33496 -16.002 -16.002 -18.002l-57 -12v-643h-49c-13.333 0 -24.666 5.66699 -33.999 17l-415 540c1.33301 -11.333 2 -26.666 2 -45.999v-438c18.667 -2.66699 41 -6.66699 67 -12c9.33301 -2 14 -8 14 -18v-43h-238v43c0 10 5 16 15 18l57 12v570
c-32 6 -51 10 -57 12c-10 2 -15 8.33301 -15 19v43h122c8.66699 0 15 -1 19 -3c2.66699 -1.33301 7.66699 -5.66602 15 -12.999l414 -540c-1.33301 9.33301 -2 25.333 -2 48v434c-19.333 2.66699 -34.666 5.16699 -45.999 7.5s-18 3.83301 -20 4.5c-10.667 2 -16 8 -16 18
v44h240v-44z" />
    <glyph glyph-name="O" unicode="O" horiz-adv-x="754" 
d="M683 165.5c-30 -55.667 -71.667 -98.8359 -125 -129.503s-114 -46 -182 -46c-68.667 0 -130 15.667 -184 47s-95.833 74.833 -125.5 130.5s-44.5 118.834 -44.5 189.501s14.833 133.834 44.5 189.501s71.334 99.167 125.001 130.5s115.167 47 184.5 47
s130.666 -15.5 183.999 -46.5s94.833 -74.167 124.5 -129.5s44.5 -118.666 44.5 -189.999l-1 -2c0 -71.333 -15 -134.833 -45 -190.5zM561.5 561.498c-44.333 51 -106.833 76.499 -187.5 76.499c-54 0 -100 -12 -138 -36s-66.833 -57.333 -86.5 -100
s-29.5 -91.334 -29.5 -146.001c0 -56.667 10.333 -106.167 31 -148.5s50.167 -75.166 88.5 -98.499s83.5 -35 135.5 -35c52.667 0 98 11.833 136 35.5s67.167 56.834 87.5 99.501s30.5 91.667 30.5 147h-1c0 86 -22.167 154.5 -66.5 205.5z" />
    <glyph glyph-name="P" unicode="P" horiz-adv-x="591" 
d="M570 494c0 -68.667 -22.666 -122.667 -67.999 -162c-48.667 -42.667 -114.667 -64 -198 -64h-102v-195c5.33301 -2 24.666 -6 57.999 -12c9.33301 -2 14 -8.33301 14 -19v-42h-240v42c0 10.667 5 17 15 19l57 11v571c-32 6 -51 10 -57 12c-10 2 -15 8.33301 -15 19v42
h270c44.667 0 84 -5 118 -15v1c98.667 -32 148 -101.333 148 -208zM431.001 602c-27.333 25.333 -69.667 38.001 -127 38.001h-102v-294h102c54 0 95.667 13.333 125 40c30 27.333 45 63.666 45 108.999l-1 1c0 44.667 -14 80 -42 106z" />
    <glyph glyph-name="Q" unicode="Q" horiz-adv-x="769" 
d="M719 259c-7.33301 -31.333 -17.3301 -59.667 -29.9971 -85c-10.667 -21.333 -26.334 -44.666 -47.001 -69.999c-16 -19.333 -37.333 -38 -64 -56l184 -198h-80c-14.667 0 -25.334 1.33301 -32.001 4c-8 3.33301 -16.333 9.33301 -25 18l-126 138
c-12.667 -4 -32.334 -8.66699 -59.001 -14c-20 -4 -41.333 -6 -64 -6c-50.667 0 -98.667 9.33301 -144 28c-43.333 18 -80.666 43 -111.999 75c-30.667 32 -54.667 70.667 -72 116c-17.333 46 -26 95.333 -26 148s8.66699 102 26 148c17.333 45.333 41.333 84 72 116
c32 33.333 69.333 58.666 112 75.999c44 18 92 27 144 27s100 -9 144 -27c43.333 -18 80.666 -43 111.999 -75c30.667 -32 54.667 -70.667 72 -116c16.667 -44 25 -93.333 25 -148l1 -3c0 -32.667 -3.66699 -64.667 -11 -96zM612.003 473.999
c-11.333 33.333 -28.667 62.666 -52 87.999c-22.667 24.667 -49.334 43.334 -80.001 56.001c-31.333 12.667 -66 19 -104 19c-39.333 0 -74.666 -6.33301 -105.999 -19c-30.667 -12.667 -57.334 -31.334 -80.001 -56.001c-21.333 -23.333 -38 -52.666 -50 -87.999
c-12 -34.667 -18 -74.334 -18 -119.001s6 -84.334 18 -119.001c12 -35.333 28.667 -64.666 50 -87.999c22.667 -24.667 49.667 -43.334 81 -56.001s66.333 -19 105 -19s73.667 6.33301 105 19c30.667 12.667 57.334 31.334 80.001 56.001c22 24 39 53.333 51 88
c12 35.333 18 75 18 119c0 44.667 -6 84.334 -18 119.001z" />
    <glyph glyph-name="R" unicode="R" horiz-adv-x="669" 
d="M638 55.5c2.66699 -3 4 -6.83496 4 -11.502v-44h-104c-17.333 0 -30 7 -38 21l-186 256c-4.66699 6.66699 -10.667 12.334 -18 17.001c-6 4 -16 6 -30 6h-64v-226l56 -12c4.66699 -1.33301 8.5 -3.5 11.5 -6.5s4.5 -6.83301 4.5 -11.5v-43h-241v43
c0 4.66699 1.33301 8.5 4 11.5s6.33398 5.16699 11.001 6.5l58 12v570l-58 12c-4.66699 1.33301 -8.33398 3.5 -11.001 6.5s-4 6.83301 -4 11.5v44h265c44.667 0 84 -4.66699 118 -14c33.333 -9.33301 60.666 -22.666 81.999 -39.999c22 -18 38 -39 48 -63
s15 -51.667 15 -83c0 -24.667 -4 -48 -12 -70c-8 -21.333 -19.667 -41.333 -35 -60s-33.666 -33.667 -54.999 -45c-26.667 -14.667 -51.334 -24.334 -74.001 -29.001c12 -7.33301 22.667 -17.333 32 -30l155 -212c32 -5.33301 50.667 -8.66602 56 -9.99902h-1
c4.66699 -1.33301 8.33398 -3.5 11.001 -6.5zM367 379.998c20 6.66699 38 16.666 54 29.999c14.667 12.667 25.667 27.334 33 44.001s11 36 11 58c0 42 -14 74 -42 96c-27.333 21.333 -69 32 -125 32h-97v-270h91c29.333 0 54.333 3.33301 75 10z" />
    <glyph glyph-name="S" unicode="S" horiz-adv-x="506" 
d="M482 218c0 -66 -20.668 -119.668 -62.001 -161.001c-43.333 -43.333 -102.666 -65 -177.999 -65c-31.333 0 -64 3 -98 9c-26.667 4.66699 -53.334 11 -80.001 19l-29 10v180h49c11.333 0 18 -5.66699 20 -17c1.33301 -5.33301 3 -21.666 5 -48.999l3 -44
c52 -18.667 92.667 -28 122 -28s54 3.33301 74 10c19.333 6 34.666 15 45.999 27c25.333 23.333 38 55 38 95c0 38.667 -18 68 -54 88c-16 10 -34 18 -54 24c-71.333 22 -113.333 36 -126 42c-19.333 8.66699 -37.666 20.667 -54.999 36c-35.333 31.333 -53 76 -53 134
c0 52.667 19 98 57 136c41.333 40 94.666 60 159.999 60c69.333 0 136.333 -13.333 201 -40v-165h-48c-12 0 -19 5.66699 -21 17c0 2 -0.5 8.83301 -1.5 20.5s-2.83301 34.5 -5.5 68.5c-46.667 12.667 -86 19 -118 19c-43.333 0 -76.666 -10.667 -99.999 -32
c-22.667 -20.667 -34 -47.334 -34 -80.001c0 -35.333 18 -63 54 -83c14.667 -9.33301 33.334 -17.666 56.001 -24.999c60 -20 102 -35 126 -45h-2c72 -32 108 -85.667 108 -161z" />
    <glyph glyph-name="T" unicode="T" horiz-adv-x="629" 
d="M612 558l-49.002 -0.00195312c-10.667 0 -17 3.33301 -19 10c-3.33301 11.333 -6.66602 33.333 -9.99902 66h-168v-562l12 -2c30.667 -6 47.334 -9.33301 50.001 -10c6.66699 -2 10 -8 10 -18v-42h-242v42c0 5.33301 1.5 9.83301 4.5 13.5s7.16699 5.83398 12.5 6.50098
l55 11v562h-169c-4 -37.333 -7 -59.666 -9 -66.999c-2 -6.66699 -8.66699 -10 -20 -10h-48v158h590v-158z" />
    <glyph glyph-name="U" unicode="U" horiz-adv-x="749" 
d="M732 673c0 -10.667 -5.33301 -16.999 -16 -18.999l-57 -11v-363c0 -82.667 -25.333 -151.334 -76 -206.001c-52 -55.333 -121.667 -83 -209 -83c-86.667 0 -156 27.667 -208 83c-51.333 54.667 -77 123.334 -77 206.001v363c-32 6 -51 10 -57 12
c-10 2 -15 8.33301 -15 19v42h251v-42c0 -10.667 -5.33301 -17 -16 -19c-14.667 -2.66699 -36.667 -6.33398 -66 -11.001v-362c0 -62.667 16.667 -112 50 -148c34 -38 80.333 -57 139 -57s105 19 139 57c33.333 37.333 50 86.333 50 147v363l-66 11
c-10.667 2 -16 8.33301 -16 19v42h250v-43z" />
    <glyph glyph-name="V" unicode="V" horiz-adv-x="779" 
d="M760 672c0 -10 -4.66699 -16 -14 -18l-50 -12l-263 -644h-87l-262 644c-28 6 -45 10 -51 12c-10 2 -15 8 -15 18v44h238v-44c0 -10.667 -6.66699 -17 -20 -19l-22 -5l-30 -6l183 -455c7.33301 -16 15.333 -42 24 -78c9.33301 38.667 17 65 23 79l181 455
c-32 6 -51 10 -57 12c-10 2 -15 8.33301 -15 19v42l237 -1v-43z" />
    <glyph glyph-name="W" unicode="W" horiz-adv-x="1125" 
d="M1108 673c0 -10.667 -5.33105 -16.999 -15.998 -18.999l-50 -11l-200 -643h-88l-181 546c-3.33301 8 -6.66602 20 -9.99902 36l-5 -18c-0.666992 -2.66699 -1.33398 -5.66699 -2.00098 -9s-1.33398 -6.33301 -2.00098 -9l-182 -546h-88l-200 644
c-26 5.33301 -42.667 9.33301 -50 12c-10.667 2 -16 8 -16 18v43h244v-43c0 -10 -5.33301 -16 -16 -18l-36 -8c-9.33301 -2 -16 -3.33301 -20 -4l132 -448c7.33301 -26.667 12 -47.334 14 -62.001c6 28.667 11 49.334 15 62.001l169 498c2 5.33301 6 10.666 12 15.999
c6.66699 5.33301 13.667 8 21 8h28c16 0 27 -8 33 -24l168 -498c7.33301 -22.667 12.666 -42.667 15.999 -60l5 32l6 28l133 448c-4 0 -15.667 2.33301 -35 7l-21 4c-10.667 2 -16 8.33301 -16 19v42h238v-43z" />
    <glyph glyph-name="X" unicode="X" horiz-adv-x="754" 
d="M724 42l-0.000976562 -42.0029h-263v42c0 10.667 5 17 15 19c4 0 14.333 2 31 6c10.667 2.66699 19.334 4.33398 26.001 5.00098l-157 246c-2 -7.33301 -5 -14 -9 -20l-151 -226l57 -11c10 -2 15 -8.33301 15 -19v-42h-258v42c0 10.667 5.33301 17 16 19l66 11l198 296
l-187 275c-38 6 -60 10 -66 12c-10 2 -15 8.33301 -15 19v42h255v-42c0 -10.667 -5.33301 -17 -16 -19l-48 -9l149 -230c2 8 5.66699 16 11 24l137 204c-2.66699 0.666992 -5.66699 1.33398 -9 2.00098s-7.33301 1.33398 -12 2.00098c-4 1.33301 -15.667 4 -35 8
c-10.667 2 -16 8 -16 18v43h258v-43c0 -10 -4.33301 -16 -13 -18c-8 -2 -31 -6 -69 -12l-187 -271l197 -299c38 -6 60 -10 66 -12v-1c9.33301 -2 14 -8.33301 14 -19z" />
    <glyph glyph-name="Y" unicode="Y" horiz-adv-x="701" 
d="M682 672c0 -10 -4.00098 -16 -12.001 -18l-52 -12l-219 -358v-212c17.333 -4.66699 36.333 -8.66699 57 -12c10 -2 15 -8 15 -18v-43h-241v43c0 10 5.33301 16 16 18l56 12v212l-218 358l-50 12c-9.33301 2 -14 8.33301 -14 19v43h240v-43c0 -10.667 -5 -17 -15 -19
c-35.333 -7.33301 -54.333 -11 -57 -11l134 -228c13.333 -24 23 -45 29 -63c8 24 17.667 45.333 29 64l134 228c-3.33301 0 -22.666 3.66699 -57.999 11c-9.33301 2 -14 8.33301 -14 19v42h240v-44z" />
    <glyph glyph-name="Z" unicode="Z" horiz-adv-x="607" 
d="M491 79l3 31c2 30 3.33301 46 4 48c2 10.667 9 16 21 16h49v-174h-536v38c0 10 3 19.333 9 28l406 572h-321l-4 -57l-2 -22c-2 -11.333 -9.33301 -17 -22 -17h-48v174h524v-36c0 -12 -3.33301 -22.667 -10 -32l-406 -569h333z" />
    <glyph glyph-name="bracketleft" unicode="[" horiz-adv-x="260" 
d="M239 766v-36c0 -6 -2.33301 -11.333 -7 -16c-4 -4 -10 -6 -18 -6h-84v-794h84c8 0 14 -2 18 -6c5.33301 -5.33301 8 -11.333 8 -18v-34h-184l-1 910h184z" />
    <glyph glyph-name="backslash" unicode="\" horiz-adv-x="422" 
d="M88 728c8 -6 14.002 -14 18.002 -24l301 -748h-37c-10.667 0 -20.334 2.66699 -29.001 8c-10 6 -17 14.667 -21 26l-299 746h39c11.333 0 20.666 -2.66699 27.999 -8z" />
    <glyph glyph-name="bracketright" unicode="]" horiz-adv-x="259" 
d="M28 -92c4 4 10 5.99902 18 5.99902h84v794h-84c-7.33301 0 -13.333 2.33301 -18 7s-7 10.334 -7 17.001v34h184v-910h-184v34l-1 1c0 6 2.66699 11.667 8 17z" />
    <glyph glyph-name="asciicircum" unicode="^" horiz-adv-x="471" 
d="M442 394l-64.001 0.000976562c-6.66699 0 -11.667 1.66699 -15 5c-5.33301 5.33301 -8.66602 9.33301 -9.99902 12l-98 176l-11 22c-4 9.33301 -6.66699 16.333 -8 21c-4.66699 -16.667 -10.667 -31.334 -18 -44.001l-97 -176c-2 -4 -5 -8 -9 -12
c-2.66699 -2.66699 -8 -4 -16 -4h-68l179 322l56 1z" />
    <glyph glyph-name="underscore" unicode="_" horiz-adv-x="513" 
d="M59 -142v60h394v-60h-394z" />
    <glyph glyph-name="grave" unicode="`" horiz-adv-x="271" 
d="M146 720c5.33301 -3.33301 10 -9.00098 14 -17.001l75 -121h-51c-7.33301 0 -13 1 -17 3c-4.66699 2.66699 -9 6.33398 -13 11.001l-118 128h85c12.667 0 21 -1.33301 25 -4z" />
    <glyph glyph-name="a" unicode="a" horiz-adv-x="513" 
d="M483 57.5c2.66699 -3.66699 3.99609 -7.8291 3.99609 -12.4961v-43h-104c-6 0 -13 1.33301 -21 4c-4.66699 1.33301 -8 6.66602 -10 15.999l-10 48l-40 -33c-11.333 -9.33301 -24.666 -17.333 -39.999 -24c-14.667 -6.66699 -29.334 -11.667 -44.001 -15
c-13.333 -3.33301 -31.333 -5 -54 -5c-18.667 0 -36.667 3 -54 9c-20.667 7.33301 -35.667 15.333 -45 24c-12 10.667 -22 24.667 -30 42c-7.33301 15.333 -11 35.333 -11 60c0 21.333 5.33301 40.666 16 57.999c12 19.333 30 36 54 50c26.667 15.333 58.667 27.333 96 36
c38.667 8.66699 87.334 13 146.001 13v39c0 39.333 -8.66699 69.333 -26 90s-42.333 31 -75 31c-21.333 0 -39.666 -3 -54.999 -9c-17.333 -6.66699 -30 -12.667 -38 -18c-4 -2.66699 -8.5 -5.5 -13.5 -8.5l-15.5 -9.5c-7.33301 -5.33301 -15 -8 -23 -8
c-7.33301 0 -12.666 1.33301 -15.999 4c-4 3.33301 -7.33301 7.33301 -10 12l-16 28c26 25.333 56 45.333 90 60c30.667 13.333 66.667 20 108 20c30 0 55.333 -4.66699 76 -14c22.667 -10 41 -22.667 55 -38c14.667 -15.333 26 -35.333 34 -60c7.33301 -22 11 -48 11 -78
v-253c32 -6.66699 48.667 -10.334 50 -11.001v2c4.66699 -0.666992 8.33398 -2.83398 11.001 -6.50098zM229.996 221.005c-25.333 -4.66699 -48.666 -11.665 -69.999 -20.998c-18.667 -8.66699 -32 -18.667 -40 -30c-8 -12 -12 -24.667 -12 -38c0 -10.667 2.33301 -22 7 -34
c4 -10 10 -18 18 -24s16.667 -10.333 26 -13c11.333 -3.33301 22.333 -5 33 -5c13.333 0 27.333 1.66699 42 5c13.333 3.33301 25.666 7.66602 36.999 12.999c10 4.66699 21 12 33 22c6.66699 5.33301 16.667 14.666 30 27.999v104c-43.333 0 -78 -2.33301 -104 -7z" />
    <glyph glyph-name="b" unicode="b" horiz-adv-x="565" 
d="M544 253c0 -42 -6.00098 -79.0039 -18.001 -111.004c-12.667 -33.333 -28.667 -60.666 -48 -81.999s-42.666 -38 -69.999 -50c-26.667 -12 -56 -18 -88 -18c-56.667 0 -131.334 9.33301 -224.001 28v644l-22 3l-42 7c-4.66699 0.666992 -8.33398 2.83398 -11.001 6.50098
s-4 7.83398 -4 12.501v43h169v-303c21.333 24.667 45.333 44.334 72 59.001s57.334 22 92.001 22c30 0 56.667 -5.33301 80 -16s43.333 -27.334 60 -50.001c16.667 -23.333 29.334 -50 38.001 -80c9.33301 -33.333 14 -70.666 14 -111.999h2v-3zM441.999 173.996
c6.66699 24.667 10 50.002 10 76.002v8c0 34.667 -2.66699 62.667 -8 84c-6 22.667 -14.667 42 -26 58c-12 16 -25.333 27.333 -40 34c-15.333 6.66699 -33.666 10 -54.999 10c-30.667 0 -56.334 -6.66699 -77.001 -20c-22 -14 -42 -33 -60 -57v-289
c9.33301 -2.66699 23.5 -5.83398 42.5 -9.50098s38.167 -5.83398 57.5 -6.50098h26c22 1.33301 40 5.33301 54 12c17.333 8 32.666 20.667 45.999 38l1 2c12.667 16.667 22.334 36.667 29.001 60z" />
    <glyph glyph-name="c" unicode="c" horiz-adv-x="453" 
d="M244 -7c-64 0 -116.667 23.001 -158 69.001c-43.333 48.667 -65 112.667 -65 192c0 77.333 20.333 139.666 61 186.999c42.667 48.667 102 73 178 73c38 0 88 -12 150 -36v-132h-40c-9.33301 0 -15 4.66699 -17 14c-0.666992 2 -2 14.667 -4 38l-3 33
c-7.33301 2.66699 -14.5 4.66699 -21.5 6s-11.833 2.33301 -14.5 3c-18 2.66699 -36.667 4 -56 4c-17.333 0 -35.666 -4.33301 -54.999 -13c-18 -8 -33.667 -20.333 -47 -37c-25.333 -33.333 -38 -80 -38 -140s13.333 -107.333 40 -142c26 -33.333 61.667 -50 107 -50
c42 0 79 14 111 42c5.33301 5.33301 12 8 20 8c7.33301 0 12.666 -2.66699 15.999 -8l24 -33c-42 -52 -104.667 -78 -188 -78z" />
    <glyph glyph-name="d" unicode="d" horiz-adv-x="564" 
d="M380 456v207.999l-67 12c-10 2 -15 8 -15 18v44h170v-664c33.333 -6 52.666 -10 57.999 -12c9.33301 -2 14 -8 14 -18v-44h-124c-12 0 -20 6.33301 -24 19l-8 61c-47.333 -57.333 -104 -86 -170 -86c-59.333 0 -106 22 -140 66c-34.667 46 -52 110 -52 192
c0 76.667 19.667 139.334 59 188.001c40.667 50.667 94.334 76 161.001 76c56 0 102 -20 138 -60zM380 141.999l0.000976562 244c-30 40 -69 60 -117 60c-48.667 0 -85.667 -16.667 -111 -50s-38 -81.333 -38 -144c0 -95.333 24.667 -154 74 -176
c15.333 -6.66699 33.666 -10 54.999 -10l1 -1c52.667 0 98 25.667 136 77z" />
    <glyph glyph-name="e" unicode="e" horiz-adv-x="492" 
d="M340 499c26.667 -10 48.665 -24.335 65.998 -43.002c20 -21.333 34.667 -45 44 -71c10.667 -30 16 -62 16 -96c0 -15.333 -1.33301 -24.666 -4 -27.999c-3.33301 -4.66699 -9.33301 -7 -18 -7h-336c0 -32 4 -60 12 -84c6.66699 -20.667 18 -40 34 -58
c14.667 -16.667 31.334 -28.667 50.001 -36c20 -8 41.333 -12 64 -12c24 0 43.333 2.33301 58 7c14 4.66699 28 10.334 42 17.001c14.667 7.33301 24.667 12.666 30 15.999c8.66699 5.33301 15.334 8 20.001 8c7.33301 0 13 -3 17 -9l25 -33
c-9.33301 -12 -22.666 -23.333 -39.999 -34c-20 -12.667 -36.333 -21 -49 -25c-20 -6.66699 -38 -11.334 -54 -14.001c-20 -3.33301 -38.333 -5 -55 -5c-34.667 0 -67 6 -97 18c-28.667 11.333 -54.334 29 -77.001 53c-21.333 22 -38 50.333 -50 85
c-12 34 -18 72.667 -18 116c0 34.667 5.66699 67.334 17 98.001c11.333 31.333 27 58 47 80c20.667 22.667 45.667 40.334 75 53.001s62 19 98 19c29.333 0 57 -5 83 -15zM157.998 411.998c-24.667 -26 -40.001 -60.668 -46.001 -104.001h275c0 20.667 -3 39.334 -9 56.001
c-7.33301 20.667 -15.333 35.667 -24 45c-11.333 12 -25 21.667 -41 29c-15.333 6.66699 -33.666 10 -54.999 10l1 1c-43.333 0 -77 -12.333 -101 -37z" />
    <glyph glyph-name="f" unicode="f" horiz-adv-x="372" 
d="M196 543v-46.999h146v-64h-144v-359c32 -4.66699 54.333 -8.33398 67 -11.001c10 -2 15 -8.33301 15 -19v-43h-248v43c0 10.667 5 17 15 19l62 11v357l-56 7c-16 4 -24 11.667 -24 23v36h80v49c0 58.667 15.667 103.667 47 135c30.667 31.333 73 47 127 47
c20 0 41 -3.33301 63 -10l-2 -45c0 -6 -3 -10 -9 -12c-4 -1.33301 -11.667 -2 -23 -2h-14c-68 0 -102 -38.333 -102 -115z" />
    <glyph glyph-name="g" unicode="g" horiz-adv-x="507" 
d="M290 506c19.333 -5.33301 36.667 -12.6709 52 -22.0039h138v-33c0 -10.667 -7 -17.667 -21 -21l-57 -8c10.667 -19.333 16 -43.333 16 -72c0 -26 -4.66699 -48.333 -14 -67c-10.667 -21.333 -23.667 -38.333 -39 -51c-18.667 -15.333 -38.667 -26.666 -60 -33.999
s-46.666 -11 -75.999 -11c-24 0 -46.333 3 -67 9c-9.33301 -5.33301 -17.333 -12.666 -24 -21.999c-5.33301 -7.33301 -8 -14.666 -8 -21.999c0 -12.667 4.66699 -21.667 14 -27c11.333 -6.66699 24.333 -11 39 -13c21.333 -2.66699 39.666 -4 54.999 -4
c13.333 0 34 -1.33301 62 -4c5.33301 -0.666992 14.5 -1.5 27.5 -2.5s24.5 -2.5 34.5 -4.5c21.333 -4 39.666 -10 54.999 -18c14.667 -7.33301 27.667 -19 39 -35c9.33301 -13.333 14 -32 14 -56c0 -23.333 -5.33301 -44.666 -16 -63.999c-10 -18.667 -26 -36.667 -48 -54
c-19.333 -15.333 -44 -28 -74 -38c-28 -9.33301 -61.333 -14 -100 -14c-40 0 -72.667 3.66699 -98 11c-28 8 -51 18 -69 30s-31.667 26.333 -41 43s-14 33.334 -14 50.001c0 24.667 8 46 24 64s38 32 66 42c-14 6 -25.333 15 -34 27s-13 27 -13 45c0 4 1.33301 11.333 4 22
c2 8 6 16 12 24c5.33301 7.33301 12.333 14.666 21 21.999c2.66699 2.66699 12 8.66699 28 18c-25.333 14 -45 32.667 -59 56s-21 50.333 -21 81c0 26 4.66699 48.333 14 67c10 20.667 23.333 37.667 40 51c16.667 14 37.334 25 62.001 33c22 7.33301 47.667 11 77 11l-2 -2
c22.667 0 43 -2.33301 61 -7zM278.001 251.995c12.667 4.66699 24.332 11.668 34.999 21.001c9.33301 8.66699 16.333 19.667 21 33c4.66699 14 7 27.667 7 41c0 31.333 -9.66699 56 -29 74c-18.667 18 -46 27 -82 27c-35.333 0 -62.666 -9 -81.999 -27
c-18.667 -18 -28 -42.667 -28 -74c0 -14.667 2.66699 -28.334 8 -41.001c6 -14 13 -24.667 21 -32c10.667 -9.33301 22.334 -16.333 35.001 -21c13.333 -4.66699 28.666 -7 45.999 -7v-2c17.333 0 33.333 2.66699 48 8zM377.999 -0.00390625
c-6.66699 8 -16.332 13.999 -28.999 17.999s-26.334 7 -41.001 9c-21.333 2.66699 -38 4.33398 -50 5.00098l-53 2c-3.33301 0 -20.333 2 -51 6c-19.333 -9.33301 -35 -20.333 -47 -33c-12 -13.333 -18 -29 -18 -47c0 -11.333 3 -22 9 -32c6 -9.33301 15 -17.666 27 -24.999
c12.667 -7.33301 27.667 -13 45 -17c18 -4 39.333 -6 64 -6c20.667 0 42 2.33301 64 7c17.333 3.33301 33.333 9.66602 48 18.999c13.333 8 23.333 17.333 30 28c7.33301 11.333 11 23.333 11 36h1c0 12.667 -3.33301 22.667 -10 30z" />
    <glyph glyph-name="h" unicode="h" horiz-adv-x="625" 
d="M358 514c54 0 96 -17.332 126 -51.999c29.333 -34.667 44 -81.334 44 -140.001v-249c32 -6 51 -10 57 -12c10 -2 15 -8.33301 15 -19v-42h-161v322c0 80.667 -35.667 121 -107 121c-48.667 0 -94 -23.667 -136 -71v-300l12 -2l44 -9c10.667 -2 16 -8.33301 16 -19v-42
h-234v42c0 10.667 5.33301 17 16 19l56 11v591c-38 6 -60 10 -66 12c-10.667 2 -16 8.33301 -16 19v42h172v-298c48.667 50.667 102.667 76 162 76z" />
    <glyph glyph-name="i" unicode="i" horiz-adv-x="289" 
d="M90 641c-3.33301 6.66699 -5.00195 14.667 -5.00195 24c0 10 1.66699 18.333 5 25c4.66699 9.33301 9.33398 16.333 14.001 21c5.33301 5.33301 12 10 20 14c6.66699 3.33301 14.667 5 24 5s17.333 -1.66699 24 -5c8 -4 14.667 -8.66699 20 -14
c4.66699 -4.66699 9.33398 -11.667 14.001 -21c4 -8 6 -16.333 6 -25c0 -8 -2 -16 -6 -24s-8.66699 -14.667 -14 -20s-12 -10 -20 -14c-6.66699 -3.33301 -14.667 -5 -24 -5s-17.333 1.66699 -24 5c-8 4 -14.667 8.66699 -20 14s-10 12 -14 20zM259.998 55.5
c2.66699 -3.66699 3.99902 -7.83594 3.99902 -12.5029v-43h-233v43c0 4.66699 1.33301 8.83398 4 12.501s6.33398 5.83398 11.001 6.50098l58 11v361l-58 11c-4.66699 0.666992 -8.33398 2.83398 -11.001 6.50098s-4 7.83398 -4 12.501v42h161v-433l57 -11
c4.66699 -0.666992 8.33398 -2.83398 11.001 -6.50098z" />
    <glyph glyph-name="j" unicode="j" horiz-adv-x="258" 
d="M225 665c0 -9.33301 -1.66895 -17.333 -5.00195 -24c-4 -8 -8.66699 -14.667 -14 -20s-12 -10 -20 -14c-6.66699 -3.33301 -14.667 -5 -24 -5s-17.333 1.66699 -24 5c-8 4 -14.667 8.66699 -20 14s-10 12 -14 20c-3.33301 6.66699 -5 14.667 -5 24
c0 10 1.66699 18.333 5 25c4.66699 9.33301 9.33398 16.333 14.001 21c5.33301 5.33301 12 10 20 14c6.66699 3.33301 14.667 5 24 5s17.333 -1.66699 24 -5c8 -4 14.667 -8.66699 20 -14c4.66699 -4.66699 9.33398 -11.667 14.001 -21c3.33301 -6.66699 5 -15 5 -25z
M65.998 -182c-21.333 0 -41.999 3.33203 -61.999 9.99902l4 48c1.33301 6.66699 6.66602 10 15.999 10h20c26 0 44.333 6 55 18c11.333 12.667 17 32 17 58v471c-4 0.666992 -10.333 1.83398 -19 3.50098l-39 7.5c-9.33301 2 -14 8.33301 -14 19v43h160v-544
c0 -67.333 -25.667 -112 -77 -134v1c-16.667 -7.33301 -37 -11 -61 -11z" />
    <glyph glyph-name="k" unicode="k" horiz-adv-x="578" 
d="M550 44l0.000976562 -44h-94c-12.667 0 -24 6 -34 18l-166 208c-4.66699 6.66699 -9.66699 11 -15 13s-13 3 -23 3h-24v-169c4 0 15.667 -2.33301 35 -7l21 -4c10.667 -2 16 -8.33301 16 -19v-43h-234v43c0 10.667 5 17 15 19l57 11v591c-32 6 -51 10 -57 12
c-10 2 -15 8 -15 18v43h162v-433h22c14 0 24.667 4.66699 32 14l114 122c-2 0 -4 0.333008 -6 1s-4 1 -6 1l-16 3c-10.667 2 -16 8.33301 -16 19v42h212v-42c0 -10 -4.33301 -16 -13 -18l-62 -12l-118 -126c-10.667 -12.667 -20.334 -21.667 -29.001 -27
c13.333 -8.66699 23.333 -19 30 -31l140 -178l26 -4c17.333 -4 28 -6 32 -6h-1c10 -2 15 -8 15 -18z" />
    <glyph glyph-name="l" unicode="l" horiz-adv-x="290" 
d="M266 43v-43h-234v43c0 10.667 5.33301 17 16 19l56 11v591c-30.667 6 -49.334 10 -56.001 12c-10.667 2 -16 8 -16 18v43h162v-663c30.667 -6 49.334 -10 56.001 -12c10.667 -2 16 -8.33301 16 -19z" />
    <glyph glyph-name="m" unicode="m" horiz-adv-x="890" 
d="M332 514c34.667 0 62.665 -9.66699 83.998 -29c20.667 -18.667 36 -44.334 46 -77.001c14.667 36 36.667 62.667 66 80c30.667 17.333 60 26 88 26c29.333 0 55.333 -4.33301 78 -13c21.333 -8 39.333 -20.333 54 -37c29.333 -33.333 44 -80.666 44 -141.999v-250
c33.333 -6 52.666 -10 57.999 -12c10 -2 15 -8 15 -18v-44h-161v323c0 40.667 -8.66699 70.667 -26 90c-18.667 20.667 -44 31 -76 31c-30.667 0 -56 -10 -76 -30c-22 -22 -33 -52 -33 -90v-250c2.66699 -0.666992 8.33398 -2 17.001 -4s22 -4.66699 40 -8
c10 -2 15 -8 15 -18v-43h-161v323c0 80 -32 120 -96 120c-41.333 0 -79 -22 -113 -66v-304l27 -5l30 -6c10 -2 15 -8.33301 15 -19v-42h-233v42c0 10.667 4.66699 17 14 19l58 11v361c-33.333 6 -52.666 10 -57.999 12c-9.33301 2 -14 8.33301 -14 19v42h124
c12 0 20 -6 24 -18l7 -52v-1c42.667 52.667 90.334 79 143.001 79z" />
    <glyph glyph-name="n" unicode="n" horiz-adv-x="625" 
d="M358 515c54.667 0 96.666 -17.667 125.999 -53c28.667 -34.667 43 -81 43 -139v-249c32 -6 51 -10 57 -12c10.667 -2 16 -8.33301 16 -19v-43h-162v322c0 81.333 -35.333 122 -106 122c-50 0 -96 -23.667 -138 -71v-300c2.66699 0 22 -4 58 -12c10 -2 15 -8.33301 15 -19
v-42h-233v42c0 10.667 4.66699 17 14 19l58 11v361c-33.333 6 -52.666 10 -57.999 12c-9.33301 2 -14 8.33301 -14 19v42h124c12 0 20 -6 24 -18l8 -55v1c50 54 106 81 168 81z" />
    <glyph glyph-name="o" unicode="o" horiz-adv-x="528" 
d="M364 496c29.333 -12 55 -29.335 77 -52.002c20.667 -21.333 36.667 -48.666 48 -81.999c11.333 -32.667 17 -68.667 17 -108s-5.66699 -75.333 -17 -108c-11.333 -33.333 -27.333 -60.666 -48 -81.999c-22 -22.667 -47.667 -40 -77 -52c-30 -12 -63.333 -18 -100 -18
s-70 6 -100 18c-29.333 12 -55 29.333 -77 52c-20 20.667 -36.333 48 -49 82c-10.667 28.667 -16 64.667 -16 108s5.33301 79.333 16 108c12.667 34 29 61.333 49 82c22 22.667 47.667 40 77 52c30 12 63.333 18 100 18s70 -6 100 -18zM376 111.998
c24.667 34.667 37 81.668 37 141.001s-12.333 106.333 -37 141c-23.333 33.333 -60.666 50 -111.999 50c-26 0 -48 -4 -66 -12c-17.333 -8 -32.666 -20.667 -45.999 -38c-12.667 -17.333 -22 -37.333 -28 -60c-6.66699 -26.667 -10 -54 -10 -82
c0 -26.667 3.33301 -53.334 10 -80.001c6 -22.667 15.333 -42.667 28 -60c11.333 -15.333 26.666 -27.333 45.999 -36c21.333 -9.33301 43.333 -14 66 -14c51.333 0 88.666 16.667 111.999 50z" />
    <glyph glyph-name="p" unicode="p" horiz-adv-x="556" 
d="M342 516c59.333 0 106 -21.999 140 -65.999c34.667 -46.667 52 -111.334 52 -194.001c0 -76 -19.333 -138.333 -58 -187c-40.667 -50.667 -92 -76 -154 -76s-110.667 19.667 -146 59v-150l27 -6l29 -6c10.667 -2 16 -8.33301 16 -19v-43h-234v43
c0 10.667 5.33301 17 16 19l56 11v532c-30.667 6 -49.334 10 -56.001 12c-10.667 2 -16 8.33301 -16 19v42h126c12 0 20 -6 24 -18l7 -60h1c48.667 58.667 105.334 88 170.001 88zM292 62.001c49.333 0 86.667 16.667 112 50s38 81.333 38 144c0 62 -11 108.833 -33 140.5
s-54.333 47.5 -97 47.5c-52.667 0 -98 -25.667 -136 -77v-245c30 -40 68.667 -60 116 -60z" />
    <glyph glyph-name="q" unicode="q" horiz-adv-x="555" 
d="M215 -6c-59.333 0 -106 22 -140 66c-34.667 46.667 -52 110.667 -52 192v2c0 80 21.667 144.333 65 193c40.667 45.333 93.334 68 158.001 68c53.333 0 116 -7 188 -21l36 -7v-585c35.333 -5.33301 56.666 -9.33301 63.999 -12c10.667 -2 16 -8 16 -18v-43h-251v43
c0 10 4.33301 16 13 18c8 2 31 6 69 12v173h-1c-46 -54 -101 -81 -165 -81zM380 142l0.000976562 288c-42.667 10.667 -82.334 16 -119.001 16h-6c-33.333 -1.33301 -61 -11.166 -83 -29.499s-38 -44.833 -48 -79.5c-6.66699 -24.667 -10 -44.334 -10 -59.001v-26
c0 -124.667 43.333 -187 130 -187c52.667 0 98 25.667 136 77z" />
    <glyph glyph-name="r" unicode="r" horiz-adv-x="432" 
d="M345 516c26 0 49.002 -6.00098 69.002 -18.001l-11 -67c-2 -8.66699 -6.33301 -13 -13 -13c-4.66699 0 -12.667 1.66699 -24 5s-25 5 -41 5c-58.667 0 -102 -35.333 -130 -106v-250l57 -11c10 -2 15 -8.33301 15 -19v-42h-233v42c0 10.667 5 17 15 19l57 11v361
c-32 6 -51 10 -57 12c-10 2 -15 8.33301 -15 19v42h123c9.33301 0 15.666 -1.66699 18.999 -5s6 -9.66602 8 -18.999l6 -79h1c37.333 75.333 88.666 113 153.999 113z" />
    <glyph glyph-name="s" unicode="s" horiz-adv-x="410" 
d="M363 487l0.000976562 -129.997h-39c-9.33301 0 -15 4.66699 -17 14l-6 66c-31.333 7.33301 -57.333 11 -78 11h-1c-27.333 0 -50.333 -7.33301 -69 -22c-18 -14 -27 -29.333 -27 -46c0 -17.333 4 -30 12 -38c13.333 -15.333 32.666 -27 57.999 -35l30 -9
c5.33301 -1.33301 16 -4.66602 32 -9.99902l48 -18c13.333 -4.66699 27.333 -13.334 42 -26.001c27.333 -21.333 41 -50.666 41 -87.999c0 -48.667 -16.333 -87.334 -49 -116.001c-35.333 -31.333 -80 -47 -134 -47c-55.333 0 -110 9 -164 27v132h36c8 0 13 -4 15 -12l6 -64
c26.667 -13.333 61 -20 103 -20c32 0 58 8.33301 78 25c17.333 15.333 26 32.333 26 51c0 19.333 -4 33.333 -12 42c-9.33301 10.667 -19.333 18.667 -30 24c-14.667 7.33301 -28.667 12.666 -42 15.999c-49.333 16 -80.333 26.667 -93 32
c-16 7.33301 -31 16.666 -45 27.999c-28 23.333 -42 54.666 -42 93.999c0 40 16 74 48 102c33.333 29.333 80.333 44 141 44c34.667 0 78.667 -9 132 -27z" />
    <glyph glyph-name="t" unicode="t" horiz-adv-x="363" 
d="M125 26c-21.333 21.333 -31.9971 53.332 -31.9971 95.999v310h-61c-6 0 -10.667 1.33301 -14 4s-5 7.66699 -5 15v35l83 11l20 157c0 5.33301 2 9.33301 6 12c3.33301 2.66699 8 4 14 4h45v-174h145v-65h-145v-304c0 -22 5 -38 15 -48s23.667 -15 41 -15
c7.33301 0 15.666 1.33301 24.999 4c6 2 12 4.66699 18 8l6 4l6 4c5.33301 2.66699 8.66602 4 9.99902 4c4.66699 0 8.66699 -2.66699 12 -8l26 -42c-18 -15.333 -36.667 -26.666 -56 -33.999c-22 -8 -44.333 -12 -67 -12c-38.667 0 -69.334 11.333 -92.001 34z" />
    <glyph glyph-name="u" unicode="u" horiz-adv-x="606" 
d="M419 132l0.000976562 300.001c-6 2 -25 6 -57 12c-10 2 -15 8.33301 -15 19v43h161v-434c32 -6 51 -10 57 -12c10 -2 15 -8 15 -18v-43h-125c-12 0 -20 6.33301 -24 19l-7 54c-48 -54 -104 -81 -168 -81c-54 0 -96 17.667 -126 53c-29.333 35.333 -44 81.666 -44 138.999
v250c-30.667 6 -49.334 10 -56.001 12c-10.667 2 -16 8.33301 -16 19v42h162v-322c0 -40 8.66699 -70 26 -90c18 -20.667 44.667 -31 80 -31v-1c50 0 95.667 23.333 137 70z" />
    <glyph glyph-name="v" unicode="v" horiz-adv-x="596" 
d="M578 462c0 -10 -5.00098 -16.001 -15.001 -18.001c-2 0 -4.83301 -0.5 -8.5 -1.5s-8.16699 -1.83301 -13.5 -2.5l-27 -6l-177 -435h-81l-177 435c-6.66699 2 -15.667 4 -27 6l-22 4c-10 2 -15 8.33301 -15 19v43h227v-43c0 -10.667 -5 -17 -15 -19
c-4.66699 -1.33301 -11.667 -2.66602 -21 -3.99902s-20.666 -3.33301 -33.999 -6l107 -272c5.33301 -14 11.333 -38 18 -72c9.33301 37.333 16 61.333 20 72l108 272l-57 11c-10 2 -15 8.33301 -15 19v42h225v-44z" />
    <glyph glyph-name="w" unicode="w" horiz-adv-x="869" 
d="M850 462c0 -10 -5 -16 -15 -18c-2 0 -5 -0.5 -9 -1.5s-9.33301 -2.16699 -16 -3.5c-7.33301 -1.33301 -12.833 -2.5 -16.5 -3.5s-6.5 -1.5 -8.5 -1.5l-141 -434h-70c-9.33301 -0 -15.333 5.33301 -18 16l-112 344c-2 5.33301 -4.33301 13.333 -7 24l-2 10.5
c-0.666992 3.66699 -1.66699 7.5 -3 11.5l-2 -12l-2 -12l-6 -22l-114 -343c-4 -11.333 -10.667 -17 -20 -17h-68l-140 435c-3.33301 0 -9 1 -17 3l-21 5c-5.33301 1.33301 -9.33301 2 -12 2c-10.667 2 -16 8.33301 -16 19v42h226v-42c0 -10.667 -5 -17 -15 -19
c-8 -2 -16.333 -3.66699 -25 -5l-30 -6l80 -272c1.33301 -6.66699 2.66602 -12.667 3.99902 -18s2.33301 -10 3 -14c4.66699 -22 7 -34.333 7 -37c2 10.667 8.66699 33.667 20 69l106 328c4 12 12 18 24 18h39c12.667 0 21 -6 25 -18l105 -328l18 -68c4 24 9 46.667 15 68
l82 272c-3.33301 0 -22.666 3.66699 -57.999 11c-10.667 2 -16 8.33301 -16 19v42l226 -1v-43z" />
    <glyph glyph-name="x" unicode="x" horiz-adv-x="571" 
d="M520 62c12 -2 18.001 -8.66602 18.001 -19.999v-43h-199v43c0 10 5 16 15 18c1.33301 0 4 0.5 8 1.5s10 2.16699 18 3.5l-98 151c-1.33301 -6.66699 -4.66602 -15.334 -9.99902 -26.001l-84 -124c2.66699 0 6.66699 -0.666992 12 -2l18 -4c10 -2 15 -8 15 -18v-43h-199
v43c0 10 5 16 15 18c1.33301 0 4.16602 0.833008 8.49902 2.5s9.5 2.83398 15.5 3.50098l24 4l129 188l-121 176c-13.333 2.66699 -24.5 4.66699 -33.5 6s-15.5 2.66602 -19.5 3.99902c-9.33301 2 -14 8 -14 18v44h198v-44c0 -10 -5.33301 -16 -16 -18
c-0.666992 0 -2.33398 -0.333008 -5.00098 -1s-7.66699 -1.66699 -15 -3l89 -138c2.66699 8.66699 7 18 13 28l74 109l-16 3l-11 2c-10 2 -15 8.33301 -15 19v43h198v-43c0 -10.667 -5 -17 -15 -19c-23.333 -4.66699 -41 -8 -53 -10l-120 -170l130 -193l2 -1
c8 -2 22.667 -4.66699 44 -8z" />
    <glyph glyph-name="y" unicode="y" horiz-adv-x="596" 
d="M576 464c0 -10 -4.99707 -15.999 -14.9971 -17.999c-2.66699 0 -6.5 -0.666992 -11.5 -2l-15.5 -4l-25 -5l-251 -584c-2.66699 -6.66699 -6.83398 -12 -12.501 -16s-12.167 -6 -19.5 -6h-66l92 201l-178 406c-20 3.33301 -35 6.66602 -45 9.99902c-10 2 -15 8 -15 18v43
h227v-43c0 -10 -5 -16 -15 -18c-6.66699 -2 -25.334 -6 -56.001 -12l113 -264c3.33301 -7.33301 6.16602 -16 8.49902 -26s3.83301 -16.667 4.5 -20c4.66699 16 10 31.333 16 46l109 264l-55 11c-9.33301 2 -14 8.33301 -14 19v42h188l36 1v-43z" />
    <glyph glyph-name="z" unicode="z" horiz-adv-x="461" 
d="M426 469c0 -12 -4.33301 -23.334 -13 -34.001l-274 -365h225l4.5 47c1 10 1.5 16.333 1.5 19c2 8 7 12 15 12h35v-148h-386v37c0 10.667 4 21.334 12 32.001l276 367h-217l-5 -60c-2 -8.66699 -7.33301 -13 -16 -13h-35v143l377 1v-38z" />
    <glyph glyph-name="braceleft" unicode="{" horiz-adv-x="277" 
d="M72 262c-11.333 13.333 -27.998 20 -49.998 20v54c22 0 38.667 6.66699 50 20c12 14 18 31.333 18 52c0 12 -1.33301 28.667 -4 50c-1.33301 12.667 -4 29 -8 49c-6 30.667 -9 47 -9 49c-2.66699 21.333 -4 38.666 -4 51.999c0 21.333 3.66699 42.333 11 63
c6.66699 19.333 17 36 31 50s31 25 51 33c18.667 7.33301 42.667 11 72 11h27v-39c0 -6.66699 -2.33301 -11.667 -7 -15s-9 -5 -13 -5h-10c-26 0 -46.333 -8.33301 -61 -25s-22 -39.334 -22 -68.001c0 -12 1.33301 -30 4 -54c1.33301 -13.333 4 -30.333 8 -51
c3.33301 -18.667 6 -35.334 8 -50.001c2 -16 3 -32.333 3 -49c0 -14 -1.66699 -25.667 -5 -35c-4.66699 -12 -10 -21.667 -16 -29c-8.66699 -9.33301 -16.667 -16.666 -24 -21.999c-8 -5.33301 -18 -9.66602 -30 -12.999c10 -2.66699 20 -7.33398 30 -14.001
c7.33301 -5.33301 15.333 -12.666 24 -21.999c6 -6.66699 11.333 -16 16 -28c4 -10 6 -21.667 6 -35c0 -11.333 -1.33301 -27.666 -4 -48.999c-2 -14.667 -4.66699 -31.334 -8 -50.001c-4 -20.667 -6.66699 -37.667 -8 -51c-2.66699 -24 -4 -42 -4 -54
c0 -29.333 7.66699 -52.333 23 -69c15.333 -16 35.666 -24 60.999 -24h10c4 0 8.33301 -1.66699 13 -5s7 -8.33301 7 -15v-40h-26c-28 0 -52 4 -72 12s-37.333 19.333 -52 34s-25.334 31.334 -32.001 50.001c-6.66699 19.333 -10 40.333 -10 63
c0 12.667 1.33301 29.667 4 51c2 14.667 4.66699 31.334 8 50.001c6 30.667 9 47 9 49c2.66699 21.333 4 37.666 4 48.999l-1 -2c0 20.667 -6 38 -18 52z" />
    <glyph glyph-name="bar" unicode="|" horiz-adv-x="179" 
d="M124 -172h-68v938h68v-938z" />
    <glyph glyph-name="braceright" unicode="}" horiz-adv-x="277" 
d="M190 164c2 -14.667 4.66699 -31.333 8 -50c6 -30.667 9 -47 9 -49c2.66699 -21.333 4 -38.333 4 -51c0 -22 -3.66699 -43.333 -11 -64s-17.333 -37.334 -30 -50.001s-30 -23.334 -52 -32.001c-20 -8 -44 -12 -72 -12h-26v40c0 6 2.33301 10.667 7 14
c3.33301 2.66699 7.66602 4 12.999 4h10c24.667 0 45 8.66699 61 26c15.333 16.667 23 39.334 23 68.001c0 12 -1.33301 30 -4 54c-1.33301 13.333 -4 30.333 -8 51c-4 20 -6.66699 36.333 -8 49c-2.66699 21.333 -4 38 -4 50c0 12.667 2 24 6 34
c5.33301 13.333 10.666 23 15.999 29c8.66699 9.33301 16.667 16.666 24 21.999c8 5.33301 18 9.66602 30 12.999c-10 2.66699 -20 7.33398 -30 14.001c-7.33301 5.33301 -15.333 12.666 -24 21.999c-6 7.33301 -11.333 17 -16 29c-3.33301 9.33301 -5 21 -5 35
c0 17.333 1 34 3 50c2 14.667 4.66699 31.334 8 50.001c4 21.333 6.66699 38 8 50c2.66699 24 4 42 4 54c0 29.333 -7.33301 52.333 -22 69s-35 25 -61 25h-10c-4 0 -8.33301 1.66699 -13 5s-7 8.33301 -7 15v39h27c30 0 54 -3.66699 72 -11
c18.667 -7.33301 35.334 -18.333 50.001 -33s25.334 -31.334 32.001 -50.001c6.66699 -19.333 10 -40.333 10 -63c0 -13.333 -1.33301 -30.666 -4 -51.999c-1.33301 -12.667 -4 -29 -8 -49c-6 -30.667 -9 -47 -9 -49c-2.66699 -21.333 -4 -38 -4 -50
c0 -21.333 5.66699 -38.666 17 -51.999s28.666 -20 51.999 -20v-54c-23.333 0 -40.666 -6.66699 -51.999 -20s-17 -30.666 -17 -51.999l-1 2c0 -12 1.33301 -28.667 4 -50z" />
    <glyph glyph-name="asciitilde" unicode="~" horiz-adv-x="549" 
d="M414 326c12.667 14.667 19 33.668 19 57.001h72c0 -22.667 -3 -43 -9 -61c-6.66699 -19.333 -15.334 -35.333 -26.001 -48c-11.333 -13.333 -25.666 -24 -42.999 -32c-15.333 -7.33301 -34.333 -11 -57 -11c-19.333 0 -36.666 2.66699 -51.999 8l-50 18l-45 18
c-14 6 -27 9 -39 9c-21.333 0 -38.333 -7.33301 -51 -22s-19 -33.334 -19 -56.001h-72c0 21.333 3.33301 42 10 62c6.66699 19.333 15.334 35.333 26.001 48s24.667 23 42 31c15.333 7.33301 34.666 11 57.999 11c19.333 0 36.666 -2.66699 51.999 -8l50 -18l45 -18
c12.667 -5.33301 25.667 -8 39 -8c22 0 38.667 6.66699 50 20z" />
    <glyph glyph-name="uni00A0" unicode="&#xa0;" horiz-adv-x="215" 
 />
    <glyph glyph-name="exclamdown" unicode="&#xa1;" horiz-adv-x="200" 
d="M40 476c3.33301 8.66699 7.33301 15.333 12 20c6 6 12.667 10.333 20 13c8.66699 3.33301 17 5 25 5c7.33301 0 15.333 -1.66699 24 -5c6.66699 -2.66699 13 -7 19 -13c5.33301 -5.33301 10 -12 14 -20c3.33301 -6.66699 5 -14.667 5 -24s-1.66699 -17.333 -5 -24
c-4 -8 -8.66699 -14.667 -14 -20c-4.66699 -4.66699 -11 -9 -19 -13c-6.66699 -3.33301 -14.667 -5 -24 -5c-10 0 -18.333 1.66699 -25 5c-8 4 -14.333 8.33301 -19 13c-6 6 -10.333 12.667 -13 20s-4 15.333 -4 24h-1c0 7.33301 1.66699 15.333 5 24zM58 141.999
c0 1.33301 1.00195 16 3.00195 44c1.33301 18.667 2.66602 33.334 3.99902 44.001l5 50h61l5 -50c1.33301 -10.667 2.66602 -25.334 3.99902 -44.001c2 -28 3 -42.667 3 -44l1 -43v-271h-84l-2 271v43z" />
    <glyph glyph-name="cent" unicode="&#xa2;" horiz-adv-x="460" 
d="M256 -6l-5 -86c0 -4.66699 -2.33301 -10 -7 -16c-4 -5.33301 -10 -8 -18 -8h-32l7 115c-42.667 10 -79 31 -109 63c-42.667 47.333 -64 111.333 -64 192c0 78.667 20.667 141 62 187c36 42 85 66 147 72l6 89c0 6 2.33301 12 7 18c4 5.33301 10 8 18 8h33l-8 -116
c34.667 -4 75.667 -15.667 123 -35v-131h-40c-4.66699 0 -8.16699 1 -10.5 3s-4.16602 5.66699 -5.49902 11c0 0.666992 -0.666992 7.66699 -2 21l-4 49l-37 10c-16 2.66699 -25.667 4 -29 4v-1l-26 -380v-1h22c11.333 0 23.666 2.33301 36.999 7
c10.667 4 22.334 9.66699 35.001 17c3.33301 2 11 8 23 18c6.66699 5.33301 13 8 19 8c6.66699 0 12 -3 16 -9l24 -31c-40.667 -50 -101.334 -76 -182.001 -78zM159 113c12.667 -16.667 28 -29 46 -37c2 8 11 130 27 366c-53.333 -12 -88 -48 -104 -108
c-6 -24 -9 -50.333 -9 -79c0 -60 13.333 -107.333 40 -142z" />
    <glyph glyph-name="sterling" unicode="&#xa3;" horiz-adv-x="581" 
d="M33 356c6.66699 6.66699 14.333 10.0039 23 10.0039h66v130c0 29.333 4.66699 58.666 14 87.999c8.66699 27.333 22.334 51.333 41.001 72c18.667 21.333 41.667 37.666 69 48.999c28 12 60 18 96 18c26 0 49 -3 69 -9c17.333 -5.33301 35 -14.666 53 -27.999
c16.667 -12 30.334 -25 41.001 -39c10.667 -13.333 20.334 -29.666 29.001 -48.999l-36 -22c-1.33301 -0.666992 -2.66602 -1.5 -3.99902 -2.5s-3.33301 -1.83301 -6 -2.5s-6 -1 -10 -1c-6.66699 0 -11.334 0.666992 -14.001 2c-1.33301 0.666992 -5 4 -11 10l-20 25
c-6.66699 7.33301 -14.334 14.333 -23.001 21c-6 4.66699 -15.667 9.33398 -29 14.001c-11.333 4 -24.333 6 -39 6c-20.667 0 -39.334 -3.66699 -56.001 -11c-17.333 -7.33301 -30.666 -17.333 -39.999 -30c-10 -12.667 -18 -28.334 -24 -47.001
c-5.33301 -16 -8 -36.667 -8 -62v-131h221v-36c0 -6.66699 -2.33301 -12.334 -7 -17.001s-11 -7 -19 -7h-195v-121c0 -26.667 -4.66699 -48.334 -14 -65.001c-10.667 -18.667 -23.334 -35 -38.001 -49c8 1.33301 17.333 2.66602 28 3.99902c6.66699 0.666992 16.667 1 30 1
h338v-38c0 -3.33301 -1.33301 -7.66602 -4 -12.999c-3.33301 -6.66699 -6 -11 -8 -13c-4 -4 -8 -7 -12 -9c-5.33301 -2.66699 -10.666 -4 -15.999 -4h-482v58c2.66699 0.666992 7.66699 2.16699 15 4.5s13.666 5.16602 18.999 8.49902c10 6 19 13 27 21
c7.33301 7.33301 13.666 17.333 18.999 30s8 26 8 40v145h-98v29l-1 -2c0 9.33301 2.66699 16.666 8 21.999z" />
    <glyph glyph-name="currency" unicode="&#xa4;" horiz-adv-x="508" 
d="M84 388c8 22.667 15.334 38.6699 22.001 48.0029l-76 76l45 46l75 -76c14 10 30 18 48 24c16 5.33301 34.667 8 56 8c20.667 0 38.667 -2.66699 54 -8c19.333 -6.66699 35 -14.334 47 -23.001l77 77l44 -46l-76 -76c9.33301 -13.333 17.333 -29.333 24 -48
c6 -16.667 9 -34.667 9 -54c0 -20.667 -2.66699 -38.667 -8 -54c-6.66699 -19.333 -14.334 -35 -23.001 -47l76 -75l-45 -46l-76 76c-14 -10 -30 -18 -48 -24c-16 -5.33301 -34.333 -8 -55 -8s-38.667 2.66699 -54 8c-20 7.33301 -35.333 14.666 -46 21.999l-77 -76l-45 46
l76 76c-10 14 -18 29.667 -24 47c-5.33301 15.333 -8 33.666 -8 54.999l-1 -2c0 19.333 3 37.333 9 54zM150.001 291.003c5.33301 -12.667 13.333 -24.335 24 -35.002c10 -10 22 -18 36 -24c15.333 -6.66699 30 -10 44 -10s28.667 3.33301 44 10c14 6 26 14 36 24
c10.667 10.667 18.667 22.334 24 35.001c6 14 9 28.333 9 43c0 15.333 -3 30 -9 44s-14 26 -24 36s-22 18 -36 24c-15.333 6.66699 -30 10 -44 10s-28.667 -3.33301 -44 -10c-14 -6 -26 -14 -36 -24s-18 -22 -24 -36s-9 -28.667 -9 -44h-1
c0 -13.333 3.33301 -27.666 10 -42.999z" />
    <glyph glyph-name="yen" unicode="&#xa5;" horiz-adv-x="572" 
d="M22 715h73.999c8 0 14.667 -2 20 -6c4.66699 -4 9.33398 -9.33301 14.001 -16l138 -283l12 -32c3.33301 -8 6 -17.333 8 -28c1.33301 6.66699 4 16.667 8 30l6 16l6 16l138 282c2 6.66699 6 12 12 16s12.667 6 20 6h76l-205 -404h153v-50h-170v-53h170v-51h-170v-158h-89
v158h-170v51h170v53h-170v50l153 -1z" />
    <glyph glyph-name="brokenbar" unicode="&#xa6;" horiz-adv-x="175" 
d="M122 370h-68v396h68v-396zM122 -172h-68v398h68v-398z" />
    <glyph glyph-name="section" unicode="&#xa7;" horiz-adv-x="451" 
d="M38 -3l19.999 34.002c4.66699 9.33301 12.334 14 23.001 14c7.33301 0 14.333 -2.33301 21 -7c21.333 -14 39.5 -23.833 54.5 -29.5s34.167 -8.5 57.5 -8.5c30.667 0 55.834 7.33301 75.501 22s29.5 35.667 29.5 63c0 17.333 -6 32.5 -18 45.5s-27 24 -45 33
s-44 20.5 -78 34.5c-20.667 8 -40.334 16 -59.001 24c-28 13.333 -50.333 30.833 -67 52.5s-25 46.167 -25 73.5c0 56.667 29.667 96.667 89 120c-18.667 14 -32.667 30.5 -42 49.5s-14 38.833 -14 59.5c0 29.333 8.33301 55.166 25 77.499s38.667 39.5 66 51.5
s57.333 18 90 18c62.667 0 115.667 -19.667 159 -59l-20 -33c-4 -7.33301 -10.333 -11 -19 -11c-5.33301 0 -10.333 1.33301 -15 4c-12.667 8 -28.834 15.167 -48.501 21.5s-37.167 9.5 -52.5 9.5c-29.333 0 -53.833 -6.83301 -73.5 -20.5s-29.5 -32.834 -29.5 -57.501
c0 -19.333 9.16699 -35.333 27.5 -48s46.833 -27 85.5 -43l27 -12c46.667 -21.333 81.667 -43 105 -65s35 -50.667 35 -86c0 -28.667 -6.83301 -53.667 -20.5 -75s-33.5 -37.333 -59.5 -48c37.333 -28 56 -62.333 56 -103c0 -50 -18 -89.667 -54 -119s-81.667 -44 -137 -44
c-67.333 0 -123.666 20.667 -168.999 62zM331.499 258.002c9 12.667 13.5 27.335 13.5 44.002c0 22.667 -7.83301 40.667 -23.5 54s-39.5 27.666 -71.5 42.999l-82 37c-40 -18 -60 -43 -60 -75v-1c0 -22.667 10.5 -41.334 31.5 -56.001s51.167 -30 90.5 -46
c14.667 -6 36 -16 64 -30c16 7.33301 28.5 17.333 37.5 30z" />
    <glyph glyph-name="dieresis" unicode="&#xa8;" horiz-adv-x="374" 
d="M150 624c-4 -8 -8.33301 -14 -13 -18c-6.66699 -5.33301 -13 -9.33301 -19 -12s-13 -4 -21 -4c-8.66699 0 -15.667 1.33301 -21 4c-8 4 -14 8 -18 12s-8 10 -12 18c-2.66699 5.33301 -4 12 -4 20c0 8.66699 1.33301 16 4 22c3.33301 7.33301 7.33301 13.333 12 18
c4 4 10 8 18 12c6.66699 3.33301 13.667 5 21 5c6.66699 0 14 -1.66699 22 -5c6 -2.66699 12.333 -6.66699 19 -12c4.66699 -4 8.66699 -10 12 -18c2.66699 -6 4 -13.333 4 -22c0 -8 -1.33301 -14.667 -4 -20zM328 624c-4 -8 -8 -14.001 -12 -18.001
c-4.66699 -4.66699 -10.667 -8.66699 -18 -12c-6 -2.66699 -13.333 -4 -22 -4c-8 0 -15 1.33301 -21 4c-6.66699 2.66699 -12.667 6.66699 -18 12c-4 4 -8 10 -12 18c-3.33301 6.66699 -5 13.334 -5 20.001s1.66699 14 5 22c2.66699 6.66699 6.66699 12.667 12 18
s11.333 9.33301 18 12c8 3.33301 15.333 5 22 5s14 -1.66699 22 -5c7.33301 -2.66699 13.333 -6.66699 18 -12c5.33301 -4.66699 9.33301 -10.667 12 -18c3.33301 -8 5 -15.333 5 -22h-2c0 -8 -1.33301 -14.667 -4 -20z" />
    <glyph glyph-name="copyright" unicode="&#xa9;" horiz-adv-x="793" 
d="M41 454c8 30 20.3301 59.334 36.9971 88.001c14.667 24.667 34 49 58 73c21.333 21.333 46 40.333 74 57c29.333 17.333 58 29.666 86 36.999c33.333 8.66699 66 13 98 13c30.667 0 62.667 -4.33301 96 -13c30 -8 59.333 -20.333 88 -37
c28 -16.667 52.667 -35.667 74 -57c22.667 -22.667 41.667 -47 57 -73c16.667 -28.667 29 -58 37 -88c8.66699 -33.333 13 -65.333 13 -96c0 -31.333 -4.33301 -63.666 -13 -96.999c-8 -30.667 -20 -59.667 -36 -87c-15.333 -26 -34.666 -50.667 -57.999 -74
c-20 -20 -44.667 -38.667 -74 -56c-30.667 -18.667 -59.667 -31.334 -87 -38.001c-30.667 -8 -63 -12 -97 -12c-33.333 0 -65.666 4 -96.999 12c-27.333 6.66699 -56.333 19.334 -87 38.001c-29.333 17.333 -54 36 -74 56c-23.333 23.333 -42.666 48 -57.999 74
c-16 27.333 -28 56.333 -36 87c-8.66699 33.333 -13 65.666 -13 96.999h-1c0 30.667 4.33301 62.667 13 96zM87.9971 270.001c8 -27.333 18.667 -52.666 32 -75.999c15.333 -26.667 31.333 -48.667 48 -66c18 -18.667 39.333 -35.334 64 -50.001
c22 -12.667 47.333 -23.334 76 -32.001c22.667 -6.66699 50.667 -10 84 -10c44.667 0 86 8 124 24c37.333 16 70.666 39 99.999 69c30 31.333 52.667 65.333 68 102c16.667 40.667 25 82.334 25 125.001c0 32 -3.66699 60.667 -11 86c-8.66699 30 -19.334 56 -32.001 78
c-14.667 25.333 -30.667 47 -48 65c-19.333 20.667 -40.666 37.667 -63.999 51c-22 12.667 -47.333 23.334 -76 32.001c-27.333 8 -55.333 12 -84 12c-44 0 -85.333 -8.66699 -124 -26c-39.333 -17.333 -72.666 -40.333 -99.999 -69c-30 -31.333 -52.667 -65.333 -68 -102
c-16 -38.667 -24 -80.334 -24 -125.001l-1 -2c0 -31.333 3.66699 -60 11 -86zM516.997 236.001c1.33301 0.666992 3.33398 1.00488 6.00098 1.00488c3.33301 0 5.66602 -0.333008 6.99902 -1s3.33301 -2.33398 6 -5.00098l30 -32c-19.333 -22 -42.666 -39 -69.999 -51
c-28 -12 -61 -18 -99 -18c-34 0 -63.667 5.66699 -89 17c-27.333 12 -50.333 28 -69 48c-20 21.333 -35 45.666 -45 72.999c-10 28 -15 58.667 -15 92c0 34.667 5.66699 65.334 17 92.001c12 28 28 52 48 72c19.333 19.333 43.666 34.666 72.999 45.999
c28.667 11.333 59 17 91 17c36.667 0 67.334 -5.66699 92.001 -17c24 -11.333 46 -26.333 66 -45l-22 -33l-6 -6c-1.33301 -1.33301 -4.66602 -2 -9.99902 -2c-6 0 -11 1.66699 -15 5c-4.66699 3.33301 -11.334 7.33301 -20.001 12c-10.667 5.33301 -21 9.66602 -31 12.999
c-12 4 -28 6 -48 6c-23.333 0 -44.666 -4 -63.999 -12c-20 -8.66699 -36 -19.334 -48 -32.001c-13.333 -14.667 -23.333 -31.334 -30 -50.001c-6.66699 -19.333 -10 -42 -10 -68s3.33301 -48.667 10 -68c6 -18 16 -35 30 -51c12 -14 26.667 -24.333 44 -31
s36.666 -10 57.999 -10c19.333 0 32.666 0.666992 39.999 2c12.667 2 22 4.66699 28 8c10.667 5.33301 18 9.33301 22 12l18 12h-2c0.666992 0.666992 3 2 7 4z" />
    <glyph glyph-name="ordfeminine" unicode="&#xaa;" horiz-adv-x="333" 
d="M245 422c-4 2.66699 -7 6.66797 -9 12.001l-6 24c-4 -3.33301 -11.667 -9.33301 -23 -18c-5.33301 -4 -13.333 -8.66699 -24 -14c-10 -5.33301 -19 -8.66602 -27 -9.99902c-6.66699 -1.33301 -17.334 -2 -32.001 -2c-15.333 0 -26.666 1.33301 -33.999 4
c-12 4.66699 -21.667 10 -29 16c-8.66699 8 -15 16.667 -19 26c-4 10 -6 21.667 -6 35c0 10.667 3.33301 22 10 34c5.33301 10.667 15.666 20.667 30.999 30c14.667 9.33301 34 17 58 23c26.667 6.66699 56.334 10 89.001 10v18c0 21.333 -4.66699 36.666 -14 45.999
c-10.667 10.667 -25 16 -43 16c-12 0 -22.333 -1.66699 -31 -5l-10.5 -3.5c-5 -1.66699 -8.83301 -3.5 -11.5 -5.5l-16 -10c-4.66699 -2.66699 -10 -4 -16 -4c-2.66699 0 -6.66699 1.33301 -12 4c-3.33301 2 -6 4.66699 -8 8l-10 22c18.667 16.667 37.334 28.667 56.001 36
s41 11 67 11c18 0 34 -3 48 -9s25.667 -13.667 35 -23s16.666 -21.333 21.999 -36s8 -30.334 8 -47.001v-190l-30 -2c-4.66699 0 -9 1.33301 -13 4zM188 470.001c14.667 7.33301 27 16.002 37 26.002v53c-21.333 0 -41 -1.66699 -59 -5
c-14.667 -2.66699 -27.667 -6.33398 -39 -11.001c-10 -4 -17 -9 -21 -15c-4.66699 -6.66699 -7 -13.334 -7 -20.001c0 -13.333 4.33301 -23.333 13 -30c7.33301 -5.33301 18 -8 32 -8c16 0 30.667 3.33301 44 10z" />
    <glyph glyph-name="guillemotleft" unicode="&#xab;" horiz-adv-x="384" 
d="M156 466l29.001 -14.001c5.33301 -2.66699 9 -6 11 -10s3 -8 3 -12c0 -5.33301 -1.66699 -10.666 -5 -15.999l-80 -130c-4 -8 -8.33301 -14.333 -13 -19c5.33301 -4.66699 10 -10.667 14 -18l79 -131c1.33301 -1.33301 2.66602 -4 3.99902 -8l2 -8
c0 -10.667 -4.66699 -18 -14 -22l-29 -14l-125 195v12zM303.001 465.999l29.002 -14c4.66699 -2.66699 8 -5.66699 10 -9c2.66699 -5.33301 4 -9.33301 4 -12c0 -6 -1.66699 -11.667 -5 -17l-79 -130c-2.66699 -5.33301 -7.33398 -11.333 -14.001 -18
c5.33301 -4.66699 10 -10.667 14 -18l80 -131c1.33301 -0.666992 2.66602 -3.66699 3.99902 -9c0.666992 -2 1 -4.66699 1 -8c0 -10 -4.66699 -17 -14 -21l-29 -14l-124 195l-2 12z" />
    <glyph glyph-name="logicalnot" unicode="&#xac;" horiz-adv-x="522" 
d="M474 158h-76v144h-354v68h430v-212z" />
    <glyph glyph-name="uni00AD" unicode="&#xad;" horiz-adv-x="341" 
d="M294 262h-246v76h246v-76z" />
    <glyph glyph-name="registered" unicode="&#xae;" horiz-adv-x="793" 
d="M44 454c8 32 20.001 61.335 36.001 88.002c14.667 24.667 34 49 58 73c21.333 21.333 46 40.333 74 57c28.667 17.333 57.667 29.666 87 36.999c33.333 8.66699 65.666 13 96.999 13s63.666 -4.33301 96.999 -13c29.333 -7.33301 58.333 -19.666 87 -36.999
c28 -16.667 52.667 -35.667 74 -57c24 -24 43.333 -48.333 58 -73c16 -26.667 28 -56 36 -88c9.33301 -36 14 -68 14 -96c0 -28.667 -4.66699 -61 -14 -97c-8 -30.667 -20 -59.667 -36 -87c-15.333 -26 -34.666 -50.667 -57.999 -74c-20 -20 -44.667 -38.667 -74 -56
c-31.333 -18.667 -60 -31.334 -86 -38.001c-30.667 -8 -63.334 -12 -98.001 -12c-32.667 0 -64.667 4 -96 12c-28 7.33301 -57.333 20 -88 38c-29.333 17.333 -54 36 -74 56c-21.333 21.333 -40.333 46 -57 74c-17.333 28.667 -29.666 57.667 -36.999 87
c-8 31.333 -12 63.666 -12 96.999h-2c0 28 4.66699 60 14 96zM90.001 270.002c8 -27.333 18.6631 -52.665 31.9961 -75.998c14.667 -24.667 31 -46.667 49 -66c18.667 -20 39.667 -36.667 63 -50c22 -12.667 47.333 -23.334 76 -32.001c22.667 -6.66699 50.667 -10 84 -10
c44.667 0 86 8 124 24c38.667 16 72.334 39 101.001 69c29.333 30 51.666 64 66.999 102c17.333 42 26 83.667 26 125c0 29.333 -4 58 -12 86c-9.33301 32.667 -19.666 58.667 -30.999 78c-13.333 23.333 -29.666 45 -48.999 65c-19.333 20.667 -40.666 37.667 -63.999 51
c-22.667 13.333 -47.667 24 -75 32s-55.666 12 -84.999 12c-43.333 0 -84.333 -8.66699 -123 -26c-40.667 -18 -74.334 -41 -101.001 -69c-29.333 -30 -51.666 -64 -66.999 -102c-16.667 -40.667 -25 -82.334 -25 -125.001v-2c0 -34 3.33301 -62.667 10 -86z
M244.997 134.003l0.000976562 446h144c56 0 98.333 -10.667 127 -32c28 -20.667 42 -51.334 42 -92.001c0 -31.333 -9 -58 -27 -80c-18.667 -22.667 -45.334 -38 -80.001 -46c8 -5.33301 13 -9.33301 15 -12l5.5 -9.5c1.66699 -3 3.5 -5.83301 5.5 -8.5l114 -166h-74
c-10.667 0 -19 4 -25 12l-100 151c-4.66699 6.66699 -8 10.334 -10 11.001c-4 2 -10.667 3 -20 3h-40l1 -177h-78zM425.998 374.003c15.333 4.66699 25.998 9.33301 31.998 14s11.333 12.667 16 24c4 10 6 21.333 6 34s-1.33301 23.334 -4 32.001
c-2.66699 9.33301 -8 17.333 -16 24c-6.66699 5.33301 -16 9.66602 -28 12.999c-13.333 3.33301 -27.666 5 -42.999 5h-66v-152h56c18.667 0 34.334 2 47.001 6z" />
    <glyph glyph-name="macron" unicode="&#xaf;" horiz-adv-x="377" 
d="M333 616h-287v58h287v-58z" />
    <glyph glyph-name="degree" unicode="&#xb0;" horiz-adv-x="395" 
d="M46 626c7.33301 18.667 18.667 35.667 34 51c16 16 33.333 27.667 52 35c20 8 41.333 12 64 12c23.333 0 45 -4 65 -12c18.667 -7.33301 36 -19 52 -35s27.667 -33 35 -51c8 -20 12 -41 12 -63c0 -21.333 -4 -42 -12 -62c-7.33301 -18 -19 -35 -35 -51
c-15.333 -15.333 -32.333 -26.666 -51 -33.999c-21.333 -8.66699 -43 -13 -65 -13c-21.333 0 -43 4.33301 -65 13c-18.667 7.33301 -35.667 18.666 -51 33.999c-16 16 -27.667 33.333 -35 52c-8 20 -12 40.667 -12 62l-1 -1c0 20.667 4.33301 41.667 13 63zM104.001 523
c4.66699 -11.333 11.667 -21.665 21 -30.998c10.667 -10.667 21 -18 31 -22c11.333 -4.66699 24.666 -7 39.999 -7c14 0 26.667 2.33301 38 7s22 12 32 22c9.33301 9.33301 16.333 19.666 21 30.999s7 24.333 7 39c0 15.333 -2.33301 28.666 -7 39.999
c-5.33301 12.667 -12.333 23.334 -21 32.001s-19.334 15.667 -32.001 21c-11.333 4.66699 -24 7 -38 7c-15.333 0 -28.666 -2.33301 -39.999 -7s-21.666 -11.667 -30.999 -21c-8.66699 -8.66699 -15.667 -19.334 -21 -32.001s-8 -26 -8 -40c0 -13.333 2.66699 -26.333 8 -39
z" />
    <glyph glyph-name="plusminus" unicode="&#xb1;" horiz-adv-x="545" 
d="M514 413v-68h-204v-184h-73v184h-203v68h203v188h73v-188h204zM514 40h-480v68h480v-68z" />
    <glyph glyph-name="uni00B2" unicode="&#xb2;" horiz-adv-x="326" 
d="M290 547l-0.000976562 -97.001h-256v22c0 10 3.66699 18.667 11 26l111 110c40 40 60 75 60 105c0 16.667 -5.33301 29.667 -16 39s-23 14 -37 14c-29.333 0 -49 -15.333 -59 -46c-5.33301 -9.33301 -12.666 -14 -21.999 -14h-8l-36 6c4.66699 35.333 18.667 62 42 80
c22 17.333 50.667 26 86 26s63.333 -9.33301 84 -28s31 -44 31 -76c0 -33.333 -15.667 -66.666 -47 -99.999l-28 -29l-81 -82c20.667 4.66699 35.667 7 45 7h77l3 27c2 6.66699 6 10 12 10h28z" />
    <glyph glyph-name="uni00B3" unicode="&#xb3;" horiz-adv-x="315" 
d="M204 814c13.333 -4.66699 25.3311 -11.3359 35.998 -20.0029c8 -6 15.333 -16 22 -30c5.33301 -10.667 8 -23 8 -37c0 -43.333 -19.667 -72.333 -59 -87c22.667 -6 39.667 -15.333 51 -28c11.333 -12 17 -29 17 -51c0 -18 -3.66699 -34.333 -11 -49
c-6.66699 -13.333 -15.667 -24.666 -27 -33.999s-24.666 -16.666 -39.999 -21.999c-16 -5.33301 -31.667 -8 -47 -8c-18.667 0 -35 2 -49 6s-26 10 -36 18c-9.33301 7.33301 -17.666 17.333 -24.999 30c-6.66699 12 -12.667 26 -18 42l27 12c5.33301 2 10.333 3 15 3
c9.33301 0 15.666 -3.66699 18.999 -11l7 -16c2.66699 -4.66699 6.66699 -9.33398 12 -14.001c8 -6 14 -10 18 -12c6 -2.66699 15 -4 27 -4c12.667 0 21.667 1.33301 27 4s12 7.33398 20 14.001c6 4.66699 10 10.334 12 17.001c2.66699 8 4 15 4 21
c0 10.667 -1.33301 19 -4 25c-3.33301 7.33301 -8 13 -14 17c-8.66699 6 -17.334 9.66699 -26.001 11c-11.333 2 -24.666 3 -39.999 3v44c28.667 0 49.334 5.33301 62.001 16c12 10 18 23.333 18 40c0 18 -4.66699 30.667 -14 38c-10.667 8.66699 -23.667 13 -39 13
s-28 -4 -38 -12c-9.33301 -7.33301 -16 -18 -20 -32c-2 -6 -4.66699 -10 -8 -12s-7.33301 -3 -12 -3h-9l-34 6c2 16 7.33301 31.333 16 46c10 16 19 27.333 27 34c12 9.33301 24.333 16 37 20c14 4 29.333 6 46 6l-4 4c16 0 31.333 -2.66699 46 -8z" />
    <glyph glyph-name="acute" unicode="&#xb4;" horiz-adv-x="270" 
d="M106 584c-2.66699 -1.33301 -8.33301 -2 -17 -2h-53l74 120c3.33301 6.66699 8.33301 12.334 15 17.001c5.33301 3.33301 13.333 5 24 5h87l-116 -129c-3.33301 -4.66699 -8 -8.33398 -14 -11.001z" />
    <glyph glyph-name="uni00B5" unicode="&#xb5;" horiz-adv-x="524" 
d="M169 92c18 -20 44.333 -29.999 79 -29.999c26.667 0 51.334 6 74.001 18c21.333 11.333 42.666 28.666 63.999 51.999v374h88v-507h-52c-12 0 -20 6.33301 -24 19l-8 54c-21.333 -23.333 -44 -41 -68 -53c-22.667 -11.333 -49 -17 -79 -17c-24 0 -45.667 4.33301 -65 13
c-18.667 8 -34.334 20 -47.001 36c2.66699 -18 4.33398 -32.333 5.00098 -43c1.33301 -18.667 2 -32 2 -40v-140h-45c-11.333 0 -21 3.33301 -29 10c-6.66699 6 -10 15.333 -10 28v640h88v-330c0 -36 9 -64 27 -84z" />
    <glyph glyph-name="paragraph" unicode="&#xb6;" horiz-adv-x="679" 
d="M546 640l0.000976562 -739.999h-78v740h-139v-740h-79v430c-31.333 0 -62 5.33301 -92 16c-28 10 -51.667 23.667 -71 41c-20.667 18.667 -35.667 39 -45 61c-10.667 25.333 -16 50.666 -16 75.999c0 26.667 5.33301 52.667 16 78c9.33301 22.667 24.666 43 45.999 61
c18.667 16 42 29 70 39c26 9.33301 57 14 93 14h405v-76h-110z" />
    <glyph glyph-name="periodcentered" unicode="&#xb7;" horiz-adv-x="239" 
d="M51 326c4 9.33301 9.66699 17.333 17 24c8.66699 7.33301 16.667 12.666 24 15.999c9.33301 4 18.666 6 27.999 6c10 0 20 -2 30 -6c8.66699 -3.33301 16.667 -8.66602 24 -15.999s12.666 -15.333 15.999 -24c4 -10 6 -20 6 -30c0 -9.33301 -2 -18.666 -6 -27.999
c-3.33301 -7.33301 -8.66602 -15.333 -15.999 -24c-5.33301 -6.66699 -13.333 -12 -24 -16c-10 -4 -20 -6 -30 -6c-9.33301 0 -18.666 2 -27.999 6s-17.333 9.33301 -24 16c-7.33301 7.33301 -13 15.333 -17 24c-4 9.33301 -6 18.666 -6 27.999c0 10 2 20 6 30z" />
    <glyph glyph-name="cedilla" unicode="&#xb8;" horiz-adv-x="264" 
d="M43 -160l7.99805 27.001c0.666992 4 2.83398 6.5 6.50098 7.5s7.83398 0.833008 12.501 -0.5c18 -6 32.333 -9 43 -9c11.333 0 20.833 2.5 28.5 7.5s11.5 11.833 11.5 20.5c0 13.333 -6 22.666 -18 27.999s-32.667 10 -62 14l19 65h56l-10 -36
c25.333 -5.33301 46 -13.333 62 -24s24 -24.667 24 -42c0 -25.333 -10.167 -44 -30.5 -56s-46.5 -18 -78.5 -18c-23.333 0 -47.333 5.33301 -72 16z" />
    <glyph glyph-name="uni00B9" unicode="&#xb9;" horiz-adv-x="283" 
d="M127 712l1.99902 22l-53 -44c-3.33301 -2.66699 -8 -4 -14 -4c-7.33301 0 -12.666 2 -15.999 6l-19 28l111 96h54v-324h65v-42h-203v42h73v220z" />
    <glyph glyph-name="ordmasculine" unicode="&#xba;" horiz-adv-x="379" 
d="M253 713c19.333 -6.66699 35.668 -17 49.001 -31c12.667 -12.667 23 -28.667 31 -48c7.33301 -17.333 11 -38.666 11 -63.999c0 -24.667 -3.66699 -46.334 -11 -65.001c-8 -20 -18.333 -36.333 -31 -49c-14.667 -14.667 -31 -25.334 -49 -32.001s-39 -10 -63 -10
c-24.667 0 -46 3.33301 -64 10s-34.333 17.334 -49 32.001c-12.667 12.667 -23 29 -31 49s-12 41.667 -12 65c0 24 4 45.333 12 64c8.66699 20.667 19 37 31 49c13.333 14 29.666 24.333 48.999 31c18 6.66699 39.333 10 64 10c22 0 43 -3.66699 63 -11zM252.002 492
c14.667 18.667 22 43.999 22 75.999c0 32.667 -7.33301 58.334 -22 77.001c-13.333 17.333 -34 26 -62 26c-30 0 -51.667 -8.66699 -65 -26c-14 -18 -21 -43.667 -21 -77c0 -32.667 7 -58 21 -76c13.333 -17.333 35 -26 65 -26c28 0 48.667 8.66699 62 26z" />
    <glyph glyph-name="guillemotright" unicode="&#xbb;" horiz-adv-x="386" 
d="M230 66l-30 14c-9.33301 4 -14 10.667 -14 20c0 5.33301 2 11 6 17l79 131c3.33301 6.66699 7.66602 12.667 12.999 18c-3.33301 3.33301 -7.66602 9.33301 -12.999 18l-79 130c-4 6 -6 11.333 -6 16c0 10.667 4.66699 18 14 22l30 14l124 -195v-11zM38 100
c0 4.66699 2 10 6 16l79 131c3.33301 6.66699 7.66602 12.667 12.999 18c-3.33301 3.33301 -7.66602 9.33301 -12.999 18l-79 131c-4 6 -6 11.333 -6 16c0 10 4.66699 17 14 21l30 14l124 -195v-11l-124 -195l-30 15c-9.33301 4 -14 11 -14 21z" />
    <glyph glyph-name="onequarter" unicode="&#xbc;" horiz-adv-x="690" 
d="M120 614l2 21l-54 -44c-4.66699 -3.33301 -8.66699 -5 -12 -5c-6.66699 0 -12 2.66699 -16 8l-20 28l111 94h54v-322h65v-43h-204v43h74v220zM166 4c-6.66699 -3.33301 -15.333 -5 -26 -5h-38l410 686c6 10 12.667 17.667 20 23s16.333 8 27 8h39l-412 -690h1
c-6.66699 -10.667 -13.667 -18 -21 -22zM671.001 100c0 -3.33301 -0.999023 -6 -2.99902 -8c-2.66699 -2.66699 -6.33398 -4 -11.001 -4h-41v-88h-54v88h-154c-4 0 -8.66699 1.33301 -14 4c-4 2 -6 5.33301 -6 10l-4 28l170 234h62v-230l55 -1v-33zM564.002 296l-120 -163
h118v141c0 4 0.666992 11.333 2 22z" />
    <glyph glyph-name="onehalf" unicode="&#xbd;" horiz-adv-x="685" 
d="M119 614l1.99805 22l-53 -44c-3.33301 -2.66699 -8.66602 -4 -15.999 -4c-5.33301 0 -9.66602 2 -12.999 6l-19 28l110 96h54v-324h66v-42h-204v42h73v220zM573.998 717l-411 -690c-10 -18 -25.333 -27 -46 -27h-38l409 686c12.667 20.667 28.667 31 48 31h38z
M655.998 97v-97.001h-256v22c0 10 3.66699 18.667 11 26l111 110c40 40 60 75 60 105c0 16.667 -5.33301 29.667 -16 39s-23.334 14 -38.001 14c-28.667 0 -48 -15.333 -58 -46c-5.33301 -9.33301 -12.666 -14 -21.999 -14h-8l-36 6c4.66699 35.333 18.667 62 42 80
c22 17.333 50.667 26 86 26s63.333 -9.33301 84 -28s31 -44 31 -76c0 -33.333 -15.667 -66.666 -47 -99.999l-28 -29l-81 -82c21.333 4.66699 36.333 7 45 7h77l3 27c2 6.66699 6 10 12 10h28z" />
    <glyph glyph-name="threequarters" unicode="&#xbe;" horiz-adv-x="712" 
d="M201 716c12 -4 23.6699 -10.666 35.0029 -19.999c10 -8 18 -18 24 -30c5.33301 -10.667 8 -23.334 8 -38.001c0 -42 -20 -70.667 -60 -86c20 -5.33301 36.667 -15.333 50 -30c12 -12.667 18 -29.334 18 -50.001c0 -18.667 -3.33301 -34.667 -10 -48
c-7.33301 -14.667 -16.666 -26.667 -27.999 -36c-10 -8.66699 -23.333 -15.667 -40 -21c-14 -4.66699 -29.333 -7 -46 -7c-19.333 0 -36 2 -50 6s-26 10 -36 18c-10.667 8.66699 -19.334 18.667 -26.001 30c-7.33301 12.667 -13.333 26.334 -18 41.001l28 12
c5.33301 2 10 3 14 3c9.33301 0 16 -4 20 -12l8 -14c3.33301 -7.33301 7.33301 -12.666 12 -15.999c6 -4.66699 12 -8.33398 18 -11.001c8 -3.33301 16.667 -5 26 -5c10.667 0 20 2 28 6c9.33301 4.66699 16 8.66699 20 12c5.33301 4.66699 9.33301 10.667 12 18
c2.66699 8 4 14.667 4 20c0 9.33301 -1.66699 18 -5 26s-8 14 -14 18c-7.33301 4.66699 -16 8 -26 10c-14.667 2.66699 -27.667 4 -39 4v43c28.667 0 49 5 61 15s18 24 18 42c0 16.667 -5 29 -15 37c-10.667 8.66699 -23.334 13 -38.001 13c-15.333 0 -28 -4 -38 -12
c-9.33301 -7.33301 -16 -18 -20 -32c-2 -6 -4.66699 -10 -8 -12c-4 -2.66699 -8 -4 -12 -4h-4c-0.666992 0 -1.5 0.333008 -2.5 1s-1.83301 1 -2.5 1l-33 6c2 18.667 6.66699 34 14 46s16.666 22.667 27.999 32s24 16 38 20c18.667 5.33301 33.667 8 45 8l-4 3
c17.333 0 32.666 -2.33301 45.999 -7zM186.003 8.00098c-8 -4 -16.667 -6.00098 -26 -6.00098h-38l409 686c5.33301 8.66699 12.333 16.334 21 23.001c7.33301 5.33301 16 8 26 8h39l-411 -690c-6 -10.667 -12.667 -17.667 -20 -21zM692.003 100
c0 -3.33301 -0.999023 -6 -2.99902 -8c-2.66699 -2.66699 -6.33398 -4 -11.001 -4h-40v-88h-55v88h-153c-4 0 -8.66699 1.33301 -14 4c-4 2 -6 5.33301 -6 10l-5 28l171 234h62v-230l54 -1v-33zM582.004 300l-120 -164h118v142c0 4 0.666992 11.333 2 22z" />
    <glyph glyph-name="questiondown" unicode="&#xbf;" horiz-adv-x="414" 
d="M173 476c2.66699 7.33301 7 14 13 20c4 4 10.667 8.33301 20 13c6.66699 3.33301 14.667 5 24 5s17.333 -1.66699 24 -5c8 -4 14.333 -8.33301 19 -13c6 -6 10.333 -12.667 13 -20s4 -15.333 4 -24s-1.33301 -16.667 -4 -24s-7 -14 -13 -20s-12.333 -10.333 -19 -13
c-8.66699 -3.33301 -16.667 -5 -24 -5s-15.333 1.66699 -24 5c-7.33301 2.66699 -14 7 -20 13s-10.333 12.667 -13 20c-3.33301 8.66699 -5 16.667 -5 24s1.66699 15.333 5 24zM357 -132c-12.667 -8 -26.332 -15.334 -40.999 -22.001
c-17.333 -7.33301 -33.333 -12.666 -48 -15.999c-18 -4 -36.667 -6 -56 -6c-28.667 0 -53 3.66699 -73 11c-26.667 10 -46.334 20.333 -59.001 31c-15.333 13.333 -28 30 -38 50c-9.33301 18.667 -14 41 -14 67c0 26.667 3.66699 48.334 11 65.001c8 18 17.667 32.667 29 44
c17.333 17.333 29.666 28.333 36.999 33l39 25c12 8 22 16 30 24s13 17.667 15 29l9 77h61l6 -84v-6c0 -15.333 -3.66699 -27.666 -11 -36.999c-12 -14.667 -21.333 -24.334 -28 -29.001l-38 -24c-9.33301 -5.33301 -21.333 -14.333 -36 -27
c-11.333 -9.33301 -21 -21 -29 -35c-7.33301 -12.667 -11 -29.334 -11 -50.001c0 -14.667 2.66699 -27.334 8 -38.001c6.66699 -12.667 14.334 -22.667 23.001 -30c10 -8 21.333 -14 34 -18c15.333 -4.66699 29.333 -7 42 -7c22 0 39.667 2.33301 53 7
c12.667 4.66699 24.667 10.334 36 17.001c10.667 6.66699 19 12.334 25 17.001c5.33301 4.66699 10.333 7 15 7c5.33301 0 9.33301 -1 12 -3c4 -2.66699 6.66699 -5.33398 8 -8.00098l24 -37c-7.33301 -7.33301 -19 -16.333 -35 -27z" />
    <glyph glyph-name="Agrave" unicode="&#xc0;" horiz-adv-x="772" 
d="M330 888c4.66699 -1.33301 10.667 -5.66602 18 -12.999l106 -101h-70c-8 0 -13.333 0.333008 -16 1c-4.66699 1.33301 -9.66699 3.66602 -15 6.99902l-147 109h100c10 0 18 -1 24 -3zM748 40v-40h-206v40c0 8.66699 4.66699 14 14 16l41 12l-56 144h-309l-56 -144l41 -12
c8.66699 -2 13 -7.33301 13 -16v-40h-205v40c0 8.66699 4.33301 14 13 16l40 12l260 648h98l259 -648l40 -12c8.66699 -2 13 -7.33301 13 -16zM408 558c-7.33301 16.667 -14.667 39 -22 67c-9.33301 -34 -16 -56.667 -20 -68l-107 -275h255z" />
    <glyph glyph-name="Aacute" unicode="&#xc1;" horiz-adv-x="772" 
d="M400 776.5c-2.66699 -1 -4.66602 -1.83398 -5.99902 -2.50098c-2.66699 -1.33301 -8 -2 -16 -2h-70l106 102c2.66699 2.66699 6 5.33398 10 8.00098l8 5c3.33301 2 6.66602 3 9.99902 3l14 1h100l-146 -109c-4 -2.66699 -7.33301 -4.5 -10 -5.5zM748.001 39.999v-40h-206
v40c0 8.66699 4.66699 14 14 16l41 12l-56 144h-309l-56 -144l41 -12c8.66699 -2 13 -7.33301 13 -16v-40h-205v40c0 8.66699 4.33301 14 13 16l40 12l260 648h98l259 -648l40 -12c8.66699 -2 13 -7.33301 13 -16zM408.001 557.999c-7.33301 16.667 -14.667 39 -22 67
c-9.33301 -34 -16 -56.667 -20 -68l-107 -275h255z" />
    <glyph glyph-name="Acircumflex" unicode="&#xc2;" horiz-adv-x="772" 
d="M468 774c-5.33301 1.33301 -8.99902 2.66602 -10.999 3.99902l-65 48c-0.666992 0.666992 -1.66699 1.33398 -3 2.00098s-2.33301 1.33398 -3 2.00098c-2.66699 -2.66699 -4.66699 -4 -6 -4l-65 -47c-3.33301 -2.66699 -7 -4.33398 -11 -5.00098
c-2.66699 -0.666992 -7.33398 -1 -14.001 -1h-67l119 105h88l119 -105l-67 -1c-4 0 -8.66699 0.666992 -14 2zM748.001 40v-40h-206v40c0 8.66699 4.66699 14 14 16l41 12l-56 144h-309l-56 -144l41 -12c8.66699 -2 13 -7.33301 13 -16v-40h-205v40
c0 8.66699 4.33301 14 13 16l40 12l260 648h98l259 -648l40 -12c8.66699 -2 13 -7.33301 13 -16zM408.001 558c-7.33301 16.667 -14.667 39 -22 67c-9.33301 -34 -16 -56.667 -20 -68l-107 -275h255z" />
    <glyph glyph-name="Atilde" unicode="&#xc3;" horiz-adv-x="772" 
d="M473 841c6.66699 8 10 17.668 10 29.001h49c0 -14.667 -2 -28 -6 -40s-9.33301 -22.333 -16 -31s-15.334 -15.667 -26.001 -21s-22.667 -8 -36 -8c-10 0 -20.667 2.33301 -32 7c-3.33301 1.33301 -13.666 6.33301 -30.999 15l-27 14c-8 4 -16.667 6 -26 6
c-11.333 0 -20 -3.33301 -26 -10s-9 -16 -9 -28h-50c0 14.667 2 28 6 40c4 11.333 9.66699 21.333 17 30c8 9.33301 16.667 16.333 26 21s21.333 7 36 7c11.333 0 22 -2 32 -6c6.66699 -2.66699 16.667 -7.33398 30 -14.001l28 -14c8 -4 16 -6 24 -6v-2
c12 0 21 3.66699 27 11zM748 40.001v-40h-206v40c0 8.66699 4.66699 14 14 16l41 12l-56 144h-309l-56 -144l41 -12c8.66699 -2 13 -7.33301 13 -16v-40h-205v40c0 8.66699 4.33301 14 13 16l40 12l260 648h98l259 -648l40 -12c8.66699 -2 13 -7.33301 13 -16zM408 558.001
c-7.33301 16.667 -14.667 39 -22 67c-9.33301 -34 -16 -56.667 -20 -68l-107 -275h255z" />
    <glyph glyph-name="Adieresis" unicode="&#xc4;" horiz-adv-x="772" 
d="M329 811c-3.33301 -6.66699 -7.33398 -12.333 -12.001 -17s-10.667 -8.66699 -18 -12c-6 -2.66699 -13 -4 -21 -4s-14.667 1.33301 -20 4c-8 4 -14 8 -18 12s-8 10 -12 18c-2.66699 5.33301 -4 12 -4 20c0 8.66699 1.33301 16 4 22c2.66699 7.33301 6.66699 13.333 12 18
c4 4 10 8 18 12c6.66699 3.33301 13.334 5 20.001 5s14 -1.66699 22 -5c7.33301 -2.66699 13.333 -6.66699 18 -12c4.66699 -4.66699 8.66699 -10.667 12 -18c3.33301 -8 5 -15 5 -21l-1 -1c0 -7.33301 -1.66699 -14.333 -5 -21zM541.999 810.001
c-3.33301 -6.66699 -7.33105 -12.334 -11.998 -17.001c-4 -4 -10 -8 -18 -12c-6.66699 -3.33301 -13.334 -5 -20.001 -5c-8 0 -15.333 1.66699 -22 5s-12.334 7.33301 -17.001 12s-8.66699 10.334 -12 17.001s-5 14 -5 22c0 6.66699 1.66699 14 5 22
c2.66699 7.33301 6.66699 13.333 12 18c4.66699 4.66699 10.334 8.66699 17.001 12c5.33301 2.66699 12.666 4 21.999 4c8 0 14.667 -1.33301 20 -4c8 -4 14 -8 18 -12c5.33301 -5.33301 9.33301 -11.333 12 -18c2.66699 -6 4 -13.333 4 -22v-1
c0 -8.66699 -1.33301 -15.667 -4 -21zM748.001 40.001v-40h-206v40c0 8.66699 4.66699 14 14 16l41 12l-56 144h-309l-56 -144l41 -12c8.66699 -2 13 -7.33301 13 -16v-40h-205v40c0 8.66699 4.33301 14 13 16l40 12l260 648h98l259 -648l40 -12
c8.66699 -2 13 -7.33301 13 -16zM408.001 558.001c-7.33301 16.667 -14.667 39 -22 67c-9.33301 -34 -16 -56.667 -20 -68l-107 -275h255z" />
    <glyph glyph-name="Aring" unicode="&#xc5;" horiz-adv-x="772" 
d="M298 866c4.66699 10 11.334 19.332 20.001 27.999c8 8 18 14 30 18c14 4.66699 26 7 36 7c10.667 0 23 -2.33301 37 -7c11.333 -4 21.666 -10 30.999 -18c8 -7.33301 14.667 -16.666 20 -27.999c5.33301 -12 8 -24 8 -36c0 -12.667 -2.66699 -24.334 -8 -35.001
c-5.33301 -11.333 -12 -20.333 -20 -27c-9.33301 -8 -19.666 -14 -30.999 -18c-12 -4 -24.333 -6 -37 -6c-12 0 -24 2 -36 6s-22 10 -30 18c-8.66699 8.66699 -15.334 17.667 -20.001 27c-5.33301 10.667 -8 22.334 -8 35.001c0 12 2.66699 24 8 36zM348 792.999
c8.66699 -9.33301 21 -14 37 -14c15.333 0 27.333 5 36 15c8.66699 9.33301 13 21.333 13 36s-4.33301 26.667 -13 36s-20.667 14 -36 14c-16 0 -28.333 -4.66699 -37 -14c-9.33301 -10.667 -14 -22.667 -14 -36v-1c0 -13.333 4.66699 -25.333 14 -36zM748 39.999v-40h-206
v40c0 8.66699 4.66699 14 14 16l41 12l-56 144h-309l-56 -144l41 -12c8.66699 -2 13 -7.33301 13 -16v-40h-205v40c0 8.66699 4.33301 14 13 16l40 12l260 648h98l259 -648l40 -12c8.66699 -2 13 -7.33301 13 -16zM408 557.999c-7.33301 16.667 -14.667 39 -22 67
c-9.33301 -34 -16 -56.667 -20 -68l-107 -275h255z" />
    <glyph glyph-name="AE" unicode="&#xc6;" horiz-adv-x="971" 
d="M38 56v0.999023l40 11l308 583c-2.66699 0 -5.16699 0.333008 -7.5 1s-4.5 1.33398 -6.5 2.00098l-8 2c-10 2 -15 8 -15 18v43h583v-173h-49c-12 0 -19 6 -21 18l-7 76h-299l30 -238h265v-76h-255l30 -244h230l6 70c2 12 8.66699 18 20 18h49v-168h-458v44
c0 10 5 16 15 18l24 4c6 1.33301 11 2.5 15 3.5s7 1.5 9 1.5l-15 125h-278l-66 -128l41 -12c9.33301 -2 14 -7.33301 14 -16v-40h-206v40h-1c0 8.66699 4.33301 14 13 16zM464 642.999c-9.33301 -28 -18.333 -51.667 -27 -71l-158 -306h233z" />
    <glyph glyph-name="Ccedilla" unicode="&#xc7;" horiz-adv-x="635" 
d="M609 673l-0.00390625 -167.001h-49c-11.333 0 -18 5.66699 -20 17c-1.33301 6 -3 21 -5 45l-3 46c-52.667 17.333 -102.667 26 -150 26c-77.333 0 -140 -25.333 -188 -76c-48.667 -52.667 -73 -121.334 -73 -206.001c0 -86.667 24 -156 72 -208
c45.333 -49.333 104.333 -74 177 -74c40.667 0 72 4 94 12c36.667 14 66.334 31.333 89.001 52c6.66699 5.33301 12.334 8 17.001 8c5.33301 0 10 -2 14 -6l38 -42c-58 -68 -137.667 -104 -239 -108l-7 -28c30 -6 51.667 -14.667 65 -26c14 -12 21 -25.333 21 -40
c0 -15.333 -2.66699 -26.666 -8 -33.999c-7.33301 -10 -15 -17.333 -23 -22c-20 -12 -46 -18 -78 -18c-24 0 -48.333 5.33301 -73 16l8 27c2 6 6 9 12 9c2 0 4.33301 -0.666992 7 -2c0.666992 -0.666992 1.83398 -1.16699 3.50098 -1.5s3.5 -0.833008 5.5 -1.5
c10 -4 21.333 -6 34 -6c13.333 0 23.333 3 30 9s10 12.333 10 19c0 8 -2 14 -6 18c-4.66699 4.66699 -10 8.33398 -16 11.001c-10 4.66699 -29.333 9 -58 13l18 59c-88 8 -158.667 41.333 -212 100c-62.667 68.667 -94 156.667 -94 264s33.333 195.333 100 264
c66 68 154.667 102 266 102c56.667 0 130.334 -17 221.001 -51z" />
    <glyph glyph-name="Egrave" unicode="&#xc8;" horiz-adv-x="586" 
d="M277 888c4 -1.33301 10.001 -6.00098 18.001 -14.001l105 -101h-69c-8.66699 0 -14.334 0.333008 -17.001 1c-2 0.666992 -6.66699 3.33398 -14 8.00098l-148 108h101c12 0 20 -0.666992 24 -2zM548.001 542.999h-48.001c-12.667 0 -20 5.66699 -22 17l-6 77h-268v-238
h264v-76h-264v-245h268l6 72c2 10.667 9 16 21 16h48v-166h-513v42c0 10.667 4.66699 17 14 19l58 11v571c-33.333 6 -52.666 10 -57.999 12c-9.33301 2 -14 8.33301 -14 19v42h514v-173z" />
    <glyph glyph-name="Eacute" unicode="&#xc9;" horiz-adv-x="586" 
d="M342 774c-2.66699 -1.33301 -8.66699 -2.00195 -18 -2.00195h-68l105 102l9 8c1.33301 0.666992 3 1.33398 5 2.00098s3.66699 1.33398 5 2.00098c4 2.66699 7.33301 4 10 4h114l-148 -108zM548 542.998h-48.001c-12.667 0 -20 5.66699 -22 17l-6 77h-268v-238h264v-76
h-264v-245h268l6 72c2 10.667 9 16 21 16h48v-166h-513v42c0 10.667 4.66699 17 14 19l58 11v571c-33.333 6 -52.666 10 -57.999 12c-9.33301 2 -14 8.33301 -14 19v42h514v-173z" />
    <glyph glyph-name="Ecircumflex" unicode="&#xca;" horiz-adv-x="586" 
d="M416 774c-6.66699 1.33301 -10.667 2.66406 -12 3.99707l-65 48c-0.666992 0.666992 -1.66699 1.33398 -3 2.00098s-2.33301 1.33398 -3 2.00098c-2.66699 -2.66699 -4.66699 -4 -6 -4l-65 -48c-1.33301 -1.33301 -5.33301 -2.66602 -12 -3.99902
c-5.33301 -1.33301 -9.33301 -2 -12 -2h-68l119 106h88l119 -106h-68c-2.66699 0 -6.66699 0.666992 -12 2zM548 542.998h-48.001c-12.667 0 -20 5.66699 -22 17l-6 77h-268v-238h264v-76h-264v-245h268l6 72c2 10.667 9 16 21 16h48v-166h-513v42
c0 10.667 4.66699 17 14 19l58 11v571c-33.333 6 -52.666 10 -57.999 12c-9.33301 2 -14 8.33301 -14 19v42h514v-173z" />
    <glyph glyph-name="Edieresis" unicode="&#xcb;" horiz-adv-x="586" 
d="M276 810c-2.66699 -5.33301 -6.66797 -10.6689 -12.001 -16.002c-4.66699 -4.66699 -10.667 -8.66699 -18 -12c-8 -3.33301 -15.333 -5 -22 -5s-13.334 1.66699 -20.001 5c-5.33301 2.66699 -10.666 6.66699 -15.999 12c-4.66699 4.66699 -8.66699 10.334 -12 17.001
s-5 13.667 -5 21c0 6.66699 1.66699 14 5 22c3.33301 7.33301 7.33301 13.333 12 18s10.334 8.66699 17.001 12c5.33301 2.66699 12.333 4 21 4s16 -1.33301 22 -4c7.33301 -2.66699 13.333 -6.66699 18 -12c5.33301 -4.66699 9.33301 -10.667 12 -18
c2.66699 -6 4 -13.333 4 -22h-2c0 -9.33301 -1.33301 -16.666 -4 -21.999zM488.999 809.997c-4 -8 -8.00195 -13.999 -12.002 -17.999c-4.66699 -4.66699 -10.334 -8.66699 -17.001 -12c-5.33301 -2.66699 -12.666 -4 -21.999 -4c-8 0 -14.667 1.33301 -20 4
c-8 4 -14 8 -18 12s-8 10 -12 18c-2.66699 5.33301 -4 12.333 -4 21s1.33301 16 4 22c3.33301 7.33301 7.33301 13.333 12 18c4 4 10 8 18 12c6.66699 3.33301 13.334 5 20.001 5c8 0 15.333 -1.66699 22 -5s12.334 -7.33301 17.001 -12s8.66699 -10.667 12 -18
c3.33301 -8 5 -15 5 -21v-2c0 -6.66699 -1.66699 -13.334 -5 -20.001zM547.997 542.998h-48.001c-12.667 0 -20 5.66699 -22 17l-6 77h-268v-238h264v-76h-264v-245h268l6 72c2 10.667 9 16 21 16h48v-166h-513v42c0 10.667 4.66699 17 14 19l58 11v571
c-33.333 6 -52.666 10 -57.999 12c-9.33301 2 -14 8.33301 -14 19v42h514v-173z" />
    <glyph glyph-name="Igrave" unicode="&#xcc;" horiz-adv-x="336" 
d="M130 888c4.66699 -1.33301 10.667 -5.66602 18 -12.999l106 -101h-70c-8 0 -13.333 0.333008 -16 1c-4.66699 1.33301 -9.66699 3.66602 -15 6.99902l-147 109h100c10 0 18 -1 24 -3zM234 73l60 -12c8 -2 12 -8 12 -18v-43h-242v43c0 10.667 5.33301 17 16 19l56 11v571
l-60 12c-8 2 -12 8 -12 18v42h242v-42c0 -10.667 -5.33301 -17 -16 -19l-56 -11v-571z" />
    <glyph glyph-name="Iacute" unicode="&#xcd;" horiz-adv-x="330" 
d="M164 774c-2.66699 -1.33301 -8.66699 -2 -18 -2h-68l105 102l9 8l10 5c2.66699 2 6 3 10 3l13 1h101l-148 -109zM202 73l61 -12c8 -2 12 -8 12 -18v-43h-241v43c0 10.667 4.66699 17 14 19l58 11v571l-60 12c-8 2 -12 8 -12 18v42h241v-42c0 -10.667 -5 -17 -15 -19
l-58 -11v-571z" />
    <glyph glyph-name="Icircumflex" unicode="&#xce;" horiz-adv-x="335" 
d="M250 774c-5.33301 1.33301 -8.99902 2.66602 -10.999 3.99902l-65 48c-0.666992 0.666992 -1.66699 1.33398 -3 2.00098s-2.33301 1.33398 -3 2.00098c-2.66699 -2.66699 -4.66699 -4 -6 -4l-65 -47c-3.33301 -2.66699 -7 -4.33398 -11 -5.00098
c-2.66699 -0.666992 -7.33398 -1 -14.001 -1h-67l119 105h88l119 -105l-67 -1c-4 0 -8.66699 0.666992 -14 2zM216.001 73l60 -12c8 -2 12 -8 12 -18v-43h-242v43c0 10.667 5.33301 17 16 19l56 11v571l-60 12c-8 2 -12 8 -12 18v42h242v-42c0 -10.667 -5.33301 -17 -16 -19
l-56 -11v-571z" />
    <glyph glyph-name="Idieresis" unicode="&#xcf;" horiz-adv-x="333" 
d="M110 811c-3.33301 -6.66699 -7.33301 -12.334 -12 -17.001c-5.33301 -4.66699 -11.333 -8.66699 -18 -12c-6 -2.66699 -13.333 -4 -22 -4c-8 0 -14.667 1.33301 -20 4c-6.66699 3.33301 -12.334 7.33301 -17.001 12c-4 4 -8 10 -12 18
c-3.33301 6.66699 -5 13.334 -5 20.001s1.66699 14 5 22c2.66699 7.33301 6.66699 13.333 12 18c4.66699 4.66699 10.334 8.66699 17.001 12s13.667 5 21 5c6.66699 0 14 -1.66699 22 -5c7.33301 -2.66699 13.333 -6.66699 18 -12c4.66699 -4.66699 8.66699 -10.667 12 -18
c3.33301 -8 5 -15 5 -21l-2 -1c0 -8.66699 -1.33301 -15.667 -4 -21zM322 810c-3.33301 -6.66699 -7.33301 -12.334 -12 -17.001s-10.334 -8.66699 -17.001 -12s-13.667 -5 -21 -5s-14.333 1.66699 -21 5s-12.334 7.33301 -17.001 12s-8.66699 10.334 -12 17.001
s-5 14 -5 22c0 6.66699 1.66699 14 5 22c2.66699 7.33301 6.66699 13.333 12 18c4.66699 4.66699 10.334 8.66699 17.001 12c5.33301 2.66699 12.333 4 21 4s15.667 -1.33301 21 -4c6.66699 -3.33301 12.334 -7.33301 17.001 -12c5.33301 -5.33301 9.33301 -11.333 12 -18
c3.33301 -8 5 -15.333 5 -22v-1c0 -7.33301 -1.66699 -14.333 -5 -21zM214 73l61 -12c8 -2 12 -8 12 -18v-43h-241v43c0 10.667 4.66699 17 14 19l58 11v571l-60 12c-8 2 -12 8 -12 18v42h241v-42c0 -10.667 -5 -17 -15 -19l-58 -11v-571z" />
    <glyph glyph-name="Eth" unicode="&#xd0;" horiz-adv-x="743" 
d="M718 358c0 -52.667 -8.66699 -101.33 -26 -145.997c-16.667 -44 -40.667 -82 -72 -114c-29.333 -30.667 -66.666 -54.667 -111.999 -72c-44.667 -17.333 -92.667 -26 -144 -26h-330v43c0 4.66699 1.5 8.66699 4.5 12s6.83301 5.66602 11.5 6.99902l56 11v260h-98v57h98
v254l-56 10c-4.66699 1.33301 -8.5 3.66602 -11.5 6.99902s-4.5 7.33301 -4.5 12v43h330c51.333 0 99.333 -8.66699 144 -26c45.333 -17.333 82.666 -41.333 111.999 -72c30.667 -32 54.667 -70 72 -114c17.333 -44.667 26 -93.334 26 -146.001zM618 358.004
c0 44.667 -5.99902 84.0029 -17.999 118.003c-12.667 35.333 -29.667 64.666 -51 87.999c-22.667 24.667 -49.334 42.667 -80.001 54c-35.333 13.333 -70.333 20 -105 20h-161v-248h191v-58h-191v-254h161c36 0 71 6.33301 105 19c30 11.333 56.667 29.666 80 54.999
c21.333 23.333 38.333 52.666 51 87.999c12 34 18 73.333 18 118z" />
    <glyph glyph-name="Ntilde" unicode="&#xd1;" horiz-adv-x="775" 
d="M320 772h-50.001c0 14.667 2 28 6 40c4.66699 14 10 24.333 16 31c8 9.33301 16.667 16.333 26 21s21.333 7 36 7c10 0 21 -2.33301 33 -7c6.66699 -2.66699 16.667 -7.33398 30 -14.001l27 -14c8 -4 16.333 -6 25 -6v-1c12 0 21 3.66699 27 11
c6.66699 8 10 17.333 10 28h48c0 -16 -1.66699 -29 -5 -39c-4 -12 -9.33301 -22.333 -16 -31c-7.33301 -10 -16 -17.333 -26 -22c-9.33301 -4.66699 -21.333 -7 -36 -7c-10 0 -21 2.33301 -33 7c-6.66699 2.66699 -16.667 7.33398 -30 14.001l-28 14
c-9.33301 4.66699 -17.666 7 -24.999 7c-11.333 0 -20 -3.66699 -26 -11c-6 -6.66699 -9 -16 -9 -28zM758.999 672c0 -10 -5.00098 -16.002 -15.001 -18.002l-58 -12v-643h-48c-14 0 -25.667 5.66699 -35 17l-415 540c1.33301 -11.333 2 -26.666 2 -45.999v-438
c18.667 -2.66699 41 -6.66699 67 -12c10 -2 15 -8 15 -18v-43h-238v43c0 10 4.66699 16 14 18l58 12v570c-33.333 6 -52.666 10 -57.999 12c-9.33301 2 -14 8.33301 -14 19v43h122c8 0 14 -1 18 -3c2.66699 -1.33301 7.66699 -5.66602 15 -12.999l415 -540
c-1.33301 9.33301 -2 25.333 -2 48v434l-46.5 8c-11.667 2 -18.5 3.33301 -20.5 4c-10 2 -15 8 -15 18v44h239v-44z" />
    <glyph glyph-name="Ograve" unicode="&#xd2;" horiz-adv-x="754" 
d="M320 886c6 -2 12 -5.99902 18 -11.999l105 -102h-69c-6 0 -11.667 0.666992 -17 2c-4.66699 1.33301 -9.66699 3.66602 -15 6.99902l-147 109h101c8 0 16 -1.33301 24 -4zM703 209.001c-17.333 -45.333 -41.333 -83.999 -72 -115.999
c-31.333 -32.667 -68.333 -57.667 -111 -75c-45.333 -18.667 -93.333 -28 -144 -28s-98.667 9.33301 -144 28c-43.333 18 -80.666 43 -111.999 75c-30.667 32 -54.667 70.667 -72 116c-17.333 46 -26 95.333 -26 148s8.66699 102 26 148c17.333 45.333 41.333 84 72 116
c32 33.333 69.333 58.666 112 75.999c44 18 92 27 144 27s100 -9 144 -27c43.333 -18 80.666 -43 111.999 -75c30.667 -32 54.667 -70.667 72 -116c16.667 -44 25 -93.333 25 -148l-1 -2c0 -54 -8.33301 -103 -25 -147zM610 475.002
c-12.667 36.667 -29.335 66.333 -50.002 89c-22 24 -48.667 42.333 -80 55s-66.666 19 -105.999 19c-38 0 -72.667 -6.33301 -104 -19s-58 -31 -80 -55c-22.667 -24.667 -40 -54.334 -52 -89.001s-18 -74.334 -18 -119.001c0 -43.333 6 -82.666 18 -117.999
c11.333 -33.333 28.666 -62.666 51.999 -87.999c22.667 -24.667 49.334 -43.334 80.001 -56.001c32.667 -13.333 67.667 -20 105 -20s72.333 6.66699 105 20c30.667 12.667 57.334 31.334 80.001 56.001c22 24 39 53.333 51 88c12 35.333 18 74.666 18 117.999h-1
c0 44.667 -6 84.334 -18 119.001z" />
    <glyph glyph-name="Oacute" unicode="&#xd3;" horiz-adv-x="754" 
d="M384 773c-2.66699 -1.33301 -8.33301 -2 -17 -2h-69l106 101l9 8l9 6c2 1.33301 5.33301 2 10 2c2 0 4 0.333008 6 1s4.66699 1 8 1h100l-147 -109c-2 -1.33301 -7 -4 -15 -8zM703.001 209c-17.333 -45.333 -41.333 -83.999 -72 -115.999
c-31.333 -32.667 -68.333 -57.667 -111 -75c-45.333 -18.667 -93.333 -28 -144 -28s-98.667 9.33301 -144 28c-43.333 18 -80.666 43 -111.999 75c-30.667 32 -54.667 70.667 -72 116c-17.333 46 -26 95.333 -26 148s8.66699 102 26 148c17.333 45.333 41.333 84 72 116
c32 33.333 69.333 58.666 112 75.999c44 18 92 27 144 27s100 -9 144 -27c43.333 -18 80.666 -43 111.999 -75c30.667 -32 54.667 -70.667 72 -116c16.667 -44 25 -93.333 25 -148l-1 -2c0 -54 -8.33301 -103 -25 -147zM610.001 475.001
c-12.667 36.667 -29.335 66.333 -50.002 89c-22 24 -48.667 42.333 -80 55s-66.666 19 -105.999 19c-38 0 -72.667 -6.33301 -104 -19s-58 -31 -80 -55c-22.667 -24.667 -40 -54.334 -52 -89.001s-18 -74.334 -18 -119.001c0 -43.333 6 -82.666 18 -117.999
c11.333 -33.333 28.666 -62.666 51.999 -87.999c22.667 -24.667 49.334 -43.334 80.001 -56.001c32.667 -13.333 67.667 -20 105 -20s72.333 6.66699 105 20c30.667 12.667 57.334 31.334 80.001 56.001c22 24 39 53.333 51 88c12 35.333 18 74.666 18 117.999h-1
c0 44.667 -6 84.334 -18 119.001z" />
    <glyph glyph-name="Ocircumflex" unicode="&#xd4;" horiz-adv-x="754" 
d="M458 772c-4.66699 1.33301 -8.66699 3.00098 -12 5.00098l-64 47l-6 5c-2.66699 -2.66699 -4.66699 -4 -6 -4l-66 -47c-3.33301 -2.66699 -7 -4.33398 -11 -5.00098c-2.66699 -0.666992 -7 -1 -13 -1h-68l120 104h88l118 -104l-67 -1c-6 0 -10.333 0.333008 -13 1z
M703 209.001c-17.333 -45.333 -41.333 -83.999 -72 -115.999c-31.333 -32.667 -68.333 -57.667 -111 -75c-45.333 -18.667 -93.333 -28 -144 -28s-98.667 9.33301 -144 28c-43.333 18 -80.666 43 -111.999 75c-30.667 32 -54.667 70.667 -72 116
c-17.333 46 -26 95.333 -26 148s8.66699 102 26 148c17.333 45.333 41.333 84 72 116c32 33.333 69.333 58.666 112 75.999c44 18 92 27 144 27s100 -9 144 -27c43.333 -18 80.666 -43 111.999 -75c30.667 -32 54.667 -70.667 72 -116c16.667 -44 25 -93.333 25 -148l-1 -2
c0 -54 -8.33301 -103 -25 -147zM610 475.002c-12.667 36.667 -29.335 66.333 -50.002 89c-22 24 -48.667 42.333 -80 55s-66.666 19 -105.999 19c-38 0 -72.667 -6.33301 -104 -19s-58 -31 -80 -55c-22.667 -24.667 -40 -54.334 -52 -89.001s-18 -74.334 -18 -119.001
c0 -43.333 6 -82.666 18 -117.999c11.333 -33.333 28.666 -62.666 51.999 -87.999c22.667 -24.667 49.334 -43.334 80.001 -56.001c32.667 -13.333 67.667 -20 105 -20s72.333 6.66699 105 20c30.667 12.667 57.334 31.334 80.001 56.001c22 24 39 53.333 51 88
c12 35.333 18 74.666 18 117.999h-1c0 44.667 -6 84.334 -18 119.001z" />
    <glyph glyph-name="Otilde" unicode="&#xd5;" horiz-adv-x="754" 
d="M462 840c6.66699 8 9.99902 17.334 9.99902 28.001h50c0 -14 -2 -27 -6 -39s-9.33301 -22.333 -16 -31c-7.33301 -10 -16 -17.333 -26 -22c-9.33301 -4.66699 -21.333 -7 -36 -7c-10 0 -21 2.33301 -33 7l-31 14l-27 14c-9.33301 4.66699 -17.666 7 -24.999 7
c-11.333 0 -20 -3.66699 -26 -11c-6.66699 -8 -10 -17.333 -10 -28h-50c0 14.667 2 28 6 40c4 12.667 9.66699 23 17 31c8 8.66699 17 15.667 27 21c9.33301 4.66699 21 7 35 7c10.667 0 21.667 -2.33301 33 -7c6.66699 -2.66699 16.667 -7.33398 30 -14.001l27 -14
c8 -4 16.333 -6 25 -6v-1c11.333 0 20 3.66699 26 11zM702.999 209.001c-17.333 -45.333 -41.333 -83.999 -72 -115.999c-31.333 -32.667 -68.333 -57.667 -111 -75c-45.333 -18.667 -93.333 -28 -144 -28s-98.667 9.33301 -144 28c-43.333 18 -80.666 43 -111.999 75
c-30.667 32 -54.667 70.667 -72 116c-17.333 46 -26 95.333 -26 148s8.66699 102 26 148c17.333 45.333 41.333 84 72 116c32 33.333 69.333 58.666 112 75.999c44 18 92 27 144 27s100 -9 144 -27c43.333 -18 80.666 -43 111.999 -75c30.667 -32 54.667 -70.667 72 -116
c16.667 -44 25 -93.333 25 -148l-1 -2c0 -54 -8.33301 -103 -25 -147zM609.999 475.002c-12.667 36.667 -29.335 66.333 -50.002 89c-22 24 -48.667 42.333 -80 55s-66.666 19 -105.999 19c-38 0 -72.667 -6.33301 -104 -19s-58 -31 -80 -55
c-22.667 -24.667 -40 -54.334 -52 -89.001s-18 -74.334 -18 -119.001c0 -43.333 6 -82.666 18 -117.999c11.333 -33.333 28.666 -62.666 51.999 -87.999c22.667 -24.667 49.334 -43.334 80.001 -56.001c32.667 -13.333 67.667 -20 105 -20s72.333 6.66699 105 20
c30.667 12.667 57.334 31.334 80.001 56.001c22 24 39 53.333 51 88c12 35.333 18 74.666 18 117.999h-1c0 44.667 -6 84.334 -18 119.001z" />
    <glyph glyph-name="Odieresis" unicode="&#xd6;" horiz-adv-x="754" 
d="M318 810c-4 -8 -8 -13.999 -12 -17.999c-4.66699 -4.66699 -10.667 -8.66699 -18 -12c-6 -2.66699 -13 -4 -21 -4s-14.667 1.33301 -20 4c-6.66699 3.33301 -12.334 7.33301 -17.001 12c-4 4 -8 10 -12 18c-2.66699 5.33301 -4 12.333 -4 21s1.33301 16 4 22
c3.33301 7.33301 7.33301 13.333 12 18c4 4 10 8 18 12c6.66699 3.33301 13.334 5 20.001 5s14 -1.66699 22 -5c7.33301 -2.66699 13.333 -6.66699 18 -12c5.33301 -5.33301 9.33301 -11.333 12 -18c2.66699 -6 4 -13 4 -21l-1 -2c0 -6.66699 -1.66699 -13.334 -5 -20.001z
M532 808.001c-2.66699 -5.33301 -6.66699 -10.6689 -12 -16.002c-4 -4 -10 -8 -18 -12c-6.66699 -3.33301 -13.667 -5 -21 -5s-14.333 1.66699 -21 5c-8 4 -14 8 -18 12c-4.66699 4.66699 -8.66699 10.334 -12 17.001c-2.66699 5.33301 -4 12.333 -4 21s1.33301 16 4 22
c3.33301 6.66699 7.33301 12.667 12 18c4 4 10 8 18 12c5.33301 2.66699 12.333 4 21 4s15.667 -1.33301 21 -4c8 -4 14 -8 18 -12c5.33301 -5.33301 9.33301 -11.333 12 -18c2.66699 -6 4 -13.333 4 -22c0 -9.33301 -1.33301 -16.666 -4 -21.999zM703 208.998
c-17.333 -45.333 -41.333 -83.999 -72 -115.999c-31.333 -32.667 -68.333 -57.667 -111 -75c-45.333 -18.667 -93.333 -28 -144 -28s-98.667 9.33301 -144 28c-43.333 18 -80.666 43 -111.999 75c-30.667 32 -54.667 70.667 -72 116c-17.333 46 -26 95.333 -26 148
s8.66699 102 26 148c17.333 45.333 41.333 84 72 116c32 33.333 69.333 58.666 112 75.999c44 18 92 27 144 27s100 -9 144 -27c43.333 -18 80.666 -43 111.999 -75c30.667 -32 54.667 -70.667 72 -116c16.667 -44 25 -93.333 25 -148l-1 -2c0 -54 -8.33301 -103 -25 -147z
M610 474.999c-12.667 36.667 -29.335 66.333 -50.002 89c-22 24 -48.667 42.333 -80 55s-66.666 19 -105.999 19c-38 0 -72.667 -6.33301 -104 -19s-58 -31 -80 -55c-22.667 -24.667 -40 -54.334 -52 -89.001s-18 -74.334 -18 -119.001c0 -43.333 6 -82.666 18 -117.999
c11.333 -33.333 28.666 -62.666 51.999 -87.999c22.667 -24.667 49.334 -43.334 80.001 -56.001c32.667 -13.333 67.667 -20 105 -20s72.333 6.66699 105 20c30.667 12.667 57.334 31.334 80.001 56.001c22 24 39 53.333 51 88c12 35.333 18 74.666 18 117.999h-1
c0 44.667 -6 84.334 -18 119.001z" />
    <glyph glyph-name="multiply" unicode="&#xd7;" horiz-adv-x="483" 
d="M467 158l-47 -48l-178 178l-178 -178l-48 48l178 178l-172 172l48 48l172 -173l172 172l48 -48l-172 -172z" />
    <glyph glyph-name="Oslash" unicode="&#xd8;" horiz-adv-x="754" 
d="M701.5 513c18.333 -46.667 27.5 -98.333 27.5 -155l-1 -2c0 -71.333 -15 -134.833 -45 -190.5s-71.667 -98.834 -125 -129.501s-114 -46 -182 -46c-70.667 0 -133.667 16.667 -189 50l-50 -68c-15.333 -18.667 -33.333 -28 -54 -28h-39l96 131
c-37.333 32.667 -66.333 73.334 -87 122.001s-31 102 -31 160c0 70.667 14.833 133.834 44.5 189.501s71.334 99.167 125.001 130.5s115.167 47 184.5 47c75.333 0 141.666 -18.333 198.999 -55l41 55c5.33301 8.66699 11.333 15 18 19s14.667 6 24 6h50l-86 -117
c34.667 -32.667 61.167 -72.334 79.5 -119.001zM138.5 237.001c12.333 -35.333 30.5 -65.332 54.5 -89.999l329 449c-40.667 28 -90 42 -148 42c-54 0 -100 -12 -138 -36s-66.833 -57.333 -86.5 -100s-29.5 -91.334 -29.5 -146.001c0 -44 6.16699 -83.667 18.5 -119z
M511 109.502c38 23.667 67.167 56.833 87.5 99.5s30.5 91.667 30.5 147h-1c0 84 -20.667 150.667 -62 200l-328 -446c39.333 -24 85 -36 137 -36c52.667 0 98 11.833 136 35.5z" />
    <glyph glyph-name="Ugrave" unicode="&#xd9;" horiz-adv-x="749" 
d="M317 888c4 -1.33301 10.001 -6.00098 18.001 -14.001l105 -101h-69c-8.66699 0 -14.334 0.333008 -17.001 1c-2 0.666992 -6.66699 3.33398 -14 8.00098l-148 108h101c12 0 20 -0.666992 24 -2zM731.001 672.999c0 -10.667 -4.99902 -16.999 -14.999 -18.999l-58 -11
v-363c0 -82.667 -25.333 -151.334 -76 -206.001c-52 -55.333 -121.333 -83 -208 -83c-87.333 0 -157 27.667 -209 83c-51.333 54.667 -77 123.334 -77 206.001v363c-30.667 6 -49.334 10 -56.001 12c-10.667 2 -16 8.33301 -16 19v42h251v-42c0 -10.667 -5 -17 -15 -19
c-12.667 -2.66699 -35 -6.33398 -67 -11.001v-362c0 -62.667 16.667 -112 50 -148c34 -38 80.333 -57 139 -57c59.333 0 106 19 140 57c33.333 37.333 50 86.333 50 147v363l-66 11c-10.667 2 -16 8.33301 -16 19v42h249v-43z" />
    <glyph glyph-name="Uacute" unicode="&#xda;" horiz-adv-x="749" 
d="M382 774c-2.66699 -1.33301 -8.66699 -2.00195 -18 -2.00195h-68l105 102l9 8c1.33301 0.666992 3 1.33398 5 2.00098s3.66699 1.33398 5 2.00098c4 2.66699 7.33301 4 10 4h114l-148 -108zM731 672.998c0 -10.667 -4.99902 -16.999 -14.999 -18.999l-58 -11v-363
c0 -82.667 -25.333 -151.334 -76 -206.001c-52 -55.333 -121.333 -83 -208 -83c-87.333 0 -157 27.667 -209 83c-51.333 54.667 -77 123.334 -77 206.001v363c-30.667 6 -49.334 10 -56.001 12c-10.667 2 -16 8.33301 -16 19v42h251v-42c0 -10.667 -5 -17 -15 -19
c-12.667 -2.66699 -35 -6.33398 -67 -11.001v-362c0 -62.667 16.667 -112 50 -148c34 -38 80.333 -57 139 -57c59.333 0 106 19 140 57c33.333 37.333 50 86.333 50 147v363l-66 11c-10.667 2 -16 8.33301 -16 19v42h249v-43z" />
    <glyph glyph-name="Ucircumflex" unicode="&#xdb;" horiz-adv-x="749" 
d="M456 774c-6.66699 1.33301 -10.667 2.66406 -12 3.99707l-65 48c-0.666992 0.666992 -1.66699 1.33398 -3 2.00098s-2.33301 1.33398 -3 2.00098c-2.66699 -2.66699 -4.66699 -4 -6 -4l-65 -48c-1.33301 -1.33301 -5.33301 -2.66602 -12 -3.99902
c-5.33301 -1.33301 -9.33301 -2 -12 -2h-68l119 106h88l119 -106h-68c-2.66699 0 -6.66699 0.666992 -12 2zM731 672.998c0 -10.667 -4.99902 -16.999 -14.999 -18.999l-58 -11v-363c0 -82.667 -25.333 -151.334 -76 -206.001c-52 -55.333 -121.333 -83 -208 -83
c-87.333 0 -157 27.667 -209 83c-51.333 54.667 -77 123.334 -77 206.001v363c-30.667 6 -49.334 10 -56.001 12c-10.667 2 -16 8.33301 -16 19v42h251v-42c0 -10.667 -5 -17 -15 -19c-12.667 -2.66699 -35 -6.33398 -67 -11.001v-362c0 -62.667 16.667 -112 50 -148
c34 -38 80.333 -57 139 -57c59.333 0 106 19 140 57c33.333 37.333 50 86.333 50 147v363l-66 11c-10.667 2 -16 8.33301 -16 19v42h249v-43z" />
    <glyph glyph-name="Udieresis" unicode="&#xdc;" horiz-adv-x="749" 
d="M316 810c-2.66699 -5.33301 -6.66797 -10.6689 -12.001 -16.002c-4.66699 -4.66699 -10.667 -8.66699 -18 -12c-8 -3.33301 -15.333 -5 -22 -5s-13.334 1.66699 -20.001 5c-5.33301 2.66699 -10.666 6.66699 -15.999 12c-4.66699 4.66699 -8.66699 10.334 -12 17.001
s-5 13.667 -5 21c0 6.66699 1.66699 14 5 22c3.33301 7.33301 7.33301 13.333 12 18s10.334 8.66699 17.001 12c5.33301 2.66699 12.333 4 21 4s16 -1.33301 22 -4c7.33301 -2.66699 13.333 -6.66699 18 -12c4.66699 -4.66699 8.66699 -10.667 12 -18
c2.66699 -6 4 -13.333 4 -22h-2c0 -9.33301 -1.33301 -16.666 -4 -21.999zM528.999 809.997c-4 -8 -8.00195 -13.999 -12.002 -17.999c-4.66699 -4.66699 -10.334 -8.66699 -17.001 -12c-5.33301 -2.66699 -12.666 -4 -21.999 -4c-8 0 -14.667 1.33301 -20 4
c-8 4 -14 8 -18 12s-8 10 -12 18c-2.66699 5.33301 -4 12.333 -4 21s1.33301 16 4 22c3.33301 7.33301 7.33301 13.333 12 18c4 4 10 8 18 12c6.66699 3.33301 13.334 5 20.001 5c8 0 15.333 -1.66699 22 -5s12.334 -7.33301 17.001 -12
c5.33301 -4.66699 9.33301 -10.667 12 -18c3.33301 -8 5 -15 5 -21v-2c0 -6.66699 -1.66699 -13.334 -5 -20.001zM730.997 672.998c0 -10.667 -4.99902 -16.999 -14.999 -18.999l-58 -11v-363c0 -82.667 -25.333 -151.334 -76 -206.001c-52 -55.333 -121.333 -83 -208 -83
c-87.333 0 -157 27.667 -209 83c-51.333 54.667 -77 123.334 -77 206.001v363c-30.667 6 -49.334 10 -56.001 12c-10.667 2 -16 8.33301 -16 19v42h251v-42c0 -10.667 -5 -17 -15 -19c-12.667 -2.66699 -35 -6.33398 -67 -11.001v-362c0 -62.667 16.667 -112 50 -148
c34 -38 80.333 -57 139 -57c59.333 0 106 19 140 57c33.333 37.333 50 86.333 50 147v363l-66 11c-10.667 2 -16 8.33301 -16 19v42h249v-43z" />
    <glyph glyph-name="Yacute" unicode="&#xdd;" horiz-adv-x="700" 
d="M359 774c-2.66699 -1.33301 -8.33301 -2.00098 -17 -2.00098h-69l105 101c2.66699 2.66699 6 5.33398 10 8.00098l9 5c2.66699 2 6 3 10 3l13 1h101l-147 -108c-2 -1.33301 -7 -4 -15 -8zM682.001 671.999c0 -10 -4.00098 -16 -12.001 -18l-52 -12l-219 -358v-212
c17.333 -4.66699 36.333 -8.66699 57 -12c10 -2 15 -8 15 -18v-43h-241v43c0 10 5.33301 16 16 18l56 12v212l-218 358l-50 12c-9.33301 2 -14 8.33301 -14 19v43h240v-43c0 -10.667 -5 -17 -15 -19c-35.333 -7.33301 -54.333 -11 -57 -11l134 -228
c13.333 -24 23 -45 29 -63c8 24 17.667 45.333 29 64l134 228c-3.33301 0 -22.666 3.66699 -57.999 11c-9.33301 2 -14 8.33301 -14 19v42h240v-44z" />
    <glyph glyph-name="Thorn" unicode="&#xde;" horiz-adv-x="555" 
d="M53 0v716.002h97v-132h114c45.333 0 85 -5 119 -15c33.333 -10 61 -25 83 -45c23.333 -21.333 40 -44.666 50 -69.999c10.667 -27.333 16 -58 16 -92c0 -34.667 -5.66699 -65.334 -17 -92.001s-28.333 -50.334 -51 -71.001s-50.667 -36.334 -84 -47.001
c-32.667 -10.667 -70.667 -16 -114 -16h-116v-136h-97zM336 224.002c23.333 8.66699 41.333 18.999 54 30.999c14 12.667 25 28.334 33 47.001c7.33301 16.667 11 37 11 61c0 45.333 -14 81 -42 107c-27.333 25.333 -70 38 -128 38h-114v-295h114
c28.667 0 52.667 3.66699 72 11z" />
    <glyph glyph-name="germandbls" unicode="&#xdf;" horiz-adv-x="542" 
d="M376 708c26.667 -10.667 47.3359 -23.3369 62.0029 -38.0039c15.333 -15.333 27.333 -32.666 36 -51.999c8 -18 12 -35.333 12 -52c0 -21.333 -3.33301 -38.666 -10 -51.999c-6.66699 -14 -15.334 -26.667 -26.001 -38c-8.66699 -9.33301 -20.334 -19 -35.001 -29
s-26.334 -18.333 -35.001 -25c-11.333 -8.66699 -20 -16.667 -26 -24c-6.66699 -7.33301 -10 -16.666 -10 -27.999c0 -14 4.33301 -25 13 -33c10.667 -9.33301 21.667 -17.333 33 -24c9.33301 -5.33301 24 -13 44 -23c16 -8 30.667 -17.667 44 -29
c12.667 -10.667 23.667 -25 33 -43c8.66699 -16.667 13 -38 13 -64c0 -28 -4.66699 -51.333 -14 -70c-11.333 -22 -24 -39.333 -38 -52c-14 -12 -33.667 -22.667 -59 -32c-20 -7.33301 -44.333 -11 -73 -11c-34.667 0 -64.334 5.66699 -89.001 17c-26 12 -49 27 -69 45
l20 34c2.66699 5.33301 6 9 10 11s8.66699 3 14 3c6.66699 0 13.334 -2.33301 20.001 -7l23 -15c8 -5.33301 19 -10.333 33 -15s28.667 -7 44 -7c12.667 0 26 2.33301 40 7c11.333 3.33301 21 9.33301 29 18c9.33301 9.33301 15.666 18.333 18.999 27c4 10 6 21.667 6 35
c0 18 -4.66699 32.667 -14 44c-11.333 13.333 -22.666 23.333 -33.999 30c-19.333 11.333 -34.666 19.333 -45.999 24c-18.667 8 -34 16.333 -46 25s-23.333 20.334 -34 35.001c-9.33301 13.333 -14 31.333 -14 54c0 18.667 3.66699 34 11 46c10 16 19.333 28 28 36
c15.333 14 27.333 24 36 30c14.667 10 26.667 19.333 36 28c10 9.33301 19.333 20.333 28 33c7.33301 11.333 11 25.333 11 42c0 11.333 -2 22.333 -6 33c-4.66699 12 -11.334 21.667 -20.001 29c-11.333 8.66699 -23.333 15.667 -36 21c-13.333 5.33301 -31.333 8 -54 8
c-24 0 -44.667 -3.33301 -62 -10c-18 -7.33301 -33.667 -18 -47 -32s-23.333 -31.333 -30 -52c-7.33301 -22 -11 -46.667 -11 -74v-492h-89v496c0 36 5.66699 67.333 17 94c13.333 31.333 30 56 50 74c22 20 47.667 35.333 77 46c30.667 11.333 64 17 100 17l-5 -5
c36.667 0 66.667 -4.66699 90 -14z" />
    <glyph glyph-name="agrave" unicode="&#xe0;" horiz-adv-x="510" 
d="M214 718c6 -4 10.666 -9.33301 13.999 -16l75 -121h-51c-7.33301 0 -13 1 -17 3c-5.33301 2.66699 -9.66602 6 -12.999 10l-118 130h85c10.667 0 19 -2 25 -6zM207.999 516c53.333 0 90.334 -4.66699 111.001 -14c20 -9.33301 38.333 -22.666 55 -39.999
c30.667 -34.667 46 -80.667 46 -138v-252l56 -11c6 -1.33301 9 -7 9 -17v-43h-104c-18.667 0 -29 7 -31 21l-10 47c-56.667 -50.667 -105.334 -76 -146.001 -76c-40 0 -68.667 3 -86 9c-20.667 7.33301 -35.667 15.333 -45 24c-27.333 23.333 -41 51.333 -41 84
c0 33.333 5.33301 58.666 16 75.999c12 20 29.667 36.667 53 50c57.333 32.667 138 49 242 49v39c0 80.667 -33.333 121 -100 121c-37.333 0 -69 -9 -95 -27s-42 -27 -48 -27c-13.333 0 -28 14.667 -44 44c56 54 110 81 162 81zM188 54c54.667 0 102.667 22.667 144 68v105
c-150.667 0 -226 -32 -226 -96c0 -51.333 27.333 -77 82 -77z" />
    <glyph glyph-name="aacute" unicode="&#xe1;" horiz-adv-x="510" 
d="M254 584c-5.33301 -2.66699 -10.999 -4.00098 -16.999 -4.00098h-53l74 122c2.66699 6 7.66699 11.333 15 16c6 4 14 6 24 6h87l-116 -130c-2.66699 -3.33301 -7.33398 -6.66602 -14.001 -9.99902zM208.001 515.999c53.333 0 90.334 -4.66699 111.001 -14
c20 -9.33301 38.333 -22.666 55 -39.999c30.667 -34.667 46 -80.667 46 -138v-252l56 -11c6 -1.33301 9 -7 9 -17v-43h-104c-18.667 0 -29 7 -31 21l-10 47c-56.667 -50.667 -105.334 -76 -146.001 -76c-40 0 -68.667 3 -86 9c-20.667 7.33301 -35.667 15.333 -45 24
c-27.333 23.333 -41 51.333 -41 84c0 33.333 5.33301 58.666 16 75.999c12 20 29.667 36.667 53 50c57.333 32.667 138 49 242 49v39c0 80.667 -33.333 121 -100 121c-37.333 0 -69 -9 -95 -27s-42 -27 -48 -27c-13.333 0 -28 14.667 -44 44c56 54 110 81 162 81z
M188.002 53.999c54.667 0 102.667 22.667 144 68v105c-150.667 0 -226 -32 -226 -96c0 -51.333 27.333 -77 82 -77z" />
    <glyph glyph-name="acircumflex" unicode="&#xe2;" horiz-adv-x="509" 
d="M312 590l-63.999 62.999l-8 9l-8 -9l-65 -63c-1.33301 -1.33301 -2.83301 -2.16602 -4.5 -2.49902s-3.16699 -0.833008 -4.5 -1.5c-2.66699 -1.33301 -6.33398 -2 -11.001 -2h-61l111 132h83l112 -132l-60 -1c-6 0 -12.667 2.33301 -20 7zM208.001 515.999
c53.333 0 90.334 -4.66699 111.001 -14c20 -9.33301 38.333 -22.666 55 -39.999c30.667 -34.667 46 -80.667 46 -138v-252l56 -11c6 -1.33301 9 -7 9 -17v-43h-104c-18.667 0 -29 7 -31 21l-10 47c-56.667 -50.667 -105.334 -76 -146.001 -76c-40 0 -68.667 3 -86 9
c-20.667 7.33301 -35.667 15.333 -45 24c-27.333 23.333 -41 51.333 -41 84c0 33.333 5.33301 58.666 16 75.999c12 20 29.667 36.667 53 50c57.333 32.667 138 49 242 49v39c0 80.667 -33.333 121 -100 121c-37.333 0 -69 -9 -95 -27s-42 -27 -48 -27
c-13.333 0 -28 14.667 -44 44c56 54 110 81 162 81zM188.002 53.999c54.667 0 102.667 22.667 144 68v105c-150.667 0 -226 -32 -226 -96c0 -51.333 27.333 -77 82 -77z" />
    <glyph glyph-name="atilde" unicode="&#xe3;" horiz-adv-x="510" 
d="M322 670c6.66699 8 10 19.001 10 33.001h54c0 -15.333 -2 -29.666 -6 -42.999c-4 -12.667 -10 -24 -18 -34c-6.66699 -8.66699 -16 -15.667 -28 -21c-10 -4.66699 -22.333 -7 -37 -7c-12.667 0 -23.667 2.33301 -33 7c-10.667 5.33301 -20 10.666 -28 15.999l-26 16
c-7.33301 4.66699 -15 7 -23 7c-24.667 0 -37 -14.667 -37 -44h-56c0 14 2.33301 28.667 7 44c3.33301 11.333 9.66602 22.666 18.999 33.999c8 10 17.333 17.333 28 22c12 5.33301 24 8 36 8c10.667 0 21.334 -2.66699 32.001 -8c13.333 -6.66699 23 -12 29 -16l14 -8.5
l11 -6.5c7.33301 -4.66699 15.333 -7 24 -7v-2c12.667 0 22 3.33301 28 10zM208 516.001c53.333 0 90.334 -4.66699 111.001 -14c20 -9.33301 38.333 -22.666 55 -39.999c30.667 -34.667 46 -80.667 46 -138v-252l56 -11c6 -1.33301 9 -7 9 -17v-43h-104
c-18.667 0 -29 7 -31 21l-10 47c-56.667 -50.667 -105.334 -76 -146.001 -76c-40 0 -68.667 3 -86 9c-20.667 7.33301 -35.667 15.333 -45 24c-27.333 23.333 -41 51.333 -41 84c0 33.333 5.33301 58.666 16 75.999c12 20 29.667 36.667 53 50c57.333 32.667 138 49 242 49
v39c0 80.667 -33.333 121 -100 121c-37.333 0 -69 -9 -95 -27s-42 -27 -48 -27c-13.333 0 -28 14.667 -44 44c56 54 110 81 162 81zM188.001 54.001c54.667 0 102.667 22.667 144 68v105c-150.667 0 -226 -32 -226 -96c0 -51.333 27.333 -77 82 -77z" />
    <glyph glyph-name="adieresis" unicode="&#xe4;" horiz-adv-x="509" 
d="M200 622c-4 -8 -7.99902 -13.6689 -11.999 -17.002c-6.66699 -5.33301 -13 -9.33301 -19 -12c-8 -3.33301 -15 -5 -21 -5c-8 0 -15.333 1.66699 -22 5s-12.334 7.33301 -17.001 12s-8.66699 10.334 -12 17.001s-5 14 -5 22c0 6.66699 1.66699 14 5 22
c3.33301 7.33301 7.33301 13.333 12 18s10.334 8.66699 17.001 12c5.33301 2.66699 12.666 4 21.999 4c8.66699 0 16 -1.33301 22 -4c4.66699 -2 10.667 -6 18 -12c4.66699 -4 8.66699 -10 12 -18s5 -15.333 5 -22h-1c0 -9.33301 -1.33301 -16.666 -4 -21.999z
M378.001 621.998c-3.33301 -6.66699 -7.33301 -12.334 -12 -17.001s-10.667 -8.66699 -18 -12c-8 -3.33301 -15 -5 -21 -5s-13 1.66699 -21 5c-6.66699 3.33301 -12.667 7.33301 -18 12c-4.66699 4.66699 -8.66699 10.334 -12 17.001s-5 14 -5 22c0 6.66699 1.66699 14 5 22
c2.66699 7.33301 6.66699 13.333 12 18c5.33301 5.33301 11.333 9.33301 18 12c6 2.66699 13.333 4 22 4s16 -1.33301 22 -4c7.33301 -2.66699 13.333 -6.66699 18 -12c5.33301 -4.66699 9.33301 -10.667 12 -18c2.66699 -6 4 -13.333 4 -22h-1
c0 -8 -1.66699 -15.333 -5 -22zM208.001 515.998c53.333 0 90.334 -4.66699 111.001 -14c20 -9.33301 38.333 -22.666 55 -39.999c30.667 -34.667 46 -80.667 46 -138v-252l56 -11c6 -1.33301 9 -7 9 -17v-43h-104c-18.667 0 -29 7 -31 21l-10 47
c-56.667 -50.667 -105.334 -76 -146.001 -76c-40 0 -68.667 3 -86 9c-20.667 7.33301 -35.667 15.333 -45 24c-27.333 23.333 -41 51.333 -41 84c0 33.333 5.33301 58.666 16 75.999c12 20 29.667 36.667 53 50c57.333 32.667 138 49 242 49v39
c0 80.667 -33.333 121 -100 121c-37.333 0 -69 -9 -95 -27s-42 -27 -48 -27c-13.333 0 -28 14.667 -44 44c56 54 110 81 162 81zM188.002 53.998c54.667 0 102.667 22.667 144 68v105c-150.667 0 -226 -32 -226 -96c0 -51.333 27.333 -77 82 -77z" />
    <glyph glyph-name="aring" unicode="&#xe5;" horiz-adv-x="509" 
d="M146 693c6 12.667 13.332 22.665 21.999 29.998c10 8.66699 20.667 15 32 19c16 5.33301 28.667 8 38 8c11.333 0 24 -2.33301 38 -7c9.33301 -3.33301 20 -9.66602 32 -18.999c8.66699 -7.33301 16.334 -17.333 23.001 -30c5.33301 -10.667 8 -23.334 8 -38.001
s-2.66699 -27.334 -8 -38.001c-6 -12 -13.667 -21.667 -23 -29c-12 -9.33301 -22.667 -15.666 -32 -18.999c-12 -4 -24.667 -6 -38 -6c-11.333 0 -24 2.33301 -38 7c-11.333 4 -22 10.333 -32 19c-8 6.66699 -15 16.334 -21 29.001c-5.33301 10.667 -8 23 -8 37l-1 -1
c0 14.667 2.66699 27.334 8 38.001zM201.999 618.998c8.66699 -9.33301 20.667 -14 36 -14s27.333 4.66699 36 14c9.33301 10.667 14 22.667 14 36c0 14 -4.66699 26.333 -14 37c-8.66699 9.33301 -20.667 14 -36 14s-27.333 -4.66699 -36 -14
c-9.33301 -10.667 -14 -23 -14 -37c0 -13.333 4.66699 -25.333 14 -36zM207.999 515.998c53.333 0 90.334 -4.66699 111.001 -14c20 -9.33301 38.333 -22.666 55 -39.999c30.667 -34.667 46 -80.667 46 -138v-252l56 -11c6 -1.33301 9 -7 9 -17v-43h-104
c-18.667 0 -29 7 -31 21l-10 47c-56.667 -50.667 -105.334 -76 -146.001 -76c-40 0 -68.667 3 -86 9c-20.667 7.33301 -35.667 15.333 -45 24c-27.333 23.333 -41 51.333 -41 84c0 33.333 5.33301 58.666 16 75.999c12 20 29.667 36.667 53 50c57.333 32.667 138 49 242 49
v39c0 80.667 -33.333 121 -100 121c-37.333 0 -69 -9 -95 -27s-42 -27 -48 -27c-13.333 0 -28 14.667 -44 44c56 54 110 81 162 81zM188 53.998c54.667 0 102.667 22.667 144 68v105c-150.667 0 -226 -32 -226 -96c0 -51.333 27.333 -77 82 -77z" />
    <glyph glyph-name="ae" unicode="&#xe6;" horiz-adv-x="777" 
d="M634 496c22 -9.33301 42.334 -25.0049 61.001 -47.0049c17.333 -20.667 31 -45.334 41 -74.001c9.33301 -27.333 14 -60.333 14 -99c0 -12 -1.33301 -21.333 -4 -28c-2 -5.33301 -7.33301 -8 -16 -8h-314c2 -33.333 6.66699 -59.666 14 -78.999
c8.66699 -23.333 19 -42 31 -56s27 -25 45 -33s37.667 -12 59 -12c20.667 0 39.667 2.66699 57 8s30.333 10.666 39 15.999c10.667 6.66699 19 12.334 25 17.001c5.33301 4.66699 11.333 7 18 7c6 0 10 -0.666992 12 -2l7 -6l23 -30c-9.33301 -12 -22 -23.667 -38 -35
c-15.333 -10.667 -30.666 -19 -45.999 -25c-17.333 -6.66699 -34.333 -11.334 -51 -14.001c-16 -2.66699 -33.667 -4 -53 -4c-39.333 0 -74.666 9.33301 -105.999 28c-32 19.333 -57.333 48.333 -76 87c-10.667 -23.333 -22 -41 -34 -53c-14 -14 -30 -26 -48 -36
c-16.667 -9.33301 -35.334 -16 -56.001 -20c-20 -4 -40 -6 -60 -6s-40.667 3.33301 -62 10c-20.667 6.66699 -37.334 15.334 -50.001 26.001c-13.333 11.333 -24 26 -32 44c-7.33301 16.667 -11 37.334 -11 62.001c0 18.667 5.66699 38.334 17 59.001
c10 18.667 27.667 36.334 53 53.001c22.667 14.667 54.667 27.334 96 38.001c34 8.66699 82.333 14 145 16v26c0 39.333 -8.33301 69.333 -25 90c-17.333 21.333 -42.333 32 -75 32c-19.333 0 -37.333 -3.33301 -54 -10c-18 -7.33301 -31.333 -13.666 -40 -18.999l-28 -19
c-8.66699 -6.66699 -16.334 -10 -23.001 -10c-5.33301 0 -10.333 1.66699 -15 5c-6 4.66699 -9.66699 8.33398 -11 11.001l-16 29c27.333 26.667 56.333 47 87 61c28.667 13.333 62.667 20 102 20s71.333 -8.66699 96 -26c24 -17.333 41.667 -41 53 -71
c17.333 29.333 41 52.666 71 69.999c28.667 16.667 63.334 25 104.001 25l-2 -2c25.333 0 50.666 -5.33301 75.999 -16zM498.001 435.995c-14.667 -6.66699 -28.334 -16.666 -41.001 -29.999c-9.33301 -10.667 -18.333 -26.667 -27 -48
c-7.33301 -19.333 -12 -40.333 -14 -63h254c0 20.667 -2.66699 40.667 -8 60c-5.33301 18.667 -12.666 34.667 -21.999 48c-8 11.333 -20.333 21.666 -37 30.999c-14 8 -30.333 12 -49 12h-2c-20.667 0 -38.667 -3.33301 -54 -10zM227.001 227.996
c-32.667 -7.33301 -56 -14.665 -70 -21.998c-18.667 -10.667 -31.667 -21.334 -39 -32.001c-8 -12 -12 -25.333 -12 -40c0 -27.333 8.33301 -48.333 25 -63c15.333 -13.333 37 -20 65 -20c20 0 38 3 54 9s30.333 15.333 43 28c12 12 21.667 27.333 29 46
c6.66699 17.333 10 38.666 10 63.999v42c-42 -2 -77 -6 -105 -12z" />
    <glyph glyph-name="ccedilla" unicode="&#xe7;" horiz-adv-x="452" 
d="M270 -6l-9.00098 -30.002c30 -6 51.667 -14.667 65 -26c14 -12 21 -25.333 21 -40c0 -15.333 -2.66699 -26.666 -8 -33.999c-7.33301 -10 -15 -17.333 -23 -22c-20 -12 -46 -18 -78 -18c-23.333 0 -47.333 5.33301 -72 16l8 27c2 6 6 9 12 9c0.666992 0 3 -0.666992 7 -2
l9 -3c10 -4 21.333 -6 34 -6c13.333 0 23.333 3 30 9s10 12.333 10 19c0 8.66699 -1.66699 14.667 -5 18c-4.66699 4.66699 -9.66699 8.33398 -15 11.001c-10.667 4.66699 -30.667 9 -60 13l18 61c-50.667 6 -93 28 -127 66c-43.333 48.667 -65 112.667 -65 192
c0 76.667 20.667 138.667 62 186c42.667 49.333 101.667 74 177 74c38.667 0 88.667 -12.333 150 -37v-131h-40c-9.33301 0 -15 4.66699 -17 14c-0.666992 2 -2 14.667 -4 38c-1.33301 14.667 -2 25.667 -2 33l-36 9c-13.333 2.66699 -32.666 4 -57.999 4
c-17.333 0 -35.666 -4.33301 -54.999 -13c-18 -8 -33.667 -20.333 -47 -37c-25.333 -33.333 -38 -80 -38 -140s13.333 -107.333 40 -142c26 -33.333 61.667 -50 107 -50c42 0 79 14 111 42c5.33301 5.33301 12 8 20 8c7.33301 0 12.666 -2.66699 15.999 -8l25 -34
c-36.667 -44.667 -91 -70 -163 -76z" />
    <glyph glyph-name="egrave" unicode="&#xe8;" horiz-adv-x="490" 
d="M233 720c6.66699 -4.66699 11.667 -10.334 15 -17.001l74 -121h-50c-8 0 -14 1 -18 3c-4.66699 2.66699 -9 6.33398 -13 11.001l-117 128h84c12.667 0 21 -1.33301 25 -4zM340 499c26.667 -10 48.6631 -24.335 65.9961 -43.002c20 -21.333 34.667 -45 44 -71
c10.667 -30 16 -62 16 -96c0 -14 -1.66699 -23.333 -5 -28s-9 -7 -17 -7h-337c0 -30 4.33301 -58 13 -84c7.33301 -22 18.333 -41.333 33 -58s31.334 -28.667 50.001 -36c20 -8 41.667 -12 65 -12c24 0 43.333 2.33301 58 7c14 4.66699 28 10.334 42 17.001
c11.333 6 21 11.333 29 16c8.66699 5.33301 15.667 8 21 8c6.66699 0 12 -3 16 -9l26 -33c-9.33301 -12 -22.666 -23.333 -39.999 -34c-19.333 -12 -36 -20.333 -50 -25c-20 -6.66699 -38 -11.334 -54 -14.001c-20 -3.33301 -38.333 -5 -55 -5c-34.667 0 -67 6 -97 18
c-27.333 10.667 -52.666 28.334 -75.999 53.001c-21.333 22 -38 50.333 -50 85c-12 34 -18 72.667 -18 116c0 36 5.33301 68.667 16 98c11.333 30.667 27.333 57.334 48 80.001c20.667 23.333 45.334 41 74.001 53c29.333 12.667 62.333 19 99 19c29.333 0 57 -5 83 -15z
M156.996 411.998c-24.667 -26 -40 -60.667 -46 -104h275c0 22 -2.66699 40.667 -8 56c-6.66699 19.333 -15 34.333 -25 45c-11.333 12 -25 21.667 -41 29c-15.333 6.66699 -33.333 10 -54 10v1c-43.333 0 -77 -12.333 -101 -37z" />
    <glyph glyph-name="eacute" unicode="&#xe9;" horiz-adv-x="490" 
d="M274 584c-2.66699 -1.33301 -8.66699 -1.99902 -18 -1.99902h-52l74 120c4 8 8.66699 13.667 14 17c4.66699 3.33301 12.667 5 24 5h88l-117 -129c-4 -4.66699 -8.33301 -8.33398 -13 -11.001zM340 499.001c26.667 -10 48.6631 -24.335 65.9961 -43.002
c20 -21.333 34.667 -45 44 -71c10.667 -30 16 -62 16 -96c0 -14 -1.66699 -23.333 -5 -28s-9 -7 -17 -7h-337c0 -30 4.33301 -58 13 -84c7.33301 -22 18.333 -41.333 33 -58s31.334 -28.667 50.001 -36c20 -8 41.667 -12 65 -12c24 0 43.333 2.33301 58 7
c14 4.66699 28 10.334 42 17.001c11.333 6 21 11.333 29 16c8.66699 5.33301 15.667 8 21 8c6.66699 0 12 -3 16 -9l26 -33c-9.33301 -12 -22.666 -23.333 -39.999 -34c-19.333 -12 -36 -20.333 -50 -25c-20 -6.66699 -38 -11.334 -54 -14.001
c-20 -3.33301 -38.333 -5 -55 -5c-34.667 0 -67 6 -97 18c-27.333 10.667 -52.666 28.334 -75.999 53.001c-21.333 22 -38 50.333 -50 85c-12 34 -18 72.667 -18 116c0 36 5.33301 68.667 16 98c11.333 30.667 27.333 57.334 48 80.001c20.667 23.333 45.334 41 74.001 53
c29.333 12.667 62.333 19 99 19c29.333 0 57 -5 83 -15zM156.996 411.999c-24.667 -26 -40 -60.667 -46 -104h275c0 22 -2.66699 40.667 -8 56c-6.66699 19.333 -15 34.333 -25 45c-11.333 12 -25 21.667 -41 29c-15.333 6.66699 -33.333 10 -54 10v1
c-43.333 0 -77 -12.333 -101 -37z" />
    <glyph glyph-name="ecircumflex" unicode="&#xea;" horiz-adv-x="489" 
d="M331 591l-63.999 63l-9 8l-8 -8l-64 -63c-1.33301 -1.33301 -4 -3 -8 -5c-2.66699 -1.33301 -6.66699 -2 -12 -2h-62l112 132h83l111 -132h-59c-6.66699 0 -13.334 2.33301 -20.001 7zM340.001 499c26.667 -10 48.6631 -24.335 65.9961 -43.002
c18.667 -20 33 -43.667 43 -71c10.667 -30 16 -62 16 -96c0 -14 -1.66699 -23.333 -5 -28s-8.66602 -7 -15.999 -7h-338c0 -28 4.66699 -56 14 -84c8 -23.333 18.667 -42.666 32 -57.999c14.667 -16.667 31.334 -28.667 50.001 -36c20 -8 42 -12 66 -12s43.333 2.33301 58 7
c12.667 4 26.334 9.66699 41.001 17c11.333 6 21 11.333 29 16c8.66699 5.33301 15.667 8 21 8c7.33301 0 13 -3 17 -9l25 -33c-10 -12.667 -23 -24 -39 -34c-19.333 -12 -36 -20.333 -50 -25c-20 -6.66699 -38 -11.334 -54 -14.001c-20 -3.33301 -38.667 -5 -56 -5
c-34 0 -66 6 -96 18c-27.333 10.667 -52.666 28.334 -75.999 53.001c-21.333 22 -38 50.333 -50 85c-12 34 -18 72.667 -18 116c0 36 5.33301 68.667 16 98c11.333 31.333 27 58 47 80c20.667 22.667 45.667 40.334 75 53.001s62.333 19 99 19c29.333 0 57 -5 83 -15z
M155.997 411.998c-24.667 -26 -39.999 -60.668 -45.999 -104.001h276c0 22 -2.66699 40.667 -8 56c-6.66699 18 -15.334 33 -26.001 45c-12 12.667 -25.333 22.334 -40 29.001c-15.333 6.66699 -33.333 10 -54 10v1c-44 0 -78 -12.333 -102 -37z" />
    <glyph glyph-name="edieresis" unicode="&#xeb;" horiz-adv-x="489" 
d="M219 624c-4 -8 -8.33301 -13.999 -13 -17.999c-7.33301 -6 -13.333 -10 -18 -12c-6 -2.66699 -13.333 -4 -22 -4c-8 0 -14.667 1.33301 -20 4c-8 4 -14 8 -18 12s-8 10 -12 18c-2.66699 5.33301 -4 12 -4 20c0 8.66699 1.33301 16 4 22
c3.33301 7.33301 7.33301 13.333 12 18c4 4 10 8 18 12c6.66699 3.33301 13.334 5 20.001 5s14 -1.66699 22 -5c6 -2.66699 12.333 -6.66699 19 -12c5.33301 -4.66699 9.66602 -10.667 12.999 -18c2.66699 -6 4 -13.333 4 -22c0 -6.66699 -1.66699 -13.334 -5 -20.001z
M398 624.001c-4 -8 -8 -14 -12 -18c-4.66699 -4.66699 -10.667 -8.66699 -18 -12c-6 -2.66699 -13.333 -4 -22 -4s-16 1.33301 -22 4c-7.33301 3.33301 -13.333 7.33301 -18 12c-4 4 -8 10 -12 18c-2.66699 5.33301 -4 12 -4 20c0 8.66699 1.33301 16 4 22
c2.66699 6.66699 6.66699 12.667 12 18c4.66699 5.33301 10.667 9.33301 18 12c8 3.33301 15.333 5 22 5s14 -1.66699 22 -5c7.33301 -2.66699 13.333 -6.66699 18 -12c5.33301 -4.66699 9.33301 -10.667 12 -18c3.33301 -8 5 -15.333 5 -22h-1
c0 -8 -1.33301 -14.667 -4 -20zM340 499.001c26.667 -10 48.6631 -24.335 65.9961 -43.002c18.667 -20 33 -43.667 43 -71c10.667 -30 16 -62 16 -96c0 -14 -1.66699 -23.333 -5 -28s-8.66602 -7 -15.999 -7h-338c0 -28 4.66699 -56 14 -84
c8 -23.333 18.667 -42.666 32 -57.999c14.667 -16.667 31.334 -28.667 50.001 -36c20 -8 42 -12 66 -12s43.333 2.33301 58 7c12.667 4 26.334 9.66699 41.001 17c11.333 6 21 11.333 29 16c8.66699 5.33301 15.667 8 21 8c7.33301 0 13 -3 17 -9l25 -33
c-10 -12.667 -23 -24 -39 -34c-19.333 -12 -36 -20.333 -50 -25c-20 -6.66699 -38 -11.334 -54 -14.001c-20 -3.33301 -38.667 -5 -56 -5c-34 0 -66 6 -96 18c-27.333 10.667 -52.666 28.334 -75.999 53.001c-21.333 22 -38 50.333 -50 85c-12 34 -18 72.667 -18 116
c0 36 5.33301 68.667 16 98c11.333 31.333 27 58 47 80c20.667 22.667 45.667 40.334 75 53.001s62.333 19 99 19c29.333 0 57 -5 83 -15zM155.996 411.999c-24.667 -26 -39.999 -60.668 -45.999 -104.001h276c0 22 -2.66699 40.667 -8 56
c-6.66699 18 -15.334 33 -26.001 45c-12 12.667 -25.333 22.334 -40 29.001c-15.333 6.66699 -33.333 10 -54 10v1c-44 0 -78 -12.333 -102 -37z" />
    <glyph glyph-name="igrave" unicode="&#xec;" horiz-adv-x="291" 
d="M149 585c-4 2 -8.33301 5.66699 -13 11l-117 128h85c10.667 0 18.667 -1.66699 24 -5s10.333 -9 15 -17l75 -120h-52c-7.33301 0 -13 1 -17 3zM263 55.5c2.66699 -3.66699 3.99902 -7.83594 3.99902 -12.5029v-43h-233v43c0 4.66699 1.33301 8.83398 4 12.501
s6.33398 5.83398 11.001 6.50098l57 11v361l-57 11c-4.66699 0.666992 -8.33398 2.83398 -11.001 6.50098s-4 7.83398 -4 12.501v42h160v-433l58 -11c4.66699 -0.666992 8.33398 -2.83398 11.001 -6.50098z" />
    <glyph glyph-name="iacute" unicode="&#xed;" horiz-adv-x="305" 
d="M166.5 585.5c-4.33301 -2.33301 -10.167 -3.5 -17.5 -3.5h-53l74 120c4.66699 8 10 13.667 16 17s14 5 24 5h86l-116 -128c-4.66699 -4.66699 -9.16699 -8.16699 -13.5 -10.5zM260.999 55.5c2.66699 -3.66699 3.99902 -7.83594 3.99902 -12.5029v-43h-233v43
c0 4.66699 1.33301 8.83398 4 12.501s6.33398 5.83398 11.001 6.50098l57 11v361l-57 11c-4.66699 0.666992 -8.33398 2.83398 -11.001 6.50098s-4 7.83398 -4 12.501v42h160v-433l58 -11c4.66699 -0.666992 8.33398 -2.83398 11.001 -6.50098z" />
    <glyph glyph-name="icircumflex" unicode="&#xee;" horiz-adv-x="318" 
d="M69 584h-61l111 132h83l112 -132h-60c-5.33301 0 -12 2.66699 -20 8l-72 71l-73 -71c-5.33301 -5.33301 -12 -8 -20 -8zM271 55.5c2.66699 -3.66699 3.99902 -7.83594 3.99902 -12.5029v-43h-233v43c0 4.66699 1.33301 8.83398 4 12.501s6.33398 5.83398 11.001 6.50098
l57 11v361l-57 11c-4.66699 0.666992 -8.33398 2.83398 -11.001 6.50098s-4 7.83398 -4 12.501v42h160v-433l58 -11c4.66699 -0.666992 8.33398 -2.83398 11.001 -6.50098z" />
    <glyph glyph-name="idieresis" unicode="&#xef;" horiz-adv-x="321" 
d="M309 644c0 -6.66699 -1.66699 -13.333 -5 -20c-4 -8 -8 -14 -12 -18c-4.66699 -4.66699 -10.667 -8.66699 -18 -12c-6 -2.66699 -13.333 -4 -22 -4s-16 1.33301 -22 4c-6.66699 3.33301 -12.667 7.33301 -18 12c-4 4 -8 10 -12 18c-2.66699 5.33301 -4 12 -4 20
c0 8.66699 1.33301 16 4 22c3.33301 7.33301 7.33301 13.333 12 18c5.33301 5.33301 11.333 9.33301 18 12c8 3.33301 15.333 5 22 5s14 -1.66699 22 -5c7.33301 -2.66699 13.333 -6.66699 18 -12c5.33301 -5.33301 9.33301 -11.333 12 -18c3.33301 -8 5 -15.333 5 -22z
M52 594.001c-8 4 -13.999 7.99902 -17.999 11.999c-4.66699 4.66699 -8.66699 10.334 -12 17.001c-2.66699 5.33301 -4 12.333 -4 21s1.33301 16 4 22c3.33301 7.33301 7.33301 13.333 12 18c4 4 10 8 18 12c5.33301 2.66699 12 4 20 4c8.66699 0 16 -1.33301 22 -4
c4.66699 -2 10.667 -6 18 -12c5.33301 -4.66699 9.66602 -10.667 12.999 -18c3.33301 -8 5 -15.333 5 -22c0 -7.33301 -1.66699 -14.333 -5 -21c-3.33301 -7.33301 -7.66602 -13 -12.999 -17c-7.33301 -6 -13.333 -10 -18 -12c-8 -3.33301 -15.333 -5 -22 -5
s-13.334 1.66699 -20.001 5zM273.001 55.5c2.66699 -3.66699 3.99902 -7.83594 3.99902 -12.5029v-43h-233v43c0 4.66699 1.33301 8.83398 4 12.501s6.33398 5.83398 11.001 6.50098l57 11v361l-57 11c-4.66699 0.666992 -8.33398 2.83398 -11.001 6.50098
s-4 7.83398 -4 12.501v42h160v-433l58 -11c4.66699 -0.666992 8.33398 -2.83398 11.001 -6.50098z" />
    <glyph glyph-name="eth" unicode="&#xf0;" horiz-adv-x="521" 
d="M188 540c-1.33301 2.66699 -2.00195 4.66211 -2.00195 5.99512c0 8 4 14.333 12 19l52 36l-48 18c-17.333 6 -35.333 11 -54 15c-7.33301 2.66699 -12.666 5.66699 -15.999 9c-4 4 -6 10 -6 18c0 6 1 11 3 15l10 30c41.333 -8 72.333 -15.333 93 -22
c28 -9.33301 56.667 -22.666 86 -39.999l83 62l17 -29c2.66699 -5.33301 4 -9.33301 4 -12c0 -7.33301 -3.33301 -13.666 -10 -18.999l-49 -33c20.667 -16 39 -34.333 55 -55c15.333 -19.333 29.333 -42.666 42 -69.999c12 -26 21 -54.667 27 -86
c6.66699 -34.667 10 -68 10 -100c0 -48 -5 -91 -15 -129c-9.33301 -36.667 -25 -69 -47 -97c-20.667 -27.333 -46.334 -48 -77.001 -62c-30 -14 -65 -21 -105 -21c-32 0 -62.333 5.66699 -91 17c-28 10.667 -52.667 26.334 -74 47.001s-38 45.667 -50 75
c-12 30 -18 63.333 -18 100c0 30 5.33301 60 16 90c10 28.667 24.667 53 44 73c20.667 22 44.334 38.667 71.001 50c29.333 12.667 60.333 19 93 19c31.333 0 62.666 -7.33301 93.999 -22c28.667 -13.333 54.334 -35 77.001 -65c-6 44 -19 82.333 -39 115
s-45.333 59.334 -76 80.001l-92 -68l-17 28l1 2c-1.33301 1.33301 -2.66602 3.33301 -3.99902 6zM317.998 75.9951c19.333 9.33301 35.999 22.999 49.999 40.999c12 15.333 22.333 38.333 31 69c7.33301 26.667 11.666 58.667 12.999 96c-6 14 -13 28 -21 42
c-7.33301 12.667 -17.666 24.667 -30.999 36c-14 11.333 -28.667 20 -44 26c-14 5.33301 -32.667 8 -56 8c-24.667 0 -46.667 -4 -66 -12c-17.333 -7.33301 -32.666 -18.666 -45.999 -33.999c-14 -16 -23.667 -33.333 -29 -52c-6 -20 -9 -41.333 -9 -64
c0 -28.667 3.66699 -52.667 11 -72c8.66699 -22.667 19 -40 31 -52c16 -16 31.667 -27.333 47 -34s34.333 -10 57 -10l-2 -1c24.667 0 46 4.33301 64 13z" />
    <glyph glyph-name="ntilde" unicode="&#xf1;" horiz-adv-x="622" 
d="M396 672c7.33301 8.66699 11 19.3311 11 31.998h54c0 -14.667 -2 -28.667 -6 -42c-4 -12.667 -10 -24 -18 -34c-7.33301 -9.33301 -17 -16.666 -29 -21.999c-10 -4.66699 -22 -7 -36 -7c-12 0 -22.667 2.33301 -32 7c-13.333 6.66699 -23 12 -29 16l-25 16
c-8.66699 5.33301 -16.667 8 -24 8c-24.667 0 -37 -14.667 -37 -44h-55c0 16.667 2 31.334 6 44.001s10 24 18 34c7.33301 9.33301 17 16.666 29 21.999c10 4.66699 22 7 36 7c12.667 0 23.667 -2.33301 33 -7c10.667 -5.33301 20 -10.666 28 -15.999l26 -16
c7.33301 -4.66699 15 -7 23 -7l-1 -1c12.667 0 22 3.33301 28 10zM356 514.997c54.667 0 96.666 -17.668 125.999 -53.001s44 -81.666 44 -138.999v-249c30.667 -6 49.334 -10 56.001 -12c10.667 -2 16 -8.33301 16 -19v-43h-162v322c0 81.333 -35.333 122 -106 122
c-49.333 0 -95 -23.667 -137 -71v-300l57 -12c10.667 -2 16 -8.33301 16 -19v-42h-234v42c0 10.667 5 17 15 19l57 11v361c-32 6 -51 10 -57 12c-10 2 -15 8.33301 -15 19v42h125c12 0 20 -6 24 -18l7 -55v1c50 54 106 81 168 81z" />
    <glyph glyph-name="ograve" unicode="&#xf2;" horiz-adv-x="526" 
d="M238 719c7.33301 -5.33301 12.668 -11.001 16.001 -17.001l74 -120h-51c-8.66699 0 -14.334 0.666992 -17.001 2c-6 2.66699 -10.667 6.33398 -14 11.001l-116 129h84c10.667 0 18.667 -1.66699 24 -5zM364.002 495.999c28.667 -11.333 54 -28.668 76 -52.001
c20.667 -21.333 36.667 -48.666 48 -81.999c10.667 -31.333 16 -67.333 16 -108s-5.33301 -76.667 -16 -108c-11.333 -33.333 -27.333 -60.666 -48 -81.999c-22 -23.333 -47.333 -40.666 -76 -51.999c-30 -12 -63.667 -18 -101 -18s-71 6 -101 18
c-28.667 11.333 -54 28.666 -76 51.999c-18.667 20 -34.667 47.333 -48 82c-12 32 -18 68 -18 108s6 76 18 108c13.333 34.667 29.333 62 48 82c22 23.333 47.333 40.666 76 51.999c30 12 63.667 18 101 18s71 -6 101 -18zM375.002 111.997
c24.667 34.667 37.001 81.666 37.001 140.999s-12.333 106.333 -37 141c-23.333 33.333 -60.666 50 -111.999 50c-26 0 -48 -4 -66 -12c-18.667 -8 -34.334 -20.667 -47.001 -38c-13.333 -17.333 -22.666 -37.333 -27.999 -60c-5.33301 -21.333 -8 -48.666 -8 -81.999
c0 -32 2.66699 -58.667 8 -80c5.33301 -22.667 14.666 -42.667 27.999 -60c11.333 -15.333 27 -27.333 47 -36c20.667 -9.33301 42.667 -14 66 -14c51.333 0 88.666 16.667 111.999 50z" />
    <glyph glyph-name="oacute" unicode="&#xf3;" horiz-adv-x="526" 
d="M280 584c-4 -2 -10.001 -3 -18.001 -3h-52l74 121c3.33301 6.66699 8 12 14 16s14 6 24 6h88l-117 -130c-3.33301 -4 -7.66602 -7.33301 -12.999 -10zM363.999 496c28.667 -11.333 54 -28.6699 76 -52.0029c20.667 -21.333 36.667 -48.666 48 -81.999
c11.333 -32.667 17 -68.667 17 -108s-5.66699 -75.333 -17 -108c-11.333 -33.333 -27.333 -60.666 -48 -81.999c-22 -23.333 -47.333 -40.666 -76 -51.999c-30 -12 -63.333 -18 -100 -18c-37.333 0 -71 6 -101 18c-29.333 12 -55 29.333 -77 52
c-18.667 20 -34.667 47.333 -48 82c-11.333 30 -17 66 -17 108s5.66699 78 17 108c13.333 34.667 29.333 62 48 82c22 22.667 47.667 40 77 52c30 12 63.667 18 101 18c36.667 0 70 -6 100 -18zM375.999 111.996c24 34 36.001 81 36.001 141s-12 107 -36 141
c-23.333 33.333 -60.666 50 -111.999 50c-26 0 -48 -4 -66 -12c-18.667 -8 -34.334 -20.667 -47.001 -38s-22 -37.333 -28 -60c-6 -24 -9 -51.333 -9 -82c0 -29.333 3 -56 9 -80c6 -22.667 15.333 -42.667 28 -60c11.333 -15.333 27 -27.333 47 -36
c21.333 -9.33301 43.333 -14 66 -14c51.333 0 88.666 16.667 111.999 50z" />
    <glyph glyph-name="ocircumflex" unicode="&#xf4;" horiz-adv-x="526" 
d="M337 590l-64.002 63.999l-9 8l-72 -72c-1.33301 -1.33301 -2.66602 -2.16602 -3.99902 -2.49902s-2.66602 -0.833008 -3.99902 -1.5c-2.66699 -1.33301 -6.66699 -2 -12 -2h-62l112 132h83l111 -132h-59c-7.33301 0 -14 2 -20 6zM363.998 495.999
c28.667 -11.333 54 -28.668 76 -52.001c20.667 -21.333 36.667 -48.666 48 -81.999c10.667 -31.333 16 -67.333 16 -108s-5.33301 -76.667 -16 -108c-11.333 -33.333 -27.333 -60.666 -48 -81.999c-22 -23.333 -47.333 -40.666 -76 -51.999c-30 -12 -63.667 -18 -101 -18
s-71 6 -101 18c-28.667 11.333 -54 28.666 -76 51.999c-18.667 20 -34.667 47.333 -48 82c-12 32 -18 68 -18 108s6 76 18 108c13.333 34.667 29.333 62 48 82c22 23.333 47.333 40.666 76 51.999c30 12 63.667 18 101 18s71 -6 101 -18zM374.998 111.997
c24.667 34.667 37.001 81.666 37.001 140.999s-12.333 106.333 -37 141c-23.333 33.333 -60.666 50 -111.999 50c-26 0 -48 -4 -66 -12c-18.667 -8 -34.334 -20.667 -47.001 -38c-13.333 -17.333 -22.666 -37.333 -27.999 -60c-5.33301 -21.333 -8 -48.666 -8 -81.999
c0 -32 2.66699 -58.667 8 -80c5.33301 -22.667 14.666 -42.667 27.999 -60c11.333 -15.333 27 -27.333 47 -36c20.667 -9.33301 42.667 -14 66 -14c51.333 0 88.666 16.667 111.999 50z" />
    <glyph glyph-name="otilde" unicode="&#xf5;" horiz-adv-x="526" 
d="M346 671c7.33301 8.66699 11 19.667 11 33h54c0 -16 -2 -30.667 -6 -44c-3.33301 -11.333 -9.33301 -22.333 -18 -33c-6.66699 -8 -16.334 -15 -29.001 -21c-12 -5.33301 -24 -8 -36 -8c-10.667 0 -21.334 2.66699 -32.001 8c-13.333 6.66699 -23 12 -29 16l-25 16
c-7.33301 4.66699 -15.333 7 -24 7c-24.667 0 -37 -14.667 -37 -44h-55c0 16 2 30.333 6 43s10 24 18 34c7.33301 9.33301 17 16.666 29 21.999s24 8 36 8c11.333 0 22.333 -2.66699 33 -8c14.667 -7.33301 24 -12.333 28 -15
c4.66699 -3.33301 9.33398 -6.16602 14.001 -8.49902s8.66699 -4.5 12 -6.5c8.66699 -5.33301 16.334 -8 23.001 -8l-1 -2c12.667 0 22 3.66699 28 11zM364 496c28.667 -11.333 54 -28.668 76 -52.001c20.667 -21.333 36.667 -48.666 48 -81.999
c10.667 -31.333 16 -67.333 16 -108s-5.33301 -76.667 -16 -108c-11.333 -33.333 -27.333 -60.666 -48 -81.999c-22 -23.333 -47.333 -40.666 -76 -51.999c-30 -12 -63.667 -18 -101 -18s-71 6 -101 18c-28.667 11.333 -54 28.666 -76 51.999
c-18.667 20 -34.667 47.333 -48 82c-12 32 -18 68 -18 108s6 76 18 108c13.333 34.667 29.333 62 48 82c22 23.333 47.333 40.666 76 51.999c30 12 63.667 18 101 18s71 -6 101 -18zM375 111.998c24.667 34.667 37.001 81.666 37.001 140.999s-12.333 106.333 -37 141
c-23.333 33.333 -60.666 50 -111.999 50c-26 0 -48 -4 -66 -12c-18.667 -8 -34.334 -20.667 -47.001 -38c-13.333 -17.333 -22.666 -37.333 -27.999 -60c-5.33301 -21.333 -8 -48.666 -8 -81.999c0 -32 2.66699 -58.667 8 -80c5.33301 -22.667 14.666 -42.667 27.999 -60
c11.333 -15.333 27 -27.333 47 -36c20.667 -9.33301 42.667 -14 66 -14c51.333 0 88.666 16.667 111.999 50z" />
    <glyph glyph-name="odieresis" unicode="&#xf6;" horiz-adv-x="526" 
d="M225 623c-3.33301 -7.33301 -7.66504 -13.001 -12.998 -17.001c-7.33301 -6 -13.333 -10 -18 -12c-8 -3.33301 -15.333 -5 -22 -5s-13.334 1.66699 -20.001 5c-8 4 -14 8 -18 12c-4.66699 4.66699 -8.66699 10.334 -12 17.001c-2.66699 5.33301 -4 12.333 -4 21
s1.33301 16 4 22c3.33301 7.33301 7.33301 13.333 12 18c4 4 10 8 18 12c5.33301 2.66699 12 4 20 4c8.66699 0 16 -1.33301 22 -4s12.333 -6.66699 19 -12c5.33301 -4.66699 9.66602 -10.667 12.999 -18c2.66699 -6 4 -13.333 4 -22c0 -7.33301 -1.66699 -14.333 -5 -21z
M404.001 622.999c-3.33301 -6.66699 -7.33301 -12.334 -12 -17.001s-10.667 -8.66699 -18 -12c-8 -3.33301 -15.333 -5 -22 -5s-14 1.66699 -22 5c-6.66699 3.33301 -12.667 7.33301 -18 12c-4.66699 4.66699 -8.66699 10.334 -12 17.001c-2.66699 5.33301 -4 12.333 -4 21
s1.33301 16 4 22c2.66699 6.66699 6.66699 12.667 12 18s11.333 9.33301 18 12c6 2.66699 13.333 4 22 4s16 -1.33301 22 -4c7.33301 -2.66699 13.333 -6.66699 18 -12c5.33301 -4.66699 9.33301 -10.667 12 -18c3.33301 -8 5 -15.333 5 -22h-1
c0 -8.66699 -1.33301 -15.667 -4 -21zM364.001 495.999c28.667 -11.333 54 -28.668 76 -52.001c20.667 -21.333 36.667 -48.666 48 -81.999c10.667 -31.333 16 -67.333 16 -108s-5.33301 -76.667 -16 -108c-11.333 -33.333 -27.333 -60.666 -48 -81.999
c-22 -23.333 -47.333 -40.666 -76 -51.999c-30 -12 -63.667 -18 -101 -18s-71 6 -101 18c-28.667 11.333 -54 28.666 -76 51.999c-18.667 20 -34.667 47.333 -48 82c-12 32 -18 68 -18 108s6 76 18 108c13.333 34.667 29.333 62 48 82c22 23.333 47.333 40.666 76 51.999
c30 12 63.667 18 101 18s71 -6 101 -18zM375.001 111.997c24.667 34.667 37.001 81.666 37.001 140.999s-12.333 106.333 -37 141c-23.333 33.333 -60.666 50 -111.999 50c-26 0 -48 -4 -66 -12c-18.667 -8 -34.334 -20.667 -47.001 -38
c-13.333 -17.333 -22.666 -37.333 -27.999 -60c-5.33301 -21.333 -8 -48.666 -8 -81.999c0 -32 2.66699 -58.667 8 -80c5.33301 -22.667 14.666 -42.667 27.999 -60c11.333 -15.333 27 -27.333 47 -36c20.667 -9.33301 42.667 -14 66 -14c51.333 0 88.666 16.667 111.999 50
z" />
    <glyph glyph-name="divide" unicode="&#xf7;" horiz-adv-x="519" 
d="M200 536c2.66699 7.33301 6.99902 13.999 12.999 19.999s12.333 10.667 19 14c5.33301 2.66699 14 4 26 4c10.667 0 18.667 -1.33301 24 -4c6.66699 -3.33301 13 -8 19 -14c4 -4 8.33301 -10.667 13 -20c4 -8 6 -16 6 -24s-2 -16 -6 -24
c-4.66699 -9.33301 -9 -16 -13 -20c-5.33301 -5.33301 -11.666 -9.33301 -18.999 -12c-8.66699 -3.33301 -16.667 -5 -24 -5c-8 0 -16.333 1.66699 -25 5c-7.33301 2.66699 -13.666 6.66699 -18.999 12c-6.66699 6.66699 -11.334 13.334 -14.001 20.001
c-2.66699 7.33301 -4 15.333 -4 24s1.33301 16.667 4 24zM497.999 301.999h-479v68h479v-68zM199.999 179.999c3.33301 8.66699 7.33301 15.333 12 20c4 4 10.667 8.33301 20 13c6.66699 3.33301 15 5 25 5c9.33301 0 17.333 -1.66699 24 -5c8 -4 14.333 -8.33301 19 -13
c5.33301 -5.33301 10 -12 14 -20c3.33301 -6.66699 5 -14.667 5 -24s-1.66699 -17.333 -5 -24c-4 -8 -8.66699 -14.667 -14 -20c-6 -6 -12.333 -10.333 -19 -13c-8.66699 -3.33301 -16.667 -5 -24 -5c-8 0 -16.333 1.66699 -25 5c-6.66699 2.66699 -13 7 -19 13
s-10.333 12.667 -13 20s-4 15.333 -4 24h-1c0 7.33301 1.66699 15.333 5 24z" />
    <glyph glyph-name="oslash" unicode="&#xf8;" horiz-adv-x="528" 
d="M489 362c11.333 -32.667 16.999 -68.6689 16.999 -108.002s-5.66699 -75.333 -17 -108c-11.333 -33.333 -27.333 -60.666 -48 -81.999c-22 -22.667 -47.667 -40 -77 -52c-30 -12 -63.333 -18 -100 -18s-70 6 -100 18c-6.66699 2.66699 -16 7.33398 -28 14.001l-28 -38
c-13.333 -17.333 -31.666 -26 -54.999 -26h-33l72 97l-5 5c-20 20.667 -36.333 48 -49 82c-10.667 28.667 -16 64.667 -16 108s5.33301 79.333 16 108c12.667 34 29 61.333 49 82c22 22.667 47.667 40 77 52c30 12 63.333 18 100 18s70 -6 100 -18
c10.667 -4 23.334 -10.333 38.001 -19l34 46c5.33301 8.66699 11.333 15 18 19s14.667 6 24 6h44l-79 -106c19.333 -21.333 34.666 -48 45.999 -80zM141.999 126.998l213.999 288.001c-22 19.333 -52.667 29 -92 29c-26 0 -48 -4 -66 -12
c-17.333 -8 -32.666 -20.667 -45.999 -38c-12.667 -17.333 -22 -37.333 -28 -60c-6.66699 -26.667 -10 -54 -10 -82c0 -26.667 3.33301 -53.334 10 -80.001c3.33301 -14 9.33301 -29 18 -45zM412.998 252.999c0 46 -7.66602 85 -22.999 117l-210 -284
c4 -2.66699 10 -6 18 -10c21.333 -9.33301 43.333 -14 66 -14c51.333 0 88.666 16.667 111.999 50c24.667 34.667 37 81.667 37 141z" />
    <glyph glyph-name="ugrave" unicode="&#xf9;" horiz-adv-x="605" 
d="M276 718c6 -4 10.666 -9.33301 13.999 -16l75 -121h-51c-7.33301 0 -13 1 -17 3c-5.33301 2.66699 -9.66602 6 -12.999 10l-118 130h85c10.667 0 19 -2 25 -6zM417.999 132l0.000976562 300c-6.66699 2 -25.334 6 -56.001 12c-10.667 2 -16 8.33301 -16 19v43h162v-434
c30.667 -6 49.334 -10 56.001 -12c10.667 -2 16 -8 16 -18v-43h-126c-12 0 -20 6.33301 -24 19l-6 54c-48 -54 -104 -81 -168 -81c-54.667 0 -97 17.667 -127 53c-28.667 34.667 -43 81 -43 139v250c-32 6 -51 10 -57 12c-10 2 -15 8.33301 -15 19v42h161v-322
c0 -38.667 9 -68.667 27 -90c18 -20.667 44.333 -31 79 -31l1 -1c49.333 0 94.666 23.333 135.999 70z" />
    <glyph glyph-name="uacute" unicode="&#xfa;" horiz-adv-x="604" 
d="M316 584c-5.33301 -2.66699 -10.999 -4.00098 -16.999 -4.00098h-53l74 122c3.33301 6 8.33301 11.333 15 16c6 4 14 6 24 6h87l-116 -130c-2.66699 -3.33301 -7.33398 -6.66602 -14.001 -9.99902zM418.001 131.999l0.000976562 300c-6.66699 2 -25.334 6 -56.001 12
c-10.667 2 -16 8.33301 -16 19v43h162v-434c30.667 -6 49.334 -10 56.001 -12c10.667 -2 16 -8 16 -18v-43h-126c-12 0 -20 6.33301 -24 19l-6 54c-48 -54 -104 -81 -168 -81c-54.667 0 -97 17.667 -127 53c-28.667 34.667 -43 81 -43 139v250c-32 6 -51 10 -57 12
c-10 2 -15 8.33301 -15 19v42h161v-322c0 -38.667 9 -68.667 27 -90c18 -20.667 44.333 -31 79 -31l1 -1c49.333 0 94.666 23.333 135.999 70z" />
    <glyph glyph-name="ucircumflex" unicode="&#xfb;" horiz-adv-x="604" 
d="M374 590l-63.998 62.999l-8 9l-8 -9l-65 -63c-1.33301 -1.33301 -2.83301 -2.16602 -4.5 -2.49902s-3.16699 -0.833008 -4.5 -1.5c-2.66699 -1.33301 -6.33398 -2 -11.001 -2h-61l111 132h83l112 -132l-60 -1c-6.66699 0 -13.334 2.33301 -20.001 7zM418.002 131.999
l0.000976562 300c-6.66699 2 -25.334 6 -56.001 12c-10.667 2 -16 8.33301 -16 19v43h162v-434c30.667 -6 49.334 -10 56.001 -12c10.667 -2 16 -8 16 -18v-43h-126c-12 0 -20 6.33301 -24 19l-6 54c-48 -54 -104 -81 -168 -81c-54.667 0 -97 17.667 -127 53
c-28.667 34.667 -43 81 -43 139v250c-32 6 -51 10 -57 12c-10 2 -15 8.33301 -15 19v42h161v-322c0 -38.667 9 -68.667 27 -90c18 -20.667 44.333 -31 79 -31l1 -1c49.333 0 94.666 23.333 135.999 70z" />
    <glyph glyph-name="udieresis" unicode="&#xfc;" horiz-adv-x="604" 
d="M262 622c-4 -8 -7.99902 -13.6689 -11.999 -17.002c-6.66699 -5.33301 -13 -9.33301 -19 -12c-8 -3.33301 -15 -5 -21 -5c-8 0 -15.333 1.66699 -22 5s-12.334 7.33301 -17.001 12s-8.66699 10.334 -12 17.001s-5 14 -5 22c0 6.66699 1.66699 14 5 22
c2.66699 6.66699 6.66699 12.667 12 18c4.66699 4.66699 10.334 8.66699 17.001 12c5.33301 2.66699 12.666 4 21.999 4c8.66699 0 16 -1.33301 22 -4c4.66699 -2 10.667 -6 18 -12c4.66699 -4 8.66699 -10 12 -18s5 -15.333 5 -22h-1
c0 -9.33301 -1.33301 -16.666 -4 -21.999zM440.001 621.998c-3.33301 -6.66699 -7.33301 -12.334 -12 -17.001s-10.667 -8.66699 -18 -12c-8 -3.33301 -15 -5 -21 -5s-13 1.66699 -21 5c-6.66699 3.33301 -12.667 7.33301 -18 12
c-4.66699 4.66699 -8.66699 10.334 -12 17.001s-5 14 -5 22c0 6.66699 1.66699 14 5 22c3.33301 7.33301 7.33301 13.333 12 18c5.33301 5.33301 11.333 9.33301 18 12c6 2.66699 13.333 4 22 4s16 -1.33301 22 -4c7.33301 -2.66699 13.333 -6.66699 18 -12
c5.33301 -5.33301 9.33301 -11.333 12 -18c2.66699 -6 4 -13.333 4 -22h-1c0 -8 -1.66699 -15.333 -5 -22zM418.001 131.998l0.000976562 300c-6.66699 2 -25.334 6 -56.001 12c-10.667 2 -16 8.33301 -16 19v43h162v-434c30.667 -6 49.334 -10 56.001 -12
c10.667 -2 16 -8 16 -18v-43h-126c-12 0 -20 6.33301 -24 19l-6 54c-48 -54 -104 -81 -168 -81c-54.667 0 -97 17.667 -127 53c-28.667 34.667 -43 81 -43 139v250c-32 6 -51 10 -57 12c-10 2 -15 8.33301 -15 19v42h161v-322c0 -38.667 9 -68.667 27 -90
c18 -20.667 44.333 -31 79 -31l1 -1c49.333 0 94.666 23.333 135.999 70z" />
    <glyph glyph-name="yacute" unicode="&#xfd;" horiz-adv-x="594" 
d="M318 585c-4 -2 -10 -2.99902 -18 -2.99902h-52l74 121c4 7.33301 8.66699 13 14 17c5.33301 3.33301 13.333 5 24 5h88l-117 -129c-4 -4.66699 -8.33301 -8.33398 -13 -11.001zM576 464.001c0 -10 -5.33301 -16.001 -16 -18.001c-2.66699 0 -6.16699 -0.666992 -10.5 -2
s-9.5 -2.66602 -15.5 -3.99902l-26 -5l-251 -584c-6 -14.667 -16.333 -22 -31 -22h-66l92 201l-178 406c-21.333 3.33301 -36.666 6.66602 -45.999 9.99902c-9.33301 2 -14 8 -14 18v43h226v-43c0 -10 -4.66699 -16 -14 -18c-6.66699 -2 -25.334 -6 -56.001 -12l112 -264
c4 -9.33301 8.66699 -24.666 14 -45.999c6.66699 22.667 11.667 38 15 46l109 264l-54 11c-9.33301 2 -14 8.33301 -14 19v42h188l36 1v-43z" />
    <glyph glyph-name="thorn" unicode="&#xfe;" horiz-adv-x="523" 
d="M144 735l0.000976562 -302.999c22.667 25.333 46.667 45 72 59c28.667 15.333 60 23 94 23c27.333 0 53.333 -5.66699 78 -17s44.667 -27.666 60 -48.999c17.333 -24 30.333 -51.333 39 -82s13 -67.334 13 -110.001c0 -39.333 -4.66699 -74 -14 -104
c-9.33301 -28.667 -24 -56.667 -44 -84c-16.667 -22.667 -39.334 -41.334 -68.001 -56.001c-26 -13.333 -56.667 -20 -92 -20c-31.333 0 -58 6 -80 18s-41.333 28.333 -58 49v-231h-90v907h90zM204.001 423.001c-22 -14 -42 -32.999 -60 -56.999v-245
c16.667 -22.667 34.667 -38.334 54 -47.001s41 -13 65 -13c46.667 0 83 17 109 51c25.333 33.333 38 81.333 38 144c0 29.333 -3.33301 57.333 -10 84c-6 24 -14.333 43.333 -25 58c-11.333 16 -25 27.333 -41 34c-15.333 6.66699 -33.333 10 -54 10v1
c-30 0 -55.333 -6.66699 -76 -20z" />
    <glyph glyph-name="ydieresis" unicode="&#xff;" horiz-adv-x="594" 
d="M264 624c-4 -8 -8.33301 -14 -13 -18c-6.66699 -5.33301 -13 -9.33301 -19 -12s-13 -4 -21 -4c-8.66699 0 -15.667 1.33301 -21 4c-8 4 -14 8 -18 12s-8 10 -12 18c-2.66699 5.33301 -4 12.333 -4 21s1.33301 16 4 22c3.33301 7.33301 7.33301 13.333 12 18
c4 4 10 8 18 12c6.66699 3.33301 13.667 5 21 5c6.66699 0 14 -1.66699 22 -5c6 -2.66699 12.333 -6.66699 19 -12c4.66699 -4 8.66699 -10 12 -18c2.66699 -6 4 -13.333 4 -22s-1.33301 -15.667 -4 -21zM442 624c-4 -8 -8 -14 -12 -18
c-4.66699 -4.66699 -10.667 -8.66699 -18 -12c-6 -2.66699 -13.333 -4 -22 -4c-8 0 -15 1.33301 -21 4c-6.66699 3.33301 -12.667 7.33301 -18 12c-4 4 -8 10 -12 18c-3.33301 6.66699 -5 13.667 -5 21c0 6.66699 1.66699 14 5 22c2.66699 7.33301 6.66699 13.333 12 18
c5.33301 5.33301 11.333 9.33301 18 12c8 3.33301 15.333 5 22 5s14 -1.66699 22 -5c7.33301 -2.66699 13.333 -6.66699 18 -12c5.33301 -5.33301 9.33301 -11.333 12 -18c3.33301 -8 5 -15.333 5 -22h-2c0 -8.66699 -1.33301 -15.667 -4 -21zM576 464
c0 -10 -5.33301 -16.001 -16 -18.001c-2.66699 0 -6.16699 -0.666992 -10.5 -2s-9.5 -2.66602 -15.5 -3.99902l-26 -5l-251 -584c-6 -14.667 -16.333 -22 -31 -22h-66l92 201l-178 406c-21.333 3.33301 -36.666 6.66602 -45.999 9.99902c-9.33301 2 -14 8 -14 18v43h226v-43
c0 -10 -4.66699 -16 -14 -18c-6.66699 -2 -25.334 -6 -56.001 -12l112 -264c4 -9.33301 8.66699 -24.666 14 -45.999c6.66699 22.667 11.667 38 15 46l109 264l-54 11c-9.33301 2 -14 8.33301 -14 19v42h188l36 1v-43z" />
    <glyph glyph-name="Amacron" unicode="&#x100;" horiz-adv-x="772" 
d="M748 40v-40h-206v40c0 8.66699 4.66699 14 14 16l41 12l-56 144h-309l-56 -144l41 -12c8.66699 -2 13 -7.33301 13 -16v-40h-205v40c0 8.66699 4.33301 14 13 16l40 12l260 648h98l259 -648l40 -12c8.66699 -2 13 -7.33301 13 -16zM408 557
c-5.33301 13.333 -12.667 36.001 -22 68.001c-8 -30.667 -14.667 -53.334 -20 -68.001l-107 -275h255zM528.999 826.001h-287v58h287v-58z" />
    <glyph glyph-name="amacron" unicode="&#x101;" horiz-adv-x="513" 
d="M483 57.5c2.66699 -3.66699 3.99609 -7.8291 3.99609 -12.4961v-43h-104c-6 0 -13 1.33301 -21 4c-4.66699 1.33301 -8 6.66602 -10 15.999l-10 48l-40 -33c-11.333 -9.33301 -24.666 -17.333 -39.999 -24c-14.667 -6.66699 -29.334 -11.667 -44.001 -15
c-13.333 -3.33301 -31.333 -5 -54 -5c-18.667 0 -36.667 3 -54 9c-20.667 7.33301 -35.667 15.333 -45 24c-12 10.667 -22 24.667 -30 42c-7.33301 15.333 -11 35.333 -11 60c0 21.333 5.33301 40.666 16 57.999c12 19.333 30 36 54 50c26.667 15.333 58.667 27.333 96 36
c38.667 8.66699 87.334 13 146.001 13v39c0 39.333 -8.66699 69.333 -26 90s-42.333 31 -75 31c-21.333 0 -39.666 -3 -54.999 -9c-17.333 -6.66699 -30 -12.667 -38 -18c-4 -2.66699 -8.5 -5.5 -13.5 -8.5l-15.5 -9.5c-7.33301 -5.33301 -15 -8 -23 -8
c-7.33301 0 -12.666 1.33301 -15.999 4c-4 3.33301 -7.33301 7.33301 -10 12l-16 28c26 25.333 56 45.333 90 60c30.667 13.333 66.667 20 108 20c30 0 55.333 -4.66699 76 -14c22.667 -10 41 -22.667 55 -38c14.667 -15.333 26 -35.333 34 -60c7.33301 -22 11 -48 11 -78
v-253c32 -6.66699 48.667 -10.334 50 -11.001v2c4.66699 -0.666992 8.33398 -2.83398 11.001 -6.50098zM229.996 221.005c-25.333 -4.66699 -48.666 -11.665 -69.999 -20.998c-18.667 -8.66699 -32 -18.667 -40 -30c-8 -12 -12 -24.667 -12 -38c0 -10.667 2.33301 -22 7 -34
c4 -10 10 -18 18 -24s16.667 -10.333 26 -13c11.333 -3.33301 22.333 -5 33 -5c13.333 0 27.333 1.66699 42 5c13.333 3.33301 25.666 7.66602 36.999 12.999c10 4.66699 21 12 33 22c6.66699 5.33301 16.667 14.666 30 27.999v104c-43.333 0 -78 -2.33301 -104 -7z
M399.996 616.007h-287v58h287v-58z" />
    <glyph glyph-name="Abreve" unicode="&#x102;" horiz-adv-x="772" 
d="M748 40v-40h-206v40c0 8.66699 4.66699 14 14 16l41 12l-56 144h-309l-56 -144l41 -12c8.66699 -2 13 -7.33301 13 -16v-40h-205v40c0 8.66699 4.33301 14 13 16l40 12l260 648h98l259 -648l40 -12c8.66699 -2 13 -7.33301 13 -16zM408 557
c-5.33301 13.333 -12.667 36.001 -22 68.001c-8 -30.667 -14.667 -53.334 -20 -68.001l-107 -275h255zM321.999 801.001c-17.333 6.66699 -31.668 16.333 -43.001 29c-10.667 11.333 -18 25.333 -22 42c-5.33301 21.333 -8 39 -8 53h64c0 -10.667 1 -21 3 -31s6 -18 12 -24
c6.66699 -6.66699 14.334 -11.667 23.001 -15c10 -4 22 -6 36 -6s26 2 36 6c6.66699 2.66699 14 8 22 16c6 6 10 14 12 24c2.66699 13.333 4 23.666 4 30.999h62c0 -18.667 -2 -36 -6 -52c-4 -15.333 -12 -29.666 -24 -42.999s-26 -23 -42 -29
c-17.333 -6.66699 -38.666 -10 -63.999 -10v-2c-24.667 0 -46.334 3.66699 -65.001 11z" />
    <glyph glyph-name="abreve" unicode="&#x103;" horiz-adv-x="513" 
d="M483 57.5c2.66699 -3.66699 3.99609 -7.8291 3.99609 -12.4961v-43h-104c-6 0 -13 1.33301 -21 4c-4.66699 1.33301 -8 6.66602 -10 15.999l-10 48l-40 -33c-11.333 -9.33301 -24.666 -17.333 -39.999 -24c-14.667 -6.66699 -29.334 -11.667 -44.001 -15
c-13.333 -3.33301 -31.333 -5 -54 -5c-18.667 0 -36.667 3 -54 9c-20.667 7.33301 -35.667 15.333 -45 24c-12 10.667 -22 24.667 -30 42c-7.33301 15.333 -11 35.333 -11 60c0 21.333 5.33301 40.666 16 57.999c12 19.333 30 36 54 50c26.667 15.333 58.667 27.333 96 36
c38.667 8.66699 87.334 13 146.001 13v39c0 39.333 -8.66699 69.333 -26 90s-42.333 31 -75 31c-21.333 0 -39.666 -3 -54.999 -9c-17.333 -6.66699 -30 -12.667 -38 -18c-4 -2.66699 -8.5 -5.5 -13.5 -8.5l-15.5 -9.5c-7.33301 -5.33301 -15 -8 -23 -8
c-7.33301 0 -12.666 1.33301 -15.999 4c-4 3.33301 -7.33301 7.33301 -10 12l-16 28c26 25.333 56 45.333 90 60c30.667 13.333 66.667 20 108 20c30 0 55.333 -4.66699 76 -14c22.667 -10 41 -22.667 55 -38c14.667 -15.333 26 -35.333 34 -60c7.33301 -22 11 -48 11 -78
v-253c32 -6.66699 48.667 -10.334 50 -11.001v2c4.66699 -0.666992 8.33398 -2.83398 11.001 -6.50098zM229.996 221.005c-25.333 -4.66699 -48.666 -11.665 -69.999 -20.998c-18.667 -8.66699 -32 -18.667 -40 -30c-8 -12 -12 -24.667 -12 -38c0 -10.667 2.33301 -22 7 -34
c4 -10 10 -18 18 -24s16.667 -10.333 26 -13c11.333 -3.33301 22.333 -5 33 -5c13.333 0 27.333 1.66699 42 5c13.333 3.33301 25.666 7.66602 36.999 12.999c10 4.66699 21 12 33 22c6.66699 5.33301 16.667 14.666 30 27.999v104c-43.333 0 -78 -2.33301 -104 -7z
M192.996 591.007c-17.333 6.66699 -31.668 16.333 -43.001 29c-10.667 11.333 -18 25.333 -22 42c-5.33301 21.333 -8 39 -8 53h64c0 -10.667 1 -21 3 -31s6 -18 12 -24c6.66699 -6.66699 14.334 -11.667 23.001 -15c10 -4 22 -6 36 -6s26 2 36 6
c6.66699 2.66699 14 8 22 16c6 6 10 14 12 24c2.66699 13.333 4 23.666 4 30.999h62c0 -18.667 -2 -36 -6 -52c-4 -15.333 -12 -29.666 -24 -42.999s-26 -23 -42 -29c-17.333 -6.66699 -38.666 -10 -63.999 -10v-2c-24.667 0 -46.334 3.66699 -65.001 11z" />
    <glyph glyph-name="Aogonek" unicode="&#x104;" horiz-adv-x="772" 
d="M720 -163c-14.667 -4.66699 -30.666 -6.99707 -47.999 -6.99707c-30 0 -53.333 6.33301 -70 19c-17.333 13.333 -26 31 -26 53c0 18.667 6.66699 36.667 20 54s30 32 50 44h-104v40c0 4.66699 1.66699 8.66699 5 12c1.33301 1.33301 4.33301 2.66602 9 3.99902l41 12
l-43 112l-13 32h-309l-27 -70l-29 -74l41 -12c4.66699 -1.33301 7.66699 -2.66602 9 -3.99902c4 -4 6 -8.33301 6 -13v-39h-206v39c0 5.33301 1.66699 9.66602 5 12.999c2 2 4.33301 3.33301 7 4l40 12l260 648h98l260 -648l40 -12
c3.33301 -1.33301 5.66602 -2.66602 6.99902 -3.99902c3.33301 -3.33301 5 -7.66602 5 -12.999v-39h-44l-20 -14c-6.66699 -4.66699 -13.334 -10.334 -20.001 -17.001c-3.33301 -3.33301 -7.66602 -10.333 -12.999 -21c-3.33301 -6.66699 -5 -15.334 -5 -26.001
c0 -12.667 4 -22.334 12 -29.001c8.66699 -7.33301 19.334 -11 32.001 -11c6.66699 0 13.334 0.666992 20.001 2c4.66699 0.666992 8.66699 2 12 4c1.33301 0.666992 2.66602 1.16699 3.99902 1.5s2.66602 1.16602 3.99902 2.49902s3.33301 2 6 2s4.66699 -0.666992 6 -2
c2 -2 3 -3.33301 3 -4l13 -32c-10 -8 -22.667 -14.333 -38 -19zM505.001 305.003l-97 253c-6.66699 16 -14 38.667 -22 68c-1.33301 -6 -2.83301 -12.167 -4.5 -18.5s-3.5 -12.833 -5.5 -19.5c-5.33301 -16 -9 -26 -11 -30l-88 -227l-5 -15l-13 -32l255 -2z" />
    <glyph glyph-name="aogonek" unicode="&#x105;" horiz-adv-x="513" 
d="M370 -50c-4 -8 -6.00195 -16.3301 -6.00195 -24.9971c0 -12.667 4 -22.334 12 -29.001c8.66699 -7.33301 20 -11 34 -11c8.66699 0 14.667 0.333008 18 1c5.33301 1.33301 9.66602 2.66602 12.999 3.99902c5.33301 2.66699 8.33301 4.33398 9 5.00098
c1.33301 1.33301 3 2 5 2c2.66699 0 4.66699 -0.666992 6 -2c2 -2 3 -3.66699 3 -5l14 -32c-11.333 -8.66699 -24 -15.334 -38 -20.001c-14.667 -4.66699 -31.334 -7 -50.001 -7c-29.333 0 -52.333 6.33301 -69 19s-25 30.334 -25 53.001c0 10.667 1.66699 20.334 5 29.001
s8.33301 17.334 15 26.001c5.33301 7.33301 13 15.333 23 24c10.667 9.33301 20.334 16.666 29.001 21.999h1c-2 0 -4.33301 0.666992 -7 2c-4.66699 1.33301 -8 6.66602 -10 15.999l-10 48l-40 -33c-11.333 -9.33301 -24.666 -17.333 -39.999 -24
c-14.667 -6.66699 -29.334 -11.667 -44.001 -15c-13.333 -3.33301 -31.333 -5 -54 -5c-18.667 0 -36.667 3 -54 9c-20.667 7.33301 -35.667 15.333 -45 24c-12 10.667 -22 24.667 -30 42c-7.33301 15.333 -11 35.333 -11 60c0 21.333 5.33301 40.666 16 57.999
c12 19.333 30 36 54 50c26.667 15.333 58.667 27.333 96 36c38.667 8.66699 87.334 13 146.001 13v39c0 39.333 -8.66699 69.333 -26 90s-42.333 31 -75 31c-21.333 0 -39.666 -3 -54.999 -9c-17.333 -6.66699 -30 -12.667 -38 -18c-4 -2.66699 -8.5 -5.5 -13.5 -8.5
l-15.5 -9.5c-7.33301 -5.33301 -15 -8 -23 -8c-7.33301 0 -12.666 1.33301 -15.999 4c-5.33301 4 -9 8 -11 12l-16 28c25.333 24.667 55.666 44.667 90.999 60c30.667 13.333 66.667 20 108 20c29.333 0 54.333 -4.66699 75 -14c22.667 -10 41 -22.667 55 -38
c14.667 -15.333 26 -35.333 34 -60c8 -24 12 -50 12 -78v-253c32 -6.66699 48.667 -10.334 50 -11.001c4.66699 -1.33301 8.33398 -3.5 11.001 -6.5s4 -6.83301 4 -11.5v-43h-65l-20 -13c-2.66699 -2 -9 -8 -19 -18l1 2c-4 -4 -8.66699 -11.333 -14 -22zM229.998 221.003
c-25.333 -4.66699 -48.666 -11.666 -69.999 -20.999c-18 -8 -31 -18 -39 -30s-12 -24.667 -12 -38c0 -10.667 2.33301 -22 7 -34c4 -10 10 -18 18 -24s16.667 -10.333 26 -13c11.333 -3.33301 22 -5 32 -5c14 0 28.333 1.66699 43 5
c13.333 3.33301 25.666 7.66602 36.999 12.999c10 4.66699 21 12 33 22c10 8 20.333 17.333 31 28l-2 104c-43.333 0 -78 -2.33301 -104 -7z" />
    <glyph glyph-name="Cacute" unicode="&#x106;" horiz-adv-x="635" 
d="M388 775c-2.66699 -1.33301 -8.33301 -2 -17 -2h-69l106 101l9 8l9 6c2 1.33301 5.33301 2 10 2c2 0 4 0.333008 6 1s4.66699 1 8 1h100l-147 -109c-2 -1.33301 -7 -4 -15 -8zM608.001 674l0.000976562 -167.999h-48c-12.667 0 -20 6 -22 18c-0.666992 2 -2 17 -4 45
l-4 45c-56 18 -106.333 27 -151 27c-75.333 0 -137.333 -25.333 -186 -76c-48.667 -52.667 -73 -121.667 -73 -207c0 -86.667 24 -156 72 -208c45.333 -49.333 104.333 -74 177 -74c41.333 0 73 4 95 12c35.333 13.333 64.666 30.666 87.999 51.999
c6.66699 5.33301 12 8 16 8c6.66699 0 12 -2 16 -6l38 -42c-62 -72 -148 -108 -258 -108c-103.333 0 -186 34 -248 102c-62.667 68.667 -94 156.667 -94 264s33.333 195.333 100 264c66 68 154.667 102 266 102l-2 1c56.667 0 130.667 -17 222 -51z" />
    <glyph glyph-name="cacute" unicode="&#x107;" horiz-adv-x="449" 
d="M274 584c-2.66699 -1.33301 -8.33301 -1.99902 -17 -1.99902h-53l74 120c3.33301 7.33301 8.33301 13 15 17c4.66699 3.33301 12.667 5 24 5h87l-116 -129c-3.33301 -4.66699 -8 -8.33398 -14 -11.001zM244.001 -6.99902c-64.667 0 -117.667 22.998 -159 68.998
c-43.333 48.667 -65 112.667 -65 192c0 76 20.667 138.333 62 187c42.667 48.667 101.667 73 177 73c38 0 88 -12 150 -36v-132h-40c-9.33301 0 -15 4.66699 -17 14c-0.666992 2 -2 14.667 -4 38c-1.33301 14.667 -2 25.667 -2 33c-7.33301 2 -14.666 3.83301 -21.999 5.5
s-12.333 2.83398 -15 3.50098c-18 2.66699 -36.667 4 -56 4c-17.333 0 -35.666 -4.33301 -54.999 -13c-16.667 -7.33301 -32 -19.666 -46 -36.999c-26 -34 -39 -80.667 -39 -140c0 -60 13.333 -107.333 40 -142c26 -33.333 61.667 -50 107 -50c42.667 0 80 14 112 42
c5.33301 5.33301 11.666 8 18.999 8s12.666 -2.66699 15.999 -8l25 -33c-42 -52 -104.667 -78 -188 -78z" />
    <glyph glyph-name="Ccaron" unicode="&#x10c;" horiz-adv-x="635" 
d="M608 506l-47.999 0.000976562c-12.667 0 -20 6 -22 18l-8 90c-56 18 -106.333 27 -151 27c-75.333 0 -137.333 -25.333 -186 -76c-48.667 -52.667 -73 -121.667 -73 -207c0 -55.333 10.167 -104.333 30.5 -147s49.333 -75.834 87 -99.501s81.5 -35.5 131.5 -35.5
c38.667 0 72.5 4.83301 101.5 14.5s56.167 26.167 81.5 49.5c6 5.33301 12 8 18 8c5.33301 0 10 -2 14 -6l38 -42c-62 -72 -148 -108 -258 -108c-69.333 0 -129.833 15.833 -181.5 47.5s-91.334 75.167 -119.001 130.5s-41.5 118 -41.5 188
c0 107.333 33.333 195.333 100 264c66 68 156.333 102 271 102c53.333 0 125 -16.667 215 -50v-168zM152.001 878.001h68c10 0 18 -2 24 -6l65 -47l5 -5l6 5l65 47c6 4 14.333 6 25 6h67l-119 -105h-87z" />
    <glyph glyph-name="ccaron" unicode="&#x10d;" horiz-adv-x="453" 
d="M244 -7c-64 0 -116.667 23.001 -158 69.001c-43.333 48.667 -65 112.667 -65 192c0 77.333 20.333 139.666 61 186.999c42.667 48.667 102 73 178 73c38 0 88 -12 150 -36v-132h-40c-9.33301 0 -15 4.66699 -17 14c-0.666992 2 -2 14.667 -4 38l-3 33
c-7.33301 2.66699 -14.5 4.66699 -21.5 6s-11.833 2.33301 -14.5 3c-18 2.66699 -36.667 4 -56 4c-17.333 0 -35.666 -4.33301 -54.999 -13c-18 -8 -33.667 -20.333 -47 -37c-25.333 -33.333 -38 -80 -38 -140s13.333 -107.333 40 -142c26 -33.333 61.667 -50 107 -50
c42 0 79 14 111 42c5.33301 5.33301 12 8 20 8c7.33301 0 12.666 -2.66699 15.999 -8l24 -33c-42 -52 -104.667 -78 -188 -78zM156 708.001l63.999 -62l8 -10l9 10l63 62c5.33301 5.33301 12.333 8 21 8h59l-111 -132h-83l-112 132h62c6.66699 0 13.334 -2.66699 20.001 -8z
" />
    <glyph glyph-name="Dcaron" unicode="&#x10e;" horiz-adv-x="743" 
d="M674 171c-29.333 -54 -70.666 -96 -123.999 -126s-115 -45 -185 -45h-331v42c0 10.667 5.33301 17 16 19l56 11v571l-56 12c-10.667 2 -16 8.33301 -16 19v42h331c71.333 0 133.666 -15.167 186.999 -45.5s94.333 -72.5 123 -126.5s43 -116 43 -186
c0 -70.667 -14.667 -133 -44 -187zM552 562c-44 50.667 -106.333 76 -187 76h-161v-560h161c80 0 142.167 25 186.5 75s66.5 118.333 66.5 205c0 85.333 -22 153.333 -66 204zM206 878h68c10 0 18 -2 24 -6l65 -47l5 -5l6 5l65 47c6 4 14.333 6 25 6h67l-119 -105h-87z" />
    <glyph glyph-name="dcaron" unicode="&#x10f;" horiz-adv-x="564" 
d="M380 456v207.999l-67 12c-10 2 -15 8 -15 18v44h170v-664c33.333 -6 52.666 -10 57.999 -12c9.33301 -2 14 -8 14 -18v-44h-124c-12 0 -20 6.33301 -24 19l-8 61c-47.333 -57.333 -104 -86 -170 -86c-59.333 0 -106 22 -140 66c-34.667 46 -52 110 -52 192
c0 76.667 19.667 139.334 59 188.001c40.667 50.667 94.334 76 161.001 76c56 0 102 -20 138 -60zM380 141.999l0.000976562 244c-30 40 -69 60 -117 60c-48.667 0 -85.667 -16.667 -111 -50s-38 -81.333 -38 -144c0 -95.333 24.667 -154 74 -176
c15.333 -6.66699 33.666 -10 54.999 -10l1 -1c52.667 0 98 25.667 136 77zM607.001 705.999c4 -16 6 -32 6 -48c0 -30 -7.33301 -58.667 -22 -86c-14.667 -26.667 -35.334 -52 -62.001 -76l-28 17l-5 5c-0.666992 1.33301 -1 3.33301 -1 6c0 5.33301 1.33301 9.33301 4 12
c4 4 9.33301 11.333 16 22c8.66699 13.333 13.334 21 14.001 23c4 8 7 16.333 9 25c2 9.33301 3 19 3 29c0 11.333 -1.33301 22.333 -4 33c-3.33301 12.667 -8.66602 24.667 -15.999 36c-0.666992 1.33301 -1.5 2.83301 -2.5 4.5s-1.5 3.5 -1.5 5.5c0 8 4.66699 14 14 18
l54 22c11.333 -18 18.666 -34 21.999 -48z" />
    <glyph glyph-name="Dcroat" unicode="&#x110;" horiz-adv-x="743" 
d="M718 358c0 -52.667 -8.66699 -101.33 -26 -145.997c-16.667 -44 -40.667 -82 -72 -114c-29.333 -30.667 -66.666 -54.667 -111.999 -72c-44.667 -17.333 -92.667 -26 -144 -26h-330v43c0 4.66699 1.5 8.66699 4.5 12s6.83301 5.66602 11.5 6.99902l56 11v260h-98v57h98
v254l-56 10c-4.66699 1.33301 -8.5 3.66602 -11.5 6.99902s-4.5 7.33301 -4.5 12v43h330c51.333 0 99.333 -8.66699 144 -26c45.333 -17.333 82.666 -41.333 111.999 -72c30.667 -32 54.667 -70 72 -114c17.333 -44.667 26 -93.334 26 -146.001zM618 358.004
c0 44.667 -5.99902 84.0029 -17.999 118.003c-12.667 35.333 -29.667 64.666 -51 87.999c-22.667 24.667 -49.334 42.667 -80.001 54c-35.333 13.333 -70.333 20 -105 20h-161v-248h191v-58h-191v-254h161c36 0 71 6.33301 105 19c30 11.333 56.667 29.666 80 54.999
c21.333 23.333 38.333 52.666 51 87.999c12 34 18 73.333 18 118z" />
    <glyph glyph-name="dcroat" unicode="&#x111;" horiz-adv-x="564" 
d="M540 44v-44.001h-124c-12 0 -20 6.33301 -24 19l-8 61c-47.333 -57.333 -104 -86 -170 -86c-59.333 0 -106 22 -140 66c-34.667 46 -52 110 -52 192c0 76.667 19.667 139.334 59 188.001c40.667 50.667 94.334 76 161.001 76c56 0 102 -20 138 -60v208l-67 12
c-10 2 -15 8 -15 18v44h170v-664c33.333 -6 52.666 -10 57.999 -12c9.33301 -2 14 -8 14 -18zM380 141.999l0.000976562 79h-253v63h253v102c-30 40 -69 60 -117 60c-48.667 0 -85.667 -16.667 -111 -50s-38 -81.333 -38 -144c0 -95.333 24.667 -154 74 -176
c15.333 -6.66699 33.666 -10 54.999 -10l1 -1c52.667 0 98 25.667 136 77z" />
    <glyph glyph-name="Emacron" unicode="&#x112;" horiz-adv-x="587" 
d="M548 543h-48c-12 0 -19 5.66699 -21 17l-7 77h-268v-238h264v-76h-264v-245h268l6 72c2 10.667 9.33301 16 22 16h48v-166h-514v42c0 10.667 5 17 15 19l57 11v571c-32 6 -51 10 -57 12c-10 2 -15 8.33301 -15 19v42h514v-173zM437 826h-287v58h287v-58z" />
    <glyph glyph-name="emacron" unicode="&#x113;" horiz-adv-x="492" 
d="M340 499c26.667 -10 48.665 -24.335 65.998 -43.002c20 -21.333 34.667 -45 44 -71c10.667 -30 16 -62 16 -96c0 -15.333 -1.33301 -24.666 -4 -27.999c-3.33301 -4.66699 -9.33301 -7 -18 -7h-336c0 -32 4 -60 12 -84c6.66699 -20.667 18 -40 34 -58
c14.667 -16.667 31.334 -28.667 50.001 -36c20 -8 41.333 -12 64 -12c24 0 43.333 2.33301 58 7c14 4.66699 28 10.334 42 17.001c14.667 7.33301 24.667 12.666 30 15.999c8.66699 5.33301 15.334 8 20.001 8c7.33301 0 13 -3 17 -9l25 -33
c-9.33301 -12 -22.666 -23.333 -39.999 -34c-20 -12.667 -36.333 -21 -49 -25c-20 -6.66699 -38 -11.334 -54 -14.001c-20 -3.33301 -38.333 -5 -55 -5c-34.667 0 -67 6 -97 18c-28.667 11.333 -54.334 29 -77.001 53c-21.333 22 -38 50.333 -50 85
c-12 34 -18 72.667 -18 116c0 34.667 5.66699 67.334 17 98.001c11.333 31.333 27 58 47 80c20.667 22.667 45.667 40.334 75 53.001s62 19 98 19c29.333 0 57 -5 83 -15zM157.998 411.998c-24.667 -26 -40.001 -60.668 -46.001 -104.001h275c0 20.667 -3 39.334 -9 56.001
c-7.33301 20.667 -15.333 35.667 -24 45c-11.333 12 -25 21.667 -41 29c-15.333 6.66699 -33.666 10 -54.999 10l1 1c-43.333 0 -77 -12.333 -101 -37zM388.997 615.997h-287v58h287v-58z" />
    <glyph glyph-name="Edotaccent" unicode="&#x116;" horiz-adv-x="587" 
d="M548 543h-48c-12 0 -19 5.66699 -21 17l-7 77h-268v-238h264v-76h-264v-245h268l6 72c2 10.667 9.33301 16 22 16h48v-166h-514v42c0 10.667 5 17 15 19l57 11v571c-32 6 -51 10 -57 12c-10 2 -15 8.33301 -15 19v42h514v-173zM254 815
c-11.333 11.333 -17 24.666 -17 39.999s5.66699 28.5 17 39.5s24.666 16.5 39.999 16.5c14.667 0 27.667 -5.5 39 -16.5s17 -24.167 17 -39.5s-5.5 -28.666 -16.5 -39.999s-24.167 -17 -39.5 -17s-28.666 5.66699 -39.999 17z" />
    <glyph glyph-name="edotaccent" unicode="&#x117;" horiz-adv-x="492" 
d="M340 499c26.667 -10 48.665 -24.335 65.998 -43.002c20 -21.333 34.667 -45 44 -71c10.667 -30 16 -62 16 -96c0 -15.333 -1.33301 -24.666 -4 -27.999c-3.33301 -4.66699 -9.33301 -7 -18 -7h-336c0 -32 4 -60 12 -84c6.66699 -20.667 18 -40 34 -58
c14.667 -16.667 31.334 -28.667 50.001 -36c20 -8 41.333 -12 64 -12c24 0 43.333 2.33301 58 7c14 4.66699 28 10.334 42 17.001c14.667 7.33301 24.667 12.666 30 15.999c8.66699 5.33301 15.334 8 20.001 8c7.33301 0 13 -3 17 -9l25 -33
c-9.33301 -12 -22.666 -23.333 -39.999 -34c-20 -12.667 -36.333 -21 -49 -25c-20 -6.66699 -38 -11.334 -54 -14.001c-20 -3.33301 -38.333 -5 -55 -5c-34.667 0 -67 6 -97 18c-28.667 11.333 -54.334 29 -77.001 53c-21.333 22 -38 50.333 -50 85
c-12 34 -18 72.667 -18 116c0 34.667 5.66699 67.334 17 98.001c11.333 31.333 27 58 47 80c20.667 22.667 45.667 40.334 75 53.001s62 19 98 19c29.333 0 57 -5 83 -15zM157.998 411.998c-24.667 -26 -40.001 -60.668 -46.001 -104.001h275c0 20.667 -3 39.334 -9 56.001
c-7.33301 20.667 -15.333 35.667 -24 45c-11.333 12 -25 21.667 -41 29c-15.333 6.66699 -33.666 10 -54.999 10l1 1c-43.333 0 -77 -12.333 -101 -37zM205.997 604.997c-11.333 11.333 -17 24.666 -17 39.999s5.66699 28.5 17 39.5s24.666 16.5 39.999 16.5
c14.667 0 27.667 -5.5 39 -16.5s17 -24.167 17 -39.5s-5.5 -28.666 -16.5 -39.999s-24.167 -17 -39.5 -17s-28.666 5.66699 -39.999 17z" />
    <glyph glyph-name="Eogonek" unicode="&#x118;" horiz-adv-x="586" 
d="M520 -164c-14.667 -4.66699 -30.9961 -6.99316 -48.9961 -6.99316c-29.333 0 -52.333 6.33301 -69 19c-17.333 13.333 -26 31 -26 53c0 19.333 6.66699 37.666 20 54.999c14 18 30.333 32.667 49 44h-411v42c0 4.66699 1.5 8.66699 4.5 12s6.83301 5.66602 11.5 6.99902
l56 11v571l-56 11c-4.66699 1.33301 -8.5 3.5 -11.5 6.5s-4.5 6.83301 -4.5 11.5v44h514v-173h-49c-5.33301 0 -10 1.66699 -14 5s-6.33301 7.33301 -7 12l-7 77h-268v-238h264v-76h-264v-245h269c1.33301 20 2.66602 36.167 3.99902 48.5s2 20.166 2 23.499
c0.666992 4.66699 2.83398 8.5 6.50098 11.5s8.16699 4.5 13.5 4.5h49v-166h-45l-21 -14c-4.66699 -3.33301 -11 -9 -19 -17c-4.66699 -4.66699 -9.33398 -11.667 -14.001 -21c-3.33301 -6.66699 -5 -15.334 -5 -26.001c0 -12.667 4 -22.334 12 -29.001
c8.66699 -7.33301 19.667 -11 33 -11c6 0 12.333 0.666992 19 2c5.33301 1.33301 9.66602 2.66602 12.999 3.99902c1.33301 0.666992 2.66602 1.16699 3.99902 1.5s2.66602 1.16602 3.99902 2.49902s3.33301 2 6 2s4.66699 -0.666992 6 -2s2 -2.66602 2 -3.99902l16 -32
c-11.333 -8.66699 -24 -15.334 -38 -20.001z" />
    <glyph glyph-name="eogonek" unicode="&#x119;" horiz-adv-x="492" 
d="M363 -108c2 -2 3.00098 -3.33301 3.00098 -4l14 -34c-8.66699 -6.66699 -21.334 -12.667 -38.001 -18c-17.333 -5.33301 -33.333 -8 -48 -8c-29.333 0 -52.666 6.66699 -69.999 20s-26 30.666 -26 51.999c0 16.667 5.66699 33.334 17 50.001s25.666 30.667 42.999 42
c-33.333 0 -65.333 6.33301 -96 19c-27.333 11.333 -52 29 -74 53s-38.667 52 -50 84s-17 70 -17 114c0 36 5.66699 69.333 17 100c11.333 32 26.666 58.333 45.999 79c20 22 45.333 39.667 76 53s63.334 20 98.001 20c28 0 56 -5.33301 84 -16
c26.667 -10 48.667 -24.333 66 -43c20 -21.333 34.667 -45 44 -71c10.667 -30 16 -62 16 -96c0 -15.333 -1.33301 -24.666 -4 -27.999c-2.66699 -4 -8.66699 -6 -18 -6h-336c0 -32 4 -60 12 -84c7.33301 -22 18.666 -41.667 33.999 -59
c14.667 -16.667 31.334 -28.667 50.001 -36c20 -8 41.333 -12 64 -12c24 0 43.333 2.33301 58 7c14 4.66699 28 10.334 42 17.001c9.33301 4.66699 19.333 10.334 30 17.001c7.33301 4.66699 14 7 20 7c7.33301 0 13 -3 17 -9l25 -32c-15.333 -18.667 -36 -34.667 -62 -48
c-24 -12 -50 -20 -78 -24l-19 -14l-18 -16c-3.33301 -3.33301 -6.16602 -7.5 -8.49902 -12.5s-3.83301 -8.16699 -4.5 -9.5c-4 -8 -6 -16 -6 -24c0 -12.667 4 -22.334 12 -29.001c8.66699 -7.33301 20 -11 34 -11c5.33301 0 11.333 0.666992 18 2
c5.33301 1.33301 9.66602 2.66602 12.999 3.99902c1.33301 0.666992 2.83301 1.16699 4.5 1.5s3.16699 1.16602 4.5 2.49902s3 2 5 2c2.66699 0 4.66699 -0.666992 6 -2zM159.001 412c-24.667 -26 -40 -60.667 -46 -104h275c0 22 -2.66699 40.667 -8 56
c-6.66699 19.333 -15 34.333 -25 45c-11.333 12 -25 21.667 -41 29c-15.333 6.66699 -33.333 10 -54 10v1c-43.333 0 -77 -12.333 -101 -37z" />
    <glyph glyph-name="Ecaron" unicode="&#x11a;" horiz-adv-x="587" 
d="M548 543h-48c-12 0 -19 5.66699 -21 17l-7 77h-268v-238h264v-76h-264v-245h268l6 72c2 10.667 9.33301 16 22 16h48v-166h-514v42c0 10.667 5 17 15 19l57 11v571c-32 6 -51 10 -57 12c-10 2 -15 8.33301 -15 19v42h514v-173zM128 878h68c10 0 18 -2 24 -6l65 -47l5 -5
l6 5l65 47c6 4 14.333 6 25 6h67l-119 -105h-87z" />
    <glyph glyph-name="ecaron" unicode="&#x11b;" horiz-adv-x="492" 
d="M340 499c26.667 -10 48.665 -24.335 65.998 -43.002c20 -21.333 34.667 -45 44 -71c10.667 -30 16 -62 16 -96c0 -15.333 -1.33301 -24.666 -4 -27.999c-3.33301 -4.66699 -9.33301 -7 -18 -7h-336c0 -32 4 -60 12 -84c6.66699 -20.667 18 -40 34 -58
c14.667 -16.667 31.334 -28.667 50.001 -36c20 -8 41.333 -12 64 -12c24 0 43.333 2.33301 58 7c14 4.66699 28 10.334 42 17.001c14.667 7.33301 24.667 12.666 30 15.999c8.66699 5.33301 15.334 8 20.001 8c7.33301 0 13 -3 17 -9l25 -33
c-9.33301 -12 -22.666 -23.333 -39.999 -34c-20 -12.667 -36.333 -21 -49 -25c-20 -6.66699 -38 -11.334 -54 -14.001c-20 -3.33301 -38.333 -5 -55 -5c-34.667 0 -67 6 -97 18c-28.667 11.333 -54.334 29 -77.001 53c-21.333 22 -38 50.333 -50 85
c-12 34 -18 72.667 -18 116c0 34.667 5.66699 67.334 17 98.001c11.333 31.333 27 58 47 80c20.667 22.667 45.667 40.334 75 53.001s62 19 98 19c29.333 0 57 -5 83 -15zM157.998 411.998c-24.667 -26 -40.001 -60.668 -46.001 -104.001h275c0 20.667 -3 39.334 -9 56.001
c-7.33301 20.667 -15.333 35.667 -24 45c-11.333 12 -25 21.667 -41 29c-15.333 6.66699 -33.666 10 -54.999 10l1 1c-43.333 0 -77 -12.333 -101 -37zM174.997 707.997l63.999 -62l8 -10l9 10l63 62c5.33301 5.33301 12.333 8 21 8h59l-111 -132h-83l-112 132h62
c6.66699 0 13.334 -2.66699 20.001 -8z" />
    <glyph glyph-name="uni0122" unicode="&#x122;" horiz-adv-x="684" 
d="M561 112l0.000976562 158h-111c-6.66699 0 -12 2 -16 6s-6 8.33301 -6 13v55h220v-275c-71.333 -51.333 -162 -77 -272 -77c-104.667 0 -189.667 33.667 -255 101c-66 68 -99 156.333 -99 265c0 110.667 32.667 198.667 98 264c67.333 68 156.666 102 267.999 102
c76 0 160.333 -17.333 253 -52v-166h-48c-12 0 -19 5.33301 -21 16c0 3.33301 -0.833008 11.666 -2.5 24.999s-3.5 35.333 -5.5 66c-21.333 6.66699 -33.666 10.334 -36.999 11.001c-40.667 10.667 -83.667 16 -129 16c-48.667 0 -89.334 -6.66699 -122.001 -20
c-32 -13.333 -59.667 -32 -83 -56c-47.333 -50 -71 -118.667 -71 -206c0 -90 24.333 -160.667 73 -212c48.667 -50.667 111.667 -76 189 -76c65.333 0 124.333 14 177 42zM292.001 -299c-4 4 -6 8.66895 -6 14.002c0 3.33301 0.833008 6.16602 2.5 8.49902s4 5 7 8
s6.5 6.83301 10.5 11.5c10.667 12.667 19.5 26 26.5 40s11.5 27 13.5 39h-6c-18 0 -32.333 6 -43 18s-16 26.333 -16 43c0 15.333 5.83301 28.666 17.5 39.999s25.5 17 41.5 17c20.667 0 36.167 -6.66699 46.5 -20s15.5 -30.333 15.5 -51
c0 -33.333 -9.16699 -66.833 -27.5 -100.5s-40.833 -61.167 -67.5 -82.5z" />
    <glyph glyph-name="uni0123" unicode="&#x123;" horiz-adv-x="507" 
d="M290 506c19.333 -5.33301 36.667 -12.6709 52 -22.0039h138v-33c0 -10.667 -7 -17.667 -21 -21l-57 -8c10.667 -19.333 16 -43.333 16 -72c0 -26 -4.66699 -48.333 -14 -67c-10.667 -21.333 -23.667 -38.333 -39 -51c-18.667 -15.333 -38.667 -26.666 -60 -33.999
s-46.666 -11 -75.999 -11c-24 0 -46.333 3 -67 9c-9.33301 -5.33301 -17.333 -12.666 -24 -21.999c-5.33301 -7.33301 -8 -14.666 -8 -21.999c0 -12.667 4.66699 -21.667 14 -27c11.333 -6.66699 24.333 -11 39 -13c21.333 -2.66699 39.666 -4 54.999 -4
c13.333 0 34 -1.33301 62 -4c5.33301 -0.666992 14.5 -1.5 27.5 -2.5s24.5 -2.5 34.5 -4.5c21.333 -4 39.666 -10 54.999 -18c14.667 -7.33301 27.667 -19 39 -35c9.33301 -13.333 14 -32 14 -56c0 -23.333 -5.33301 -44.666 -16 -63.999c-10 -18.667 -26 -36.667 -48 -54
c-19.333 -15.333 -44 -28 -74 -38c-28 -9.33301 -61.333 -14 -100 -14c-40 0 -72.667 3.66699 -98 11c-28 8 -51 18 -69 30s-31.667 26.333 -41 43s-14 33.334 -14 50.001c0 24.667 8 46 24 64s38 32 66 42c-14 6 -25.333 15 -34 27s-13 27 -13 45c0 4 1.33301 11.333 4 22
c2 8 6 16 12 24c5.33301 7.33301 12.333 14.666 21 21.999c2.66699 2.66699 12 8.66699 28 18c-25.333 14 -45 32.667 -59 56s-21 50.333 -21 81c0 26 4.66699 48.333 14 67c10 20.667 23.333 37.667 40 51c16.667 14 37.334 25 62.001 33c22 7.33301 47.667 11 77 11l-2 -2
c22.667 0 43 -2.33301 61 -7zM278.001 251.995c12.667 4.66699 24.332 11.668 34.999 21.001c9.33301 8.66699 16.333 19.667 21 33c4.66699 14 7 27.667 7 41c0 31.333 -9.66699 56 -29 74c-18.667 18 -46 27 -82 27c-35.333 0 -62.666 -9 -81.999 -27
c-18.667 -18 -28 -42.667 -28 -74c0 -14.667 2.66699 -28.334 8 -41.001c6 -14 13 -24.667 21 -32c10.667 -9.33301 22.334 -16.333 35.001 -21c13.333 -4.66699 28.666 -7 45.999 -7v-2c17.333 0 33.333 2.66699 48 8zM377.999 -0.00390625
c-6.66699 8 -16.332 13.999 -28.999 17.999s-26.334 7 -41.001 9c-21.333 2.66699 -38 4.33398 -50 5.00098l-53 2c-3.33301 0 -20.333 2 -51 6c-19.333 -9.33301 -35 -20.333 -47 -33c-12 -13.333 -18 -29 -18 -47c0 -11.333 3 -22 9 -32c6 -9.33301 15 -17.666 27 -24.999
c12.667 -7.33301 27.667 -13 45 -17c18 -4 39.333 -6 64 -6c20.667 0 42 2.33301 64 7c17.333 3.33301 33.333 9.66602 48 18.999c13.333 8 23.333 17.333 30 28c7.33301 11.333 11 23.333 11 36h1c0 12.667 -3.33301 22.667 -10 30zM303.001 814.995
c4 -4 6 -8.66895 6 -14.002c0 -3.33301 -0.833008 -6.16602 -2.5 -8.49902s-4 -5 -7 -8s-6.5 -6.83301 -10.5 -11.5c-10.667 -12.667 -19.5 -26 -26.5 -40s-11.5 -27 -13.5 -39h6c18 0 32.333 -6 43 -18s16 -26.333 16 -43c0 -15.333 -5.83301 -28.666 -17.5 -39.999
s-25.5 -17 -41.5 -17c-20.667 0 -36.167 6.66699 -46.5 20s-15.5 30.333 -15.5 51c0 33.333 9.16699 66.833 27.5 100.5s40.833 61.167 67.5 82.5z" />
    <glyph glyph-name="Imacron" unicode="&#x12a;" horiz-adv-x="305" 
d="M202 73l61 -12c8 -2 12 -8 12 -18v-43h-241v43c0 10.667 4.66699 17 14 19l58 11v571l-60 12c-8 2 -12 8 -12 18v42h241v-42c0 -10.667 -5 -17 -15 -19l-58 -11v-571zM296 826h-287v58h287v-58z" />
    <glyph glyph-name="imacron" unicode="&#x12b;" horiz-adv-x="289" 
d="M261 55.5c2.66699 -3.66699 3.99902 -7.83594 3.99902 -12.5029v-43h-233v43c0 4.66699 1.33301 8.83398 4 12.501s6.33398 5.83398 11.001 6.50098l57 11v361l-57 11c-4.66699 0.666992 -8.33398 2.83398 -11.001 6.50098s-4 7.83398 -4 12.501v42h160v-433l58 -11
c4.66699 -0.666992 8.33398 -2.83398 11.001 -6.50098zM281.999 615.998h-287v58h287v-58z" />
    <glyph glyph-name="Iogonek" unicode="&#x12e;" horiz-adv-x="305" 
d="M202 644l-0.000976562 -571l61 -12c8 -2 12 -8 12 -18v-43h-95l7 -1c-20.667 -14 -35.5 -26.167 -44.5 -36.5s-13.5 -23.833 -13.5 -40.5c0 -12.667 4 -22.5 12 -29.5s18.667 -10.5 32 -10.5c6.66699 0 15.5 2 26.5 6s17.5 6 19.5 6c3.33301 0 6 -2 8 -6l16 -34
c-11.333 -8.66699 -24.833 -15.167 -40.5 -19.5s-31.167 -6.5 -46.5 -6.5c-28.667 0 -51.667 6.33301 -69 19s-26 30.334 -26 53.001c0 18.667 6.83301 37.167 20.5 55.5s29.834 33.166 48.501 44.499h-96v43c0 10.667 4.66699 17 14 19l58 11v571l-60 12c-8 2 -12 8 -12 18
v42h241v-42c0 -10.667 -5 -17 -15 -19z" />
    <glyph glyph-name="iogonek" unicode="&#x12f;" horiz-adv-x="289" 
d="M90 641c-3.33301 6.66699 -5.00195 14.667 -5.00195 24c0 10 1.66699 18.333 5 25c4.66699 9.33301 9.33398 16.333 14.001 21c5.33301 5.33301 12 10 20 14c6.66699 3.33301 14.667 5 24 5s17.333 -1.66699 24 -5c8 -4 14.667 -8.66699 20 -14
c4.66699 -4.66699 9.33398 -11.667 14.001 -21c4 -8 6 -16.333 6 -25c0 -8 -2 -16 -6 -24s-8.66699 -14.667 -14 -20s-12 -10 -20 -14c-6.66699 -3.33301 -14.667 -5 -24 -5s-17.333 1.66699 -24 5c-8 4 -14.667 8.66699 -20 14s-10 12 -14 20zM263.998 0
l-103.002 -0.00195312l7 -1c-20.667 -14 -35.5 -26.167 -44.5 -36.5s-13.5 -23.833 -13.5 -40.5c0 -12.667 4 -22.5 12 -29.5s18.667 -10.5 32 -10.5c6.66699 0 15.5 2 26.5 6s17.5 6 19.5 6c3.33301 0 6 -2 8 -6l16 -34c-11.333 -8.66699 -24.833 -15.167 -40.5 -19.5
s-31.167 -6.5 -46.5 -6.5c-28.667 0 -51.667 6.33301 -69 19s-26 30.334 -26 53.001c0 18.667 6.83301 37.167 20.5 55.5s29.834 33.166 48.501 44.499h-80v43c0 4.66699 1.33301 8.83398 4 12.501s6.33398 5.83398 11.001 6.50098l58 11v361l-58 11
c-4.66699 0.666992 -8.33398 2.83398 -11.001 6.50098s-4 7.83398 -4 12.501v42h161v-433l57 -11c4.66699 -0.666992 8.33398 -2.83398 11.001 -6.50098s4 -7.83398 4 -12.501v-43z" />
    <glyph glyph-name="dotlessi" unicode="&#x131;" horiz-adv-x="289" 
d="M261 55.5c2.66699 -3.66699 3.99902 -7.83594 3.99902 -12.5029v-43h-233v43c0 4.66699 1.33301 8.83398 4 12.501s6.33398 5.83398 11.001 6.50098l57 11v361l-57 11c-4.66699 0.666992 -8.33398 2.83398 -11.001 6.50098s-4 7.83398 -4 12.501v42h160v-433l58 -11
c4.66699 -0.666992 8.33398 -2.83398 11.001 -6.50098z" />
    <glyph glyph-name="uni0136" unicode="&#x136;" horiz-adv-x="710" 
d="M684 42v-39.999h-235v40c0 9.33301 4.66699 15 14 17c4 0 19.333 3 46 9l-207 238c-12.667 12.667 -23 20 -31 22c-6 1.33301 -14.333 2 -25 2h-44v-256l56 -12c10.667 -2 16 -8 16 -18v-43h-241v43c0 10 5 16 15 18l57 12v570c-32 6 -51 10 -57 12
c-10 2 -15 8.33301 -15 19v43h241v-43c0 -10.667 -5.33301 -17 -16 -19l-56 -12v-240h36c23.333 0 40.666 6.66699 51.999 20l200 228l-44 8c-9.33301 2 -14 8 -14 18v40h226l2 -38c0 -10.667 -5.33301 -17 -16 -19c-9.33301 -3.33301 -24.666 -7.33301 -45.999 -12
l-213 -241c-12.667 -14.667 -25.667 -25.334 -39 -32.001c14.667 -4 30 -16 46 -36l227 -270l27 -6l24 -5l-1 1c10 -2 15 -8 15 -18zM305 -298.999c-4 4 -6 8.66895 -6 14.002c0 3.33301 0.833008 6.16602 2.5 8.49902s4 5 7 8s6.5 6.83301 10.5 11.5
c10.667 12.667 19.5 26 26.5 40s11.5 27 13.5 39h-6c-18 0 -32.333 6 -43 18s-16 26.333 -16 43c0 15.333 5.83301 28.666 17.5 39.999s25.5 17 41.5 17c20.667 0 36.167 -6.66699 46.5 -20s15.5 -30.333 15.5 -51c0 -33.333 -9.16699 -66.833 -27.5 -100.5
s-40.833 -61.167 -67.5 -82.5z" />
    <glyph glyph-name="uni0137" unicode="&#x137;" horiz-adv-x="578" 
d="M550 44l0.000976562 -44h-94c-12.667 0 -24 6 -34 18l-166 208c-4.66699 6.66699 -9.66699 11 -15 13s-13 3 -23 3h-24v-169c4 0 15.667 -2.33301 35 -7l21 -4c10.667 -2 16 -8.33301 16 -19v-43h-234v43c0 10.667 5 17 15 19l57 11v591c-32 6 -51 10 -57 12
c-10 2 -15 8 -15 18v43h162v-433h22c14 0 24.667 4.66699 32 14l114 122c-2 0 -4 0.333008 -6 1s-4 1 -6 1l-16 3c-10.667 2 -16 8.33301 -16 19v42h212v-42c0 -10 -4.33301 -16 -13 -18l-62 -12l-118 -126c-10.667 -12.667 -20.334 -21.667 -29.001 -27
c13.333 -8.66699 23.333 -19 30 -31l140 -178l26 -4c17.333 -4 28 -6 32 -6h-1c10 -2 15 -8 15 -18zM239.001 -299c-4 4 -6 8.66895 -6 14.002c0 3.33301 0.833008 6.16602 2.5 8.49902s4 5 7 8s6.5 6.83301 10.5 11.5c10.667 12.667 19.5 26 26.5 40s11.5 27 13.5 39h-6
c-18 0 -32.333 6 -43 18s-16 26.333 -16 43c0 15.333 5.83301 28.666 17.5 39.999s25.5 17 41.5 17c20.667 0 36.167 -6.66699 46.5 -20s15.5 -30.333 15.5 -51c0 -33.333 -9.16699 -66.833 -27.5 -100.5s-40.833 -61.167 -67.5 -82.5z" />
    <glyph glyph-name="Lacute" unicode="&#x139;" horiz-adv-x="570" 
d="M34 0l0.000976562 42.998c0 4.66699 1.33301 8.83398 4 12.501s6.33398 5.83398 11.001 6.50098l57 11v571l-57 11c-4.66699 0.666992 -8.33398 2.83398 -11.001 6.50098s-4 7.83398 -4 12.501v42h240v-42c0 -4.66699 -1.33301 -8.83398 -4 -12.501
s-6.33398 -5.83398 -11.001 -6.50098l-57 -11v-562h258c2 30.667 4 49.667 6 57c0.666992 4.66699 3 8.66699 7 12s8.66699 5 14 5h49v-156h-502zM199.501 794.498c-6.33301 -3 -11.834 -4.5 -16.501 -4.5h-53l74 122c3.33301 6.66699 8.5 12 15.5 16s14.833 6 23.5 6h87
l-116 -130c-3.33301 -3.33301 -8.16602 -6.5 -14.499 -9.5z" />
    <glyph glyph-name="lacute" unicode="&#x13a;" horiz-adv-x="290" 
d="M266 43v-43h-234v43c0 10.667 5.33301 17 16 19l56 11v591c-30.667 6 -49.334 10 -56.001 12c-10.667 2 -16 8 -16 18v43h162v-663c30.667 -6 49.334 -10 56.001 -12c10.667 -2 16 -8.33301 16 -19zM152 776.5c-2.66699 -1 -4.66699 -1.83398 -6 -2.50098
c-2.66699 -1.33301 -8 -2 -16 -2h-70l106 102c2.66699 2.66699 6 5.33398 10 8.00098l8 5c2.66699 2 6 3 10 3l14 1h100l-146 -109c-4 -2.66699 -7.33301 -4.5 -10 -5.5z" />
    <glyph glyph-name="uni013B" unicode="&#x13b;" horiz-adv-x="570" 
d="M34 0l0.000976562 42.998c0 4.66699 1.33301 8.83398 4 12.501s6.33398 5.83398 11.001 6.50098l57 11v571l-57 11c-4.66699 0.666992 -8.33398 2.83398 -11.001 6.50098s-4 7.83398 -4 12.501v42h240v-42c0 -4.66699 -1.33301 -8.83398 -4 -12.501
s-6.33398 -5.83398 -11.001 -6.50098l-57 -11v-562h258c2 30.667 4 49.667 6 57c0.666992 4.66699 3 8.66699 7 12s8.66699 5 14 5h49v-156h-502zM235.001 -299.002c-4 4 -6 8.66895 -6 14.002c0 3.33301 0.833008 6.16602 2.5 8.49902s4 5 7 8s6.5 6.83301 10.5 11.5
c10.667 12.667 19.5 26 26.5 40s11.5 27 13.5 39h-6c-18 0 -32.333 6 -43 18s-16 26.333 -16 43c0 15.333 5.83301 28.666 17.5 39.999s25.5 17 41.5 17c20.667 0 36.167 -6.66699 46.5 -20s15.5 -30.333 15.5 -51c0 -33.333 -9.16699 -66.833 -27.5 -100.5
s-40.833 -61.167 -67.5 -82.5z" />
    </font>
</defs>
</svg>
