<?xml version="1.0" standalone="no"?>
<!DOCTYPE svg PUBLIC "-//W3C//DTD SVG 1.1//EN" "http://www.w3.org/Graphics/SVG/1.1/DTD/svg11.dtd" >
<svg>
<metadata>
Created by FontForge 20090914 at Sun Jun 19 14:13:07 2022
 By www-data
Copyright 2021 The Red Hat Project Authors (https://github.com/RedHatOfficial/RedHatFont)
</metadata>
<defs>
<font id="RedHatText-Regular" horiz-adv-x="600" >
  <font-face 
    font-family="Red Hat Text"
    font-weight="400"
    font-stretch="normal"
    units-per-em="1000"
    panose-1="2 1 3 3 4 2 1 6 3 3"
    ascent="800"
    descent="-200"
    x-height="488"
    cap-height="700"
    bbox="-58.9971 -274.002 1055 1006"
    underline-thickness="100"
    underline-position="-150"
    unicode-range="U+0020-U+FFFD"
  />
<missing-glyph horiz-adv-x="514" 
d="M60 -100v850h394v-850h-394z" />
    <glyph glyph-name=".notdef" horiz-adv-x="514" 
d="M60 -100v850h394v-850h-394z" />
    <glyph glyph-name="space" unicode=" " horiz-adv-x="233" 
 />
    <glyph glyph-name="exclam" unicode="!" horiz-adv-x="222" 
d="M82 205l-9 522h75l-9 -522h-57zM111 -8c-14.667 0 -27.167 5.16699 -37.5 15.5s-15.5 22.833 -15.5 37.5c0 15.333 5.16699 28 15.5 38s22.833 15 37.5 15s27.167 -5 37.5 -15s15.5 -22.667 15.5 -38c0 -14.667 -5.16699 -27.167 -15.5 -37.5s-22.833 -15.5 -37.5 -15.5z
" />
    <glyph glyph-name="quotedbl" unicode="&#x22;" horiz-adv-x="356" 
d="M81 530l-11 220h73l-10 -220h-52zM224 530l-11 220h73l-10 -220h-52z" />
    <glyph glyph-name="numbersign" unicode="#" horiz-adv-x="690" 
d="M66 0l75 219h-97v58h117l50 146h-119v58h139l75 219h66l-75 -219h187l75 219h66l-75 -219h96v-58h-116l-50 -146h118v-58h-138l-75 -219h-66l75 219h-187l-75 -219h-66zM227 277h187l50 146h-187z" />
    <glyph glyph-name="dollar" unicode="$" horiz-adv-x="550" 
d="M253 -67v89.0029c-37.333 2.66699 -74 10.667 -110 24s-68.667 31.666 -98 54.999l36 54c27.333 -20.667 55.5 -37 84.5 -49s58.167 -19.667 87.5 -23v247l-51 14c-50.667 15.333 -88.167 36.166 -112.5 62.499s-36.5 59.166 -36.5 98.499
c0 50.667 18.167 91.667 54.5 123s84.833 48.333 145.5 51v88h48v-90c33.333 -3.33301 65.833 -11.833 97.5 -25.5s61.167 -31.5 88.5 -53.5l-37 -52c-46 38 -95.667 61 -149 69v-231l51 -15c54 -16 92.833 -36.833 116.5 -62.5s35.5 -59.167 35.5 -100.5
c0 -34 -8.5 -64.5 -25.5 -91.5s-40.667 -48.5 -71 -64.5s-65.833 -25.333 -106.5 -28v-89h-48zM253 398.003l0.000976562 219.998c-40.667 -1.33301 -72.834 -11.833 -96.501 -31.5s-35.5 -45.167 -35.5 -76.5c0 -25.333 8.16699 -46.166 24.5 -62.499
s42.833 -30.166 79.5 -41.499zM301.001 83.001c40.667 3.33301 73.167 15.5 97.5 36.5s36.5 47.833 36.5 80.5c0 26 -7.83301 46.833 -23.5 62.5s-43.5 30.5 -83.5 44.5l-27 9v-233z" />
    <glyph glyph-name="percent" unicode="%" horiz-adv-x="739" 
d="M175 345c-43.333 0 -78.5 16.667 -105.5 50s-40.5 76.666 -40.5 129.999s13.5 96.666 40.5 129.999s62.167 50 105.5 50s78.5 -16.667 105.5 -50s40.5 -76.666 40.5 -129.999s-13.5 -96.666 -40.5 -129.999s-62.167 -50 -105.5 -50zM175 390
c29.333 0 52.666 12.167 69.999 36.5s26 57.166 26 98.499s-8.66699 74.166 -26 98.499s-40.666 36.5 -69.999 36.5c-28.667 0 -51.834 -12.167 -69.501 -36.5s-26.5 -57.166 -26.5 -98.499s8.83301 -74.166 26.5 -98.499s40.834 -36.5 69.501 -36.5zM144 0l393 700h58
l-394 -700h-57zM565 -5c-43.333 0 -78.5 16.667 -105.5 50s-40.5 76.666 -40.5 129.999s13.5 96.666 40.5 129.999s62.167 50 105.5 50s78.5 -16.667 105.5 -50s40.5 -76.666 40.5 -129.999s-13.5 -96.666 -40.5 -129.999s-62.167 -50 -105.5 -50zM565 40
c29.333 0 52.666 12.167 69.999 36.5s26 57.166 26 98.499s-8.66699 74.166 -26 98.499s-40.666 36.5 -69.999 36.5c-28.667 0 -51.834 -12.167 -69.501 -36.5s-26.5 -57.166 -26.5 -98.499s8.83301 -74.166 26.5 -98.499s40.834 -36.5 69.501 -36.5z" />
    <glyph glyph-name="ampersand" unicode="&#x26;" horiz-adv-x="669" 
d="M265 -11c-46 0 -86.3359 8.33398 -121.003 25.001s-61.667 39.834 -81 69.501s-29 64.5 -29 104.5c0 41.333 11.333 77.333 34 108s63 61.667 121 93c-23.333 29.333 -39.833 56.166 -49.5 80.499s-14.5 49.833 -14.5 76.5c0 32 7.33301 60.333 22 85
s34.834 44.167 60.501 58.5s54.5 21.5 86.5 21.5c30.667 0 57.834 -6.16699 81.501 -18.5s42.334 -29.333 56.001 -51s20.5 -46.834 20.5 -75.501c0 -32.667 -9 -62 -27 -88s-46.333 -50.333 -85 -73l-50 -30c27.333 -30.667 57.333 -62 90 -94l100 -95
c16.667 26.667 30.5 56 41.5 88s19.833 65.333 26.5 100l68 -11c-8.66699 -42.667 -20 -82.5 -34 -119.5s-31.333 -71.167 -52 -102.5l64 -53.5l60 -47.5l-45 -53l-58.5 46.5l-61.5 50.5c-59.333 -63.333 -134 -95 -224 -95zM250.997 421.001l56.999 33.001
c24.667 14.667 43.167 31 55.5 49s18.5 38.333 18.5 61c0 25.333 -8.66699 46.166 -26 62.499s-38.666 24.5 -63.999 24.5c-28 0 -51.167 -9.5 -69.5 -28.5s-27.5 -44.167 -27.5 -75.5c0 -20.667 4.16699 -40.5 12.5 -59.5s22.833 -41.167 43.5 -66.5zM267.996 52.002
c33.333 0 64.667 6.49902 94 19.499s55.333 31.833 78 56.5l-113 107.5c-36.667 36.333 -69.667 71.5 -99 105.5c-30.667 -16.667 -55.167 -32.5 -73.5 -47.5s-31.333 -30.667 -39 -47s-11.5 -35.166 -11.5 -56.499c0 -42 15.167 -75.5 45.5 -100.5
s69.833 -37.5 118.5 -37.5z" />
    <glyph glyph-name="quotesingle" unicode="'" horiz-adv-x="214" 
d="M81 530l-11 220h73l-10 -220h-52z" />
    <glyph glyph-name="parenleft" unicode="(" horiz-adv-x="401" 
d="M312 -219c-50.667 32 -93.667 71.166 -129 117.499s-62.166 98.833 -80.499 157.5s-27.5 122 -27.5 190c0 68.667 9.16699 132.334 27.5 191.001s45.166 111.167 80.499 157.5s78.333 85.5 129 117.5l38 -51c-65.333 -40.667 -115.833 -97 -151.5 -169
s-53.5 -154 -53.5 -246s17.833 -174 53.5 -246s86.167 -128.333 151.5 -169z" />
    <glyph glyph-name="parenright" unicode=")" horiz-adv-x="401" 
d="M89 711c50.667 -32 93.667 -71.166 129 -117.499s62.166 -98.833 80.499 -157.5s27.5 -122 27.5 -190c0 -68.667 -9.16699 -132.334 -27.5 -191.001s-45.166 -111.167 -80.499 -157.5s-78.333 -85.5 -129 -117.5l-38 51c65.333 40.667 115.833 97 151.5 169
s53.5 154 53.5 246s-17.833 174 -53.5 246s-86.167 128.333 -151.5 169z" />
    <glyph glyph-name="asterisk" unicode="*" horiz-adv-x="455" 
d="M201 341l2 138l-112 -73l-29 45l118 73l-114 72l28 44l108 -71l-1 131h52l-1 -130l107 70l30 -44l-115 -72l119 -73l-30 -45l-112 73l2 -138h-52z" />
    <glyph glyph-name="plus" unicode="+" 
d="M269 145v181h-167v60h167v181h62v-181h167v-60h-167v-181h-62z" />
    <glyph glyph-name="comma" unicode="," horiz-adv-x="250" 
d="M50 -157l60 231h78l-81 -231h-57z" />
    <glyph glyph-name="hyphen" unicode="-" horiz-adv-x="455" 
d="M61 250v63h333v-63h-333z" />
    <glyph glyph-name="period" unicode="." horiz-adv-x="250" 
d="M125 -8c-14.667 0 -27.167 5.33301 -37.5 16s-15.5 23.334 -15.5 38.001c0 15.333 5.16699 28.166 15.5 38.499s22.833 15.5 37.5 15.5s27.167 -5.16699 37.5 -15.5s15.5 -23.166 15.5 -38.499c0 -14.667 -5.16699 -27.334 -15.5 -38.001s-22.833 -16 -37.5 -16z" />
    <glyph glyph-name="slash" unicode="/" horiz-adv-x="466" 
d="M-48 -209l399 909h73l-400 -909h-72z" />
    <glyph glyph-name="zero" unicode="0" horiz-adv-x="660" 
d="M330 -11c-53.333 0 -100.5 15.333 -141.5 46s-73.167 73.167 -96.5 127.5s-35 116.833 -35 187.5c0 71.333 11.667 134 35 188s55.5 96.333 96.5 127s88.167 46 141.5 46s100.5 -15.333 141.5 -46s73.167 -73 96.5 -127s35 -116.667 35 -188
c0 -70.667 -11.667 -133.167 -35 -187.5s-55.5 -96.833 -96.5 -127.5s-88.167 -46 -141.5 -46zM330 54c40.667 0 75.834 12.167 105.501 36.5s52.834 58.666 69.501 102.999s25 96.5 25 156.5s-8.33301 112.167 -25 156.5s-39.834 78.666 -69.501 102.999
s-64.834 36.5 -105.501 36.5c-40 0 -75 -12.167 -105 -36.5s-53.333 -58.666 -70 -102.999s-25 -96.5 -25 -156.5s8.33301 -112.167 25 -156.5s40 -78.666 70 -102.999s65 -36.5 105 -36.5z" />
    <glyph glyph-name="one" unicode="1" horiz-adv-x="307" 
d="M153 0v622l-112 -50v66l139 62h45v-700h-72z" />
    <glyph glyph-name="two" unicode="2" horiz-adv-x="548" 
d="M51 0v52.999l280 306c22 24 39.167 45.167 51.5 63.5s21 35.5 26 51.5s7.5 33 7.5 51c0 35.333 -13.833 64.5 -41.5 87.5s-62.834 34.5 -105.501 34.5c-32.667 0 -63 -6.33301 -91 -19s-59.333 -34.667 -94 -66l-42 50c36.667 33.333 73.667 58.166 111 74.499
s76.333 24.5 117 24.5c42 0 79.333 -7.83301 112 -23.5s58.334 -37.167 77.001 -64.5s28 -58.666 28 -93.999c0 -23.333 -3 -44.833 -9 -64.5s-16.667 -40.667 -32 -63s-37.333 -49.166 -66 -80.499l-239 -259l361 1v-63h-451z" />
    <glyph glyph-name="three" unicode="3" horiz-adv-x="586" 
d="M282 -11c-48 0 -92.834 8.33789 -134.501 25.0049s-78.5 41.334 -110.5 74.001l48 47c29.333 -29.333 59.5 -50.5 90.5 -63.5s66.167 -19.5 105.5 -19.5c34 0 64.167 6 90.5 18s46.833 28.667 61.5 50s22 45.666 22 72.999c0 26 -6.5 49.167 -19.5 69.5
s-30.833 36.166 -53.5 47.499s-48.667 17 -78 17h-83v62h80c38 0 68.833 11.667 92.5 35s35.5 53.666 35.5 90.999c0 24.667 -6.66699 47 -20 67s-31.5 35.833 -54.5 47.5s-48.833 17.5 -77.5 17.5c-36 0 -68.167 -6.5 -96.5 -19.5s-57.166 -34.833 -86.499 -65.5l-48 48
c31.333 33.333 66.666 58.5 105.999 75.5s81.333 25.5 126 25.5c42.667 0 80.834 -8.33301 114.501 -25s60.167 -39.5 79.5 -68.5s29 -61.833 29 -98.5s-12 -69.5 -36 -98.5s-55.667 -49.167 -95 -60.5c47.333 -10.667 85.333 -31.334 114 -62.001s43 -66.334 43 -107.001
c0 -38.667 -10.5 -73.334 -31.5 -104.001s-50 -54.667 -87 -72s-79.167 -26 -126.5 -26z" />
    <glyph glyph-name="four" unicode="4" horiz-adv-x="618" 
d="M417 0v187h-378v57l372 456h77v-450h97v-63h-97v-187h-71zM123 250h294v363z" />
    <glyph glyph-name="five" unicode="5" horiz-adv-x="570" 
d="M275 -11c-92 0 -171.333 31.668 -238 95.001l45 49c30.667 -28.667 61.167 -49.5 91.5 -62.5s64.5 -19.5 102.5 -19.5c34 0 64 7 90 21s46.167 33.667 60.5 59s21.5 54.333 21.5 87c0 46.667 -15.833 84.334 -47.5 113.001s-73.167 43 -124.5 43
c-26.667 0 -52.667 -3.16699 -78 -9.5s-51.666 -16.5 -78.999 -30.5l-50 16l16 350h398v-63h-336l-11 -242c26.667 13.333 52.334 22.833 77.001 28.5s50.667 8.5 78 8.5c46 0 86.167 -8.83301 120.5 -26.5s61 -42.334 80 -74.001s28.5 -68.5 28.5 -110.5
c0 -46 -10.333 -86.333 -31 -121s-49.334 -61.834 -86.001 -81.501s-79.334 -29.5 -128.001 -29.5z" />
    <glyph glyph-name="six" unicode="6" horiz-adv-x="619" 
d="M331 -10c-54 0 -101.498 14.333 -142.498 43s-73.167 68.167 -96.5 118.5s-35 108.5 -35 174.5c0 77.333 13 144.833 39 202.5s62.667 102.5 110 134.5s102.333 48 165 48c29.333 0 58.333 -4 87 -12s54.334 -19.667 77.001 -35l-36 -56
c-20.667 12 -42.334 21.333 -65.001 28s-45.667 10 -69 10c-48 0 -89.5 -12.5 -124.5 -37.5s-62 -60.833 -81 -107.5s-29.167 -102.667 -30.5 -168c26 33.333 57 59.333 93 78s73.333 28 112 28c45.333 0 85.666 -9.33301 120.999 -28s63 -44.5 83 -77.5s30 -70.5 30 -112.5
c0 -44 -10.333 -83.5 -31 -118.5s-48.834 -62.5 -84.501 -82.5s-76.167 -30 -121.5 -30zM324.002 380c-36.667 0 -71.8301 -9.16211 -105.497 -27.4951s-62.834 -43.5 -87.501 -75.5c5.33301 -44.667 16.833 -83.834 34.5 -117.501s40.667 -59.834 69 -78.501
s60.166 -28 95.499 -28c32 0 60.5 7.16699 85.5 21.5s44.667 34.166 59 59.499s21.5 53.666 21.5 84.999s-7.33301 59.166 -22 83.499s-34.834 43.333 -60.501 57s-55.5 20.5 -89.5 20.5z" />
    <glyph glyph-name="seven" unicode="7" horiz-adv-x="558" 
d="M103 0l348 637h-420v63h498v-56l-344 -644h-82z" />
    <glyph glyph-name="eight" unicode="8" horiz-adv-x="614" 
d="M307 -11c-48 0 -90.667 8.66699 -128 26s-66.833 41.166 -88.5 71.499s-32.5 64.5 -32.5 102.5c0 28.667 7 55.167 21 79.5s33.5 45.333 58.5 63s53.5 30.167 85.5 37.5c-40.667 11.333 -73.834 31.666 -99.501 60.999s-38.5 62.333 -38.5 99
c0 34.667 9.66699 65.667 29 93s45.833 49 79.5 65s71.5 24 113.5 24c42.667 0 80.667 -8 114 -24s59.666 -37.667 78.999 -65s29 -58.333 29 -93c0 -36.667 -12.667 -69.667 -38 -99s-58.666 -49.666 -99.999 -60.999c48.667 -11.333 88.334 -33.5 119.001 -66.5
s46 -70.833 46 -113.5c0 -38 -10.667 -72.167 -32 -102.5s-50.833 -54.166 -88.5 -71.499s-80.5 -26 -128.5 -26zM307 399c28.667 0 54.5 5.66699 77.5 17s41.167 26.5 54.5 45.5s20 40.5 20 64.5s-6.66699 45.667 -20 65s-31.5 34.5 -54.5 45.5s-48.833 16.5 -77.5 16.5
s-54.5 -5.5 -77.5 -16.5s-41.167 -26.167 -54.5 -45.5s-20 -41 -20 -65s6.66699 -45.5 20 -64.5s31.5 -34.167 54.5 -45.5s48.833 -17 77.5 -17zM307 47c34 0 64.333 6.33301 91 19s47.834 30 63.501 52s23.5 46.667 23.5 74s-7.83301 52 -23.5 74
s-36.834 39.333 -63.501 52s-57 19 -91 19s-64.333 -6.33301 -91 -19s-47.834 -30 -63.501 -52s-23.5 -46.667 -23.5 -74s7.83301 -52 23.5 -74s36.834 -39.333 63.501 -52s57 -19 91 -19z" />
    <glyph glyph-name="nine" unicode="9" horiz-adv-x="619" 
d="M288 711c54 0 101.498 -14.334 142.498 -43.001s73.167 -68.167 96.5 -118.5s35 -108.5 35 -174.5c0 -77.333 -13 -144.833 -39 -202.5s-62.5 -102.5 -109.5 -134.5s-102.167 -48 -165.5 -48c-28.667 0 -57.5 4.16699 -86.5 12.5s-54.833 19.833 -77.5 34.5l36 56
c20.667 -12 42.5 -21.333 65.5 -28s45.833 -10 68.5 -10c48 0 89.5 12.5 124.5 37.5s62.167 61 81.5 108s29.333 102.833 30 167.5c-26 -33.333 -57 -59.333 -93 -78s-73.333 -28 -112 -28c-45.333 0 -85.666 9.5 -120.999 28.5s-63 44.833 -83 77.5s-30 70 -30 112
c0 44.667 10.333 84.334 31 119.001s48.834 62 84.501 82s76.167 30 121.5 30zM294.998 320.999c36.667 0 71.8311 9.16699 105.498 27.5s62.834 43.5 87.501 75.5c-4.66699 45.333 -16 84.666 -34 117.999s-41 59.333 -69 78s-60 28 -96 28
c-32 0 -60.5 -7.16699 -85.5 -21.5s-44.667 -34 -59 -59s-21.5 -53.5 -21.5 -85.5c0 -31.333 7.33301 -59.166 22 -83.499s34.834 -43.333 60.501 -57s55.5 -20.5 89.5 -20.5z" />
    <glyph glyph-name="colon" unicode=":" horiz-adv-x="250" 
d="M125 -8c-14.667 0 -27.167 5.33301 -37.5 16s-15.5 23.334 -15.5 38.001c0 15.333 5.16699 28.166 15.5 38.499s22.833 15.5 37.5 15.5s27.167 -5.16699 37.5 -15.5s15.5 -23.166 15.5 -38.499c0 -14.667 -5.16699 -27.334 -15.5 -38.001s-22.833 -16 -37.5 -16zM125 389
c-14.667 0 -27.167 5.33301 -37.5 16s-15.5 23.334 -15.5 38.001c0 15.333 5.16699 28.166 15.5 38.499s22.833 15.5 37.5 15.5s27.167 -5.16699 37.5 -15.5s15.5 -23.166 15.5 -38.499c0 -14.667 -5.16699 -27.334 -15.5 -38.001s-22.833 -16 -37.5 -16z" />
    <glyph glyph-name="semicolon" unicode=";" horiz-adv-x="250" 
d="M133 389c-14.667 0 -27.167 5.33301 -37.5 16s-15.5 23.334 -15.5 38.001c0 15.333 5.16699 28.166 15.5 38.499s22.833 15.5 37.5 15.5s27.167 -5.16699 37.5 -15.5s15.5 -23.166 15.5 -38.499c0 -14.667 -5.16699 -27.334 -15.5 -38.001s-22.833 -16 -37.5 -16z
M43 -157l60 231h78l-81 -231h-57z" />
    <glyph glyph-name="less" unicode="&#x3c;" 
d="M423 103l-316 246l317 245l37 -47l-261 -197l261 -199z" />
    <glyph glyph-name="equal" unicode="=" 
d="M102 245v60h396v-60h-396zM102 408v60h396v-60h-396z" />
    <glyph glyph-name="greater" unicode="&#x3e;" 
d="M177 594l316 -246l-317 -245l-37 47l261 197l-261 199z" />
    <glyph glyph-name="question" unicode="?" horiz-adv-x="512" 
d="M193 207c-1.33301 28 0.166016 52.333 4.49902 73s12.5 39.5 24.5 56.5s28.333 33.167 49 48.5l42 31c27.333 21.333 46.666 40.666 57.999 57.999s17 37.333 17 60c0 20.667 -6 39 -18 55s-28.333 28.833 -49 38.5s-44 14.5 -70 14.5
c-31.333 0 -60.666 -7.66699 -87.999 -23s-51.666 -37.666 -72.999 -66.999l-56 38c27.333 38 59.833 67.167 97.5 87.5s78.5 30.5 122.5 30.5c39.333 0 74.333 -7.5 105 -22.5s55 -35.5 73 -61.5s27 -55.667 27 -89c0 -22.667 -3.5 -43.167 -10.5 -61.5
s-18.5 -36.166 -34.5 -53.499s-38.333 -36.333 -67 -57l-32 -24c-22.667 -16.667 -38.667 -35.334 -48 -56.001s-13 -46 -11 -76h-63zM225.999 -8c-14.667 0 -27.167 5.16699 -37.5 15.5s-15.5 22.833 -15.5 37.5c0 15.333 5.16699 28 15.5 38s22.833 15 37.5 15
s27 -5 37 -15s15 -22.667 15 -38c0 -14.667 -5 -27.167 -15 -37.5s-22.333 -15.5 -37 -15.5z" />
    <glyph glyph-name="at" unicode="@" horiz-adv-x="767" 
d="M398 -144c-48.667 0 -93.8291 8.82812 -135.496 26.4951s-78 42.334 -109 74.001s-55 68.834 -72 111.501s-25.5 89 -25.5 139c0 52.667 8.5 101.5 25.5 146.5s40.667 84.167 71 117.5s66.166 59.166 107.499 77.499s86 27.5 134 27.5
c45.333 0 87.166 -7.66699 125.499 -23s71.833 -36.833 100.5 -64.5s51 -60.167 67 -97.5s24 -78 24 -122c0 -40.667 -7.33301 -77.167 -22 -109.5s-34.667 -57.833 -60 -76.5s-54 -28 -86 -28c-42.667 0 -72.334 13.667 -89.001 41c-32 -30 -65.667 -45 -101 -45
c-26 0 -49.333 6.66699 -70 20s-37 31.333 -49 54s-18 48.334 -18 77.001c0 32.667 7.33301 62.334 22 89.001s34.334 48 59.001 64s51.667 24 81 24c18.667 0 36.167 -3.33301 52.5 -10s30.5 -16 42.5 -28l5 25h55l-37 -192c-4.66699 -24 -2.33398 -42.5 6.99902 -55.5
s24.666 -19.5 45.999 -19.5c22 0 41.833 7.33301 59.5 22s31.5 34.834 41.5 60.501s15 54.167 15 85.5c0 50.667 -11.833 96 -35.5 136s-56.167 71.5 -97.5 94.5s-88 34.5 -140 34.5c-40.667 0 -78.5 -8.16699 -113.5 -24.5s-65.667 -39.333 -92 -69s-46.833 -64 -61.5 -103
s-22 -81.167 -22 -126.5c0 -59.333 12.833 -112.166 38.5 -158.499s61 -82.833 106 -109.5s96.167 -40 153.5 -40c29.333 0 57.5 3.5 84.5 10.5s52.5 17.167 76.5 30.5l17 -41c-56 -30 -116.333 -45 -181 -45zM365.005 97.9951c28.667 0 54.001 11.668 76.001 35.001
c-0.666992 7.33301 -0.833984 14.666 -0.500977 21.999s1.16602 15.333 2.49902 24l20 106c-8.66699 14.667 -20.667 26 -36 34s-32 12 -50 12c-19.333 0 -37.166 -5.66699 -53.499 -17s-29.333 -26.5 -39 -45.5s-14.5 -39.833 -14.5 -62.5c0 -32 8.83301 -58 26.5 -78
s40.5 -30 68.5 -30z" />
    <glyph glyph-name="A" unicode="A" horiz-adv-x="660" 
d="M9 0l277 700h92l273 -700h-83l-83 220h-312l-83 -220h-81zM197 281h265l-133 349z" />
    <glyph glyph-name="B" unicode="B" horiz-adv-x="669" 
d="M89 0l-0.000976562 700.003h283c42.667 0 79.834 -7.33301 111.501 -22s56.167 -35.334 73.5 -62.001s26 -58 26 -94c0 -38.667 -11.167 -71.834 -33.5 -99.501s-52.5 -47.167 -90.5 -58.5c46.667 -10.667 83.5 -30.834 110.5 -60.501s40.5 -66.167 40.5 -109.5
c0 -38.667 -9.33301 -72.667 -28 -102s-45 -52 -79 -68s-74 -24 -120 -24h-294zM165.999 394.003l200 -0.00195312c42.667 0 76.667 10.833 102 32.5s38 50.834 38 87.501s-12.667 65.834 -38 87.501s-59.333 32.5 -102 32.5h-200v-240zM165.999 66.001h209
c47.333 0 85.333 12.167 114 36.5s43 56.5 43 96.5s-14.167 72 -42.5 96s-66.5 36 -114.5 36h-209v-265z" />
    <glyph glyph-name="C" unicode="C" horiz-adv-x="726" 
d="M412 -11c-50 0 -96.5 9.16699 -139.5 27.5s-80.833 44 -113.5 77s-58 71.333 -76 115s-27 90.834 -27 141.501s9 97.834 27 141.501s43.333 82 76 115s70.5 58.667 113.5 77s89.5 27.5 139.5 27.5c34.667 0 67.834 -4.5 99.501 -13.5s61.5 -22 89.5 -39
s53 -37.833 75 -62.5l-51 -53c-26 31.333 -57.833 55.5 -95.5 72.5s-76.834 25.5 -117.501 25.5c-39.333 0 -76 -7.33301 -110 -22s-63.5 -35.334 -88.5 -62.001s-44.5 -57.5 -58.5 -92.5s-21 -73.167 -21 -114.5c0 -40.667 7 -78.667 21 -114s33.5 -66.333 58.5 -93
s54.5 -47.334 88.5 -62.001s70.667 -22 110 -22c40.667 0 79.834 8.66699 117.501 26s69.5 41.333 95.5 72l51 -53c-22 -24.667 -47 -45.5 -75 -62.5s-57.833 -30 -89.5 -39s-64.834 -13.5 -99.501 -13.5z" />
    <glyph glyph-name="D" unicode="D" horiz-adv-x="728" 
d="M166 69l160 0.00195312c50.667 0 96 12.333 136 37s71.833 58.167 95.5 100.5s35.5 90.166 35.5 143.499s-11.833 101.166 -35.5 143.499s-55.5 75.833 -95.5 100.5s-85.333 37 -136 37h-160v-562zM89 0.00195312v700.002h232c51.333 0 98.5 -8.83301 141.5 -26.5
s80 -42.334 111 -74.001s55 -68.667 72 -111s25.5 -88.5 25.5 -138.5s-8.5 -96.167 -25.5 -138.5s-41 -79.333 -72 -111s-68 -56.334 -111 -74.001s-90.167 -26.5 -141.5 -26.5h-232z" />
    <glyph glyph-name="E" unicode="E" horiz-adv-x="619" 
d="M89 0v700h478v-68h-401v-245h278v-67h-278v-252h405v-68h-482z" />
    <glyph glyph-name="F" unicode="F" horiz-adv-x="610" 
d="M89 0v700h478v-68h-401v-250h274v-67h-274v-315h-77z" />
    <glyph glyph-name="G" unicode="G" horiz-adv-x="799" 
d="M410 -11c-50 0 -96.333 9.33496 -139 28.002s-80.167 44.5 -112.5 77.5s-57.5 71.333 -75.5 115s-27 90.5 -27 140.5s9 96.833 27 140.5s43.167 82 75.5 115s69.833 58.833 112.5 77.5s89 28 139 28c53.333 0 103.833 -9.66699 151.5 -29s88.167 -48 121.5 -86l-52 -52
c-26 31.333 -58.667 55.333 -98 72s-80.333 25 -123 25c-39.333 0 -75.666 -7.5 -108.999 -22.5s-62.5 -35.667 -87.5 -62s-44.5 -57.166 -58.5 -92.499s-21 -73.333 -21 -114s7 -78.667 21 -114s33.5 -66.166 58.5 -92.499s54.167 -47 87.5 -62s69.666 -22.5 108.999 -22.5
c46.667 0 88.5 10.333 125.5 31s67 49.167 90 85.5s36.5 77.166 40.5 122.499h-236v68h314v-31c0 -48.667 -8.33301 -93.834 -25 -135.501s-40.167 -78.334 -70.5 -110.001s-65.833 -56.334 -106.5 -74.001s-84.667 -26.5 -132 -26.5z" />
    <glyph glyph-name="H" unicode="H" horiz-adv-x="732" 
d="M88 0v700h77v-313h402v313h77v-700h-77v318h-402v-318h-77z" />
    <glyph glyph-name="I" unicode="I" horiz-adv-x="253" 
d="M88 0v700h77v-700h-77z" />
    <glyph glyph-name="J" unicode="J" 
d="M267 -11c-59.333 0 -110.833 15.666 -154.5 46.999s-75.167 75.333 -94.5 132l70 28c16.667 -44.667 40 -78.667 70 -102s66.667 -35 110 -35c54.667 0 98.334 18.667 131.001 56s49 87.333 49 150v435h77v-436c0 -56 -10.5 -104.667 -31.5 -146
s-50.833 -73.166 -89.5 -95.499s-84.334 -33.5 -137.001 -33.5z" />
    <glyph glyph-name="K" unicode="K" horiz-adv-x="610" 
d="M89 0v700h77v-332l340 332h98l-357 -344l365 -356h-105l-341 335v-335h-77z" />
    <glyph glyph-name="L" unicode="L" horiz-adv-x="607" 
d="M89 0v700h77v-632h395v-68h-472z" />
    <glyph glyph-name="M" unicode="M" horiz-adv-x="860" 
d="M89 0v700h107l234 -498l234 498h107v-700h-73v609l-268 -559l-269 561v-611h-72z" />
    <glyph glyph-name="N" unicode="N" horiz-adv-x="739" 
d="M89 0v700h80l410 -580l-2 580h73v-700h-70l-420 593l2 -593h-73z" />
    <glyph glyph-name="O" unicode="O" horiz-adv-x="810" 
d="M405 -11c-48.667 0 -94 9.16699 -136 27.5s-78.833 44 -110.5 77s-56.5 71.333 -74.5 115s-27 90.834 -27 141.501s9 97.834 27 141.501s42.833 82 74.5 115s68.5 58.667 110.5 77s87.333 27.5 136 27.5s94 -9.16699 136 -27.5s78.833 -44 110.5 -77
s56.5 -71.333 74.5 -115s27 -90.834 27 -141.501s-9 -97.834 -27 -141.501s-42.833 -82 -74.5 -115s-68.5 -58.667 -110.5 -77s-87.333 -27.5 -136 -27.5zM405 59c38 0 73.333 7.33203 106 21.999s61.334 35.334 86.001 62.001s43.834 57.667 57.501 93
s20.5 73.333 20.5 114c0 41.333 -6.83301 79.5 -20.5 114.5s-32.834 65.833 -57.501 92.5s-53.334 47.334 -86.001 62.001s-68 22 -106 22s-73.333 -7.33301 -106 -22s-61.334 -35.334 -86.001 -62.001s-43.834 -57.5 -57.501 -92.5s-20.5 -72.833 -20.5 -113.5
c0 -41.333 6.83301 -79.666 20.5 -114.999s32.834 -66.333 57.501 -93s53.334 -47.334 86.001 -62.001s68 -22 106 -22z" />
    <glyph glyph-name="P" unicode="P" horiz-adv-x="654" 
d="M89 0v699.999h289c45.333 0 84.666 -8.5 117.999 -25.5s59.166 -41 77.499 -72s27.5 -67.5 27.5 -109.5c0 -41.333 -9.16699 -77.666 -27.5 -108.999s-44.166 -55.5 -77.499 -72.5s-72.666 -25.5 -117.999 -25.5h-212v-286h-77zM166 351.999l203 0.000976562
c48.667 0 86.667 12.667 114 38s41 59.666 41 102.999s-13.667 77.333 -41 102s-65.333 37 -114 37h-203v-280z" />
    <glyph glyph-name="Q" unicode="Q" horiz-adv-x="810" 
d="M643 -24l-54.999 65.999c-26.667 -16.667 -55.334 -29.667 -86.001 -39s-63 -14 -97 -14c-48.667 0 -94 9.16699 -136 27.5s-78.833 44 -110.5 77s-56.5 71.333 -74.5 115s-27 90.834 -27 141.501s9 97.834 27 141.501s42.833 82 74.5 115s68.5 58.667 110.5 77
s87.333 27.5 136 27.5s94 -9.16699 136 -27.5s78.833 -44 110.5 -77s56.5 -71.333 74.5 -115s27 -90.834 27 -141.501c0 -52.667 -10 -102 -30 -148s-47 -85.333 -81 -118l80 -97zM405.001 58.999c25.333 0 49.5029 3.33301 72.5029 10s44.5 16 64.5 28l-102 121l79 12
l75 -90c25.333 26.667 45.166 57.834 59.499 93.501s21.5 74.5 21.5 116.5c0 41.333 -6.83301 79.5 -20.5 114.5s-32.834 65.833 -57.501 92.5s-53.334 47.334 -86.001 62.001s-68 22 -106 22s-73.333 -7.33301 -106 -22s-61.334 -35.334 -86.001 -62.001
s-43.834 -57.5 -57.501 -92.5s-20.5 -73.167 -20.5 -114.5c0 -40.667 6.83301 -78.667 20.5 -114s32.834 -66.333 57.501 -93s53.334 -47.334 86.001 -62.001s68 -22 106 -22z" />
    <glyph glyph-name="R" unicode="R" horiz-adv-x="647" 
d="M89 0v700h287c44.667 0 83.667 -8.5 117 -25.5s59.333 -40.5 78 -70.5s28 -65.333 28 -106c0 -46.667 -13 -86.5 -39 -119.5s-61.667 -56.167 -107 -69.5l149 -309h-85l-142 299h-209v-299h-77zM166 363l204 0.000976562c46 0 82.833 12.167 110.5 36.5
s41.5 56.833 41.5 97.5c0 41.333 -13.833 74.166 -41.5 98.499s-64.5 36.5 -110.5 36.5h-204v-269z" />
    <glyph glyph-name="S" unicode="S" horiz-adv-x="623" 
d="M315 -11c-54.667 0 -105.336 9.83691 -152.003 29.5039s-91.667 49.5 -135 89.5l47 56c42 -39.333 81.5 -67.333 118.5 -84s78.167 -25 123.5 -25c36 0 68.167 6.16699 96.5 18.5s50.5 29.166 66.5 50.499s24 45.666 24 72.999c0 35.333 -11.667 62.166 -35 80.499
s-63.666 32.5 -120.999 42.5l-113 19c-64 11.333 -110.833 30.833 -140.5 58.5s-44.5 64.834 -44.5 111.501c0 39.333 10.167 74.166 30.5 104.499s48.5 54.166 84.5 71.499s77.667 26 125 26c52 0 100.333 -7.16699 145 -21.5s88.667 -36.833 132 -67.5l-40 -60
c-36 27.333 -74 48.166 -114 62.499s-80.667 21.5 -122 21.5c-32.667 0 -61.5 -5.66699 -86.5 -17s-44.667 -26.666 -59 -45.999s-21.5 -41.333 -21.5 -66c0 -30.667 10.333 -54.667 31 -72s54.334 -29.666 101.001 -36.999l112 -19
c74.667 -13.333 128.834 -34.833 162.501 -64.5s50.5 -70.834 50.5 -123.501c0 -40.667 -11.5 -77 -34.5 -109s-54.5 -57.167 -94.5 -75.5s-85.667 -27.5 -137 -27.5z" />
    <glyph glyph-name="T" unicode="T" horiz-adv-x="617" 
d="M270 0v632h-242v68h561v-68h-242v-632h-77z" />
    <glyph glyph-name="U" unicode="U" horiz-adv-x="712" 
d="M356 -11c-57.333 0 -107.169 12.5 -149.502 37.5s-74.833 60.5 -97.5 106.5s-34 100.333 -34 163v404h77v-404c0 -48 8.33301 -89.667 25 -125s40.334 -62.833 71.001 -82.5s66.667 -29.5 108 -29.5s77.333 9.83301 108 29.5s54.334 47.167 71.001 82.5s25 77 25 125v404
h77v-404c0 -62.667 -11.333 -117 -34 -163s-55 -81.5 -97 -106.5s-92 -37.5 -150 -37.5z" />
    <glyph glyph-name="V" unicode="V" horiz-adv-x="660" 
d="M283 0l-274 700h82l240 -626l241 626h79l-276 -700h-92z" />
    <glyph glyph-name="W" unicode="W" horiz-adv-x="897" 
d="M193 0l-151 700h78l119 -579l173 579h75l173 -577l120 577h75l-151 -700h-78l-177 594l-178 -594h-78z" />
    <glyph glyph-name="X" unicode="X" horiz-adv-x="654" 
d="M11 0l270 362l-253 338h92l209 -281l207 281h90l-253 -339l270 -361h-93l-224 305l-225 -305h-90z" />
    <glyph glyph-name="Y" unicode="Y" horiz-adv-x="646" 
d="M284 0v286l-272 414h90l223 -347l224 347h85l-273 -416v-284h-77z" />
    <glyph glyph-name="Z" unicode="Z" horiz-adv-x="605" 
d="M37 0v54l430 581l-427 -2v67h524v-54l-431 -581l439 2v-67h-535z" />
    <glyph glyph-name="bracketleft" unicode="[" horiz-adv-x="361" 
d="M69 -215v915h241v-60h-171v-795h171v-60h-241z" />
    <glyph glyph-name="backslash" unicode="\" horiz-adv-x="471" 
d="M443 -209l-400 909h76l400 -909h-76z" />
    <glyph glyph-name="bracketright" unicode="]" horiz-adv-x="361" 
d="M292 700v-915h-241v60h171v795h-171v60h241z" />
    <glyph glyph-name="asciicircum" unicode="^" 
d="M91 350l177 350h64l177 -350h-66l-143 284l-143 -284h-66z" />
    <glyph glyph-name="underscore" unicode="_" horiz-adv-x="457" 
d="M-1 -137v57h459v-57h-459z" />
    <glyph glyph-name="grave" unicode="`" 
d="M294 584l-144 122h103l112 -122h-71z" />
    <glyph glyph-name="a" unicode="a" horiz-adv-x="526" 
d="M226 -9c-34.667 0 -65.3311 6.33496 -91.998 19.002s-47.5 30.167 -62.5 52.5s-22.5 48.166 -22.5 77.499s7.66699 54.833 23 76.5s36.666 38.5 63.999 50.5s59.333 18 96 18c28 0 54.5 -3 79.5 -9s48.167 -15.667 69.5 -29v67c0 40 -10.667 70.167 -32 90.5
s-52.666 30.5 -93.999 30.5c-22.667 0 -45.834 -3.33301 -69.501 -10s-49.834 -17.334 -78.501 -32.001l-27 56c65.333 31.333 126.666 47 183.999 47c60.667 0 107.334 -14.833 140.001 -44.5s49 -72.167 49 -127.5v-324h-72v57c-21.333 -22 -45 -38.5 -71 -49.5
s-54 -16.5 -84 -16.5zM119.003 142.002c0 -28.667 11.167 -51.668 33.5 -69.001s51.833 -26 88.5 -26c27.333 0 52.5 4.66699 75.5 14s44.5 23.333 64.5 42v94c-20.667 12 -42 20.833 -64 26.5s-46.667 8.5 -74 8.5c-37.333 0 -67.333 -8.16699 -90 -24.5
s-34 -38.166 -34 -65.499z" />
    <glyph glyph-name="b" unicode="b" horiz-adv-x="583" 
d="M75 0l-0.00585938 715.001l73 15v-309c18.667 23.333 41.334 41.333 68.001 54s56.334 19 89.001 19c42.667 0 80.834 -11.167 114.501 -33.5s60.5 -52.333 80.5 -90s30 -79.834 30 -126.501s-10.167 -89 -30.5 -127s-47.666 -68.167 -81.999 -90.5
s-73.166 -33.5 -116.499 -33.5c-30.667 0 -59.167 6.16699 -85.5 18.5s-49.166 29.833 -68.499 52.5v-64h-72zM286.994 56.001c32.667 0 61.833 8.16895 87.5 24.502s46 38.666 61 66.999s22.5 60.166 22.5 95.499c0 36 -7.5 68 -22.5 96s-35.333 50.167 -61 66.5
s-54.834 24.5 -87.501 24.5c-28.667 0 -55.167 -5.83301 -79.5 -17.5s-44.166 -28.167 -59.499 -49.5v-239c16 -21.333 36.167 -38 60.5 -50s50.5 -18 78.5 -18z" />
    <glyph glyph-name="c" unicode="c" horiz-adv-x="509" 
d="M294 -8c-45.333 0 -86.166 11.168 -122.499 33.501s-65.166 52.666 -86.499 90.999s-32 80.833 -32 127.5c0 47.333 10.667 90 32 128s50.166 68.167 86.499 90.5s77.166 33.5 122.499 33.5c36 0 70.333 -6.66699 103 -20s61 -32 85 -56l-47 -51
c-17.333 19.333 -38.333 34.333 -63 45s-49.667 16 -75 16c-32 0 -60.833 -8.33301 -86.5 -25s-46.167 -39 -61.5 -67s-23 -59.333 -23 -94s7.66699 -66 23 -94s35.833 -50.333 61.5 -67s54.5 -25 86.5 -25c25.333 0 50.333 5.5 75 16.5s45.667 25.833 63 44.5l47 -51
c-24 -24 -52.333 -42.667 -85 -56s-67 -20 -103 -20z" />
    <glyph glyph-name="d" unicode="d" horiz-adv-x="582" 
d="M278 -7c-42 0 -80 11.165 -114 33.498s-61 52.333 -81 90s-30 79.834 -30 126.501c0 47.333 10.167 89.833 30.5 127.5s47.833 67.667 82.5 90s73.334 33.5 116.001 33.5c30 0 58 -5.83301 84 -17.5s48.667 -28.5 68 -50.5v296l73 15v-737h-73v65
c-18.667 -23.333 -41.334 -41.166 -68.001 -53.499s-56 -18.5 -88 -18.5zM296 56.998c28.667 0 54.999 5.66406 78.999 16.9971s43.667 27.333 59 48v242c-16 20.667 -36.167 36.834 -60.5 48.501s-50.166 17.5 -77.499 17.5c-32.667 0 -61.834 -8 -87.501 -24
s-46 -38 -61 -66s-22.5 -60 -22.5 -96c0 -35.333 7.5 -67.166 22.5 -95.499s35.333 -50.666 61 -66.999s54.834 -24.5 87.501 -24.5z" />
    <glyph glyph-name="e" unicode="e" horiz-adv-x="557" 
d="M295 -10c-45.333 0 -86.3389 11.167 -123.006 33.5s-65.667 52.666 -87 90.999s-32 81.5 -32 129.5s10.167 91 30.5 129s47.833 68 82.5 90s73.667 33 117 33c42.667 0 80.834 -10.833 114.501 -32.5s60.334 -51 80.001 -88s29.5 -78.833 29.5 -125.5v-22h-383
c2.66699 -33.333 11.834 -63.166 27.501 -89.499s36.334 -47 62.001 -62s53.834 -22.5 84.501 -22.5c25.333 0 49.833 4.5 73.5 13.5s43.834 21.167 60.501 36.5l46 -49c-28 -22 -57 -38.333 -87 -49s-62 -16 -96 -16zM125.994 280h309
c-3.33301 29.333 -12.166 55.5 -26.499 78.5s-32.333 41.167 -54 54.5s-45.834 20 -72.501 20s-51 -6.5 -73 -19.5s-40.167 -31 -54.5 -54s-23.833 -49.5 -28.5 -79.5z" />
    <glyph glyph-name="f" unicode="f" horiz-adv-x="370" 
d="M137 0l0.000976562 428h-109v60h109v102c0 48 12.667 85 38 111s61.333 39 108 39c13.333 0 25.5 -0.666992 36.5 -2s20.833 -3.66602 29.5 -6.99902v-66c-10.667 3.33301 -20.334 5.66602 -29.001 6.99902s-18.667 2 -30 2c-28 0 -48.333 -6.83301 -61 -20.5
s-19 -35.167 -19 -64.5v-101h139v-60h-139v-428h-73z" />
    <glyph glyph-name="g" unicode="g" horiz-adv-x="582" 
d="M301 -219c-32.667 0 -65.501 4.49707 -98.501 13.4971s-63.5 21.5 -91.5 37.5l31 56c30 -15.333 57.333 -26.666 82 -33.999s49.334 -11 74.001 -11c44.667 0 78.5 10.667 101.5 32s34.5 52.333 34.5 93v98c-18.667 -23.333 -41.334 -41.166 -68.001 -53.499
s-56 -18.5 -88 -18.5c-42 0 -80 11.167 -114 33.5s-61 52.333 -81 90s-30 79.834 -30 126.501s10.167 88.834 30.5 126.501s47.833 67.667 82.5 90s73.334 33.5 116.001 33.5c30.667 0 59 -5.83301 85 -17.5s48.667 -28.834 68 -51.501v63h72v-519
c0 -60.667 -17.667 -107.167 -53 -139.5s-86.333 -48.5 -153 -48.5zM295.999 56.9971c28.667 0 54.999 5.8291 78.999 17.4961s43.667 27.834 59 48.501v241c-16 20.667 -36.167 36.834 -60.5 48.501s-50.166 17.5 -77.499 17.5c-32.667 0 -61.834 -8 -87.501 -24
s-46 -38 -61 -66s-22.5 -60 -22.5 -96c0 -35.333 7.5 -67.166 22.5 -95.499s35.333 -50.666 61 -66.999s54.834 -24.5 87.501 -24.5z" />
    <glyph glyph-name="h" unicode="h" horiz-adv-x="552" 
d="M75 0l0.000976562 722.002l73 15v-328c18.667 29.333 41 51.166 67 65.499s55.333 21.5 88 21.5c35.333 0 66.166 -7.5 92.499 -22.5s47 -36 62 -63s22.5 -58.5 22.5 -94.5v-316h-73v295c0 43.333 -11.833 77.5 -35.5 102.5s-55.5 37.5 -95.5 37.5
c-26.667 0 -51 -6.33301 -73 -19s-40.333 -31.334 -55 -56.001v-360h-73z" />
    <glyph glyph-name="i" unicode="i" horiz-adv-x="222" 
d="M74 0v488h73v-488h-73zM111 609c-14.667 0 -27.167 5.16699 -37.5 15.5s-15.5 22.5 -15.5 36.5s5.16699 26.167 15.5 36.5s22.833 15.5 37.5 15.5s27.167 -5.16699 37.5 -15.5s15.5 -22.5 15.5 -36.5s-5.16699 -26.167 -15.5 -36.5s-22.833 -15.5 -37.5 -15.5z" />
    <glyph glyph-name="j" unicode="j" horiz-adv-x="223" 
d="M112 609c-14.667 0 -27.167 5.16699 -37.5 15.5s-15.5 22.5 -15.5 36.5s5.16699 26.167 15.5 36.5s22.833 15.5 37.5 15.5s27.167 -5.16699 37.5 -15.5s15.5 -22.5 15.5 -36.5s-5.16699 -26.167 -15.5 -36.5s-22.833 -15.5 -37.5 -15.5zM25 -219
c-8 0 -15.833 0.832031 -23.5 2.49902s-14.834 2.83398 -21.501 3.50098v63c6 -1.33301 11.833 -2.33301 17.5 -3s11.834 -1 18.501 -1c21.333 0 36.5 5 45.5 15s13.5 26.333 13.5 49v578h73v-582c0 -39.333 -10.5 -70 -31.5 -92s-51.5 -33 -91.5 -33z" />
    <glyph glyph-name="k" unicode="k" horiz-adv-x="489" 
d="M75 0v722l73 15v-468l232 219h88l-248 -232l259 -256h-96l-235 233v-233h-73z" />
    <glyph glyph-name="l" unicode="l" horiz-adv-x="223" 
d="M75 0v722l73 15v-737h-73z" />
    <glyph glyph-name="m" unicode="m" horiz-adv-x="845" 
d="M75 0l-0.00292969 487.997h73v-76c18.667 28 40 49 64 63s51 21 81 21c34.667 0 65 -8.5 91 -25.5s45.667 -40.167 59 -69.5c19.333 31.333 42.5 55 69.5 71s58.167 24 93.5 24c32.667 0 61.5 -7.66699 86.5 -23s44.5 -36.5 58.5 -63.5s21 -58.5 21 -94.5v-315h-73v297
c0 42.667 -10.667 76.334 -32 101.001s-50.666 37 -87.999 37c-25.333 0 -48.166 -6.33301 -68.499 -19s-38.166 -32 -53.499 -58c1.33301 -6.66699 2.33301 -13.667 3 -21s1 -14.666 1 -21.999v-315h-73v297c0 42.667 -10.833 76.334 -32.5 101.001s-51.167 37 -88.5 37
c-50 0 -89.667 -24 -119 -72v-363h-73z" />
    <glyph glyph-name="n" unicode="n" horiz-adv-x="552" 
d="M75 0l0.000976562 488.002h73v-79c18.667 29.333 41 51.166 67 65.499s55.333 21.5 88 21.5c35.333 0 66.166 -7.5 92.499 -22.5s47 -36 62 -63s22.5 -58.5 22.5 -94.5v-316h-73v295c0 43.333 -11.833 77.5 -35.5 102.5s-55.5 37.5 -95.5 37.5
c-26.667 0 -51 -6.33301 -73 -19s-40.333 -31.334 -55 -56.001v-360h-73z" />
    <glyph glyph-name="o" unicode="o" horiz-adv-x="580" 
d="M291 -8c-45.333 0 -86 11 -122 33s-64.333 52 -85 90s-31 81 -31 129s10.333 91 31 129s49 68 85 90s76.667 33 122 33c44.667 0 84.834 -11 120.501 -33s63.834 -52 84.501 -90s31 -81 31 -129s-10.333 -91 -31 -129s-48.834 -68 -84.501 -90s-75.834 -33 -120.501 -33z
M290 56c32 0 60.333 8.16699 85 24.5s44.167 38.833 58.5 67.5s21.5 60.667 21.5 96c0 36 -7.16699 68.167 -21.5 96.5s-33.833 50.666 -58.5 66.999s-53 24.5 -85 24.5s-60.333 -8.16699 -85 -24.5s-44.167 -38.666 -58.5 -66.999s-21.5 -60.5 -21.5 -96.5
c0 -35.333 7.16699 -67.333 21.5 -96s33.833 -51.167 58.5 -67.5s53 -24.5 85 -24.5z" />
    <glyph glyph-name="p" unicode="p" horiz-adv-x="583" 
d="M75 -209l-0.00292969 697.001h72v-70c18.667 24.667 41.5 43.5 68.5 56.5s56.833 19.5 89.5 19.5c42.667 0 80.834 -11.167 114.501 -33.5s60.5 -52.333 80.5 -90s30 -79.834 30 -126.501s-10.167 -89 -30.5 -127s-47.666 -68.167 -81.999 -90.5
s-73.166 -33.5 -116.499 -33.5c-30.667 0 -59 5.83301 -85 17.5s-48.667 28.5 -68 50.5v-270h-73zM286.997 56.001c32.667 0 61.833 8.16895 87.5 24.502s46 38.666 61 66.999s22.5 60.166 22.5 95.499c0 36 -7.5 68 -22.5 96s-35.333 50.167 -61 66.5
s-54.834 24.5 -87.501 24.5c-28.667 0 -55.167 -5.83301 -79.5 -17.5s-44.166 -28.167 -59.499 -49.5v-239c16 -21.333 36.167 -38 60.5 -50s50.5 -18 78.5 -18z" />
    <glyph glyph-name="q" unicode="q" horiz-adv-x="582" 
d="M434 -209v273.998c-18.667 -23.333 -41.334 -41.166 -68.001 -53.499s-56 -18.5 -88 -18.5c-42 0 -80 11.167 -114 33.5s-61 52.333 -81 90s-30 79.834 -30 126.501c0 47.333 10.167 89.833 30.5 127.5s47.833 67.667 82.5 90s73.334 33.5 116.001 33.5
c30 0 58 -5.83301 84 -17.5s48.667 -28.5 68 -50.5v62h73v-697h-73zM296 56.998c28.667 0 54.999 5.66406 78.999 16.9971s43.667 27.333 59 48v242c-16 20.667 -36.167 36.834 -60.5 48.501s-50.166 17.5 -77.499 17.5c-32.667 0 -61.834 -8 -87.501 -24s-46 -38 -61 -66
s-22.5 -60 -22.5 -96c0 -35.333 7.5 -67.166 22.5 -95.499s35.333 -50.666 61 -66.999s54.834 -24.5 87.501 -24.5z" />
    <glyph glyph-name="r" unicode="r" horiz-adv-x="352" 
d="M75 0l-0.000976562 487.998h73v-100c12.667 34 30.834 60.5 54.501 79.5s50.834 28.5 81.501 28.5c8.66699 0 16.667 -0.5 24 -1.5s14.666 -2.83301 21.999 -5.5v-66c-8 2.66699 -16.5 4.83398 -25.5 6.50098s-17.5 2.5 -25.5 2.5c-30 0 -56.167 -8.66699 -78.5 -26
s-39.833 -41.666 -52.5 -72.999v-333h-73z" />
    <glyph glyph-name="s" unicode="s" horiz-adv-x="452" 
d="M226 -10c-40 0 -76.999 6.16797 -110.999 18.501s-63 30.166 -87 53.499l39 48c29.333 -21.333 56.333 -36.833 81 -46.5s50 -14.5 76 -14.5c35.333 0 64.666 8.33301 87.999 25s35 38 35 64c0 20 -6.83301 35.667 -20.5 47s-36.167 20 -67.5 26l-80 14
c-47.333 8.66699 -82.166 23.334 -104.499 44.001s-33.5 48.667 -33.5 84c0 28 7.5 52.667 22.5 74s35.833 38.166 62.5 50.499s57 18.5 91 18.5c33.333 0 65 -4.83301 95 -14.5s60.333 -25.167 91 -46.5l-36 -51c-25.333 18 -50.666 31.167 -75.999 39.5s-51 12.5 -77 12.5
c-32 0 -57.667 -7 -77 -21s-29 -33 -29 -57c0 -20 6.16699 -35.333 18.5 -46s34.166 -18.667 65.499 -24l82 -15c49.333 -8.66699 85.333 -23.667 108 -45s34 -50 34 -86c0 -28.667 -8.33301 -54.5 -25 -77.5s-39.334 -41.167 -68.001 -54.5s-61 -20 -97 -20z" />
    <glyph glyph-name="t" unicode="t" horiz-adv-x="378" 
d="M261 -10c-42 0 -73.833 10.167 -95.5 30.5s-32.5 49.833 -32.5 88.5v319h-101v60h101v134l73 17v-151h140v-60h-140v-300c0 -26 5.5 -44.667 16.5 -56s29.167 -17 54.5 -17c12.667 0 24 1 34 3s21.667 5.33301 35 10v-65c-13.333 -4.66699 -27.333 -8 -42 -10
s-29 -3 -43 -3z" />
    <glyph glyph-name="u" unicode="u" horiz-adv-x="552" 
d="M249 -8c-34.667 0 -65.333 7.66895 -92 23.002s-47.5 36.666 -62.5 63.999s-22.5 58.666 -22.5 93.999v315h74v-294c0 -43.333 11.667 -77.666 35 -102.999s55 -38 95 -38c27.333 0 51.833 6.33301 73.5 19s39.834 31 54.501 55v361h73v-488h-73v79
c-18.667 -28.667 -40.834 -50.334 -66.501 -65.001s-55.167 -22 -88.5 -22z" />
    <glyph glyph-name="v" unicode="v" horiz-adv-x="501" 
d="M215 0l-200 488h79l158 -397l156 397h78l-201 -488h-70z" />
    <glyph glyph-name="w" unicode="w" horiz-adv-x="698" 
d="M162 0l-134 488h71l102 -390l117 390h65l117 -390l101 390h69l-133 -488h-71l-116 394l-116 -394h-72z" />
    <glyph glyph-name="x" unicode="x" horiz-adv-x="487" 
d="M13 0l187 253l-176 235h87l135 -186l134 186h83l-177 -237l188 -251h-87l-146 199l-145 -199h-83z" />
    <glyph glyph-name="y" unicode="y" horiz-adv-x="498" 
d="M96 -219c-15.333 0 -30.9971 2.33301 -46.9971 7v65c6.66699 -1.33301 13.667 -2.33301 21 -3s13.666 -1 18.999 -1c18.667 0 34.167 5 46.5 15s22.833 25.667 31.5 47l36 89l-188 488h81l148 -401l157 401h81l-246 -599c-10.667 -26 -22.334 -47 -35.001 -63
s-27.334 -27.5 -44.001 -34.5s-37 -10.5 -61 -10.5z" />
    <glyph glyph-name="z" unicode="z" horiz-adv-x="459" 
d="M41 0v58l281 364l-278 -1v67h367v-57l-282 -366l286 1v-66h-374z" />
    <glyph glyph-name="braceleft" unicode="{" horiz-adv-x="394" 
d="M265 -219c-36.667 0 -66.5029 8.66504 -89.5029 25.998s-37.333 41.166 -43 71.499s-1.16699 64.166 13.5 101.499l40 101c14.667 38 15.334 69.833 2.00098 95.5s-37.333 38.5 -72 38.5h-74v61h74c34.667 0 58.834 12.833 72.501 38.5s12.834 57.5 -2.49902 95.5
l-40 102c-14.667 38 -19.167 72 -13.5 102s20 53.667 43 71s52.833 26 89.5 26c13.333 0 26 -1.16699 38 -3.5s25 -6.16602 39 -11.499l-14 -56c-10.667 4 -20.667 6.83301 -30 8.5s-19 2.5 -29 2.5c-20.667 0 -37 -5.33301 -49 -16s-19.167 -25.167 -21.5 -43.5
s0.833984 -39.166 9.50098 -62.499l46 -123c9.33301 -24 12 -47 8 -69s-13.333 -41 -28 -57s-33.667 -27.333 -57 -34c24 -6.66699 43.167 -18.167 57.5 -34.5s23.333 -35.333 27 -57s1.16699 -44.834 -7.5 -69.501l-46 -122
c-8.66699 -23.333 -11.834 -44.166 -9.50098 -62.499s9.5 -32.666 21.5 -42.999s28.333 -15.833 49 -16.5c10 0 19.667 0.833008 29 2.5s19.333 4.5 30 8.5l14 -56c-14 -5.33301 -27 -9.16602 -39 -11.499s-24.667 -3.5 -38 -3.5z" />
    <glyph glyph-name="bar" unicode="|" horiz-adv-x="291" 
d="M112 -209v909h67v-909h-67z" />
    <glyph glyph-name="braceright" unicode="}" horiz-adv-x="394" 
d="M129 711c36.667 0 66.5029 -8.66504 89.5029 -25.998s37.333 -41.166 43 -71.499s1.16699 -64.166 -13.5 -101.499l-40 -101c-14.667 -38 -15.334 -69.833 -2.00098 -95.5s37.333 -38.5 72 -38.5h74v-61h-74c-34.667 0 -58.834 -12.833 -72.501 -38.5
s-12.834 -57.5 2.49902 -95.5l40 -102c14.667 -38 19.167 -72 13.5 -102s-20 -53.667 -43 -71s-52.833 -26 -89.5 -26c-13.333 0 -26 1.16699 -38 3.5s-25 6.16602 -39 11.499l14 56c10.667 -4 20.667 -6.83301 30 -8.5s19 -2.5 29 -2.5c20.667 0 37 5.33301 49 16
s19.167 25.167 21.5 43.5s-0.833984 39.166 -9.50098 62.499l-46 123c-9.33301 24 -12 47 -8 69s13.333 41 28 57s33.667 27.333 57 34c-24 6.66699 -43.167 18.167 -57.5 34.5s-23.333 35.333 -27 57s-1.16699 44.834 7.5 69.501l46 122
c8.66699 23.333 11.834 44.166 9.50098 62.499s-9.5 32.666 -21.5 42.999s-28.333 15.833 -49 16.5c-10 0 -19.667 -0.833008 -29 -2.5s-19.333 -4.5 -30 -8.5l-14 56c14 5.33301 27 9.16602 39 11.499s24.667 3.5 38 3.5z" />
    <glyph glyph-name="asciitilde" unicode="~" 
d="M120 301l-56.998 7c5.33301 46.667 18.666 82.667 39.999 108s48.333 38 81 38c12.667 0 25.834 -2.16699 39.501 -6.5s29.834 -11.833 48.501 -22.5l75 -40c16 -8 28.667 -13.667 38 -17s18 -5 26 -5c39.333 0 62.666 30.333 69.999 91l56 -7
c-4.66699 -46.667 -17.667 -82.667 -39 -108s-48.333 -38 -81 -38c-12.667 0 -26.167 2.16699 -40.5 6.5s-30.5 11.5 -48.5 21.5l-75 40c-16.667 9.33301 -29.334 15.5 -38.001 18.5s-17.334 4.5 -26.001 4.5c-38 0 -61 -30.333 -69 -91z" />
    <glyph glyph-name="uni00A0" unicode="&#xa0;" horiz-adv-x="233" 
 />
    <glyph glyph-name="exclamdown" unicode="&#xa1;" horiz-adv-x="222" 
d="M140 284l9 -522h-75l9 522h57zM111 497c14.667 0 27.167 -5.16699 37.5 -15.5s15.5 -22.833 15.5 -37.5c0 -15.333 -5.16699 -28 -15.5 -38s-22.833 -15 -37.5 -15s-27.167 5 -37.5 15s-15.5 22.667 -15.5 38c0 14.667 5.16699 27.167 15.5 37.5s22.833 15.5 37.5 15.5z
" />
    <glyph glyph-name="cent" unicode="&#xa2;" horiz-adv-x="509" 
d="M264 -118v112c-40 5.33301 -76 19.5 -108 42.5s-57.167 52.5 -75.5 88.5s-27.5 75.667 -27.5 119s9.16699 83 27.5 119s43.5 65.667 75.5 89s68 37.333 108 42v115h50v-114c32 -2 62.5 -9.5 91.5 -22.5s54.5 -30.5 76.5 -52.5l-47 -51
c-15.333 17.333 -33.666 31.166 -54.999 41.499s-43.333 16.5 -66 18.5v-370c22.667 2 44.667 8.33301 66 19s39.666 24.334 54.999 41.001l47 -51c-22 -22 -47.5 -39.5 -76.5 -52.5s-59.5 -20.5 -91.5 -22.5v-111h-50zM126 244c0 -30.667 6 -58.833 18 -84.5
s28.333 -47 49 -64s44.334 -28.5 71.001 -34.5v366c-26.667 -5.33301 -50.334 -16.666 -71.001 -33.999s-37 -38.833 -49 -64.5s-18 -53.834 -18 -84.501z" />
    <glyph glyph-name="sterling" unicode="&#xa3;" horiz-adv-x="616" 
d="M457 -21c-8.66699 0 -17.8301 0.5 -27.4971 1.5s-19.834 2.83301 -30.501 5.5l-194 41c-6.66699 1.33301 -13.334 2.33301 -20.001 3s-13 1 -19 1c-43.333 0 -76.666 -22.667 -99.999 -68l-54 36c17.333 30 37.166 52.833 59.499 68.5s47.833 24.834 76.5 27.501
c20 14 30 35.667 30 65c0 2.66699 -0.333008 7.16699 -1 13.5s-2.83398 19.833 -6.50098 40.5l-17.5 98h-101v57h91l-9.5 62c-2.33301 15.333 -4 27.833 -5 37.5s-1.5 18.167 -1.5 25.5c0 44.667 8.16699 83.167 24.5 115.5s39.833 57.333 70.5 75s67.334 26.5 110.001 26.5
c57.333 0 104.5 -15 141.5 -45s62.167 -73.667 75.5 -131l-66 -19c-9.33301 43.333 -26.833 76.166 -52.5 98.499s-58.5 33.5 -98.5 33.5c-44 0 -77.333 -12.667 -100 -38s-34 -61.666 -34 -108.999c0 -6 0.333008 -13.333 1 -22s2.16699 -21.334 4.5 -38.001
s6.16602 -40.667 11.499 -72h199v-57h-189c6.66699 -39.333 11.334 -68.5 14.001 -87.5s4.33398 -32 5.00098 -39s1 -12.5 1 -16.5c0 -34 -9 -60.667 -27 -80l194 -40c7.33301 -1.33301 14.5 -2.5 21.5 -3.5s13.833 -1.5 20.5 -1.5c41.333 0 72.666 20 93.999 60l55 -35
c-34.667 -60 -83.334 -90 -146.001 -90z" />
    <glyph glyph-name="uni00A4" unicode="&#xa4;" horiz-adv-x="682" 
d="M85 64l-39 40.002l93 94c-16.667 22 -29.834 47 -39.501 75s-14.5 57.333 -14.5 88c0 31.333 4.83301 60.666 14.5 87.999s23.167 52 40.5 74l-94 95l40 41l94 -95c22 18 46.667 32 74 42s56.333 15 87 15s59.667 -5 87 -15s52 -24 74 -42l94 95l39 -40l-95 -95
c17.333 -22 31 -46.833 41 -74.5s15 -57.167 15 -88.5c0 -30.667 -4.66699 -59.834 -14 -87.501s-22.666 -52.5 -39.999 -74.5l94 -95l-40 -41l-94 94c-22 -18 -46.667 -32 -74 -42s-56.333 -15 -87 -15s-60 5.16699 -88 15.5s-53 24.5 -75 42.5zM341 167.002
c34 0 64.833 8.66699 92.5 26s49.667 40.666 66 69.999s24.5 62 24.5 98c0 36.667 -8.16699 69.5 -24.5 98.5s-38.333 52.167 -66 69.5s-58.5 26 -92.5 26s-64.833 -8.66699 -92.5 -26s-49.667 -40.5 -66 -69.5s-24.5 -61.833 -24.5 -98.5c0 -36 8.16699 -68.667 24.5 -98
s38.333 -52.666 66 -69.999s58.5 -26 92.5 -26z" />
    <glyph glyph-name="yen" unicode="&#xa5;" horiz-adv-x="646" 
d="M284 0v134h-178v54h178v75h-178v54h158l-252 383h90l223 -347l224 347h85l-251 -383h155v-54h-177v-75h177v-54h-177v-134h-77z" />
    <glyph glyph-name="uni00A6" unicode="&#xa6;" horiz-adv-x="292" 
d="M112 287v413h68v-413h-68zM112 -209v413h68v-413h-68z" />
    <glyph glyph-name="section" unicode="&#xa7;" horiz-adv-x="568" 
d="M281 -50c-57.333 0 -114.333 16.001 -171 48.001l29 53c26.667 -14.667 51.834 -26 75.501 -34s45.834 -12 66.501 -12c30.667 0 54.667 7 72 21s26 33.333 26 58c0 19.333 -5.66699 35.5 -17 48.5s-29.666 23.833 -54.999 32.5l-104 36
c-48.667 16.667 -83 35.834 -103 57.501s-30 50.5 -30 86.5c0 31.333 9.16699 57.833 27.5 79.5s43.833 36.834 76.5 45.501c-34.667 26 -52 60.667 -52 104c0 41.333 15.167 74.5 45.5 99.5s70.166 37.5 119.499 37.5c27.333 0 55.5 -4.33301 84.5 -13
s57.833 -20.667 86.5 -36l-29 -53c-26.667 15.333 -52 27 -76 35s-46 12 -66 12c-30.667 0 -54.834 -7 -72.501 -21s-26.5 -33.333 -26.5 -58c0 -19.333 6 -35.5 18 -48.5s30.333 -23.833 55 -32.5l103 -36c49.333 -16.667 84 -35.834 104 -57.501s30 -50.834 30 -87.501
c0 -30.667 -9.33301 -56.834 -28 -78.501s-44.334 -37.167 -77.001 -46.5c34.667 -26 52 -60.667 52 -104c0 -40.667 -15 -73.5 -45 -98.5s-69.667 -37.5 -119 -37.5zM336 220.001c30 3.33301 54 13.167 72 29.5s27 36.5 27 60.5c0 21.333 -7 39 -21 53
s-35.667 26.333 -65 37l-110 37c-1.33301 0.666992 -2.66602 1.16699 -3.99902 1.5s-2.66602 0.833008 -3.99902 1.5c-30 -3.33301 -53.833 -12.833 -71.5 -28.5s-26.5 -36.167 -26.5 -61.5c0 -20.667 6.83301 -38 20.5 -52s35.5 -26.667 65.5 -38l109 -37
c1.33301 -0.666992 2.66602 -1.16699 3.99902 -1.5s2.66602 -0.833008 3.99902 -1.5z" />
    <glyph glyph-name="dieresis" unicode="&#xa8;" 
d="M212 609c-14.667 0 -27.167 5.16699 -37.5 15.5s-15.5 22.5 -15.5 36.5s5.16699 26.167 15.5 36.5s22.833 15.5 37.5 15.5s27.167 -5.16699 37.5 -15.5s15.5 -22.5 15.5 -36.5s-5.16699 -26.167 -15.5 -36.5s-22.833 -15.5 -37.5 -15.5zM388 609
c-14.667 0 -27.167 5.16699 -37.5 15.5s-15.5 22.5 -15.5 36.5s5.16699 26.167 15.5 36.5s22.833 15.5 37.5 15.5s27.167 -5.16699 37.5 -15.5s15.5 -22.5 15.5 -36.5s-5.16699 -26.167 -15.5 -36.5s-22.833 -15.5 -37.5 -15.5z" />
    <glyph glyph-name="copyright" unicode="&#xa9;" horiz-adv-x="797" 
d="M408 166c-32 0 -61.002 8.16504 -87.002 24.498s-46.667 38.5 -62 66.5s-23 59 -23 93c0 34.667 7.66699 65.834 23 93.501s36 49.834 62 66.501s55 25 87 25c25.333 0 49.833 -5 73.5 -15s43.834 -24.333 60.501 -43l-35 -40c-12.667 14.667 -27.667 26 -45 34
s-34.666 12 -51.999 12c-22 0 -42 -5.83301 -60 -17.5s-32.333 -27.5 -43 -47.5s-16 -42.333 -16 -67c0 -25.333 5.33301 -48 16 -68s25 -35.833 43 -47.5s38 -17.5 60 -17.5c18 0 35 3.66699 51 11s31.333 18.333 46 33l34 -39c-17.333 -18 -37.5 -32 -60.5 -42
s-47.167 -15 -72.5 -15zM397.998 -11.002c-48 0 -92.667 9.16602 -134 27.499s-77.666 44 -108.999 77s-55.666 71.333 -72.999 115s-26 90.834 -26 141.501s8.66699 97.834 26 141.501s41.666 82 72.999 115s67.666 58.667 108.999 77s86 27.5 134 27.5
s92.833 -9.16699 134.5 -27.5s78.167 -43.833 109.5 -76.5s55.666 -70.834 72.999 -114.501s26 -91.167 26 -142.5c0 -50.667 -8.66699 -98 -26 -142s-41.666 -82.333 -72.999 -115s-67.833 -58.167 -109.5 -76.5s-86.5 -27.5 -134.5 -27.5zM397.998 31.9971
c42 0 81 8.16699 117 24.5s67.5 39 94.5 68s48.167 62.833 63.5 101.5s23 80 23 124s-7.66699 85.333 -23 124s-36.5 72.5 -63.5 101.5s-58.5 51.667 -94.5 68s-75 24.5 -117 24.5c-40.667 0 -79 -8.16699 -115 -24.5s-67.5 -39 -94.5 -68s-48.167 -62.833 -63.5 -101.5
s-23 -80 -23 -124s7.66699 -85.333 23 -124s36.5 -72.5 63.5 -101.5s58.5 -51.667 94.5 -68s74.333 -24.5 115 -24.5z" />
    <glyph glyph-name="ordfeminine" unicode="&#xaa;" horiz-adv-x="408" 
d="M173 319c-41.333 0 -75.001 10.668 -101.001 32.001s-39 48.666 -39 81.999c0 35.333 13.833 63.333 41.5 84s64.834 31 111.501 31c38 0 73.667 -8.66699 107 -26v49c0 58 -32.333 87 -97 87c-18 0 -36.333 -2.5 -55 -7.5s-39.667 -13.167 -63 -24.5l-23 47
c28 13.333 54 23 78 29s47.333 9 70 9c48.667 0 86 -11.5 112 -34.5s39 -55.833 39 -98.5v-252h-61v40c-34 -31.333 -74 -47 -120 -47zM184.999 367.001c21.333 0 41 3.33203 59 9.99902s34.333 16.334 49 29.001v71c-14.667 9.33301 -30.5 16.166 -47.5 20.499
s-36.167 6.5 -57.5 6.5c-28.667 0 -51.667 -6.16699 -69 -18.5s-26 -29.166 -26 -50.499c0 -20.667 8.5 -37.167 25.5 -49.5s39.167 -18.5 66.5 -18.5z" />
    <glyph glyph-name="guillemotleft" unicode="&#xab;" horiz-adv-x="625" 
d="M267 0l-223 245l223 243h77l-217 -241l220 -247h-80zM491 0l-223 245l223 243h77l-217 -241l220 -247h-80z" />
    <glyph glyph-name="uni00AC" unicode="&#xac;" horiz-adv-x="583" 
d="M462 0v254h-395v60h457v-314h-62z" />
    <glyph glyph-name="uni00AD" unicode="&#xad;" horiz-adv-x="455" 
d="M61 250v63h333v-63h-333z" />
    <glyph glyph-name="registered" unicode="&#xae;" horiz-adv-x="496" 
d="M247 312c-35.333 0 -67.5 8.83398 -96.5 26.501s-51.833 41.834 -68.5 72.501s-25 65 -25 103c0 37.333 8.33301 71.166 25 101.499s39.5 54.333 68.5 72s61.5 26.5 97.5 26.5c35.333 0 67.333 -8.83301 96 -26.5s51.5 -41.667 68.5 -72s25.5 -64.5 25.5 -102.5
c0 -37.333 -8.5 -71.333 -25.5 -102s-39.833 -54.834 -68.5 -72.501s-61 -26.5 -97 -26.5zM247 346.001c30.667 0 57.667 7.16699 81 21.5s41.666 34.166 54.999 59.499s20 54 20 86s-6.66699 60.667 -20 86s-31.666 45.166 -54.999 59.499s-50.333 21.5 -81 21.5
c-29.333 0 -55.666 -7.16699 -78.999 -21.5s-41.666 -34.166 -54.999 -59.499s-20 -54 -20 -86c0 -31.333 6.66699 -59.666 20 -84.999s31.666 -45.333 54.999 -60s49.666 -22 78.999 -22zM184 420.001v188h72c18.667 0 33.167 -5.16699 43.5 -15.5s15.5 -24.5 15.5 -42.5
c0 -24 -11 -41.333 -33 -52l45 -78h-36l-40 71h-34v-71h-33zM251 580.001h-34v-63h34c21.333 0 32 10.667 32 32c0 20.667 -10.667 31 -32 31z" />
    <glyph glyph-name="macron" unicode="&#xaf;" 
d="M164 611v52h272v-52h-272z" />
    <glyph glyph-name="degree" unicode="&#xb0;" horiz-adv-x="404" 
d="M202 423c-26 0 -49.834 6.5 -71.501 19.5s-39 30.5 -52 52.5s-19.5 46 -19.5 72c0 26.667 6.5 50.834 19.5 72.501s30.333 39 52 52s45.834 19.5 72.501 19.5c26 0 49.667 -6.5 71 -19.5s38.5 -30.333 51.5 -52s19.5 -45.834 19.5 -72.501c0 -26 -6.5 -50 -19.5 -72
s-30.167 -39.5 -51.5 -52.5s-45.333 -19.5 -72 -19.5zM201.999 472c25.333 0 47.166 9.33301 65.499 28s27.5 41 27.5 67s-9.16699 48.333 -27.5 67s-40.166 28 -65.499 28s-47.166 -9.33301 -65.499 -28s-27.5 -41 -27.5 -67s9.16699 -48.333 27.5 -67
s40.166 -28 65.499 -28z" />
    <glyph glyph-name="plusminus" unicode="&#xb1;" 
d="M102 -1v60h396v-60h-396zM269 173v176h-167v60h167v176h62v-176h167v-60h-167v-176h-62z" />
    <glyph glyph-name="twosuperior" unicode="&#xb2;" horiz-adv-x="291" 
d="M27 350l-0.000976562 38.001l140 130c17.333 16.667 29.5 31 36.5 43s10.5 25 10.5 39c0 17.333 -6.66699 31.666 -20 42.999s-30.333 17 -51 17c-16 0 -31.167 -3 -45.5 -9s-30.833 -17.333 -49.5 -34l-29 35c19.333 17.333 39.333 30.5 60 39.5
s42.334 13.5 65.001 13.5c35.333 0 64.166 -9.5 86.499 -28.5s33.5 -43.167 33.5 -72.5c0 -20 -4.66699 -38 -14 -54s-25.666 -34.667 -48.999 -56l-107 -100h175v-44h-242z" />
    <glyph glyph-name="threesuperior" unicode="&#xb3;" horiz-adv-x="313" 
d="M151 345c-49.333 0 -92.999 15.002 -130.999 45.002l30 38c17.333 -13.333 34.333 -23 51 -29s33.334 -9 50.001 -9c24 0 43.667 5.33301 59 16s23 24.667 23 42s-7.33301 31.166 -22 41.499s-34.334 15.5 -59.001 15.5h-33v40h28c21.333 0 38.833 5.66699 52.5 17
s20.5 25.666 20.5 42.999c0 16 -6.66699 29.167 -20 39.5s-30 15.5 -50 15.5c-16.667 0 -32.334 -3 -47.001 -9s-30.334 -15.667 -47.001 -29l-31 36c18 15.333 37.833 27.166 59.5 35.499s43.834 12.5 66.501 12.5c35.333 0 64.333 -9 87 -27s34 -41.333 34 -70
c0 -18.667 -6.5 -35.167 -19.5 -49.5s-30.833 -24.5 -53.5 -30.5c25.333 -4.66699 45.833 -14.167 61.5 -28.5s23.5 -32.166 23.5 -53.499c0 -30 -12.333 -54.5 -37 -73.5s-56.667 -28.5 -96 -28.5z" />
    <glyph glyph-name="acute" unicode="&#xb4;" 
d="M236 584l112 122h99l-144 -122h-67z" />
    <glyph glyph-name="uni00B5" unicode="&#xb5;" horiz-adv-x="555" 
d="M75 -209v697h73v-295c0 -42.667 11.833 -76.667 35.5 -102s55.5 -38 95.5 -38c27.333 0 51.833 6.33301 73.5 19s39.834 31.334 54.501 56.001v360h73v-488h-73v79c-18.667 -28.667 -41 -50.334 -67 -65.001s-55.333 -22 -88 -22c-40.667 0 -75.334 11.333 -104.001 34
v-235h-73z" />
    <glyph glyph-name="paragraph" unicode="&#xb6;" horiz-adv-x="650" 
d="M316 0l-0.000976562 289h-54c-41.333 0 -78 8.66699 -110 26s-56.833 41.5 -74.5 72.5s-26.5 66.5 -26.5 106.5c0 41.333 8.83301 77.333 26.5 108s42.334 54.667 74.001 72s68.167 26 109.5 26h301v-700h-66v289h-113v-289h-67zM382.999 352h113v285h-113v-285z
M261.999 352h54v285h-54c-42.667 0 -77 -13 -103 -39s-39 -60.333 -39 -103c0 -43.333 13 -78 39 -104s60.333 -39 103 -39z" />
    <glyph glyph-name="periodcentered" unicode="&#xb7;" horiz-adv-x="250" 
d="M128 229c-14.667 0 -27.167 5.33301 -37.5 16s-15.5 23.334 -15.5 38.001c0 15.333 5.16699 28.166 15.5 38.499s22.833 15.5 37.5 15.5s27.167 -5.16699 37.5 -15.5s15.5 -23.166 15.5 -38.499c0 -14.667 -5.16699 -27.334 -15.5 -38.001s-22.833 -16 -37.5 -16z" />
    <glyph glyph-name="cedilla" unicode="&#xb8;" 
d="M285 -239c-22.667 0 -43.3311 2.99902 -61.998 8.99902s-34.667 15 -48 27l28 32c23.333 -19.333 49.666 -29 78.999 -29c20.667 0 36.667 4.66699 48 14s17 22 17 38c0 15.333 -6.16699 27.333 -18.5 36s-29.833 13 -52.5 13h-29l25 99h42l-15 -66
c29.333 -1.33301 52.833 -9.16602 70.5 -23.499s26.5 -33.166 26.5 -56.499c0 -26.667 -10.333 -48.834 -31 -66.501s-47.334 -26.5 -80.001 -26.5z" />
    <glyph glyph-name="onesuperior" unicode="&#xb9;" horiz-adv-x="165" 
d="M84 350v296l-63 -26v45l82 35h32v-350h-51z" />
    <glyph glyph-name="ordmasculine" unicode="&#xba;" horiz-adv-x="464" 
d="M232 317c-36 0 -68.667 8.66699 -98 26s-52.666 41 -69.999 71s-26 63.333 -26 100c0 37.333 8.66699 70.833 26 100.5s40.666 53.167 69.999 70.5s62 26 98 26s68.667 -8.66699 98 -26s52.666 -40.833 69.999 -70.5s26 -63.167 26 -100.5
c0 -36.667 -8.66699 -70 -26 -100s-40.666 -53.667 -69.999 -71s-62 -26 -98 -26zM232 372c24.667 0 47 6.33301 67 19s35.833 29.667 47.5 51s17.5 45.333 17.5 72s-5.83301 50.667 -17.5 72s-27.5 38.333 -47.5 51s-42.333 19 -67 19s-47 -6.33301 -67 -19
s-35.833 -29.667 -47.5 -51s-17.5 -45.333 -17.5 -72s5.83301 -50.667 17.5 -72s27.5 -38.333 47.5 -51s42.333 -19 67 -19z" />
    <glyph glyph-name="guillemotright" unicode="&#xbb;" horiz-adv-x="624" 
d="M357 488l223 -245l-223 -243h-77l217 241l-220 247h80zM134 488l223 -245l-223 -243h-77l217 241l-220 247h80z" />
    <glyph glyph-name="onequarter" unicode="&#xbc;" horiz-adv-x="603" 
d="M492 0v88h-197v41l191 221h57v-220h42v-42h-42v-88h-51zM349 130h143v165zM84 350v296l-63 -26v45l82 35h32v-350h-51zM40 0l393 700h58l-394 -700h-57z" />
    <glyph glyph-name="onehalf" unicode="&#xbd;" horiz-adv-x="637" 
d="M84 350v296l-63 -26v45l82 35h32v-350h-51zM40 0l393 700h58l-394 -700h-57zM373 0l-0.000976562 38.001l140 130c17.333 16.667 29.5 31 36.5 43s10.5 25 10.5 39c0 17.333 -6.66699 31.666 -20 42.999s-30.333 17 -51 17c-16 0 -31.167 -3 -45.5 -9
s-30.833 -17.333 -49.5 -34l-29 35c19.333 17.333 39.333 30.5 60 39.5s42.334 13.5 65.001 13.5c35.333 0 64.166 -9.5 86.499 -28.5s33.5 -43.167 33.5 -72.5c0 -20 -4.66699 -38 -14 -54s-25.666 -34.667 -48.999 -56l-107 -100h175v-44h-242z" />
    <glyph glyph-name="threequarters" unicode="&#xbe;" horiz-adv-x="697" 
d="M586 0v88h-197v41l191 221h57v-220h42v-42h-42v-88h-51zM443 130h143v165zM151 345c-49.333 0 -92.999 15.002 -130.999 45.002l30 38c17.333 -13.333 34.333 -23 51 -29s33.334 -9 50.001 -9c24 0 43.667 5.33301 59 16s23 24.667 23 42s-7.33301 31.166 -22 41.499
s-34.334 15.5 -59.001 15.5h-33v40h28c21.333 0 38.833 5.66699 52.5 17s20.5 25.666 20.5 42.999c0 16 -6.66699 29.167 -20 39.5s-30 15.5 -50 15.5c-16.667 0 -32.334 -3 -47.001 -9s-30.334 -15.667 -47.001 -29l-31 36c18 15.333 37.833 27.166 59.5 35.499
s43.834 12.5 66.501 12.5c35.333 0 64.333 -9 87 -27s34 -41.333 34 -70c0 -18.667 -6.5 -35.167 -19.5 -49.5s-30.833 -24.5 -53.5 -30.5c25.333 -4.66699 45.833 -14.167 61.5 -28.5s23.5 -32.166 23.5 -53.499c0 -30 -12.333 -54.5 -37 -73.5s-56.667 -28.5 -96 -28.5z
M134.001 0.00195312l393 700h58l-394 -700h-57z" />
    <glyph glyph-name="questiondown" unicode="&#xbf;" horiz-adv-x="512" 
d="M319 282c1.33301 -28 -0.166016 -52.333 -4.49902 -73s-12.5 -39.5 -24.5 -56.5s-28.333 -33.167 -49 -48.5l-42 -31c-27.333 -21.333 -46.666 -40.666 -57.999 -57.999s-17 -37.333 -17 -60c0 -20.667 6 -39 18 -55s28.333 -28.833 49 -38.5s44 -14.5 70 -14.5
c31.333 0 60.666 7.66699 87.999 23s51.666 37.666 72.999 66.999l56 -38c-27.333 -38 -59.833 -67.167 -97.5 -87.5s-78.5 -30.5 -122.5 -30.5c-39.333 0 -74.333 7.5 -105 22.5s-55 35.5 -73 61.5s-27 55.667 -27 89c0 22.667 3.5 43.167 10.5 61.5
s18.5 36.166 34.5 53.499s38.333 36.333 67 57l32 24c22.667 16.667 38.667 35.334 48 56.001s13 46 11 76h63zM286.001 497c14.667 0 27.167 -5.16699 37.5 -15.5s15.5 -22.833 15.5 -37.5c0 -15.333 -5.16699 -28 -15.5 -38s-22.833 -15 -37.5 -15s-27 5 -37 15
s-15 22.667 -15 38c0 14.667 5 27.167 15 37.5s22.333 15.5 37 15.5z" />
    <glyph glyph-name="Agrave" unicode="&#xc0;" horiz-adv-x="660" 
d="M9 0l277 700h92l273 -700h-83l-83 220h-312l-83 -220h-81zM197 281h265l-133 349zM326 796l-144 122h103l112 -122h-71z" />
    <glyph glyph-name="Aacute" unicode="&#xc1;" horiz-adv-x="660" 
d="M9 0l277 700h92l273 -700h-83l-83 220h-312l-83 -220h-81zM197 281h265l-133 349zM268 796l112 122h99l-144 -122h-67z" />
    <glyph glyph-name="Acircumflex" unicode="&#xc2;" horiz-adv-x="660" 
d="M9 0l277 700h92l273 -700h-83l-83 220h-312l-83 -220h-81zM197 281h265l-133 349zM425 791l-94 84l-93 -84h-59l114 127h78l114 -127h-60z" />
    <glyph glyph-name="Atilde" unicode="&#xc3;" horiz-adv-x="660" 
d="M9 0l277 700h92l273 -700h-83l-83 220h-312l-83 -220h-81zM197 281h265l-133 349zM212 792l-50.9971 10c9.33301 34 22.333 59.833 39 77.5s37 26.5 61 26.5c19.333 0 37.5 -5 54.5 -15s33 -20 48 -30s29.167 -15 42.5 -15c11.333 0 20.166 4.66699 26.499 14
s12.833 26 19.5 50l51 -10c-8.66699 -34 -21.167 -59.833 -37.5 -77.5s-35.833 -26.5 -58.5 -26.5c-18.667 0 -36.334 5 -53.001 15s-32.5 20 -47.5 30s-29.5 15 -43.5 15c-12.667 0 -22.834 -4.83301 -30.501 -14.5s-14.5 -26.167 -20.5 -49.5z" />
    <glyph glyph-name="Adieresis" unicode="&#xc4;" horiz-adv-x="660" 
d="M9 0l277 700h92l273 -700h-83l-83 220h-312l-83 -220h-81zM197 281h265l-133 349zM244 821c-14.667 0 -27.167 5.16699 -37.5 15.5s-15.5 22.5 -15.5 36.5s5.16699 26.167 15.5 36.5s22.833 15.5 37.5 15.5s27.167 -5.16699 37.5 -15.5s15.5 -22.5 15.5 -36.5
s-5.16699 -26.167 -15.5 -36.5s-22.833 -15.5 -37.5 -15.5zM420 821c-14.667 0 -27.167 5.16699 -37.5 15.5s-15.5 22.5 -15.5 36.5s5.16699 26.167 15.5 36.5s22.833 15.5 37.5 15.5s27.167 -5.16699 37.5 -15.5s15.5 -22.5 15.5 -36.5s-5.16699 -26.167 -15.5 -36.5
s-22.833 -15.5 -37.5 -15.5z" />
    <glyph glyph-name="Aring" unicode="&#xc5;" horiz-adv-x="660" 
d="M9 0l277 700h92l273 -700h-83l-83 220h-312l-83 -220h-81zM197 281h265l-133 349zM332 784c-20.667 0 -39.5 5.00098 -56.5 15.001s-30.5 23.5 -40.5 40.5s-15 35.833 -15 56.5c0 20 5 38.333 15 55s23.5 30 40.5 40s35.833 15 56.5 15s39.5 -5 56.5 -15
s30.5 -23.333 40.5 -40s15 -35.334 15 -56.001c0 -20 -5 -38.5 -15 -55.5s-23.5 -30.5 -40.5 -40.5s-35.833 -15 -56.5 -15zM332 825.001c19.333 0 35.833 6.83301 49.5 20.5s20.5 30.167 20.5 49.5s-6.83301 35.833 -20.5 49.5s-30.167 20.5 -49.5 20.5
s-35.833 -6.83301 -49.5 -20.5s-20.5 -30.167 -20.5 -49.5s6.83301 -35.833 20.5 -49.5s30.167 -20.5 49.5 -20.5z" />
    <glyph glyph-name="AE" unicode="&#xc6;" horiz-adv-x="918" 
d="M9 0l277 700h584v-68h-461l92 -245h237v-67h-212l95 -252h249v-68h-303l-83 220h-311l-84 -220h-80zM196 281h265l-132 350z" />
    <glyph glyph-name="Ccedilla" unicode="&#xc7;" horiz-adv-x="726" 
d="M403 -239c-22.667 0 -43.3311 3.00488 -61.998 9.00488s-34.667 15 -48 27l28 32c23.333 -19.333 49.666 -29 78.999 -29c20.667 0 36.667 4.66699 48 14s17 22 17 38c0 15.333 -6.16699 27.333 -18.5 36s-29.833 13 -52.5 13h-29l22 89
c-46.667 3.33301 -90.167 14.666 -130.5 33.999s-75.5 45.166 -105.5 77.499s-53.333 69.666 -70 111.999s-25 87.833 -25 136.5c0 50.667 9 97.834 27 141.501s43.333 82 76 115s70.5 58.667 113.5 77s89.5 27.5 139.5 27.5c34.667 0 67.834 -4.5 99.501 -13.5
s61.5 -22 89.5 -39s53 -37.833 75 -62.5l-51 -53c-26 31.333 -57.833 55.5 -95.5 72.5s-76.834 25.5 -117.501 25.5c-39.333 0 -76 -7.33301 -110 -22s-63.5 -35.334 -88.5 -62.001s-44.5 -57.5 -58.5 -92.5s-21 -73.167 -21 -114.5c0 -40.667 7 -78.667 21 -114
s33.5 -66.333 58.5 -93s54.5 -47.334 88.5 -62.001s70.667 -22 110 -22c40.667 0 79.834 8.66699 117.501 26s69.5 41.333 95.5 72l51 -53c-30.667 -34.667 -67.334 -61.834 -110.001 -81.501s-88 -30.834 -136 -33.501l-13 -55
c29.333 -1.33301 52.833 -9.16602 70.5 -23.499s26.5 -33.166 26.5 -56.499c0 -26.667 -10.333 -48.834 -31 -66.501s-47.334 -26.5 -80.001 -26.5z" />
    <glyph glyph-name="Egrave" unicode="&#xc8;" horiz-adv-x="619" 
d="M89 0v700h478v-68h-401v-245h278v-67h-278v-252h405v-68h-482zM323 796l-144 122h103l112 -122h-71z" />
    <glyph glyph-name="Eacute" unicode="&#xc9;" horiz-adv-x="619" 
d="M89 0v700h478v-68h-401v-245h278v-67h-278v-252h405v-68h-482zM265 796l112 122h99l-144 -122h-67z" />
    <glyph glyph-name="Ecircumflex" unicode="&#xca;" horiz-adv-x="619" 
d="M89 0v700h478v-68h-401v-245h278v-67h-278v-252h405v-68h-482zM422 791l-94 84l-93 -84h-59l114 127h78l114 -127h-60z" />
    <glyph glyph-name="Edieresis" unicode="&#xcb;" horiz-adv-x="619" 
d="M89 0v700h478v-68h-401v-245h278v-67h-278v-252h405v-68h-482zM241 821c-14.667 0 -27.167 5.16699 -37.5 15.5s-15.5 22.5 -15.5 36.5s5.16699 26.167 15.5 36.5s22.833 15.5 37.5 15.5s27.167 -5.16699 37.5 -15.5s15.5 -22.5 15.5 -36.5s-5.16699 -26.167 -15.5 -36.5
s-22.833 -15.5 -37.5 -15.5zM417 821c-14.667 0 -27.167 5.16699 -37.5 15.5s-15.5 22.5 -15.5 36.5s5.16699 26.167 15.5 36.5s22.833 15.5 37.5 15.5s27.167 -5.16699 37.5 -15.5s15.5 -22.5 15.5 -36.5s-5.16699 -26.167 -15.5 -36.5s-22.833 -15.5 -37.5 -15.5z" />
    <glyph glyph-name="Igrave" unicode="&#xcc;" horiz-adv-x="253" 
d="M88 0v700h77v-700h-77zM120 796l-144 122h103l112 -122h-71z" />
    <glyph glyph-name="Iacute" unicode="&#xcd;" horiz-adv-x="253" 
d="M88 0v700h77v-700h-77zM62 796l112 122h99l-144 -122h-67z" />
    <glyph glyph-name="Icircumflex" unicode="&#xce;" horiz-adv-x="253" 
d="M88 0v700h77v-700h-77zM219 791l-94 84l-93 -84h-59l114 127h78l114 -127h-60z" />
    <glyph glyph-name="Idieresis" unicode="&#xcf;" horiz-adv-x="253" 
d="M88 0v700h77v-700h-77zM38 821c-14.667 0 -27.167 5.16699 -37.5 15.5s-15.5 22.5 -15.5 36.5s5.16699 26.167 15.5 36.5s22.833 15.5 37.5 15.5s27.167 -5.16699 37.5 -15.5s15.5 -22.5 15.5 -36.5s-5.16699 -26.167 -15.5 -36.5s-22.833 -15.5 -37.5 -15.5zM214 821
c-14.667 0 -27.167 5.16699 -37.5 15.5s-15.5 22.5 -15.5 36.5s5.16699 26.167 15.5 36.5s22.833 15.5 37.5 15.5s27.167 -5.16699 37.5 -15.5s15.5 -22.5 15.5 -36.5s-5.16699 -26.167 -15.5 -36.5s-22.833 -15.5 -37.5 -15.5z" />
    <glyph glyph-name="Eth" unicode="&#xd0;" horiz-adv-x="760" 
d="M121 0v322.002h-96v61h96v317h232c51.333 0 98.5 -8.83301 141.5 -26.5s80 -42.334 111 -74.001s55 -68.667 72 -111s25.5 -88.5 25.5 -138.5s-8.5 -96.167 -25.5 -138.5s-41 -79.333 -72 -111s-68 -56.334 -111 -74.001s-90.167 -26.5 -141.5 -26.5h-232zM198 69.002
l160 0.00195312c50.667 0 96 12.333 136 37s71.833 58.167 95.5 100.5s35.5 90.166 35.5 143.499s-11.833 101.166 -35.5 143.499s-55.5 75.833 -95.5 100.5s-85.333 37 -136 37h-160v-248h166v-61h-166v-253z" />
    <glyph glyph-name="Ntilde" unicode="&#xd1;" horiz-adv-x="739" 
d="M89 0v700h80l410 -580l-2 580h73v-700h-70l-420 593l2 -593h-73zM253 792l-50.9971 10c9.33301 34 22.333 59.833 39 77.5s37 26.5 61 26.5c19.333 0 37.5 -5 54.5 -15s33 -20 48 -30s29.167 -15 42.5 -15c11.333 0 20.166 4.66699 26.499 14s12.833 26 19.5 50l51 -10
c-8.66699 -34 -21.167 -59.833 -37.5 -77.5s-35.833 -26.5 -58.5 -26.5c-18.667 0 -36.334 5 -53.001 15s-32.5 20 -47.5 30s-29.5 15 -43.5 15c-12.667 0 -22.834 -4.83301 -30.501 -14.5s-14.5 -26.167 -20.5 -49.5z" />
    <glyph glyph-name="Ograve" unicode="&#xd2;" horiz-adv-x="810" 
d="M405 -11c-48.667 0 -94 9.16699 -136 27.5s-78.833 44 -110.5 77s-56.5 71.333 -74.5 115s-27 90.834 -27 141.501s9 97.834 27 141.501s42.833 82 74.5 115s68.5 58.667 110.5 77s87.333 27.5 136 27.5s94 -9.16699 136 -27.5s78.833 -44 110.5 -77
s56.5 -71.333 74.5 -115s27 -90.834 27 -141.501s-9 -97.834 -27 -141.501s-42.833 -82 -74.5 -115s-68.5 -58.667 -110.5 -77s-87.333 -27.5 -136 -27.5zM405 59c38 0 73.333 7.33203 106 21.999s61.334 35.334 86.001 62.001s43.834 57.667 57.501 93
s20.5 73.333 20.5 114c0 41.333 -6.83301 79.5 -20.5 114.5s-32.834 65.833 -57.501 92.5s-53.334 47.334 -86.001 62.001s-68 22 -106 22s-73.333 -7.33301 -106 -22s-61.334 -35.334 -86.001 -62.001s-43.834 -57.5 -57.501 -92.5s-20.5 -72.833 -20.5 -113.5
c0 -41.333 6.83301 -79.666 20.5 -114.999s32.834 -66.333 57.501 -93s53.334 -47.334 86.001 -62.001s68 -22 106 -22zM398 795.999l-144 122h103l112 -122h-71z" />
    <glyph glyph-name="Oacute" unicode="&#xd3;" horiz-adv-x="810" 
d="M405 -11c-48.667 0 -94 9.16699 -136 27.5s-78.833 44 -110.5 77s-56.5 71.333 -74.5 115s-27 90.834 -27 141.501s9 97.834 27 141.501s42.833 82 74.5 115s68.5 58.667 110.5 77s87.333 27.5 136 27.5s94 -9.16699 136 -27.5s78.833 -44 110.5 -77
s56.5 -71.333 74.5 -115s27 -90.834 27 -141.501s-9 -97.834 -27 -141.501s-42.833 -82 -74.5 -115s-68.5 -58.667 -110.5 -77s-87.333 -27.5 -136 -27.5zM405 59c38 0 73.333 7.33203 106 21.999s61.334 35.334 86.001 62.001s43.834 57.667 57.501 93
s20.5 73.333 20.5 114c0 41.333 -6.83301 79.5 -20.5 114.5s-32.834 65.833 -57.501 92.5s-53.334 47.334 -86.001 62.001s-68 22 -106 22s-73.333 -7.33301 -106 -22s-61.334 -35.334 -86.001 -62.001s-43.834 -57.5 -57.501 -92.5s-20.5 -72.833 -20.5 -113.5
c0 -41.333 6.83301 -79.666 20.5 -114.999s32.834 -66.333 57.501 -93s53.334 -47.334 86.001 -62.001s68 -22 106 -22zM340 795.999l112 122h99l-144 -122h-67z" />
    <glyph glyph-name="Ocircumflex" unicode="&#xd4;" horiz-adv-x="810" 
d="M405 -11c-48.667 0 -94 9.16699 -136 27.5s-78.833 44 -110.5 77s-56.5 71.333 -74.5 115s-27 90.834 -27 141.501s9 97.834 27 141.501s42.833 82 74.5 115s68.5 58.667 110.5 77s87.333 27.5 136 27.5s94 -9.16699 136 -27.5s78.833 -44 110.5 -77
s56.5 -71.333 74.5 -115s27 -90.834 27 -141.501s-9 -97.834 -27 -141.501s-42.833 -82 -74.5 -115s-68.5 -58.667 -110.5 -77s-87.333 -27.5 -136 -27.5zM405 59c38 0 73.333 7.33203 106 21.999s61.334 35.334 86.001 62.001s43.834 57.667 57.501 93
s20.5 73.333 20.5 114c0 41.333 -6.83301 79.5 -20.5 114.5s-32.834 65.833 -57.501 92.5s-53.334 47.334 -86.001 62.001s-68 22 -106 22s-73.333 -7.33301 -106 -22s-61.334 -35.334 -86.001 -62.001s-43.834 -57.5 -57.501 -92.5s-20.5 -72.833 -20.5 -113.5
c0 -41.333 6.83301 -79.666 20.5 -114.999s32.834 -66.333 57.501 -93s53.334 -47.334 86.001 -62.001s68 -22 106 -22zM497 790.999l-94 84l-93 -84h-59l114 127h78l114 -127h-60z" />
    <glyph glyph-name="Otilde" unicode="&#xd5;" horiz-adv-x="810" 
d="M405 -11c-48.667 0 -94 9.16699 -136 27.5s-78.833 44 -110.5 77s-56.5 71.333 -74.5 115s-27 90.834 -27 141.501s9 97.834 27 141.501s42.833 82 74.5 115s68.5 58.667 110.5 77s87.333 27.5 136 27.5s94 -9.16699 136 -27.5s78.833 -44 110.5 -77
s56.5 -71.333 74.5 -115s27 -90.834 27 -141.501s-9 -97.834 -27 -141.501s-42.833 -82 -74.5 -115s-68.5 -58.667 -110.5 -77s-87.333 -27.5 -136 -27.5zM405 59c38 0 73.333 7.33203 106 21.999s61.334 35.334 86.001 62.001s43.834 57.667 57.501 93
s20.5 73.333 20.5 114c0 41.333 -6.83301 79.5 -20.5 114.5s-32.834 65.833 -57.501 92.5s-53.334 47.334 -86.001 62.001s-68 22 -106 22s-73.333 -7.33301 -106 -22s-61.334 -35.334 -86.001 -62.001s-43.834 -57.5 -57.501 -92.5s-20.5 -72.833 -20.5 -113.5
c0 -41.333 6.83301 -79.666 20.5 -114.999s32.834 -66.333 57.501 -93s53.334 -47.334 86.001 -62.001s68 -22 106 -22zM284 791.999l-50.9971 10c9.33301 34 22.333 59.833 39 77.5s37 26.5 61 26.5c19.333 0 37.5 -5 54.5 -15s33 -20 48 -30s29.167 -15 42.5 -15
c11.333 0 20.166 4.66699 26.499 14s12.833 26 19.5 50l51 -10c-8.66699 -34 -21.167 -59.833 -37.5 -77.5s-35.833 -26.5 -58.5 -26.5c-18.667 0 -36.334 5 -53.001 15s-32.5 20 -47.5 30s-29.5 15 -43.5 15c-12.667 0 -22.834 -4.83301 -30.501 -14.5
s-14.5 -26.167 -20.5 -49.5z" />
    <glyph glyph-name="Odieresis" unicode="&#xd6;" horiz-adv-x="810" 
d="M405 -11c-48.667 0 -94 9.16699 -136 27.5s-78.833 44 -110.5 77s-56.5 71.333 -74.5 115s-27 90.834 -27 141.501s9 97.834 27 141.501s42.833 82 74.5 115s68.5 58.667 110.5 77s87.333 27.5 136 27.5s94 -9.16699 136 -27.5s78.833 -44 110.5 -77
s56.5 -71.333 74.5 -115s27 -90.834 27 -141.501s-9 -97.834 -27 -141.501s-42.833 -82 -74.5 -115s-68.5 -58.667 -110.5 -77s-87.333 -27.5 -136 -27.5zM405 59c38 0 73.333 7.33203 106 21.999s61.334 35.334 86.001 62.001s43.834 57.667 57.501 93
s20.5 73.333 20.5 114c0 41.333 -6.83301 79.5 -20.5 114.5s-32.834 65.833 -57.501 92.5s-53.334 47.334 -86.001 62.001s-68 22 -106 22s-73.333 -7.33301 -106 -22s-61.334 -35.334 -86.001 -62.001s-43.834 -57.5 -57.501 -92.5s-20.5 -72.833 -20.5 -113.5
c0 -41.333 6.83301 -79.666 20.5 -114.999s32.834 -66.333 57.501 -93s53.334 -47.334 86.001 -62.001s68 -22 106 -22zM316 820.999c-14.667 0 -27.167 5.16699 -37.5 15.5s-15.5 22.5 -15.5 36.5s5.16699 26.167 15.5 36.5s22.833 15.5 37.5 15.5
s27.167 -5.16699 37.5 -15.5s15.5 -22.5 15.5 -36.5s-5.16699 -26.167 -15.5 -36.5s-22.833 -15.5 -37.5 -15.5zM492 820.999c-14.667 0 -27.167 5.16699 -37.5 15.5s-15.5 22.5 -15.5 36.5s5.16699 26.167 15.5 36.5s22.833 15.5 37.5 15.5s27.167 -5.16699 37.5 -15.5
s15.5 -22.5 15.5 -36.5s-5.16699 -26.167 -15.5 -36.5s-22.833 -15.5 -37.5 -15.5z" />
    <glyph glyph-name="multiply" unicode="&#xd7;" 
d="M151 162l-37 40l147 157l-147 157l38 41l147 -157l147 157l39 -40l-148 -157l149 -158l-40 -41l-148 158z" />
    <glyph glyph-name="Oslash" unicode="&#xd8;" horiz-adv-x="810" 
d="M405 -11c-38.667 0 -75.167 5.99707 -109.5 17.9971s-66.166 28.667 -95.499 50l-50 -62h-73l81 99c-31.333 32.667 -56 70.834 -74 114.501s-27 90.834 -27 141.501s9 97.834 27 141.501s42.833 82 74.5 115s68.5 58.667 110.5 77s87.333 27.5 136 27.5
c38 0 74.167 -5.66699 108.5 -17s65.833 -27.666 94.5 -48.999l49 60h75l-80 -98c31.333 -32.667 56 -71 74 -115s27 -91.333 27 -142s-8.83301 -97.834 -26.5 -141.501s-42.334 -82 -74.001 -115s-68.667 -58.667 -111 -77s-87.833 -27.5 -136.5 -27.5zM205 151.997
l357.002 437.001c-22 16.667 -46.333 29.5 -73 38.5s-54.667 13.5 -84 13.5c-38 0 -73.333 -7.33301 -106 -22s-61.334 -35.334 -86.001 -62.001s-43.834 -57.5 -57.501 -92.5s-20.5 -73.167 -20.5 -114.5c0 -38.667 6.16699 -75 18.5 -109s29.5 -63.667 51.5 -89z
M405.002 58.998c38 0 73.499 7.33301 106.499 22s61.667 35.334 86 62.001s43.333 57.667 57 93s20.5 73.333 20.5 114c0 39.333 -6.16699 76 -18.5 110s-29.833 63.667 -52.5 89l-358 -436c22.667 -16.667 47.334 -29.834 74.001 -39.501s55 -14.5 85 -14.5z" />
    <glyph glyph-name="Ugrave" unicode="&#xd9;" horiz-adv-x="712" 
d="M356 -11c-57.333 0 -107.169 12.5 -149.502 37.5s-74.833 60.5 -97.5 106.5s-34 100.333 -34 163v404h77v-404c0 -48 8.33301 -89.667 25 -125s40.334 -62.833 71.001 -82.5s66.667 -29.5 108 -29.5s77.333 9.83301 108 29.5s54.334 47.167 71.001 82.5s25 77 25 125v404
h77v-404c0 -62.667 -11.333 -117 -34 -163s-55 -81.5 -97 -106.5s-92 -37.5 -150 -37.5zM349.997 796l-144 122h103l112 -122h-71z" />
    <glyph glyph-name="Uacute" unicode="&#xda;" horiz-adv-x="712" 
d="M356 -11c-57.333 0 -107.169 12.5 -149.502 37.5s-74.833 60.5 -97.5 106.5s-34 100.333 -34 163v404h77v-404c0 -48 8.33301 -89.667 25 -125s40.334 -62.833 71.001 -82.5s66.667 -29.5 108 -29.5s77.333 9.83301 108 29.5s54.334 47.167 71.001 82.5s25 77 25 125v404
h77v-404c0 -62.667 -11.333 -117 -34 -163s-55 -81.5 -97 -106.5s-92 -37.5 -150 -37.5zM291.997 796l112 122h99l-144 -122h-67z" />
    <glyph glyph-name="Ucircumflex" unicode="&#xdb;" horiz-adv-x="712" 
d="M356 -11c-57.333 0 -107.169 12.5 -149.502 37.5s-74.833 60.5 -97.5 106.5s-34 100.333 -34 163v404h77v-404c0 -48 8.33301 -89.667 25 -125s40.334 -62.833 71.001 -82.5s66.667 -29.5 108 -29.5s77.333 9.83301 108 29.5s54.334 47.167 71.001 82.5s25 77 25 125v404
h77v-404c0 -62.667 -11.333 -117 -34 -163s-55 -81.5 -97 -106.5s-92 -37.5 -150 -37.5zM448.997 791l-94 84l-93 -84h-59l114 127h78l114 -127h-60z" />
    <glyph glyph-name="Udieresis" unicode="&#xdc;" horiz-adv-x="712" 
d="M356 -11c-57.333 0 -107.169 12.5 -149.502 37.5s-74.833 60.5 -97.5 106.5s-34 100.333 -34 163v404h77v-404c0 -48 8.33301 -89.667 25 -125s40.334 -62.833 71.001 -82.5s66.667 -29.5 108 -29.5s77.333 9.83301 108 29.5s54.334 47.167 71.001 82.5s25 77 25 125v404
h77v-404c0 -62.667 -11.333 -117 -34 -163s-55 -81.5 -97 -106.5s-92 -37.5 -150 -37.5zM267.997 821c-14.667 0 -27.167 5.16699 -37.5 15.5s-15.5 22.5 -15.5 36.5s5.16699 26.167 15.5 36.5s22.833 15.5 37.5 15.5s27.167 -5.16699 37.5 -15.5s15.5 -22.5 15.5 -36.5
s-5.16699 -26.167 -15.5 -36.5s-22.833 -15.5 -37.5 -15.5zM443.997 821c-14.667 0 -27.167 5.16699 -37.5 15.5s-15.5 22.5 -15.5 36.5s5.16699 26.167 15.5 36.5s22.833 15.5 37.5 15.5s27.167 -5.16699 37.5 -15.5s15.5 -22.5 15.5 -36.5s-5.16699 -26.167 -15.5 -36.5
s-22.833 -15.5 -37.5 -15.5z" />
    <glyph glyph-name="Yacute" unicode="&#xdd;" horiz-adv-x="646" 
d="M284 0v286l-272 414h90l223 -347l224 347h85l-273 -416v-284h-77zM262 796l112 122h99l-144 -122h-67z" />
    <glyph glyph-name="Thorn" unicode="&#xde;" horiz-adv-x="654" 
d="M89 0v699.999h77v-143h212c45.333 0 84.666 -8.5 117.999 -25.5s59.166 -41 77.499 -72s27.5 -67.5 27.5 -109.5c0 -41.333 -9.16699 -77.666 -27.5 -108.999s-44.166 -55.5 -77.499 -72.5s-72.666 -25.5 -117.999 -25.5h-212v-143h-77zM166 208.999l203 -0.000976562
c48.667 0 86.667 12.833 114 38.5s41 59.834 41 102.501c0 43.333 -13.667 77.5 -41 102.5s-65.333 37.5 -114 37.5h-203v-281z" />
    <glyph glyph-name="germandbls" unicode="&#xdf;" horiz-adv-x="592" 
d="M393 -11c-66 0 -121.666 20.3389 -166.999 61.0059l41 48c36 -34 77.667 -51 125 -51c31.333 0 56.666 8.33301 75.999 25s29 38.667 29 66c0 23.333 -6 41.833 -18 55.5s-32 25.834 -60 36.501l-65 25c-23.333 9.33301 -42.166 19.333 -56.499 30s-24.666 23 -30.999 37
s-9.5 30.333 -9.5 49c0 23.333 5.33301 42.5 16 57.5s23.834 27.833 39.501 38.5l46.5 30.5c15.333 9.66699 28.333 20.667 39 33s16 28.166 16 47.499c0 27.333 -11.667 50 -35 68s-53 27 -89 27c-46 0 -81.167 -15.333 -105.5 -46s-36.5 -72.334 -36.5 -125.001v-502h-73
v501c0 48 8.5 89.667 25.5 125s41.5 62.666 73.5 81.999s70.333 29 115 29c39.333 0 73.5 -7 102.5 -21s51.5 -33.167 67.5 -57.5s24 -51.833 24 -82.5c0 -24.667 -5.33301 -45.334 -16 -62.001s-23.834 -30.834 -39.501 -42.501s-31.334 -22.334 -47.001 -32.001
s-28.834 -19.834 -39.501 -30.501s-16 -23.334 -16 -38.001c0 -14 4.16699 -25 12.5 -33s24.833 -17 49.5 -27l61 -24c40.667 -16 70.5 -35.667 89.5 -59s28.5 -52.666 28.5 -87.999c0 -44.667 -16 -81 -48 -109s-73.667 -42 -125 -42z" />
    <glyph glyph-name="agrave" unicode="&#xe0;" horiz-adv-x="526" 
d="M226 -9c-34.667 0 -65.3311 6.33496 -91.998 19.002s-47.5 30.167 -62.5 52.5s-22.5 48.166 -22.5 77.499s7.66699 54.833 23 76.5s36.666 38.5 63.999 50.5s59.333 18 96 18c28 0 54.5 -3 79.5 -9s48.167 -15.667 69.5 -29v67c0 40 -10.667 70.167 -32 90.5
s-52.666 30.5 -93.999 30.5c-22.667 0 -45.834 -3.33301 -69.501 -10s-49.834 -17.334 -78.501 -32.001l-27 56c65.333 31.333 126.666 47 183.999 47c60.667 0 107.334 -14.833 140.001 -44.5s49 -72.167 49 -127.5v-324h-72v57c-21.333 -22 -45 -38.5 -71 -49.5
s-54 -16.5 -84 -16.5zM119.003 142.002c0 -28.667 11.167 -51.668 33.5 -69.001s51.833 -26 88.5 -26c27.333 0 52.5 4.66699 75.5 14s44.5 23.333 64.5 42v94c-20.667 12 -42 20.833 -64 26.5s-46.667 8.5 -74 8.5c-37.333 0 -67.333 -8.16699 -90 -24.5
s-34 -38.166 -34 -65.499zM258.003 584.001l-144 122h103l112 -122h-71z" />
    <glyph glyph-name="aacute" unicode="&#xe1;" horiz-adv-x="526" 
d="M226 -9c-34.667 0 -65.3311 6.33496 -91.998 19.002s-47.5 30.167 -62.5 52.5s-22.5 48.166 -22.5 77.499s7.66699 54.833 23 76.5s36.666 38.5 63.999 50.5s59.333 18 96 18c28 0 54.5 -3 79.5 -9s48.167 -15.667 69.5 -29v67c0 40 -10.667 70.167 -32 90.5
s-52.666 30.5 -93.999 30.5c-22.667 0 -45.834 -3.33301 -69.501 -10s-49.834 -17.334 -78.501 -32.001l-27 56c65.333 31.333 126.666 47 183.999 47c60.667 0 107.334 -14.833 140.001 -44.5s49 -72.167 49 -127.5v-324h-72v57c-21.333 -22 -45 -38.5 -71 -49.5
s-54 -16.5 -84 -16.5zM119.003 142.002c0 -28.667 11.167 -51.668 33.5 -69.001s51.833 -26 88.5 -26c27.333 0 52.5 4.66699 75.5 14s44.5 23.333 64.5 42v94c-20.667 12 -42 20.833 -64 26.5s-46.667 8.5 -74 8.5c-37.333 0 -67.333 -8.16699 -90 -24.5
s-34 -38.166 -34 -65.499zM200.003 584.001l112 122h99l-144 -122h-67z" />
    <glyph glyph-name="acircumflex" unicode="&#xe2;" horiz-adv-x="526" 
d="M226 -9c-34.667 0 -65.3311 6.33496 -91.998 19.002s-47.5 30.167 -62.5 52.5s-22.5 48.166 -22.5 77.499s7.66699 54.833 23 76.5s36.666 38.5 63.999 50.5s59.333 18 96 18c28 0 54.5 -3 79.5 -9s48.167 -15.667 69.5 -29v67c0 40 -10.667 70.167 -32 90.5
s-52.666 30.5 -93.999 30.5c-22.667 0 -45.834 -3.33301 -69.501 -10s-49.834 -17.334 -78.501 -32.001l-27 56c65.333 31.333 126.666 47 183.999 47c60.667 0 107.334 -14.833 140.001 -44.5s49 -72.167 49 -127.5v-324h-72v57c-21.333 -22 -45 -38.5 -71 -49.5
s-54 -16.5 -84 -16.5zM119.003 142.002c0 -28.667 11.167 -51.668 33.5 -69.001s51.833 -26 88.5 -26c27.333 0 52.5 4.66699 75.5 14s44.5 23.333 64.5 42v94c-20.667 12 -42 20.833 -64 26.5s-46.667 8.5 -74 8.5c-37.333 0 -67.333 -8.16699 -90 -24.5
s-34 -38.166 -34 -65.499zM357.003 579.001l-94 84l-93 -84h-59l114 127h78l114 -127h-60z" />
    <glyph glyph-name="atilde" unicode="&#xe3;" horiz-adv-x="526" 
d="M226 -9c-34.667 0 -65.3311 6.33496 -91.998 19.002s-47.5 30.167 -62.5 52.5s-22.5 48.166 -22.5 77.499s7.66699 54.833 23 76.5s36.666 38.5 63.999 50.5s59.333 18 96 18c28 0 54.5 -3 79.5 -9s48.167 -15.667 69.5 -29v67c0 40 -10.667 70.167 -32 90.5
s-52.666 30.5 -93.999 30.5c-22.667 0 -45.834 -3.33301 -69.501 -10s-49.834 -17.334 -78.501 -32.001l-27 56c65.333 31.333 126.666 47 183.999 47c60.667 0 107.334 -14.833 140.001 -44.5s49 -72.167 49 -127.5v-324h-72v57c-21.333 -22 -45 -38.5 -71 -49.5
s-54 -16.5 -84 -16.5zM119.003 142.002c0 -28.667 11.167 -51.668 33.5 -69.001s51.833 -26 88.5 -26c27.333 0 52.5 4.66699 75.5 14s44.5 23.333 64.5 42v94c-20.667 12 -42 20.833 -64 26.5s-46.667 8.5 -74 8.5c-37.333 0 -67.333 -8.16699 -90 -24.5
s-34 -38.166 -34 -65.499zM144.003 580.001l-50.9971 10c9.33301 34 22.333 59.833 39 77.5s37 26.5 61 26.5c19.333 0 37.5 -5 54.5 -15s33 -20 48 -30s29.167 -15 42.5 -15c11.333 0 20.166 4.66699 26.499 14s12.833 26 19.5 50l51 -10
c-8.66699 -34 -21.167 -59.833 -37.5 -77.5s-35.833 -26.5 -58.5 -26.5c-18.667 0 -36.334 5 -53.001 15s-32.5 20 -47.5 30s-29.5 15 -43.5 15c-12.667 0 -22.834 -4.83301 -30.501 -14.5s-14.5 -26.167 -20.5 -49.5z" />
    <glyph glyph-name="adieresis" unicode="&#xe4;" horiz-adv-x="526" 
d="M226 -9c-34.667 0 -65.3311 6.33496 -91.998 19.002s-47.5 30.167 -62.5 52.5s-22.5 48.166 -22.5 77.499s7.66699 54.833 23 76.5s36.666 38.5 63.999 50.5s59.333 18 96 18c28 0 54.5 -3 79.5 -9s48.167 -15.667 69.5 -29v67c0 40 -10.667 70.167 -32 90.5
s-52.666 30.5 -93.999 30.5c-22.667 0 -45.834 -3.33301 -69.501 -10s-49.834 -17.334 -78.501 -32.001l-27 56c65.333 31.333 126.666 47 183.999 47c60.667 0 107.334 -14.833 140.001 -44.5s49 -72.167 49 -127.5v-324h-72v57c-21.333 -22 -45 -38.5 -71 -49.5
s-54 -16.5 -84 -16.5zM119.003 142.002c0 -28.667 11.167 -51.668 33.5 -69.001s51.833 -26 88.5 -26c27.333 0 52.5 4.66699 75.5 14s44.5 23.333 64.5 42v94c-20.667 12 -42 20.833 -64 26.5s-46.667 8.5 -74 8.5c-37.333 0 -67.333 -8.16699 -90 -24.5
s-34 -38.166 -34 -65.499zM176.003 609.001c-14.667 0 -27.167 5.16699 -37.5 15.5s-15.5 22.5 -15.5 36.5s5.16699 26.167 15.5 36.5s22.833 15.5 37.5 15.5s27.167 -5.16699 37.5 -15.5s15.5 -22.5 15.5 -36.5s-5.16699 -26.167 -15.5 -36.5s-22.833 -15.5 -37.5 -15.5z
M352.003 609.001c-14.667 0 -27.167 5.16699 -37.5 15.5s-15.5 22.5 -15.5 36.5s5.16699 26.167 15.5 36.5s22.833 15.5 37.5 15.5s27.167 -5.16699 37.5 -15.5s15.5 -22.5 15.5 -36.5s-5.16699 -26.167 -15.5 -36.5s-22.833 -15.5 -37.5 -15.5z" />
    <glyph glyph-name="aring" unicode="&#xe5;" horiz-adv-x="526" 
d="M226 -9c-34.667 0 -65.3311 6.33496 -91.998 19.002s-47.5 30.167 -62.5 52.5s-22.5 48.166 -22.5 77.499s7.66699 54.833 23 76.5s36.666 38.5 63.999 50.5s59.333 18 96 18c28 0 54.5 -3 79.5 -9s48.167 -15.667 69.5 -29v67c0 40 -10.667 70.167 -32 90.5
s-52.666 30.5 -93.999 30.5c-22.667 0 -45.834 -3.33301 -69.501 -10s-49.834 -17.334 -78.501 -32.001l-27 56c65.333 31.333 126.666 47 183.999 47c60.667 0 107.334 -14.833 140.001 -44.5s49 -72.167 49 -127.5v-324h-72v57c-21.333 -22 -45 -38.5 -71 -49.5
s-54 -16.5 -84 -16.5zM119.003 142.002c0 -28.667 11.167 -51.668 33.5 -69.001s51.833 -26 88.5 -26c27.333 0 52.5 4.66699 75.5 14s44.5 23.333 64.5 42v94c-20.667 12 -42 20.833 -64 26.5s-46.667 8.5 -74 8.5c-37.333 0 -67.333 -8.16699 -90 -24.5
s-34 -38.166 -34 -65.499zM264.003 572.001c-20.667 0 -39.5 5.00098 -56.5 15.001s-30.5 23.5 -40.5 40.5s-15 35.833 -15 56.5c0 20 5 38.333 15 55s23.5 30 40.5 40s35.833 15 56.5 15s39.5 -5 56.5 -15s30.5 -23.333 40.5 -40s15 -35.334 15 -56.001
c0 -20 -5 -38.5 -15 -55.5s-23.5 -30.5 -40.5 -40.5s-35.833 -15 -56.5 -15zM264.003 613.002c19.333 0 35.833 6.83301 49.5 20.5s20.5 30.167 20.5 49.5s-6.83301 35.833 -20.5 49.5s-30.167 20.5 -49.5 20.5s-35.833 -6.83301 -49.5 -20.5s-20.5 -30.167 -20.5 -49.5
s6.83301 -35.833 20.5 -49.5s30.167 -20.5 49.5 -20.5z" />
    <glyph glyph-name="ae" unicode="&#xe6;" horiz-adv-x="886" 
d="M228 -9c-35.333 0 -66.3369 6.33203 -93.0039 18.999s-47.5 30.334 -62.5 53.001s-22.5 48.667 -22.5 78c0 28.667 7.5 53.834 22.5 75.501s36.167 38.5 63.5 50.5s59.333 18 96 18c55.333 0 105 -12.333 149 -37v66c0 40 -10.667 70.167 -32 90.5
s-52.666 30.5 -93.999 30.5c-22.667 0 -45.834 -3.33301 -69.501 -10s-49.834 -17.334 -78.501 -32.001l-27 56c65.333 31.333 126.666 47 183.999 47c42.667 0 78.5 -7.83301 107.5 -23.5s49.833 -38.5 62.5 -68.5c20.667 29.333 46.334 52 77.001 68s64.334 24 101.001 24
c42.667 0 80.834 -10.833 114.501 -32.5s60.334 -51 80.001 -88s29.5 -78.833 29.5 -125.5v-22h-383c2.66699 -33.333 11.834 -63.166 27.501 -89.499s36.334 -47 62.001 -62s53.834 -22.5 84.501 -22.5c25.333 0 49.833 4.5 73.5 13.5s43.5 21.167 59.5 36.5l46 -49
c-28 -22 -56.833 -38.333 -86.5 -49s-61.834 -16 -96.501 -16c-40.667 0 -77.667 9 -111 27s-61 42.333 -83 73c-26.667 -32.667 -56.5 -57.334 -89.5 -74.001s-70.167 -25 -111.5 -25zM454.996 279.999h309c-3.33301 29.333 -12.166 55.5 -26.499 78.5
s-32.333 41.167 -54 54.5s-45.834 20 -72.501 20c-27.333 0 -52 -6.5 -74 -19.5s-40 -31 -54 -54s-23.333 -49.5 -28 -79.5zM240.996 46.999c33.333 0 63.667 7.33203 91 21.999s51.333 36.334 72 65.001c-8.66699 18 -15 38.333 -19 61c-20.667 13.333 -42.5 23 -65.5 29
s-48.5 9 -76.5 9c-37.333 0 -67.333 -8.33301 -90 -25s-34 -38.667 -34 -66c0 -28.667 11.167 -51.667 33.5 -69s51.833 -26 88.5 -26z" />
    <glyph glyph-name="ccedilla" unicode="&#xe7;" horiz-adv-x="509" 
d="M288 -232c-22.667 0 -43.3291 2.99902 -61.9961 8.99902s-34.667 15 -48 27l28 32c23.333 -19.333 49.666 -29 78.999 -29c20.667 0 36.667 4.66699 48 14s17 22 17 38c0 15.333 -6.16699 27.333 -18.5 36s-29.833 13 -52.5 13h-29l21 85
c-41.333 4 -78.5 17.5 -111.5 40.5s-59 52.833 -78 89.5s-28.5 77 -28.5 121c0 47.333 10.667 90 32 128s50.166 68.167 86.499 90.5s77.166 33.5 122.499 33.5c36 0 70.333 -6.66699 103 -20s61 -32 85 -56l-47 -51c-17.333 19.333 -38.333 34.333 -63 45
s-49.667 16 -75 16c-32 0 -60.833 -8.33301 -86.5 -25s-46.167 -39 -61.5 -67s-23 -59.333 -23 -94s7.66699 -66 23 -94s35.833 -50.333 61.5 -67s54.5 -25 86.5 -25c25.333 0 50.333 5.5 75 16.5s45.667 25.833 63 44.5l47 -51c-22 -22 -47.5 -39.5 -76.5 -52.5
s-59.5 -20.5 -91.5 -22.5l-12 -52c29.333 -1.33301 52.833 -9.16602 70.5 -23.499s26.5 -33.166 26.5 -56.499c0 -26.667 -10.333 -48.834 -31 -66.501s-47.334 -26.5 -80.001 -26.5z" />
    <glyph glyph-name="egrave" unicode="&#xe8;" horiz-adv-x="557" 
d="M295 -10c-45.333 0 -86.3389 11.167 -123.006 33.5s-65.667 52.666 -87 90.999s-32 81.5 -32 129.5s10.167 91 30.5 129s47.833 68 82.5 90s73.667 33 117 33c42.667 0 80.834 -10.833 114.501 -32.5s60.334 -51 80.001 -88s29.5 -78.833 29.5 -125.5v-22h-383
c2.66699 -33.333 11.834 -63.166 27.501 -89.499s36.334 -47 62.001 -62s53.834 -22.5 84.501 -22.5c25.333 0 49.833 4.5 73.5 13.5s43.834 21.167 60.501 36.5l46 -49c-28 -22 -57 -38.333 -87 -49s-62 -16 -96 -16zM125.994 280h309
c-3.33301 29.333 -12.166 55.5 -26.499 78.5s-32.333 41.167 -54 54.5s-45.834 20 -72.501 20s-51 -6.5 -73 -19.5s-40.167 -31 -54.5 -54s-23.833 -49.5 -28.5 -79.5zM280.994 584l-144 122h103l112 -122h-71z" />
    <glyph glyph-name="eacute" unicode="&#xe9;" horiz-adv-x="557" 
d="M295 -10c-45.333 0 -86.3389 11.167 -123.006 33.5s-65.667 52.666 -87 90.999s-32 81.5 -32 129.5s10.167 91 30.5 129s47.833 68 82.5 90s73.667 33 117 33c42.667 0 80.834 -10.833 114.501 -32.5s60.334 -51 80.001 -88s29.5 -78.833 29.5 -125.5v-22h-383
c2.66699 -33.333 11.834 -63.166 27.501 -89.499s36.334 -47 62.001 -62s53.834 -22.5 84.501 -22.5c25.333 0 49.833 4.5 73.5 13.5s43.834 21.167 60.501 36.5l46 -49c-28 -22 -57 -38.333 -87 -49s-62 -16 -96 -16zM125.994 280h309
c-3.33301 29.333 -12.166 55.5 -26.499 78.5s-32.333 41.167 -54 54.5s-45.834 20 -72.501 20s-51 -6.5 -73 -19.5s-40.167 -31 -54.5 -54s-23.833 -49.5 -28.5 -79.5zM222.994 584l112 122h99l-144 -122h-67z" />
    <glyph glyph-name="ecircumflex" unicode="&#xea;" horiz-adv-x="557" 
d="M295 -10c-45.333 0 -86.3389 11.167 -123.006 33.5s-65.667 52.666 -87 90.999s-32 81.5 -32 129.5s10.167 91 30.5 129s47.833 68 82.5 90s73.667 33 117 33c42.667 0 80.834 -10.833 114.501 -32.5s60.334 -51 80.001 -88s29.5 -78.833 29.5 -125.5v-22h-383
c2.66699 -33.333 11.834 -63.166 27.501 -89.499s36.334 -47 62.001 -62s53.834 -22.5 84.501 -22.5c25.333 0 49.833 4.5 73.5 13.5s43.834 21.167 60.501 36.5l46 -49c-28 -22 -57 -38.333 -87 -49s-62 -16 -96 -16zM125.994 280h309
c-3.33301 29.333 -12.166 55.5 -26.499 78.5s-32.333 41.167 -54 54.5s-45.834 20 -72.501 20s-51 -6.5 -73 -19.5s-40.167 -31 -54.5 -54s-23.833 -49.5 -28.5 -79.5zM379.994 579l-94 84l-93 -84h-59l114 127h78l114 -127h-60z" />
    <glyph glyph-name="edieresis" unicode="&#xeb;" horiz-adv-x="557" 
d="M295 -10c-45.333 0 -86.3389 11.167 -123.006 33.5s-65.667 52.666 -87 90.999s-32 81.5 -32 129.5s10.167 91 30.5 129s47.833 68 82.5 90s73.667 33 117 33c42.667 0 80.834 -10.833 114.501 -32.5s60.334 -51 80.001 -88s29.5 -78.833 29.5 -125.5v-22h-383
c2.66699 -33.333 11.834 -63.166 27.501 -89.499s36.334 -47 62.001 -62s53.834 -22.5 84.501 -22.5c25.333 0 49.833 4.5 73.5 13.5s43.834 21.167 60.501 36.5l46 -49c-28 -22 -57 -38.333 -87 -49s-62 -16 -96 -16zM125.994 280h309
c-3.33301 29.333 -12.166 55.5 -26.499 78.5s-32.333 41.167 -54 54.5s-45.834 20 -72.501 20s-51 -6.5 -73 -19.5s-40.167 -31 -54.5 -54s-23.833 -49.5 -28.5 -79.5zM198.994 609c-14.667 0 -27.167 5.16699 -37.5 15.5s-15.5 22.5 -15.5 36.5s5.16699 26.167 15.5 36.5
s22.833 15.5 37.5 15.5s27.167 -5.16699 37.5 -15.5s15.5 -22.5 15.5 -36.5s-5.16699 -26.167 -15.5 -36.5s-22.833 -15.5 -37.5 -15.5zM374.994 609c-14.667 0 -27.167 5.16699 -37.5 15.5s-15.5 22.5 -15.5 36.5s5.16699 26.167 15.5 36.5s22.833 15.5 37.5 15.5
s27.167 -5.16699 37.5 -15.5s15.5 -22.5 15.5 -36.5s-5.16699 -26.167 -15.5 -36.5s-22.833 -15.5 -37.5 -15.5z" />
    <glyph glyph-name="igrave" unicode="&#xec;" horiz-adv-x="223" 
d="M75 0v488h73v-488h-73zM106 584l-144 122h103l112 -122h-71z" />
    <glyph glyph-name="iacute" unicode="&#xed;" horiz-adv-x="223" 
d="M75 0v488h73v-488h-73zM48 584l112 122h99l-144 -122h-67z" />
    <glyph glyph-name="icircumflex" unicode="&#xee;" horiz-adv-x="223" 
d="M75 0v488h73v-488h-73zM205 579l-94 84l-93 -84h-59l114 127h78l114 -127h-60z" />
    <glyph glyph-name="idieresis" unicode="&#xef;" horiz-adv-x="223" 
d="M75 0v488h73v-488h-73zM24 609c-14.667 0 -27.167 5.16699 -37.5 15.5s-15.5 22.5 -15.5 36.5s5.16699 26.167 15.5 36.5s22.833 15.5 37.5 15.5s27.167 -5.16699 37.5 -15.5s15.5 -22.5 15.5 -36.5s-5.16699 -26.167 -15.5 -36.5s-22.833 -15.5 -37.5 -15.5zM200 609
c-14.667 0 -27.167 5.16699 -37.5 15.5s-15.5 22.5 -15.5 36.5s5.16699 26.167 15.5 36.5s22.833 15.5 37.5 15.5s27.167 -5.16699 37.5 -15.5s15.5 -22.5 15.5 -36.5s-5.16699 -26.167 -15.5 -36.5s-22.833 -15.5 -37.5 -15.5z" />
    <glyph glyph-name="eth" unicode="&#xf0;" horiz-adv-x="590" 
d="M289 -10c-44 0 -84.0029 10.999 -120.003 32.999s-64.5 51.833 -85.5 89.5s-31.5 79.5 -31.5 125.5s9.83301 86.833 29.5 122.5s46.5 63.834 80.5 84.501s72.333 31 115 31s80.5 -10.5 113.5 -31.5s57.833 -48.5 74.5 -82.5c-6 48.667 -18.167 93.167 -36.5 133.5
s-42.166 74.833 -71.499 103.5l-95 -62l-29 42l85 55c-15.333 11.333 -31.666 21.166 -48.999 29.499s-35.666 15.5 -54.999 21.5l30 52c24.667 -8 47.667 -17.5 69 -28.5s41.333 -23.833 60 -38.5l103 67l27 -42l-91 -60c40 -40.667 70.333 -90.167 91 -148.5
s31 -124.166 31 -197.499c0 -60 -10.167 -112.333 -30.5 -157s-48.833 -79.5 -85.5 -104.5s-79.667 -37.5 -129 -37.5zM290.997 53.999c32 0 60.667 8 86 24s45.166 37.833 59.499 65.5s21.5 58.5 21.5 92.5c0 34.667 -7.16699 65.667 -21.5 93s-34.166 49 -59.499 65
s-54 24 -86 24s-60.5 -8 -85.5 -24s-44.833 -37.667 -59.5 -65s-22 -58.333 -22 -93c0 -34 7.33301 -64.833 22 -92.5s34.5 -49.5 59.5 -65.5s53.5 -24 85.5 -24z" />
    <glyph glyph-name="ntilde" unicode="&#xf1;" horiz-adv-x="552" 
d="M75 0l0.000976562 488.002h73v-79c18.667 29.333 41 51.166 67 65.499s55.333 21.5 88 21.5c35.333 0 66.166 -7.5 92.499 -22.5s47 -36 62 -63s22.5 -58.5 22.5 -94.5v-316h-73v295c0 43.333 -11.833 77.5 -35.5 102.5s-55.5 37.5 -95.5 37.5
c-26.667 0 -51 -6.33301 -73 -19s-40.333 -31.334 -55 -56.001v-360h-73zM157.001 580.002l-50.9971 10c9.33301 34 22.333 59.833 39 77.5s37 26.5 61 26.5c19.333 0 37.5 -5 54.5 -15s33 -20 48 -30s29.167 -15 42.5 -15c11.333 0 20.166 4.66699 26.499 14
s12.833 26 19.5 50l51 -10c-8.66699 -34 -21.167 -59.833 -37.5 -77.5s-35.833 -26.5 -58.5 -26.5c-18.667 0 -36.334 5 -53.001 15s-32.5 20 -47.5 30s-29.5 15 -43.5 15c-12.667 0 -22.834 -4.83301 -30.501 -14.5s-14.5 -26.167 -20.5 -49.5z" />
    <glyph glyph-name="ograve" unicode="&#xf2;" horiz-adv-x="580" 
d="M291 -8c-45.333 0 -86 11 -122 33s-64.333 52 -85 90s-31 81 -31 129s10.333 91 31 129s49 68 85 90s76.667 33 122 33c44.667 0 84.834 -11 120.501 -33s63.834 -52 84.501 -90s31 -81 31 -129s-10.333 -91 -31 -129s-48.834 -68 -84.501 -90s-75.834 -33 -120.501 -33z
M290 56c32 0 60.333 8.16699 85 24.5s44.167 38.833 58.5 67.5s21.5 60.667 21.5 96c0 36 -7.16699 68.167 -21.5 96.5s-33.833 50.666 -58.5 66.999s-53 24.5 -85 24.5s-60.333 -8.16699 -85 -24.5s-44.167 -38.666 -58.5 -66.999s-21.5 -60.5 -21.5 -96.5
c0 -35.333 7.16699 -67.333 21.5 -96s33.833 -51.167 58.5 -67.5s53 -24.5 85 -24.5zM284 584l-144 122h103l112 -122h-71z" />
    <glyph glyph-name="oacute" unicode="&#xf3;" horiz-adv-x="580" 
d="M291 -8c-45.333 0 -86 11 -122 33s-64.333 52 -85 90s-31 81 -31 129s10.333 91 31 129s49 68 85 90s76.667 33 122 33c44.667 0 84.834 -11 120.501 -33s63.834 -52 84.501 -90s31 -81 31 -129s-10.333 -91 -31 -129s-48.834 -68 -84.501 -90s-75.834 -33 -120.501 -33z
M290 56c32 0 60.333 8.16699 85 24.5s44.167 38.833 58.5 67.5s21.5 60.667 21.5 96c0 36 -7.16699 68.167 -21.5 96.5s-33.833 50.666 -58.5 66.999s-53 24.5 -85 24.5s-60.333 -8.16699 -85 -24.5s-44.167 -38.666 -58.5 -66.999s-21.5 -60.5 -21.5 -96.5
c0 -35.333 7.16699 -67.333 21.5 -96s33.833 -51.167 58.5 -67.5s53 -24.5 85 -24.5zM226 584l112 122h99l-144 -122h-67z" />
    <glyph glyph-name="ocircumflex" unicode="&#xf4;" horiz-adv-x="580" 
d="M291 -8c-45.333 0 -86 11 -122 33s-64.333 52 -85 90s-31 81 -31 129s10.333 91 31 129s49 68 85 90s76.667 33 122 33c44.667 0 84.834 -11 120.501 -33s63.834 -52 84.501 -90s31 -81 31 -129s-10.333 -91 -31 -129s-48.834 -68 -84.501 -90s-75.834 -33 -120.501 -33z
M290 56c32 0 60.333 8.16699 85 24.5s44.167 38.833 58.5 67.5s21.5 60.667 21.5 96c0 36 -7.16699 68.167 -21.5 96.5s-33.833 50.666 -58.5 66.999s-53 24.5 -85 24.5s-60.333 -8.16699 -85 -24.5s-44.167 -38.666 -58.5 -66.999s-21.5 -60.5 -21.5 -96.5
c0 -35.333 7.16699 -67.333 21.5 -96s33.833 -51.167 58.5 -67.5s53 -24.5 85 -24.5zM383 579l-94 84l-93 -84h-59l114 127h78l114 -127h-60z" />
    <glyph glyph-name="otilde" unicode="&#xf5;" horiz-adv-x="580" 
d="M291 -8c-45.333 0 -86 11 -122 33s-64.333 52 -85 90s-31 81 -31 129s10.333 91 31 129s49 68 85 90s76.667 33 122 33c44.667 0 84.834 -11 120.501 -33s63.834 -52 84.501 -90s31 -81 31 -129s-10.333 -91 -31 -129s-48.834 -68 -84.501 -90s-75.834 -33 -120.501 -33z
M290 56c32 0 60.333 8.16699 85 24.5s44.167 38.833 58.5 67.5s21.5 60.667 21.5 96c0 36 -7.16699 68.167 -21.5 96.5s-33.833 50.666 -58.5 66.999s-53 24.5 -85 24.5s-60.333 -8.16699 -85 -24.5s-44.167 -38.666 -58.5 -66.999s-21.5 -60.5 -21.5 -96.5
c0 -35.333 7.16699 -67.333 21.5 -96s33.833 -51.167 58.5 -67.5s53 -24.5 85 -24.5zM170 580l-50.9971 10c9.33301 34 22.333 59.833 39 77.5s37 26.5 61 26.5c19.333 0 37.5 -5 54.5 -15s33 -20 48 -30s29.167 -15 42.5 -15c11.333 0 20.166 4.66699 26.499 14
s12.833 26 19.5 50l51 -10c-8.66699 -34 -21.167 -59.833 -37.5 -77.5s-35.833 -26.5 -58.5 -26.5c-18.667 0 -36.334 5 -53.001 15s-32.5 20 -47.5 30s-29.5 15 -43.5 15c-12.667 0 -22.834 -4.83301 -30.501 -14.5s-14.5 -26.167 -20.5 -49.5z" />
    <glyph glyph-name="odieresis" unicode="&#xf6;" horiz-adv-x="580" 
d="M291 -8c-45.333 0 -86 11 -122 33s-64.333 52 -85 90s-31 81 -31 129s10.333 91 31 129s49 68 85 90s76.667 33 122 33c44.667 0 84.834 -11 120.501 -33s63.834 -52 84.501 -90s31 -81 31 -129s-10.333 -91 -31 -129s-48.834 -68 -84.501 -90s-75.834 -33 -120.501 -33z
M290 56c32 0 60.333 8.16699 85 24.5s44.167 38.833 58.5 67.5s21.5 60.667 21.5 96c0 36 -7.16699 68.167 -21.5 96.5s-33.833 50.666 -58.5 66.999s-53 24.5 -85 24.5s-60.333 -8.16699 -85 -24.5s-44.167 -38.666 -58.5 -66.999s-21.5 -60.5 -21.5 -96.5
c0 -35.333 7.16699 -67.333 21.5 -96s33.833 -51.167 58.5 -67.5s53 -24.5 85 -24.5zM202 609c-14.667 0 -27.167 5.16699 -37.5 15.5s-15.5 22.5 -15.5 36.5s5.16699 26.167 15.5 36.5s22.833 15.5 37.5 15.5s27.167 -5.16699 37.5 -15.5s15.5 -22.5 15.5 -36.5
s-5.16699 -26.167 -15.5 -36.5s-22.833 -15.5 -37.5 -15.5zM378 609c-14.667 0 -27.167 5.16699 -37.5 15.5s-15.5 22.5 -15.5 36.5s5.16699 26.167 15.5 36.5s22.833 15.5 37.5 15.5s27.167 -5.16699 37.5 -15.5s15.5 -22.5 15.5 -36.5s-5.16699 -26.167 -15.5 -36.5
s-22.833 -15.5 -37.5 -15.5z" />
    <glyph glyph-name="divide" unicode="&#xf7;" 
d="M300 489c-14.667 0 -27.167 5.16699 -37.5 15.5s-15.5 22.833 -15.5 37.5s5.16699 27.167 15.5 37.5s22.833 15.5 37.5 15.5s27.167 -5.16699 37.5 -15.5s15.5 -22.833 15.5 -37.5s-5.16699 -27.167 -15.5 -37.5s-22.833 -15.5 -37.5 -15.5zM300 121
c-14.667 0 -27.167 5.16699 -37.5 15.5s-15.5 22.833 -15.5 37.5s5.16699 27.167 15.5 37.5s22.833 15.5 37.5 15.5s27.167 -5.16699 37.5 -15.5s15.5 -22.833 15.5 -37.5s-5.16699 -27.167 -15.5 -37.5s-22.833 -15.5 -37.5 -15.5zM102 328v60h396v-60h-396z" />
    <glyph glyph-name="oslash" unicode="&#xf8;" horiz-adv-x="580" 
d="M290 -8c-26.667 0 -51.833 4 -75.5 12s-45.167 19.333 -64.5 34l-32 -38h-61l58 70c-19.333 22.667 -34.5 48.667 -45.5 78s-16.5 61.333 -16.5 96c0 48 10.333 91 31 129s49 68 85 90s76.667 33 122 33c26.667 0 51.834 -4 75.501 -12s45.167 -19.667 64.5 -35l32 39h61
l-59 -71c19.333 -22 34.5 -47.667 45.5 -77s16.5 -61.333 16.5 -96c0 -48 -10.333 -91 -31 -129s-48.834 -68 -84.501 -90s-76.167 -33 -121.5 -33zM161.001 124l227.002 274c-13.333 10.667 -28.333 19 -45 25s-34.334 9 -53.001 9c-32 0 -60.333 -8.16699 -85 -24.5
s-44.167 -38.666 -58.5 -66.999s-21.5 -60.5 -21.5 -96.5c0 -22.667 3.16699 -44.334 9.5 -65.001s15.166 -39 26.499 -55zM290.003 56c32 0 60.334 8.16699 85.001 24.5s44.167 38.833 58.5 67.5s21.5 60.667 21.5 96c0 23.333 -3 45 -9 65s-14.667 38 -26 54l-227 -273
c13.333 -10.667 28.166 -19 44.499 -25s33.833 -9 52.5 -9z" />
    <glyph glyph-name="ugrave" unicode="&#xf9;" horiz-adv-x="552" 
d="M249 -8c-34.667 0 -65.333 7.66895 -92 23.002s-47.5 36.666 -62.5 63.999s-22.5 58.666 -22.5 93.999v315h74v-294c0 -43.333 11.667 -77.666 35 -102.999s55 -38 95 -38c27.333 0 51.833 6.33301 73.5 19s39.834 31 54.501 55v361h73v-488h-73v79
c-18.667 -28.667 -40.834 -50.334 -66.501 -65.001s-55.167 -22 -88.5 -22zM270.001 584.002l-144 122h103l112 -122h-71z" />
    <glyph glyph-name="uacute" unicode="&#xfa;" horiz-adv-x="552" 
d="M249 -8c-34.667 0 -65.333 7.66895 -92 23.002s-47.5 36.666 -62.5 63.999s-22.5 58.666 -22.5 93.999v315h74v-294c0 -43.333 11.667 -77.666 35 -102.999s55 -38 95 -38c27.333 0 51.833 6.33301 73.5 19s39.834 31 54.501 55v361h73v-488h-73v79
c-18.667 -28.667 -40.834 -50.334 -66.501 -65.001s-55.167 -22 -88.5 -22zM212.001 584.002l112 122h99l-144 -122h-67z" />
    <glyph glyph-name="ucircumflex" unicode="&#xfb;" horiz-adv-x="552" 
d="M249 -8c-34.667 0 -65.333 7.66895 -92 23.002s-47.5 36.666 -62.5 63.999s-22.5 58.666 -22.5 93.999v315h74v-294c0 -43.333 11.667 -77.666 35 -102.999s55 -38 95 -38c27.333 0 51.833 6.33301 73.5 19s39.834 31 54.501 55v361h73v-488h-73v79
c-18.667 -28.667 -40.834 -50.334 -66.501 -65.001s-55.167 -22 -88.5 -22zM369.001 579.002l-94 84l-93 -84h-59l114 127h78l114 -127h-60z" />
    <glyph glyph-name="udieresis" unicode="&#xfc;" horiz-adv-x="552" 
d="M249 -8c-34.667 0 -65.333 7.66895 -92 23.002s-47.5 36.666 -62.5 63.999s-22.5 58.666 -22.5 93.999v315h74v-294c0 -43.333 11.667 -77.666 35 -102.999s55 -38 95 -38c27.333 0 51.833 6.33301 73.5 19s39.834 31 54.501 55v361h73v-488h-73v79
c-18.667 -28.667 -40.834 -50.334 -66.501 -65.001s-55.167 -22 -88.5 -22zM188.001 609.002c-14.667 0 -27.167 5.16699 -37.5 15.5s-15.5 22.5 -15.5 36.5s5.16699 26.167 15.5 36.5s22.833 15.5 37.5 15.5s27.167 -5.16699 37.5 -15.5s15.5 -22.5 15.5 -36.5
s-5.16699 -26.167 -15.5 -36.5s-22.833 -15.5 -37.5 -15.5zM364.001 609.002c-14.667 0 -27.167 5.16699 -37.5 15.5s-15.5 22.5 -15.5 36.5s5.16699 26.167 15.5 36.5s22.833 15.5 37.5 15.5s27.167 -5.16699 37.5 -15.5s15.5 -22.5 15.5 -36.5
s-5.16699 -26.167 -15.5 -36.5s-22.833 -15.5 -37.5 -15.5z" />
    <glyph glyph-name="yacute" unicode="&#xfd;" horiz-adv-x="498" 
d="M96 -219c-15.333 0 -30.9971 2.33301 -46.9971 7v65c6.66699 -1.33301 13.667 -2.33301 21 -3s13.666 -1 18.999 -1c18.667 0 34.167 5 46.5 15s22.833 25.667 31.5 47l36 89l-188 488h81l148 -401l157 401h81l-246 -599c-10.667 -26 -22.334 -47 -35.001 -63
s-27.334 -27.5 -44.001 -34.5s-37 -10.5 -61 -10.5zM185.003 584l112 122h99l-144 -122h-67z" />
    <glyph glyph-name="thorn" unicode="&#xfe;" horiz-adv-x="583" 
d="M75 -209l-0.00488281 931.001l73 15v-317c18.667 23.333 41.334 41.5 68.001 54.5s56.334 19.5 89.001 19.5c42.667 0 80.834 -11.167 114.501 -33.5s60.5 -52.333 80.5 -90s30 -79.834 30 -126.501s-10.167 -89 -30.5 -127s-47.666 -68.167 -81.999 -90.5
s-73.166 -33.5 -116.499 -33.5c-30.667 0 -59 5.83301 -85 17.5s-48.667 28.5 -68 50.5v-270h-73zM286.995 430.001c-28.667 0 -55.168 -5.83105 -79.501 -17.498s-44.166 -28.167 -59.499 -49.5v-239c16 -21.333 36.167 -38 60.5 -50s50.5 -18 78.5 -18
c32.667 0 61.834 8.16699 87.501 24.5s46 38.666 61 66.999s22.5 60.166 22.5 95.499c0 36 -7.5 68 -22.5 96s-35.333 50.167 -61 66.5s-54.834 24.5 -87.501 24.5z" />
    <glyph glyph-name="ydieresis" unicode="&#xff;" horiz-adv-x="498" 
d="M96 -219c-15.333 0 -30.9971 2.33301 -46.9971 7v65c6.66699 -1.33301 13.667 -2.33301 21 -3s13.666 -1 18.999 -1c18.667 0 34.167 5 46.5 15s22.833 25.667 31.5 47l36 89l-188 488h81l148 -401l157 401h81l-246 -599c-10.667 -26 -22.334 -47 -35.001 -63
s-27.334 -27.5 -44.001 -34.5s-37 -10.5 -61 -10.5zM161.003 609c-14.667 0 -27.167 5.16699 -37.5 15.5s-15.5 22.5 -15.5 36.5s5.16699 26.167 15.5 36.5s22.833 15.5 37.5 15.5s27.167 -5.16699 37.5 -15.5s15.5 -22.5 15.5 -36.5s-5.16699 -26.167 -15.5 -36.5
s-22.833 -15.5 -37.5 -15.5zM337.003 609c-14.667 0 -27.167 5.16699 -37.5 15.5s-15.5 22.5 -15.5 36.5s5.16699 26.167 15.5 36.5s22.833 15.5 37.5 15.5s27.167 -5.16699 37.5 -15.5s15.5 -22.5 15.5 -36.5s-5.16699 -26.167 -15.5 -36.5s-22.833 -15.5 -37.5 -15.5z" />
    <glyph glyph-name="Amacron" unicode="&#x100;" horiz-adv-x="660" 
d="M9 0l277 700h92l273 -700h-83l-83 220h-312l-83 -220h-81zM197 281h265l-133 349zM196 823v52h272v-52h-272z" />
    <glyph glyph-name="amacron" unicode="&#x101;" horiz-adv-x="526" 
d="M226 -9c-34.667 0 -65.3311 6.33496 -91.998 19.002s-47.5 30.167 -62.5 52.5s-22.5 48.166 -22.5 77.499s7.66699 54.833 23 76.5s36.666 38.5 63.999 50.5s59.333 18 96 18c28 0 54.5 -3 79.5 -9s48.167 -15.667 69.5 -29v67c0 40 -10.667 70.167 -32 90.5
s-52.666 30.5 -93.999 30.5c-22.667 0 -45.834 -3.33301 -69.501 -10s-49.834 -17.334 -78.501 -32.001l-27 56c65.333 31.333 126.666 47 183.999 47c60.667 0 107.334 -14.833 140.001 -44.5s49 -72.167 49 -127.5v-324h-72v57c-21.333 -22 -45 -38.5 -71 -49.5
s-54 -16.5 -84 -16.5zM119.003 142.002c0 -28.667 11.167 -51.668 33.5 -69.001s51.833 -26 88.5 -26c27.333 0 52.5 4.66699 75.5 14s44.5 23.333 64.5 42v94c-20.667 12 -42 20.833 -64 26.5s-46.667 8.5 -74 8.5c-37.333 0 -67.333 -8.16699 -90 -24.5
s-34 -38.166 -34 -65.499zM128.003 611.001v52h272v-52h-272z" />
    <glyph glyph-name="Abreve" unicode="&#x102;" horiz-adv-x="660" 
d="M9 0l277 700h92l273 -700h-83l-83 220h-312l-83 -220h-81zM197 281h265l-133 349zM333 791c-40.667 0 -74.998 11.167 -102.998 33.5s-46.667 53.166 -56 92.499l51 12c15.333 -61.333 51.333 -92 108 -92c27.333 0 50.166 8 68.499 24s31.166 38.667 38.499 68l50 -12
c-8.66699 -39.333 -27 -70.166 -55 -92.499s-62 -33.5 -102 -33.5z" />
    <glyph glyph-name="abreve" unicode="&#x103;" horiz-adv-x="526" 
d="M226 -9c-34.667 0 -65.3311 6.33496 -91.998 19.002s-47.5 30.167 -62.5 52.5s-22.5 48.166 -22.5 77.499s7.66699 54.833 23 76.5s36.666 38.5 63.999 50.5s59.333 18 96 18c28 0 54.5 -3 79.5 -9s48.167 -15.667 69.5 -29v67c0 40 -10.667 70.167 -32 90.5
s-52.666 30.5 -93.999 30.5c-22.667 0 -45.834 -3.33301 -69.501 -10s-49.834 -17.334 -78.501 -32.001l-27 56c65.333 31.333 126.666 47 183.999 47c60.667 0 107.334 -14.833 140.001 -44.5s49 -72.167 49 -127.5v-324h-72v57c-21.333 -22 -45 -38.5 -71 -49.5
s-54 -16.5 -84 -16.5zM119.003 142.002c0 -28.667 11.167 -51.668 33.5 -69.001s51.833 -26 88.5 -26c27.333 0 52.5 4.66699 75.5 14s44.5 23.333 64.5 42v94c-20.667 12 -42 20.833 -64 26.5s-46.667 8.5 -74 8.5c-37.333 0 -67.333 -8.16699 -90 -24.5
s-34 -38.166 -34 -65.499zM265.003 579.001c-40.667 0 -74.998 11.167 -102.998 33.5s-46.667 53.166 -56 92.499l51 12c15.333 -61.333 51.333 -92 108 -92c27.333 0 50.166 8 68.499 24s31.166 38.667 38.499 68l50 -12c-8.66699 -39.333 -27 -70.166 -55 -92.499
s-62 -33.5 -102 -33.5z" />
    <glyph glyph-name="Aogonek" unicode="&#x104;" horiz-adv-x="660" 
d="M603 -231c-32 0 -57.6689 8.33398 -77.002 25.001s-29 38.667 -29 66c0 24.667 7.83301 48 23.5 70s40.834 45.333 75.501 70h-28l-83 220h-312l-83 -220h-81l277 700h92l273 -700c-36 -23.333 -62.333 -45.333 -79 -66s-25 -41.334 -25 -62.001c0 -18 6 -32 18 -42
s28.333 -15 49 -15c8.66699 0 17.334 1 26.001 3s16 5 22 9l14 -39c-20 -12.667 -44.333 -19 -73 -19zM196.998 281.001h265l-133 349z" />
    <glyph glyph-name="aogonek" unicode="&#x105;" horiz-adv-x="526" 
d="M405 -231c-32 0 -57.666 8.33594 -76.999 25.0029s-29 38.667 -29 66c0 24.667 7.83301 48 23.5 70s40.834 45.333 75.501 70h-17v57c-21.333 -22 -45 -38.5 -71 -49.5s-54 -16.5 -84 -16.5c-34.667 0 -65.334 6.33301 -92.001 19s-47.5 30.167 -62.5 52.5
s-22.5 48.166 -22.5 77.499s7.66699 54.833 23 76.5s36.666 38.5 63.999 50.5s59.333 18 96 18c28 0 54.5 -3 79.5 -9s48.167 -15.667 69.5 -29v67c0 40 -10.667 70.167 -32 90.5s-52.666 30.5 -93.999 30.5c-22.667 0 -45.834 -3.33301 -69.501 -10
s-49.834 -17.334 -78.501 -32.001l-27 56c65.333 31.333 126.666 47 183.999 47c60.667 0 107.334 -14.833 140.001 -44.5s49 -72.167 49 -127.5v-324c-36 -23.333 -62.333 -45.333 -79 -66s-25 -41.334 -25 -62.001c0 -18 6 -32 18 -42s28.333 -15 49 -15
c8.66699 0 17.334 1 26.001 3s16 5 22 9l14 -39c-20 -12.667 -44.333 -19 -73 -19zM241.001 47.0029c27.333 0 52.5 4.66602 75.5 13.999s44.5 23.333 64.5 42v94c-20.667 12 -42 20.833 -64 26.5s-46.667 8.5 -74 8.5c-37.333 0 -67.333 -8.16699 -90 -24.5
s-34 -38.166 -34 -65.499c0 -28.667 11.167 -51.667 33.5 -69s51.833 -26 88.5 -26z" />
    <glyph glyph-name="Cacute" unicode="&#x106;" horiz-adv-x="726" 
d="M412 -11c-50 0 -96.5 9.16699 -139.5 27.5s-80.833 44 -113.5 77s-58 71.333 -76 115s-27 90.834 -27 141.501s9 97.834 27 141.501s43.333 82 76 115s70.5 58.667 113.5 77s89.5 27.5 139.5 27.5c34.667 0 67.834 -4.5 99.501 -13.5s61.5 -22 89.5 -39
s53 -37.833 75 -62.5l-51 -53c-26 31.333 -57.833 55.5 -95.5 72.5s-76.834 25.5 -117.501 25.5c-39.333 0 -76 -7.33301 -110 -22s-63.5 -35.334 -88.5 -62.001s-44.5 -57.5 -58.5 -92.5s-21 -73.167 -21 -114.5c0 -40.667 7 -78.667 21 -114s33.5 -66.333 58.5 -93
s54.5 -47.334 88.5 -62.001s70.667 -22 110 -22c40.667 0 79.834 8.66699 117.501 26s69.5 41.333 95.5 72l51 -53c-22 -24.667 -47 -45.5 -75 -62.5s-57.833 -30 -89.5 -39s-64.834 -13.5 -99.501 -13.5zM343 796l112 122h99l-144 -122h-67z" />
    <glyph glyph-name="cacute" unicode="&#x107;" horiz-adv-x="509" 
d="M294 -8c-45.333 0 -86.166 11.168 -122.499 33.501s-65.166 52.666 -86.499 90.999s-32 80.833 -32 127.5c0 47.333 10.667 90 32 128s50.166 68.167 86.499 90.5s77.166 33.5 122.499 33.5c36 0 70.333 -6.66699 103 -20s61 -32 85 -56l-47 -51
c-17.333 19.333 -38.333 34.333 -63 45s-49.667 16 -75 16c-32 0 -60.833 -8.33301 -86.5 -25s-46.167 -39 -61.5 -67s-23 -59.333 -23 -94s7.66699 -66 23 -94s35.833 -50.333 61.5 -67s54.5 -25 86.5 -25c25.333 0 50.333 5.5 75 16.5s45.667 25.833 63 44.5l47 -51
c-24 -24 -52.333 -42.667 -85 -56s-67 -20 -103 -20zM231 584.001l112 122h99l-144 -122h-67z" />
    <glyph glyph-name="Ccircumflex" unicode="&#x108;" horiz-adv-x="726" 
d="M412 -11c-50 0 -96.5 9.16699 -139.5 27.5s-80.833 44 -113.5 77s-58 71.333 -76 115s-27 90.834 -27 141.501s9 97.834 27 141.501s43.333 82 76 115s70.5 58.667 113.5 77s89.5 27.5 139.5 27.5c34.667 0 67.834 -4.5 99.501 -13.5s61.5 -22 89.5 -39
s53 -37.833 75 -62.5l-51 -53c-26 31.333 -57.833 55.5 -95.5 72.5s-76.834 25.5 -117.501 25.5c-39.333 0 -76 -7.33301 -110 -22s-63.5 -35.334 -88.5 -62.001s-44.5 -57.5 -58.5 -92.5s-21 -73.167 -21 -114.5c0 -40.667 7 -78.667 21 -114s33.5 -66.333 58.5 -93
s54.5 -47.334 88.5 -62.001s70.667 -22 110 -22c40.667 0 79.834 8.66699 117.501 26s69.5 41.333 95.5 72l51 -53c-22 -24.667 -47 -45.5 -75 -62.5s-57.833 -30 -89.5 -39s-64.834 -13.5 -99.501 -13.5zM500 791l-94 84l-93 -84h-59l114 127h78l114 -127h-60z" />
    <glyph glyph-name="ccircumflex" unicode="&#x109;" horiz-adv-x="509" 
d="M294 -8c-45.333 0 -86.166 11.168 -122.499 33.501s-65.166 52.666 -86.499 90.999s-32 80.833 -32 127.5c0 47.333 10.667 90 32 128s50.166 68.167 86.499 90.5s77.166 33.5 122.499 33.5c36 0 70.333 -6.66699 103 -20s61 -32 85 -56l-47 -51
c-17.333 19.333 -38.333 34.333 -63 45s-49.667 16 -75 16c-32 0 -60.833 -8.33301 -86.5 -25s-46.167 -39 -61.5 -67s-23 -59.333 -23 -94s7.66699 -66 23 -94s35.833 -50.333 61.5 -67s54.5 -25 86.5 -25c25.333 0 50.333 5.5 75 16.5s45.667 25.833 63 44.5l47 -51
c-24 -24 -52.333 -42.667 -85 -56s-67 -20 -103 -20zM388 579.001l-94 84l-93 -84h-59l114 127h78l114 -127h-60z" />
    <glyph glyph-name="Cdotaccent" unicode="&#x10a;" horiz-adv-x="726" 
d="M412 -11c-50 0 -96.5 9.16699 -139.5 27.5s-80.833 44 -113.5 77s-58 71.333 -76 115s-27 90.834 -27 141.501s9 97.834 27 141.501s43.333 82 76 115s70.5 58.667 113.5 77s89.5 27.5 139.5 27.5c34.667 0 67.834 -4.5 99.501 -13.5s61.5 -22 89.5 -39
s53 -37.833 75 -62.5l-51 -53c-26 31.333 -57.833 55.5 -95.5 72.5s-76.834 25.5 -117.501 25.5c-39.333 0 -76 -7.33301 -110 -22s-63.5 -35.334 -88.5 -62.001s-44.5 -57.5 -58.5 -92.5s-21 -73.167 -21 -114.5c0 -40.667 7 -78.667 21 -114s33.5 -66.333 58.5 -93
s54.5 -47.334 88.5 -62.001s70.667 -22 110 -22c40.667 0 79.834 8.66699 117.501 26s69.5 41.333 95.5 72l51 -53c-22 -24.667 -47 -45.5 -75 -62.5s-57.833 -30 -89.5 -39s-64.834 -13.5 -99.501 -13.5zM407 821c-14.667 0 -27.167 5.16699 -37.5 15.5
s-15.5 22.5 -15.5 36.5s5.16699 26.167 15.5 36.5s22.833 15.5 37.5 15.5s27.167 -5.16699 37.5 -15.5s15.5 -22.5 15.5 -36.5s-5.16699 -26.167 -15.5 -36.5s-22.833 -15.5 -37.5 -15.5z" />
    <glyph glyph-name="cdotaccent" unicode="&#x10b;" horiz-adv-x="509" 
d="M294 -8c-45.333 0 -86.166 11.168 -122.499 33.501s-65.166 52.666 -86.499 90.999s-32 80.833 -32 127.5c0 47.333 10.667 90 32 128s50.166 68.167 86.499 90.5s77.166 33.5 122.499 33.5c36 0 70.333 -6.66699 103 -20s61 -32 85 -56l-47 -51
c-17.333 19.333 -38.333 34.333 -63 45s-49.667 16 -75 16c-32 0 -60.833 -8.33301 -86.5 -25s-46.167 -39 -61.5 -67s-23 -59.333 -23 -94s7.66699 -66 23 -94s35.833 -50.333 61.5 -67s54.5 -25 86.5 -25c25.333 0 50.333 5.5 75 16.5s45.667 25.833 63 44.5l47 -51
c-24 -24 -52.333 -42.667 -85 -56s-67 -20 -103 -20zM295 609.001c-14.667 0 -27.167 5.16699 -37.5 15.5s-15.5 22.5 -15.5 36.5s5.16699 26.167 15.5 36.5s22.833 15.5 37.5 15.5s27.167 -5.16699 37.5 -15.5s15.5 -22.5 15.5 -36.5s-5.16699 -26.167 -15.5 -36.5
s-22.833 -15.5 -37.5 -15.5z" />
    <glyph glyph-name="Ccaron" unicode="&#x10c;" horiz-adv-x="726" 
d="M412 -11c-50 0 -96.5 9.16699 -139.5 27.5s-80.833 44 -113.5 77s-58 71.333 -76 115s-27 90.834 -27 141.501s9 97.834 27 141.501s43.333 82 76 115s70.5 58.667 113.5 77s89.5 27.5 139.5 27.5c34.667 0 67.834 -4.5 99.501 -13.5s61.5 -22 89.5 -39
s53 -37.833 75 -62.5l-51 -53c-26 31.333 -57.833 55.5 -95.5 72.5s-76.834 25.5 -117.501 25.5c-39.333 0 -76 -7.33301 -110 -22s-63.5 -35.334 -88.5 -62.001s-44.5 -57.5 -58.5 -92.5s-21 -73.167 -21 -114.5c0 -40.667 7 -78.667 21 -114s33.5 -66.333 58.5 -93
s54.5 -47.334 88.5 -62.001s70.667 -22 110 -22c40.667 0 79.834 8.66699 117.501 26s69.5 41.333 95.5 72l51 -53c-22 -24.667 -47 -45.5 -75 -62.5s-57.833 -30 -89.5 -39s-64.834 -13.5 -99.501 -13.5zM315 922l92 -83l92 83h61l-114 -127h-78l-114 127h61z" />
    <glyph glyph-name="ccaron" unicode="&#x10d;" horiz-adv-x="509" 
d="M294 -8c-45.333 0 -86.166 11.168 -122.499 33.501s-65.166 52.666 -86.499 90.999s-32 80.833 -32 127.5c0 47.333 10.667 90 32 128s50.166 68.167 86.499 90.5s77.166 33.5 122.499 33.5c36 0 70.333 -6.66699 103 -20s61 -32 85 -56l-47 -51
c-17.333 19.333 -38.333 34.333 -63 45s-49.667 16 -75 16c-32 0 -60.833 -8.33301 -86.5 -25s-46.167 -39 -61.5 -67s-23 -59.333 -23 -94s7.66699 -66 23 -94s35.833 -50.333 61.5 -67s54.5 -25 86.5 -25c25.333 0 50.333 5.5 75 16.5s45.667 25.833 63 44.5l47 -51
c-24 -24 -52.333 -42.667 -85 -56s-67 -20 -103 -20zM203 710.001l92 -83l92 83h61l-114 -127h-78l-114 127h61z" />
    <glyph glyph-name="Dcaron" unicode="&#x10e;" horiz-adv-x="728" 
d="M166 69l160 0.00195312c50.667 0 96 12.333 136 37s71.833 58.167 95.5 100.5s35.5 90.166 35.5 143.499s-11.833 101.166 -35.5 143.499s-55.5 75.833 -95.5 100.5s-85.333 37 -136 37h-160v-562zM89 0.00195312v700.002h232c51.333 0 98.5 -8.83301 141.5 -26.5
s80 -42.334 111 -74.001s55 -68.667 72 -111s25.5 -88.5 25.5 -138.5s-8.5 -96.167 -25.5 -138.5s-41 -79.333 -72 -111s-68 -56.334 -111 -74.001s-90.167 -26.5 -141.5 -26.5h-232zM262 922.004l92 -83l92 83h61l-114 -127h-78l-114 127h61z" />
    <glyph glyph-name="dcaron" unicode="&#x10f;" horiz-adv-x="660" 
d="M278 -7c-42 0 -80 11.165 -114 33.498s-61 52.333 -81 90s-30 79.834 -30 126.501c0 47.333 10.167 89.833 30.5 127.5s47.833 67.667 82.5 90s73.334 33.5 116.001 33.5c30 0 58 -5.83301 84 -17.5s48.667 -28.5 68 -50.5v296l73 15v-737h-73v65
c-18.667 -23.333 -41.334 -41.166 -68.001 -53.499s-56 -18.5 -88 -18.5zM296 56.998c28.667 0 54.999 5.66406 78.999 16.9971s43.667 27.333 59 48v242c-16 20.667 -36.167 36.834 -60.5 48.501s-50.166 17.5 -77.499 17.5c-32.667 0 -61.834 -8 -87.501 -24
s-46 -38 -61 -66s-22.5 -60 -22.5 -96c0 -35.333 7.5 -67.166 22.5 -95.499s35.333 -50.666 61 -66.999s54.834 -24.5 87.501 -24.5zM577.999 526.995l5 195l76 15l-25 -210h-56z" />
    <glyph glyph-name="Dcroat" unicode="&#x110;" horiz-adv-x="760" 
d="M121 0v322.002h-96v61h96v317h232c51.333 0 98.5 -8.83301 141.5 -26.5s80 -42.334 111 -74.001s55 -68.667 72 -111s25.5 -88.5 25.5 -138.5s-8.5 -96.167 -25.5 -138.5s-41 -79.333 -72 -111s-68 -56.334 -111 -74.001s-90.167 -26.5 -141.5 -26.5h-232zM198 69.002
l160 0.00195312c50.667 0 96 12.333 136 37s71.833 58.167 95.5 100.5s35.5 90.166 35.5 143.499s-11.833 101.166 -35.5 143.499s-55.5 75.833 -95.5 100.5s-85.333 37 -136 37h-160v-248h166v-61h-166v-253z" />
    <glyph glyph-name="dcroat" unicode="&#x111;" horiz-adv-x="588" 
d="M278 -7c-42 0 -80 11.165 -114 33.498s-61 52.333 -81 90s-30 79.834 -30 126.501c0 47.333 10.167 89.833 30.5 127.5s47.833 67.667 82.5 90s73.334 33.5 116.001 33.5c30 0 58 -5.83301 84 -17.5s48.667 -28.5 68 -50.5v147h-146v54h146v95l73 15v-110h61v-54h-61
v-573h-73v65c-18.667 -23.333 -41.334 -41.166 -68.001 -53.499s-56 -18.5 -88 -18.5zM296 56.998c28.667 0 54.999 5.66406 78.999 16.9971s43.667 27.333 59 48v242c-16 20.667 -36.167 36.834 -60.5 48.501s-50.166 17.5 -77.499 17.5c-32.667 0 -61.834 -8 -87.501 -24
s-46 -38 -61 -66s-22.5 -60 -22.5 -96c0 -35.333 7.5 -67.166 22.5 -95.499s35.333 -50.666 61 -66.999s54.834 -24.5 87.501 -24.5z" />
    <glyph glyph-name="Emacron" unicode="&#x112;" horiz-adv-x="619" 
d="M89 0v700h478v-68h-401v-245h278v-67h-278v-252h405v-68h-482zM193 823v52h272v-52h-272z" />
    <glyph glyph-name="emacron" unicode="&#x113;" horiz-adv-x="557" 
d="M295 -10c-45.333 0 -86.3389 11.167 -123.006 33.5s-65.667 52.666 -87 90.999s-32 81.5 -32 129.5s10.167 91 30.5 129s47.833 68 82.5 90s73.667 33 117 33c42.667 0 80.834 -10.833 114.501 -32.5s60.334 -51 80.001 -88s29.5 -78.833 29.5 -125.5v-22h-383
c2.66699 -33.333 11.834 -63.166 27.501 -89.499s36.334 -47 62.001 -62s53.834 -22.5 84.501 -22.5c25.333 0 49.833 4.5 73.5 13.5s43.834 21.167 60.501 36.5l46 -49c-28 -22 -57 -38.333 -87 -49s-62 -16 -96 -16zM125.994 280h309
c-3.33301 29.333 -12.166 55.5 -26.499 78.5s-32.333 41.167 -54 54.5s-45.834 20 -72.501 20s-51 -6.5 -73 -19.5s-40.167 -31 -54.5 -54s-23.833 -49.5 -28.5 -79.5zM150.994 611v52h272v-52h-272z" />
    <glyph glyph-name="Ebreve" unicode="&#x114;" horiz-adv-x="619" 
d="M89 0v700h478v-68h-401v-245h278v-67h-278v-252h405v-68h-482zM330 791c-40.667 0 -74.998 11.167 -102.998 33.5s-46.667 53.166 -56 92.499l51 12c15.333 -61.333 51.333 -92 108 -92c27.333 0 50.166 8 68.499 24s31.166 38.667 38.499 68l50 -12
c-8.66699 -39.333 -27 -70.166 -55 -92.499s-62 -33.5 -102 -33.5z" />
    <glyph glyph-name="ebreve" unicode="&#x115;" horiz-adv-x="557" 
d="M295 -10c-45.333 0 -86.3389 11.167 -123.006 33.5s-65.667 52.666 -87 90.999s-32 81.5 -32 129.5s10.167 91 30.5 129s47.833 68 82.5 90s73.667 33 117 33c42.667 0 80.834 -10.833 114.501 -32.5s60.334 -51 80.001 -88s29.5 -78.833 29.5 -125.5v-22h-383
c2.66699 -33.333 11.834 -63.166 27.501 -89.499s36.334 -47 62.001 -62s53.834 -22.5 84.501 -22.5c25.333 0 49.833 4.5 73.5 13.5s43.834 21.167 60.501 36.5l46 -49c-28 -22 -57 -38.333 -87 -49s-62 -16 -96 -16zM125.994 280h309
c-3.33301 29.333 -12.166 55.5 -26.499 78.5s-32.333 41.167 -54 54.5s-45.834 20 -72.501 20s-51 -6.5 -73 -19.5s-40.167 -31 -54.5 -54s-23.833 -49.5 -28.5 -79.5zM287.994 579c-40.667 0 -74.998 11.167 -102.998 33.5s-46.667 53.166 -56 92.499l51 12
c15.333 -61.333 51.333 -92 108 -92c27.333 0 50.166 8 68.499 24s31.166 38.667 38.499 68l50 -12c-8.66699 -39.333 -27 -70.166 -55 -92.499s-62 -33.5 -102 -33.5z" />
    <glyph glyph-name="Edotaccent" unicode="&#x116;" horiz-adv-x="619" 
d="M89 0v700h478v-68h-401v-245h278v-67h-278v-252h405v-68h-482zM329 821c-14.667 0 -27.167 5.16699 -37.5 15.5s-15.5 22.5 -15.5 36.5s5.16699 26.167 15.5 36.5s22.833 15.5 37.5 15.5s27.167 -5.16699 37.5 -15.5s15.5 -22.5 15.5 -36.5s-5.16699 -26.167 -15.5 -36.5
s-22.833 -15.5 -37.5 -15.5z" />
    <glyph glyph-name="edotaccent" unicode="&#x117;" horiz-adv-x="557" 
d="M295 -10c-45.333 0 -86.3389 11.167 -123.006 33.5s-65.667 52.666 -87 90.999s-32 81.5 -32 129.5s10.167 91 30.5 129s47.833 68 82.5 90s73.667 33 117 33c42.667 0 80.834 -10.833 114.501 -32.5s60.334 -51 80.001 -88s29.5 -78.833 29.5 -125.5v-22h-383
c2.66699 -33.333 11.834 -63.166 27.501 -89.499s36.334 -47 62.001 -62s53.834 -22.5 84.501 -22.5c25.333 0 49.833 4.5 73.5 13.5s43.834 21.167 60.501 36.5l46 -49c-28 -22 -57 -38.333 -87 -49s-62 -16 -96 -16zM125.994 280h309
c-3.33301 29.333 -12.166 55.5 -26.499 78.5s-32.333 41.167 -54 54.5s-45.834 20 -72.501 20s-51 -6.5 -73 -19.5s-40.167 -31 -54.5 -54s-23.833 -49.5 -28.5 -79.5zM286.994 609c-14.667 0 -27.167 5.16699 -37.5 15.5s-15.5 22.5 -15.5 36.5s5.16699 26.167 15.5 36.5
s22.833 15.5 37.5 15.5s27.167 -5.16699 37.5 -15.5s15.5 -22.5 15.5 -36.5s-5.16699 -26.167 -15.5 -36.5s-22.833 -15.5 -37.5 -15.5z" />
    <glyph glyph-name="Eogonek" unicode="&#x118;" horiz-adv-x="619" 
d="M596 -212c-20 -12.667 -44.335 -18.999 -73.002 -18.999c-32 0 -57.667 8.33301 -77 25s-29 38.667 -29 66c0 24.667 7.83301 48 23.5 70s40.834 45.333 75.501 70h-427v700h478v-68h-401v-245h278v-67h-278v-252h405v-68c-36 -23.333 -62.333 -45.333 -79 -66
s-25 -41.334 -25 -62.001c0 -18 6 -32 18 -42s28.333 -15 49 -15c8.66699 0 17.334 1 26.001 3s16 5 22 9z" />
    <glyph glyph-name="eogonek" unicode="&#x119;" horiz-adv-x="557" 
d="M323 -231c-32 0 -57.6738 8.33398 -77.0068 25.001s-29 38.667 -29 66c0 23.333 6.66699 45.166 20 65.499s35 41.833 65 64.5c-46 -1.33301 -87.833 9 -125.5 31s-67.667 52.5 -90 91.5s-33.5 82.833 -33.5 131.5c0 48 10.167 91 30.5 129s47.833 68 82.5 90
s73.667 33 117 33c42.667 0 80.834 -10.833 114.501 -32.5s60.334 -51 80.001 -88s29.5 -78.833 29.5 -125.5v-22h-383c2.66699 -33.333 11.834 -63.166 27.501 -89.499s36.334 -47 62.001 -62s53.834 -22.5 84.501 -22.5c25.333 0 49.833 4.5 73.5 13.5
s43.834 21.167 60.501 36.5l46 -49c-33.333 -26.667 -69.333 -45 -108 -55c-35.333 -23.333 -61.333 -45.333 -78 -66s-25 -41.334 -25 -62.001c0 -18 6 -32 18 -42s28.333 -15 49 -15c8.66699 0 17.334 1 26.001 3s16 5 22 9l14 -39c-20 -12.667 -44.333 -19 -73 -19z
M125.993 280.001h309c-3.33301 29.333 -12.166 55.5 -26.499 78.5s-32.333 41.167 -54 54.5s-45.834 20 -72.501 20s-51 -6.5 -73 -19.5s-40.167 -31 -54.5 -54s-23.833 -49.5 -28.5 -79.5z" />
    <glyph glyph-name="Ecaron" unicode="&#x11a;" horiz-adv-x="619" 
d="M89 0v700h478v-68h-401v-245h278v-67h-278v-252h405v-68h-482zM237 922l92 -83l92 83h61l-114 -127h-78l-114 127h61z" />
    <glyph glyph-name="ecaron" unicode="&#x11b;" horiz-adv-x="557" 
d="M295 -10c-45.333 0 -86.3389 11.167 -123.006 33.5s-65.667 52.666 -87 90.999s-32 81.5 -32 129.5s10.167 91 30.5 129s47.833 68 82.5 90s73.667 33 117 33c42.667 0 80.834 -10.833 114.501 -32.5s60.334 -51 80.001 -88s29.5 -78.833 29.5 -125.5v-22h-383
c2.66699 -33.333 11.834 -63.166 27.501 -89.499s36.334 -47 62.001 -62s53.834 -22.5 84.501 -22.5c25.333 0 49.833 4.5 73.5 13.5s43.834 21.167 60.501 36.5l46 -49c-28 -22 -57 -38.333 -87 -49s-62 -16 -96 -16zM125.994 280h309
c-3.33301 29.333 -12.166 55.5 -26.499 78.5s-32.333 41.167 -54 54.5s-45.834 20 -72.501 20s-51 -6.5 -73 -19.5s-40.167 -31 -54.5 -54s-23.833 -49.5 -28.5 -79.5zM194.994 710l92 -83l92 83h61l-114 -127h-78l-114 127h61z" />
    <glyph glyph-name="Gcircumflex" unicode="&#x11c;" horiz-adv-x="799" 
d="M410 -11c-50 0 -96.333 9.33496 -139 28.002s-80.167 44.5 -112.5 77.5s-57.5 71.333 -75.5 115s-27 90.5 -27 140.5s9 96.833 27 140.5s43.167 82 75.5 115s69.833 58.833 112.5 77.5s89 28 139 28c53.333 0 103.833 -9.66699 151.5 -29s88.167 -48 121.5 -86l-52 -52
c-26 31.333 -58.667 55.333 -98 72s-80.333 25 -123 25c-39.333 0 -75.666 -7.5 -108.999 -22.5s-62.5 -35.667 -87.5 -62s-44.5 -57.166 -58.5 -92.499s-21 -73.333 -21 -114s7 -78.667 21 -114s33.5 -66.166 58.5 -92.499s54.167 -47 87.5 -62s69.666 -22.5 108.999 -22.5
c46.667 0 88.5 10.333 125.5 31s67 49.167 90 85.5s36.5 77.166 40.5 122.499h-236v68h314v-31c0 -48.667 -8.33301 -93.834 -25 -135.501s-40.167 -78.334 -70.5 -110.001s-65.833 -56.334 -106.5 -74.001s-84.667 -26.5 -132 -26.5zM502 791.002l-94 84l-93 -84h-59
l114 127h78l114 -127h-60z" />
    <glyph glyph-name="gcircumflex" unicode="&#x11d;" horiz-adv-x="582" 
d="M301 -219c-32.667 0 -65.501 4.49707 -98.501 13.4971s-63.5 21.5 -91.5 37.5l31 56c30 -15.333 57.333 -26.666 82 -33.999s49.334 -11 74.001 -11c44.667 0 78.5 10.667 101.5 32s34.5 52.333 34.5 93v98c-18.667 -23.333 -41.334 -41.166 -68.001 -53.499
s-56 -18.5 -88 -18.5c-42 0 -80 11.167 -114 33.5s-61 52.333 -81 90s-30 79.834 -30 126.501s10.167 88.834 30.5 126.501s47.833 67.667 82.5 90s73.334 33.5 116.001 33.5c30.667 0 59 -5.83301 85 -17.5s48.667 -28.834 68 -51.501v63h72v-519
c0 -60.667 -17.667 -107.167 -53 -139.5s-86.333 -48.5 -153 -48.5zM295.999 56.9971c28.667 0 54.999 5.8291 78.999 17.4961s43.667 27.834 59 48.501v241c-16 20.667 -36.167 36.834 -60.5 48.501s-50.166 17.5 -77.499 17.5c-32.667 0 -61.834 -8 -87.501 -24
s-46 -38 -61 -66s-22.5 -60 -22.5 -96c0 -35.333 7.5 -67.166 22.5 -95.499s35.333 -50.666 61 -66.999s54.834 -24.5 87.501 -24.5zM378.998 578.993l-94 84l-93 -84h-59l114 127h78l114 -127h-60z" />
    <glyph glyph-name="Gbreve" unicode="&#x11e;" horiz-adv-x="799" 
d="M410 -11c-50 0 -96.333 9.33496 -139 28.002s-80.167 44.5 -112.5 77.5s-57.5 71.333 -75.5 115s-27 90.5 -27 140.5s9 96.833 27 140.5s43.167 82 75.5 115s69.833 58.833 112.5 77.5s89 28 139 28c53.333 0 103.833 -9.66699 151.5 -29s88.167 -48 121.5 -86l-52 -52
c-26 31.333 -58.667 55.333 -98 72s-80.333 25 -123 25c-39.333 0 -75.666 -7.5 -108.999 -22.5s-62.5 -35.667 -87.5 -62s-44.5 -57.166 -58.5 -92.499s-21 -73.333 -21 -114s7 -78.667 21 -114s33.5 -66.166 58.5 -92.499s54.167 -47 87.5 -62s69.666 -22.5 108.999 -22.5
c46.667 0 88.5 10.333 125.5 31s67 49.167 90 85.5s36.5 77.166 40.5 122.499h-236v68h314v-31c0 -48.667 -8.33301 -93.834 -25 -135.501s-40.167 -78.334 -70.5 -110.001s-65.833 -56.334 -106.5 -74.001s-84.667 -26.5 -132 -26.5zM410 791.002
c-40.667 0 -74.998 11.167 -102.998 33.5s-46.667 53.166 -56 92.499l51 12c15.333 -61.333 51.333 -92 108 -92c27.333 0 50.166 8 68.499 24s31.166 38.667 38.499 68l50 -12c-8.66699 -39.333 -27 -70.166 -55 -92.499s-62 -33.5 -102 -33.5z" />
    <glyph glyph-name="gbreve" unicode="&#x11f;" horiz-adv-x="582" 
d="M301 -219c-32.667 0 -65.501 4.49707 -98.501 13.4971s-63.5 21.5 -91.5 37.5l31 56c30 -15.333 57.333 -26.666 82 -33.999s49.334 -11 74.001 -11c44.667 0 78.5 10.667 101.5 32s34.5 52.333 34.5 93v98c-18.667 -23.333 -41.334 -41.166 -68.001 -53.499
s-56 -18.5 -88 -18.5c-42 0 -80 11.167 -114 33.5s-61 52.333 -81 90s-30 79.834 -30 126.501s10.167 88.834 30.5 126.501s47.833 67.667 82.5 90s73.334 33.5 116.001 33.5c30.667 0 59 -5.83301 85 -17.5s48.667 -28.834 68 -51.501v63h72v-519
c0 -60.667 -17.667 -107.167 -53 -139.5s-86.333 -48.5 -153 -48.5zM295.999 56.9971c28.667 0 54.999 5.8291 78.999 17.4961s43.667 27.834 59 48.501v241c-16 20.667 -36.167 36.834 -60.5 48.501s-50.166 17.5 -77.499 17.5c-32.667 0 -61.834 -8 -87.501 -24
s-46 -38 -61 -66s-22.5 -60 -22.5 -96c0 -35.333 7.5 -67.166 22.5 -95.499s35.333 -50.666 61 -66.999s54.834 -24.5 87.501 -24.5zM286.998 578.993c-40.667 0 -74.998 11.167 -102.998 33.5s-46.667 53.166 -56 92.499l51 12c15.333 -61.333 51.333 -92 108 -92
c27.333 0 50.166 8 68.499 24s31.166 38.667 38.499 68l50 -12c-8.66699 -39.333 -27 -70.166 -55 -92.499s-62 -33.5 -102 -33.5z" />
    <glyph glyph-name="Gdotaccent" unicode="&#x120;" horiz-adv-x="799" 
d="M410 -11c-50 0 -96.333 9.33496 -139 28.002s-80.167 44.5 -112.5 77.5s-57.5 71.333 -75.5 115s-27 90.5 -27 140.5s9 96.833 27 140.5s43.167 82 75.5 115s69.833 58.833 112.5 77.5s89 28 139 28c53.333 0 103.833 -9.66699 151.5 -29s88.167 -48 121.5 -86l-52 -52
c-26 31.333 -58.667 55.333 -98 72s-80.333 25 -123 25c-39.333 0 -75.666 -7.5 -108.999 -22.5s-62.5 -35.667 -87.5 -62s-44.5 -57.166 -58.5 -92.499s-21 -73.333 -21 -114s7 -78.667 21 -114s33.5 -66.166 58.5 -92.499s54.167 -47 87.5 -62s69.666 -22.5 108.999 -22.5
c46.667 0 88.5 10.333 125.5 31s67 49.167 90 85.5s36.5 77.166 40.5 122.499h-236v68h314v-31c0 -48.667 -8.33301 -93.834 -25 -135.501s-40.167 -78.334 -70.5 -110.001s-65.833 -56.334 -106.5 -74.001s-84.667 -26.5 -132 -26.5zM409 821.002
c-14.667 0 -27.167 5.16699 -37.5 15.5s-15.5 22.5 -15.5 36.5s5.16699 26.167 15.5 36.5s22.833 15.5 37.5 15.5s27.167 -5.16699 37.5 -15.5s15.5 -22.5 15.5 -36.5s-5.16699 -26.167 -15.5 -36.5s-22.833 -15.5 -37.5 -15.5z" />
    <glyph glyph-name="gdotaccent" unicode="&#x121;" horiz-adv-x="582" 
d="M301 -219c-32.667 0 -65.501 4.49707 -98.501 13.4971s-63.5 21.5 -91.5 37.5l31 56c30 -15.333 57.333 -26.666 82 -33.999s49.334 -11 74.001 -11c44.667 0 78.5 10.667 101.5 32s34.5 52.333 34.5 93v98c-18.667 -23.333 -41.334 -41.166 -68.001 -53.499
s-56 -18.5 -88 -18.5c-42 0 -80 11.167 -114 33.5s-61 52.333 -81 90s-30 79.834 -30 126.501s10.167 88.834 30.5 126.501s47.833 67.667 82.5 90s73.334 33.5 116.001 33.5c30.667 0 59 -5.83301 85 -17.5s48.667 -28.834 68 -51.501v63h72v-519
c0 -60.667 -17.667 -107.167 -53 -139.5s-86.333 -48.5 -153 -48.5zM295.999 56.9971c28.667 0 54.999 5.8291 78.999 17.4961s43.667 27.834 59 48.501v241c-16 20.667 -36.167 36.834 -60.5 48.501s-50.166 17.5 -77.499 17.5c-32.667 0 -61.834 -8 -87.501 -24
s-46 -38 -61 -66s-22.5 -60 -22.5 -96c0 -35.333 7.5 -67.166 22.5 -95.499s35.333 -50.666 61 -66.999s54.834 -24.5 87.501 -24.5zM285.998 608.993c-14.667 0 -27.167 5.16699 -37.5 15.5s-15.5 22.5 -15.5 36.5s5.16699 26.167 15.5 36.5s22.833 15.5 37.5 15.5
s27.167 -5.16699 37.5 -15.5s15.5 -22.5 15.5 -36.5s-5.16699 -26.167 -15.5 -36.5s-22.833 -15.5 -37.5 -15.5z" />
    <glyph glyph-name="Gcommaaccent" unicode="&#x122;" horiz-adv-x="799" 
d="M410 -11c-50 0 -96.333 9.33496 -139 28.002s-80.167 44.5 -112.5 77.5s-57.5 71.333 -75.5 115s-27 90.5 -27 140.5s9 96.833 27 140.5s43.167 82 75.5 115s69.833 58.833 112.5 77.5s89 28 139 28c53.333 0 103.833 -9.66699 151.5 -29s88.167 -48 121.5 -86l-52 -52
c-26 31.333 -58.667 55.333 -98 72s-80.333 25 -123 25c-39.333 0 -75.666 -7.5 -108.999 -22.5s-62.5 -35.667 -87.5 -62s-44.5 -57.166 -58.5 -92.499s-21 -73.333 -21 -114s7 -78.667 21 -114s33.5 -66.166 58.5 -92.499s54.167 -47 87.5 -62s69.666 -22.5 108.999 -22.5
c46.667 0 88.5 10.333 125.5 31s67 49.167 90 85.5s36.5 77.166 40.5 122.499h-236v68h314v-31c0 -48.667 -8.33301 -93.834 -25 -135.501s-40.167 -78.334 -70.5 -110.001s-65.833 -56.334 -106.5 -74.001s-84.667 -26.5 -132 -26.5zM333 -273.998l49 187h73l-69 -187h-53z
" />
    <glyph glyph-name="gcommaaccent" unicode="&#x123;" horiz-adv-x="582" 
d="M301 -219c-32.667 0 -65.501 4.49707 -98.501 13.4971s-63.5 21.5 -91.5 37.5l31 56c30 -15.333 57.333 -26.666 82 -33.999s49.334 -11 74.001 -11c44.667 0 78.5 10.667 101.5 32s34.5 52.333 34.5 93v98c-18.667 -23.333 -41.334 -41.166 -68.001 -53.499
s-56 -18.5 -88 -18.5c-42 0 -80 11.167 -114 33.5s-61 52.333 -81 90s-30 79.834 -30 126.501s10.167 88.834 30.5 126.501s47.833 67.667 82.5 90s73.334 33.5 116.001 33.5c30.667 0 59 -5.83301 85 -17.5s48.667 -28.834 68 -51.501v63h72v-519
c0 -60.667 -17.667 -107.167 -53 -139.5s-86.333 -48.5 -153 -48.5zM295.999 56.9971c28.667 0 54.999 5.8291 78.999 17.4961s43.667 27.834 59 48.501v241c-16 20.667 -36.167 36.834 -60.5 48.501s-50.166 17.5 -77.499 17.5c-32.667 0 -61.834 -8 -87.501 -24
s-46 -38 -61 -66s-22.5 -60 -22.5 -96c0 -35.333 7.5 -67.166 22.5 -95.499s35.333 -50.666 61 -66.999s54.834 -24.5 87.501 -24.5zM382.998 796.993l-49 -187h-73l69 187h53z" />
    <glyph glyph-name="Hcircumflex" unicode="&#x124;" horiz-adv-x="732" 
d="M88 0v700h77v-313h402v313h77v-700h-77v318h-402v-318h-77zM459 791l-94 84l-93 -84h-59l114 127h78l114 -127h-60z" />
    <glyph glyph-name="hcircumflex" unicode="&#x125;" horiz-adv-x="552" 
d="M75 0l0.000976562 727.001h73v-318c18 28 40 49.5 66 64.5s55.667 22.5 89 22.5c35.333 0 66.166 -7.66699 92.499 -23s47 -36.5 62 -63.5s22.5 -58.167 22.5 -93.5v-316h-73v295c0 42.667 -11.667 76.667 -35 102s-55.333 38 -96 38c-26.667 0 -51 -6.33301 -73 -19
s-40.333 -31.334 -55 -56.001v-360h-73zM-39.999 811.001l114 127h78l114 -127h-60l-94 84l-93 -84h-59z" />
    <glyph glyph-name="Hbar" unicode="&#x126;" horiz-adv-x="748" 
d="M96 0v521h-84v61h84v118h77v-118h402v118h77v-118h84v-61h-84v-521h-77v318h-402v-318h-77zM173 386h402v135h-402v-135z" />
    <glyph glyph-name="hbar" unicode="&#x127;" horiz-adv-x="558" 
d="M81 0l0.000976562 573.002h-61v54h61v95l73 15v-110h145v-54h-145v-164c18.667 29.333 41 51.166 67 65.499s55.333 21.5 88 21.5c35.333 0 66.166 -7.5 92.499 -22.5s47 -36 62 -63s22.5 -58.5 22.5 -94.5v-316h-73v295c0 43.333 -11.833 77.5 -35.5 102.5
s-55.5 37.5 -95.5 37.5c-26.667 0 -51 -6.33301 -73 -19s-40.333 -31.334 -55 -56.001v-360h-73z" />
    <glyph glyph-name="Itilde" unicode="&#x128;" horiz-adv-x="253" 
d="M88 0v700h77v-700h-77zM6 792l-50.9971 10c9.33301 34 22.333 59.833 39 77.5s37 26.5 61 26.5c19.333 0 37.5 -5 54.5 -15s33 -20 48 -30s29.167 -15 42.5 -15c11.333 0 20.166 4.66699 26.499 14s12.833 26 19.5 50l51 -10c-8.66699 -34 -21.167 -59.833 -37.5 -77.5
s-35.833 -26.5 -58.5 -26.5c-18.667 0 -36.334 5 -53.001 15s-32.5 20 -47.5 30s-29.5 15 -43.5 15c-12.667 0 -22.834 -4.83301 -30.501 -14.5s-14.5 -26.167 -20.5 -49.5z" />
    <glyph glyph-name="itilde" unicode="&#x129;" horiz-adv-x="223" 
d="M75 0v488h73v-488h-73zM-8 580l-50.9971 10c9.33301 34 22.333 59.833 39 77.5s37 26.5 61 26.5c19.333 0 37.5 -5 54.5 -15s33 -20 48 -30s29.167 -15 42.5 -15c11.333 0 20.166 4.66699 26.499 14s12.833 26 19.5 50l51 -10c-8.66699 -34 -21.167 -59.833 -37.5 -77.5
s-35.833 -26.5 -58.5 -26.5c-18.667 0 -36.334 5 -53.001 15s-32.5 20 -47.5 30s-29.5 15 -43.5 15c-12.667 0 -22.834 -4.83301 -30.501 -14.5s-14.5 -26.167 -20.5 -49.5z" />
    <glyph glyph-name="Imacron" unicode="&#x12a;" horiz-adv-x="253" 
d="M88 0v700h77v-700h-77zM-10 823v52h272v-52h-272z" />
    <glyph glyph-name="imacron" unicode="&#x12b;" horiz-adv-x="223" 
d="M75 0v488h73v-488h-73zM-24 611v52h272v-52h-272z" />
    <glyph glyph-name="Ibreve" unicode="&#x12c;" horiz-adv-x="253" 
d="M88 0v700h77v-700h-77zM127 791c-40.667 0 -74.998 11.167 -102.998 33.5s-46.667 53.166 -56 92.499l51 12c15.333 -61.333 51.333 -92 108 -92c27.333 0 50.166 8 68.499 24s31.166 38.667 38.499 68l50 -12c-8.66699 -39.333 -27 -70.166 -55 -92.499
s-62 -33.5 -102 -33.5z" />
    <glyph glyph-name="ibreve" unicode="&#x12d;" horiz-adv-x="223" 
d="M75 0v488h73v-488h-73zM113 579c-40.667 0 -74.998 11.167 -102.998 33.5s-46.667 53.166 -56 92.499l51 12c15.333 -61.333 51.333 -92 108 -92c27.333 0 50.166 8 68.499 24s31.166 38.667 38.499 68l50 -12c-8.66699 -39.333 -27 -70.166 -55 -92.499
s-62 -33.5 -102 -33.5z" />
    <glyph glyph-name="Iogonek" unicode="&#x12e;" horiz-adv-x="253" 
d="M117 -231c-32 0 -57.6689 8.33398 -77.002 25.001s-29 38.667 -29 66c0 24.667 7.83301 48 23.5 70s40.834 45.333 75.501 70h-22v700h77v-700c-36 -23.333 -62.333 -45.333 -79 -66s-25 -41.334 -25 -62.001c0 -18 6 -32 18 -42s28.333 -15 49 -15
c8.66699 0 17.334 1 26.001 3s16 5 22 9l14 -39c-20 -12.667 -44.333 -19 -73 -19z" />
    <glyph glyph-name="iogonek" unicode="&#x12f;" horiz-adv-x="222" 
d="M111 609c-14.667 0 -27.167 5.16699 -37.5 15.5s-15.5 22.5 -15.5 36.5s5.16699 26.167 15.5 36.5s22.833 15.5 37.5 15.5s27.167 -5.16699 37.5 -15.5s15.5 -22.5 15.5 -36.5s-5.16699 -26.167 -15.5 -36.5s-22.833 -15.5 -37.5 -15.5zM99 -231
c-32 0 -57.6689 8.33398 -77.002 25.001s-29 38.667 -29 66c0 24.667 7.83301 48 23.5 70s40.834 45.333 75.501 70h-18v488h73v-488c-36 -23.333 -62.333 -45.333 -79 -66s-25 -41.334 -25 -62.001c0 -18 6 -32 18 -42s28.333 -15 49 -15c8.66699 0 17.334 1 26.001 3
s16 5 22 9l14 -39c-20 -12.667 -44.333 -19 -73 -19z" />
    <glyph glyph-name="Idotaccent" unicode="&#x130;" horiz-adv-x="253" 
d="M88 0v700h77v-700h-77zM126 821c-14.667 0 -27.167 5.16699 -37.5 15.5s-15.5 22.5 -15.5 36.5s5.16699 26.167 15.5 36.5s22.833 15.5 37.5 15.5s27.167 -5.16699 37.5 -15.5s15.5 -22.5 15.5 -36.5s-5.16699 -26.167 -15.5 -36.5s-22.833 -15.5 -37.5 -15.5z" />
    <glyph glyph-name="dotlessi" unicode="&#x131;" horiz-adv-x="223" 
d="M75 0v488h73v-488h-73z" />
    <glyph glyph-name="IJ" unicode="&#x132;" horiz-adv-x="848" 
d="M88 0v700h77v-700h-77zM519 -11c-59.333 0 -110.833 15.666 -154.5 46.999s-75.167 75.333 -94.5 132l70 28c16.667 -44.667 40 -78.667 70 -102s66.667 -35 110 -35c54.667 0 98.334 18.667 131.001 56s49 87.333 49 150v435h77v-436c0 -56 -10.5 -104.667 -31.5 -146
s-50.833 -73.166 -89.5 -95.499s-84.334 -33.5 -137.001 -33.5z" />
    <glyph glyph-name="ij" unicode="&#x133;" horiz-adv-x="440" 
d="M74 0v488h73v-488h-73zM111 609c-14.667 0 -27.167 5.16699 -37.5 15.5s-15.5 22.5 -15.5 36.5s5.16699 26.167 15.5 36.5s22.833 15.5 37.5 15.5s27.167 -5.16699 37.5 -15.5s15.5 -22.5 15.5 -36.5s-5.16699 -26.167 -15.5 -36.5s-22.833 -15.5 -37.5 -15.5zM332 609
c-14.667 0 -27.167 5.16699 -37.5 15.5s-15.5 22.5 -15.5 36.5s5.16699 26.167 15.5 36.5s22.833 15.5 37.5 15.5s27.167 -5.16699 37.5 -15.5s15.5 -22.5 15.5 -36.5s-5.16699 -26.167 -15.5 -36.5s-22.833 -15.5 -37.5 -15.5zM245 -219
c-8 0 -15.833 0.832031 -23.5 2.49902s-14.834 2.83398 -21.501 3.50098v63c6 -1.33301 11.833 -2.33301 17.5 -3s11.834 -1 18.501 -1c21.333 0 36.5 5 45.5 15s13.5 26.333 13.5 49v578h73v-582c0 -39.333 -10.5 -70 -31.5 -92s-51.5 -33 -91.5 -33z" />
    <glyph glyph-name="Jcircumflex" unicode="&#x134;" 
d="M267 -11c-59.333 0 -110.833 15.666 -154.5 46.999s-75.167 75.333 -94.5 132l70 28c16.667 -44.667 40 -78.667 70 -102s66.667 -35 110 -35c54.667 0 98.334 18.667 131.001 56s49 87.333 49 150v435h77v-436c0 -56 -10.5 -104.667 -31.5 -146
s-50.833 -73.166 -89.5 -95.499s-84.334 -33.5 -137.001 -33.5zM579 790.999l-94 84l-93 -84h-59l114 127h78l114 -127h-60z" />
    <glyph glyph-name="jcircumflex" unicode="&#x135;" horiz-adv-x="223" 
d="M25 -219c-8 0 -15.834 0.667969 -23.501 2.00098s-14.834 2.66602 -21.501 3.99902v63c6 -1.33301 11.833 -2.33301 17.5 -3s11.834 -1 18.501 -1c21.333 0 36.5 5 45.5 15s13.5 26.333 13.5 49v578h73v-582c0 -39.333 -10.667 -70 -32 -92s-51.666 -33 -90.999 -33z
M204.999 579.001l-94 84l-93 -84h-59l114 127h78l114 -127h-60z" />
    <glyph glyph-name="Kcommaaccent" unicode="&#x136;" horiz-adv-x="610" 
d="M89 0v700h77v-332l340 332h98l-357 -344l365 -356h-105l-341 335v-335h-77zM249 -274l49 187h73l-69 -187h-53z" />
    <glyph glyph-name="kcommaaccent" unicode="&#x137;" horiz-adv-x="489" 
d="M75 0v722l73 15v-468l232 219h88l-248 -232l259 -256h-96l-235 233v-233h-73zM161 -274l49 187h73l-69 -187h-53z" />
    <glyph glyph-name="kgreenlandic" unicode="&#x138;" horiz-adv-x="489" 
d="M75 0v488h73v-219l232 219h88l-248 -232l259 -256h-96l-235 233v-233h-73z" />
    <glyph glyph-name="Lacute" unicode="&#x139;" horiz-adv-x="607" 
d="M89 0v700h77v-632h395v-68h-472zM54 796l112 122h99l-144 -122h-67z" />
    <glyph glyph-name="lacute" unicode="&#x13a;" horiz-adv-x="223" 
d="M75 0v727h73v-727h-73zM78 795l112 122h99l-144 -122h-67z" />
    <glyph glyph-name="Lcommaaccent" unicode="&#x13b;" horiz-adv-x="607" 
d="M89 0v700h77v-632h395v-68h-472zM245 -274l49 187h73l-69 -187h-53z" />
    <glyph glyph-name="lcommaaccent" unicode="&#x13c;" horiz-adv-x="223" 
d="M75 0v722l73 15v-737h-73zM30 -274l49 187h73l-69 -187h-53z" />
    <glyph glyph-name="Lcaron" unicode="&#x13d;" horiz-adv-x="606" 
d="M89 0v700h77v-632h395v-68h-472zM426 527l5 195l76 15l-25 -210h-56z" />
    <glyph glyph-name="lcaron" unicode="&#x13e;" horiz-adv-x="305" 
d="M90 0v722l73 15v-737h-73zM234 527l5 195l76 15l-25 -210h-56z" />
    <glyph glyph-name="Ldot" unicode="&#x13f;" horiz-adv-x="607" 
d="M89 0v700h77v-632h395v-68h-472zM434 313c-14.667 0 -27.167 5.16699 -37.5 15.5s-15.5 22.5 -15.5 36.5s5.16699 26.167 15.5 36.5s22.833 15.5 37.5 15.5s27.167 -5.16699 37.5 -15.5s15.5 -22.5 15.5 -36.5s-5.16699 -26.167 -15.5 -36.5s-22.833 -15.5 -37.5 -15.5z
" />
    <glyph glyph-name="ldot" unicode="&#x140;" horiz-adv-x="313" 
d="M90 0v722l73 15v-737h-73zM276 310c-14.667 0 -27.167 5.16699 -37.5 15.5s-15.5 22.5 -15.5 36.5s5.16699 26.167 15.5 36.5s22.833 15.5 37.5 15.5s27.167 -5.16699 37.5 -15.5s15.5 -22.5 15.5 -36.5s-5.16699 -26.167 -15.5 -36.5s-22.833 -15.5 -37.5 -15.5z" />
    <glyph glyph-name="Lslash" unicode="&#x141;" horiz-adv-x="625" 
d="M107 0v244l-93 -73v74l93 73v382h77v-322l176 137v-74l-176 -137v-236h395v-68h-472z" />
    <glyph glyph-name="lslash" unicode="&#x142;" horiz-adv-x="281" 
d="M105 0v304l-96 -76v76l96 76v342l73 15v-299l94 74v-75l-94 -75v-362h-73z" />
    <glyph glyph-name="Nacute" unicode="&#x143;" horiz-adv-x="739" 
d="M89 0v700h80l410 -580l-2 580h73v-700h-70l-420 593l2 -593h-73zM309 796l112 122h99l-144 -122h-67z" />
    <glyph glyph-name="nacute" unicode="&#x144;" horiz-adv-x="552" 
d="M75 0l0.000976562 488.002h73v-79c18.667 29.333 41 51.166 67 65.499s55.333 21.5 88 21.5c35.333 0 66.166 -7.5 92.499 -22.5s47 -36 62 -63s22.5 -58.5 22.5 -94.5v-316h-73v295c0 43.333 -11.833 77.5 -35.5 102.5s-55.5 37.5 -95.5 37.5
c-26.667 0 -51 -6.33301 -73 -19s-40.333 -31.334 -55 -56.001v-360h-73zM213.001 584.002l112 122h99l-144 -122h-67z" />
    <glyph glyph-name="Ncommaaccent" unicode="&#x145;" horiz-adv-x="739" 
d="M89 0v700h80l410 -580l-2 580h73v-700h-70l-420 593l2 -593h-73zM292 -274l49 187h73l-69 -187h-53z" />
    <glyph glyph-name="ncommaaccent" unicode="&#x146;" horiz-adv-x="552" 
d="M75 0l0.000976562 488.002h73v-79c18.667 29.333 41 51.166 67 65.499s55.333 21.5 88 21.5c35.333 0 66.166 -7.5 92.499 -22.5s47 -36 62 -63s22.5 -58.5 22.5 -94.5v-316h-73v295c0 43.333 -11.833 77.5 -35.5 102.5s-55.5 37.5 -95.5 37.5
c-26.667 0 -51 -6.33301 -73 -19s-40.333 -31.334 -55 -56.001v-360h-73zM196.001 -273.998l49 187h73l-69 -187h-53z" />
    <glyph glyph-name="Ncaron" unicode="&#x147;" horiz-adv-x="739" 
d="M89 0v700h80l410 -580l-2 580h73v-700h-70l-420 593l2 -593h-73zM281 922l92 -83l92 83h61l-114 -127h-78l-114 127h61z" />
    <glyph glyph-name="ncaron" unicode="&#x148;" horiz-adv-x="552" 
d="M75 0l0.000976562 488.002h73v-79c18.667 29.333 41 51.166 67 65.499s55.333 21.5 88 21.5c35.333 0 66.166 -7.5 92.499 -22.5s47 -36 62 -63s22.5 -58.5 22.5 -94.5v-316h-73v295c0 43.333 -11.833 77.5 -35.5 102.5s-55.5 37.5 -95.5 37.5
c-26.667 0 -51 -6.33301 -73 -19s-40.333 -31.334 -55 -56.001v-360h-73zM185.001 710.002l92 -83l92 83h61l-114 -127h-78l-114 127h61z" />
    <glyph glyph-name="Eng" unicode="&#x14a;" horiz-adv-x="739" 
d="M527 -219c-8 0 -15.832 0.667969 -23.499 2.00098s-14.834 2.66602 -21.501 3.99902v62c10 -2.66699 22 -4 36 -4c21.333 0 36.833 5.33301 46.5 16s14.5 28 14.5 52v88l-418 589l1 -590h-73v700h80l409 -577l-1 577h73v-794c0 -39.333 -10.5 -70 -31.5 -92
s-51.5 -33 -91.5 -33z" />
    <glyph glyph-name="eng" unicode="&#x14b;" horiz-adv-x="552" 
d="M357 -219c-6.66699 0 -13.501 0.50293 -20.501 1.50293s-15.167 2.5 -24.5 4.5v64c6 -1.33301 11.833 -2.33301 17.5 -3s11.834 -1 18.501 -1c21.333 0 36.5 5 45.5 15s13.5 26.333 13.5 49v384c0 43.333 -11.833 77.5 -35.5 102.5s-55.5 37.5 -95.5 37.5
c-26.667 0 -51 -6.33301 -73 -19s-40.333 -31.334 -55 -56.001v-360h-73v488h73v-79c18.667 29.333 41 51.166 67 65.499s55.333 21.5 88 21.5c35.333 0 66.166 -7.5 92.499 -22.5s47 -36 62 -63s22.5 -58.5 22.5 -94.5v-409c0 -40.667 -10.667 -71.834 -32 -93.501
s-51.666 -32.5 -90.999 -32.5z" />
    <glyph glyph-name="Omacron" unicode="&#x14c;" horiz-adv-x="810" 
d="M405 -11c-48.667 0 -94 9.16699 -136 27.5s-78.833 44 -110.5 77s-56.5 71.333 -74.5 115s-27 90.834 -27 141.501s9 97.834 27 141.501s42.833 82 74.5 115s68.5 58.667 110.5 77s87.333 27.5 136 27.5s94 -9.16699 136 -27.5s78.833 -44 110.5 -77
s56.5 -71.333 74.5 -115s27 -90.834 27 -141.501s-9 -97.834 -27 -141.501s-42.833 -82 -74.5 -115s-68.5 -58.667 -110.5 -77s-87.333 -27.5 -136 -27.5zM405 59c38 0 73.333 7.33203 106 21.999s61.334 35.334 86.001 62.001s43.834 57.667 57.501 93
s20.5 73.333 20.5 114c0 41.333 -6.83301 79.5 -20.5 114.5s-32.834 65.833 -57.501 92.5s-53.334 47.334 -86.001 62.001s-68 22 -106 22s-73.333 -7.33301 -106 -22s-61.334 -35.334 -86.001 -62.001s-43.834 -57.5 -57.501 -92.5s-20.5 -72.833 -20.5 -113.5
c0 -41.333 6.83301 -79.666 20.5 -114.999s32.834 -66.333 57.501 -93s53.334 -47.334 86.001 -62.001s68 -22 106 -22zM268 822.999v52h272v-52h-272z" />
    <glyph glyph-name="omacron" unicode="&#x14d;" horiz-adv-x="580" 
d="M291 -8c-45.333 0 -86 11 -122 33s-64.333 52 -85 90s-31 81 -31 129s10.333 91 31 129s49 68 85 90s76.667 33 122 33c44.667 0 84.834 -11 120.501 -33s63.834 -52 84.501 -90s31 -81 31 -129s-10.333 -91 -31 -129s-48.834 -68 -84.501 -90s-75.834 -33 -120.501 -33z
M290 56c32 0 60.333 8.16699 85 24.5s44.167 38.833 58.5 67.5s21.5 60.667 21.5 96c0 36 -7.16699 68.167 -21.5 96.5s-33.833 50.666 -58.5 66.999s-53 24.5 -85 24.5s-60.333 -8.16699 -85 -24.5s-44.167 -38.666 -58.5 -66.999s-21.5 -60.5 -21.5 -96.5
c0 -35.333 7.16699 -67.333 21.5 -96s33.833 -51.167 58.5 -67.5s53 -24.5 85 -24.5zM154 611v52h272v-52h-272z" />
    <glyph glyph-name="Obreve" unicode="&#x14e;" horiz-adv-x="810" 
d="M405 -11c-48.667 0 -94 9.16699 -136 27.5s-78.833 44 -110.5 77s-56.5 71.333 -74.5 115s-27 90.834 -27 141.501s9 97.834 27 141.501s42.833 82 74.5 115s68.5 58.667 110.5 77s87.333 27.5 136 27.5s94 -9.16699 136 -27.5s78.833 -44 110.5 -77
s56.5 -71.333 74.5 -115s27 -90.834 27 -141.501s-9 -97.834 -27 -141.501s-42.833 -82 -74.5 -115s-68.5 -58.667 -110.5 -77s-87.333 -27.5 -136 -27.5zM405 59c38 0 73.333 7.33203 106 21.999s61.334 35.334 86.001 62.001s43.834 57.667 57.501 93
s20.5 73.333 20.5 114c0 41.333 -6.83301 79.5 -20.5 114.5s-32.834 65.833 -57.501 92.5s-53.334 47.334 -86.001 62.001s-68 22 -106 22s-73.333 -7.33301 -106 -22s-61.334 -35.334 -86.001 -62.001s-43.834 -57.5 -57.501 -92.5s-20.5 -72.833 -20.5 -113.5
c0 -41.333 6.83301 -79.666 20.5 -114.999s32.834 -66.333 57.501 -93s53.334 -47.334 86.001 -62.001s68 -22 106 -22zM405 790.999c-40.667 0 -74.998 11.167 -102.998 33.5s-46.667 53.166 -56 92.499l51 12c15.333 -61.333 51.333 -92 108 -92
c27.333 0 50.166 8 68.499 24s31.166 38.667 38.499 68l50 -12c-8.66699 -39.333 -27 -70.166 -55 -92.499s-62 -33.5 -102 -33.5z" />
    <glyph glyph-name="obreve" unicode="&#x14f;" horiz-adv-x="580" 
d="M291 -8c-45.333 0 -86 11 -122 33s-64.333 52 -85 90s-31 81 -31 129s10.333 91 31 129s49 68 85 90s76.667 33 122 33c44.667 0 84.834 -11 120.501 -33s63.834 -52 84.501 -90s31 -81 31 -129s-10.333 -91 -31 -129s-48.834 -68 -84.501 -90s-75.834 -33 -120.501 -33z
M290 56c32 0 60.333 8.16699 85 24.5s44.167 38.833 58.5 67.5s21.5 60.667 21.5 96c0 36 -7.16699 68.167 -21.5 96.5s-33.833 50.666 -58.5 66.999s-53 24.5 -85 24.5s-60.333 -8.16699 -85 -24.5s-44.167 -38.666 -58.5 -66.999s-21.5 -60.5 -21.5 -96.5
c0 -35.333 7.16699 -67.333 21.5 -96s33.833 -51.167 58.5 -67.5s53 -24.5 85 -24.5zM291 579c-40.667 0 -74.998 11.167 -102.998 33.5s-46.667 53.166 -56 92.499l51 12c15.333 -61.333 51.333 -92 108 -92c27.333 0 50.166 8 68.499 24s31.166 38.667 38.499 68l50 -12
c-8.66699 -39.333 -27 -70.166 -55 -92.499s-62 -33.5 -102 -33.5z" />
    <glyph glyph-name="Ohungarumlaut" unicode="&#x150;" horiz-adv-x="810" 
d="M405 -11c-48.667 0 -94 9.16699 -136 27.5s-78.833 44 -110.5 77s-56.5 71.333 -74.5 115s-27 90.834 -27 141.501s9 97.834 27 141.501s42.833 82 74.5 115s68.5 58.667 110.5 77s87.333 27.5 136 27.5s94 -9.16699 136 -27.5s78.833 -44 110.5 -77
s56.5 -71.333 74.5 -115s27 -90.834 27 -141.501s-9 -97.834 -27 -141.501s-42.833 -82 -74.5 -115s-68.5 -58.667 -110.5 -77s-87.333 -27.5 -136 -27.5zM405 59c38 0 73.333 7.33203 106 21.999s61.334 35.334 86.001 62.001s43.834 57.667 57.501 93
s20.5 73.333 20.5 114c0 41.333 -6.83301 79.5 -20.5 114.5s-32.834 65.833 -57.501 92.5s-53.334 47.334 -86.001 62.001s-68 22 -106 22s-73.333 -7.33301 -106 -22s-61.334 -35.334 -86.001 -62.001s-43.834 -57.5 -57.501 -92.5s-20.5 -72.833 -20.5 -113.5
c0 -41.333 6.83301 -79.666 20.5 -114.999s32.834 -66.333 57.501 -93s53.334 -47.334 86.001 -62.001s68 -22 106 -22zM269 793.999l129 124h84l-144 -124h-69zM442 793.999l129 124h85l-147 -124h-67z" />
    <glyph glyph-name="ohungarumlaut" unicode="&#x151;" horiz-adv-x="580" 
d="M291 -8c-45.333 0 -86 11 -122 33s-64.333 52 -85 90s-31 81 -31 129s10.333 91 31 129s49 68 85 90s76.667 33 122 33c44.667 0 84.834 -11 120.501 -33s63.834 -52 84.501 -90s31 -81 31 -129s-10.333 -91 -31 -129s-48.834 -68 -84.501 -90s-75.834 -33 -120.501 -33z
M290 56c32 0 60.333 8.16699 85 24.5s44.167 38.833 58.5 67.5s21.5 60.667 21.5 96c0 36 -7.16699 68.167 -21.5 96.5s-33.833 50.666 -58.5 66.999s-53 24.5 -85 24.5s-60.333 -8.16699 -85 -24.5s-44.167 -38.666 -58.5 -66.999s-21.5 -60.5 -21.5 -96.5
c0 -35.333 7.16699 -67.333 21.5 -96s33.833 -51.167 58.5 -67.5s53 -24.5 85 -24.5zM155 582l129 124h84l-144 -124h-69zM328 582l129 124h85l-147 -124h-67z" />
    <glyph glyph-name="OE" unicode="&#x152;" horiz-adv-x="1060" 
d="M399 0c-48.667 0 -93.834 8.83203 -135.501 26.499s-78 42.334 -109 74.001s-55.167 68.667 -72.5 111s-26 88.5 -26 138.5s8.66699 96.167 26 138.5s41.5 79.333 72.5 111s67.333 56.334 109 74.001s86.834 26.5 135.501 26.5h613v-68h-434
c38.667 -26.667 70.167 -61.334 94.5 -104.001s38.833 -89.667 43.5 -141h174v-67h-173c-4.66699 -52 -19 -100 -43 -144s-55.667 -80 -95 -108h433v-68h-613zM389 68.999c48.667 0 92.167 12.333 130.5 37s68.833 58.334 91.5 101.001s34 90.334 34 143.001
c0 53.333 -11.333 101.166 -34 143.499s-53.167 75.833 -91.5 100.5s-81.833 37 -130.5 37c-48 0 -91.333 -12.333 -130 -37s-69.334 -58.167 -92.001 -100.5s-34 -90.166 -34 -143.499c0 -52.667 11.333 -100.334 34 -143.001s53.334 -76.334 92.001 -101.001
s82 -37 130 -37z" />
    <glyph glyph-name="oe" unicode="&#x153;" horiz-adv-x="960" 
d="M290 -8c-44.667 0 -85.0078 10.999 -121.008 32.999s-64.333 52 -85 90s-31 81 -31 129s10.333 91 31 129s49 68 85 90s76.333 33 121 33c44 0 83.667 -11.333 119 -34s62.666 -52.667 81.999 -90c19.333 37.333 46 67.333 80 90s72.333 34 115 34
s80.834 -10.833 114.501 -32.5s60.334 -51 80.001 -88s29.5 -78.833 29.5 -125.5v-22h-383c2.66699 -33.333 11.834 -63.166 27.501 -89.499s36.334 -47 62.001 -62s53.834 -22.5 84.501 -22.5c25.333 0 49.833 4.5 73.5 13.5s43.834 21.167 60.501 36.5l46 -49
c-28 -22 -57 -38.333 -87 -49s-62 -16 -96 -16c-45.333 0 -86.166 11.5 -122.499 34.5s-64.166 53.833 -83.499 92.5c-19.333 -38 -46.666 -68.333 -81.999 -91s-75.333 -34 -120 -34zM289.992 55.999c32 0 60.333 8.16699 85 24.5s44.167 38.833 58.5 67.5
s21.5 60.667 21.5 96c0 36 -7.16699 68.167 -21.5 96.5s-33.833 50.666 -58.5 66.999s-53 24.5 -85 24.5s-60.333 -8.16699 -85 -24.5s-44.167 -38.666 -58.5 -66.999s-21.5 -60.5 -21.5 -96.5c0 -35.333 7.16699 -67.333 21.5 -96s33.833 -51.167 58.5 -67.5
s53 -24.5 85 -24.5zM528.992 279.999h309c-3.33301 29.333 -12.166 55.5 -26.499 78.5s-32.333 41.167 -54 54.5s-45.834 20 -72.501 20s-51 -6.5 -73 -19.5s-40.167 -31 -54.5 -54s-23.833 -49.5 -28.5 -79.5z" />
    <glyph glyph-name="Racute" unicode="&#x154;" horiz-adv-x="647" 
d="M89 0v700h287c44.667 0 83.667 -8.5 117 -25.5s59.333 -40.5 78 -70.5s28 -65.333 28 -106c0 -46.667 -13 -86.5 -39 -119.5s-61.667 -56.167 -107 -69.5l149 -309h-85l-142 299h-209v-299h-77zM166 363l204 0.000976562c46 0 82.833 12.167 110.5 36.5
s41.5 56.833 41.5 97.5c0 41.333 -13.833 74.166 -41.5 98.499s-64.5 36.5 -110.5 36.5h-204v-269zM261 796.001l112 122h99l-144 -122h-67z" />
    <glyph glyph-name="racute" unicode="&#x155;" horiz-adv-x="352" 
d="M75 0l-0.000976562 487.998h73v-100c12.667 34 30.834 60.5 54.501 79.5s50.834 28.5 81.501 28.5c8.66699 0 16.667 -0.5 24 -1.5s14.666 -2.83301 21.999 -5.5v-66c-8 2.66699 -16.5 4.83398 -25.5 6.50098s-17.5 2.5 -25.5 2.5c-30 0 -56.167 -8.66699 -78.5 -26
s-39.833 -41.666 -52.5 -72.999v-333h-73zM121.999 583.998l112 122h99l-144 -122h-67z" />
    <glyph glyph-name="Rcommaaccent" unicode="&#x156;" horiz-adv-x="647" 
d="M89 0v700h287c44.667 0 83.667 -8.5 117 -25.5s59.333 -40.5 78 -70.5s28 -65.333 28 -106c0 -46.667 -13 -86.5 -39 -119.5s-61.667 -56.167 -107 -69.5l149 -309h-85l-142 299h-209v-299h-77zM166 363l204 0.000976562c46 0 82.833 12.167 110.5 36.5
s41.5 56.833 41.5 97.5c0 41.333 -13.833 74.166 -41.5 98.499s-64.5 36.5 -110.5 36.5h-204v-269zM244 -273.999l49 187h73l-69 -187h-53z" />
    <glyph glyph-name="rcommaaccent" unicode="&#x157;" horiz-adv-x="352" 
d="M75 0l-0.000976562 487.998h73v-100c12.667 34 30.834 60.5 54.501 79.5s50.834 28.5 81.501 28.5c8.66699 0 16.667 -0.5 24 -1.5s14.666 -2.83301 21.999 -5.5v-66c-8 2.66699 -16.5 4.83398 -25.5 6.50098s-17.5 2.5 -25.5 2.5c-30 0 -56.167 -8.66699 -78.5 -26
s-39.833 -41.666 -52.5 -72.999v-333h-73zM31.999 -274.002l49 187h73l-69 -187h-53z" />
    <glyph glyph-name="Rcaron" unicode="&#x158;" horiz-adv-x="647" 
d="M89 0v700h287c44.667 0 83.667 -8.5 117 -25.5s59.333 -40.5 78 -70.5s28 -65.333 28 -106c0 -46.667 -13 -86.5 -39 -119.5s-61.667 -56.167 -107 -69.5l149 -309h-85l-142 299h-209v-299h-77zM166 363l204 0.000976562c46 0 82.833 12.167 110.5 36.5
s41.5 56.833 41.5 97.5c0 41.333 -13.833 74.166 -41.5 98.499s-64.5 36.5 -110.5 36.5h-204v-269zM233 922.001l92 -83l92 83h61l-114 -127h-78l-114 127h61z" />
    <glyph glyph-name="rcaron" unicode="&#x159;" horiz-adv-x="352" 
d="M75 0l-0.000976562 487.998h73v-100c12.667 34 30.834 60.5 54.501 79.5s50.834 28.5 81.501 28.5c8.66699 0 16.667 -0.5 24 -1.5s14.666 -2.83301 21.999 -5.5v-66c-8 2.66699 -16.5 4.83398 -25.5 6.50098s-17.5 2.5 -25.5 2.5c-30 0 -56.167 -8.66699 -78.5 -26
s-39.833 -41.666 -52.5 -72.999v-333h-73zM93.999 709.998l92 -83l92 83h61l-114 -127h-78l-114 127h61z" />
    <glyph glyph-name="Sacute" unicode="&#x15a;" horiz-adv-x="623" 
d="M315 -11c-54.667 0 -105.336 9.83691 -152.003 29.5039s-91.667 49.5 -135 89.5l47 56c42 -39.333 81.5 -67.333 118.5 -84s78.167 -25 123.5 -25c36 0 68.167 6.16699 96.5 18.5s50.5 29.166 66.5 50.499s24 45.666 24 72.999c0 35.333 -11.667 62.166 -35 80.499
s-63.666 32.5 -120.999 42.5l-113 19c-64 11.333 -110.833 30.833 -140.5 58.5s-44.5 64.834 -44.5 111.501c0 39.333 10.167 74.166 30.5 104.499s48.5 54.166 84.5 71.499s77.667 26 125 26c52 0 100.333 -7.16699 145 -21.5s88.667 -36.833 132 -67.5l-40 -60
c-36 27.333 -74 48.166 -114 62.499s-80.667 21.5 -122 21.5c-32.667 0 -61.5 -5.66699 -86.5 -17s-44.667 -26.666 -59 -45.999s-21.5 -41.333 -21.5 -66c0 -30.667 10.333 -54.667 31 -72s54.334 -29.666 101.001 -36.999l112 -19
c74.667 -13.333 128.834 -34.833 162.501 -64.5s50.5 -70.834 50.5 -123.501c0 -40.667 -11.5 -77 -34.5 -109s-54.5 -57.167 -94.5 -75.5s-85.667 -27.5 -137 -27.5zM225.998 798.004l112 122h99l-144 -122h-67z" />
    <glyph glyph-name="sacute" unicode="&#x15b;" horiz-adv-x="452" 
d="M226 -10c-40 0 -76.999 6.16797 -110.999 18.501s-63 30.166 -87 53.499l39 48c29.333 -21.333 56.333 -36.833 81 -46.5s50 -14.5 76 -14.5c35.333 0 64.666 8.33301 87.999 25s35 38 35 64c0 20 -6.83301 35.667 -20.5 47s-36.167 20 -67.5 26l-80 14
c-47.333 8.66699 -82.166 23.334 -104.499 44.001s-33.5 48.667 -33.5 84c0 28 7.5 52.667 22.5 74s35.833 38.166 62.5 50.499s57 18.5 91 18.5c33.333 0 65 -4.83301 95 -14.5s60.333 -25.167 91 -46.5l-36 -51c-25.333 18 -50.666 31.167 -75.999 39.5s-51 12.5 -77 12.5
c-32 0 -57.667 -7 -77 -21s-29 -33 -29 -57c0 -20 6.16699 -35.333 18.5 -46s34.166 -18.667 65.499 -24l82 -15c49.333 -8.66699 85.333 -23.667 108 -45s34 -50 34 -86c0 -28.667 -8.33301 -54.5 -25 -77.5s-39.334 -41.167 -68.001 -54.5s-61 -20 -97 -20z
M152.001 584.001l112 122h99l-144 -122h-67z" />
    <glyph glyph-name="Scircumflex" unicode="&#x15c;" horiz-adv-x="623" 
d="M315 -11c-54.667 0 -105.336 9.83691 -152.003 29.5039s-91.667 49.5 -135 89.5l47 56c42 -39.333 81.5 -67.333 118.5 -84s78.167 -25 123.5 -25c36 0 68.167 6.16699 96.5 18.5s50.5 29.166 66.5 50.499s24 45.666 24 72.999c0 35.333 -11.667 62.166 -35 80.499
s-63.666 32.5 -120.999 42.5l-113 19c-64 11.333 -110.833 30.833 -140.5 58.5s-44.5 64.834 -44.5 111.501c0 39.333 10.167 74.166 30.5 104.499s48.5 54.166 84.5 71.499s77.667 26 125 26c52 0 100.333 -7.16699 145 -21.5s88.667 -36.833 132 -67.5l-40 -60
c-36 27.333 -74 48.166 -114 62.499s-80.667 21.5 -122 21.5c-32.667 0 -61.5 -5.66699 -86.5 -17s-44.667 -26.666 -59 -45.999s-21.5 -41.333 -21.5 -66c0 -30.667 10.333 -54.667 31 -72s54.334 -29.666 101.001 -36.999l112 -19
c74.667 -13.333 128.834 -34.833 162.501 -64.5s50.5 -70.834 50.5 -123.501c0 -40.667 -11.5 -77 -34.5 -109s-54.5 -57.167 -94.5 -75.5s-85.667 -27.5 -137 -27.5zM382.998 793.004l-94 84l-93 -84h-59l114 127h78l114 -127h-60z" />
    <glyph glyph-name="scircumflex" unicode="&#x15d;" horiz-adv-x="452" 
d="M226 -10c-40 0 -76.999 6.16797 -110.999 18.501s-63 30.166 -87 53.499l39 48c29.333 -21.333 56.333 -36.833 81 -46.5s50 -14.5 76 -14.5c35.333 0 64.666 8.33301 87.999 25s35 38 35 64c0 20 -6.83301 35.667 -20.5 47s-36.167 20 -67.5 26l-80 14
c-47.333 8.66699 -82.166 23.334 -104.499 44.001s-33.5 48.667 -33.5 84c0 28 7.5 52.667 22.5 74s35.833 38.166 62.5 50.499s57 18.5 91 18.5c33.333 0 65 -4.83301 95 -14.5s60.333 -25.167 91 -46.5l-36 -51c-25.333 18 -50.666 31.167 -75.999 39.5s-51 12.5 -77 12.5
c-32 0 -57.667 -7 -77 -21s-29 -33 -29 -57c0 -20 6.16699 -35.333 18.5 -46s34.166 -18.667 65.499 -24l82 -15c49.333 -8.66699 85.333 -23.667 108 -45s34 -50 34 -86c0 -28.667 -8.33301 -54.5 -25 -77.5s-39.334 -41.167 -68.001 -54.5s-61 -20 -97 -20z
M309.001 579.001l-94 84l-93 -84h-59l114 127h78l114 -127h-60z" />
    <glyph glyph-name="Scedilla" unicode="&#x15e;" horiz-adv-x="623" 
d="M306 -237c-22.667 0 -43.335 3.00195 -62.002 9.00195s-34.667 15 -48 27l28 32c23.333 -19.333 49.666 -29 78.999 -29c20.667 0 36.667 4.66699 48 14s17 22 17 38c0 15.333 -6.16699 27.333 -18.5 36s-29.833 13 -52.5 13h-29l22 87
c-49.333 2.66699 -95.5 13.834 -138.5 33.501s-84.167 47.834 -123.5 84.501l47 56c42 -39.333 81.5 -67.333 118.5 -84s78.167 -25 123.5 -25c36 0 68.167 6.16699 96.5 18.5s50.5 29.166 66.5 50.499s24 45.666 24 72.999c0 35.333 -11.667 62.166 -35 80.499
s-63.666 32.5 -120.999 42.5l-113 19c-64 11.333 -110.833 30.833 -140.5 58.5s-44.5 64.834 -44.5 111.501c0 39.333 10.167 74.166 30.5 104.499s48.5 54.166 84.5 71.499s77.667 26 125 26c52 0 100.333 -7.16699 145 -21.5s88.667 -36.833 132 -67.5l-40 -60
c-36 27.333 -74 48.166 -114 62.499s-80.667 21.5 -122 21.5c-32.667 0 -61.5 -5.66699 -86.5 -17s-44.667 -26.666 -59 -45.999s-21.5 -41.333 -21.5 -66c0 -30.667 10.333 -54.667 31 -72s54.334 -29.666 101.001 -36.999l112 -19
c74.667 -13.333 128.834 -34.833 162.501 -64.5s50.5 -70.834 50.5 -123.501c0 -38.667 -10.667 -73.667 -32 -105s-50.666 -56.333 -87.999 -75s-80.333 -29.334 -129 -32.001l-12 -53c29.333 -1.33301 52.833 -9.16602 70.5 -23.499s26.5 -33.166 26.5 -56.499
c0 -26.667 -10.333 -48.834 -31 -66.501s-47.334 -26.5 -80.001 -26.5z" />
    <glyph glyph-name="scedilla" unicode="&#x15f;" horiz-adv-x="452" 
d="M218 -239c-22.667 0 -43.3301 3 -61.9971 9s-34.667 15 -48 27l28 32c23.333 -19.333 49.666 -29 78.999 -29c20.667 0 36.667 4.66699 48 14s17 22 17 38c0 15.333 -6.16699 27.333 -18.5 36s-29.833 13 -52.5 13h-29l23 90c-72.667 4 -131 27.667 -175 71l39 48
c29.333 -21.333 56.333 -36.833 81 -46.5s50 -14.5 76 -14.5c35.333 0 64.666 8.33301 87.999 25s35 38 35 64c0 20 -6.83301 35.667 -20.5 47s-36.167 20 -67.5 26l-80 14c-47.333 8.66699 -82.166 23.334 -104.499 44.001s-33.5 48.667 -33.5 84c0 28 7.5 52.667 22.5 74
s35.833 38.166 62.5 50.499s57 18.5 91 18.5c33.333 0 65 -4.83301 95 -14.5s60.333 -25.167 91 -46.5l-36 -51c-25.333 18 -50.666 31.167 -75.999 39.5s-51 12.5 -77 12.5c-32 0 -57.667 -7 -77 -21s-29 -33 -29 -57c0 -20 6.16699 -35.333 18.5 -46
s34.166 -18.667 65.499 -24l82 -15c49.333 -8.66699 85.333 -23.667 108 -45s34 -50 34 -86c0 -26.667 -7.5 -51 -22.5 -73s-35.333 -39.833 -61 -53.5s-54.834 -21.834 -87.501 -24.501l-13 -57c29.333 -1.33301 52.833 -9.16602 70.5 -23.499s26.5 -33.166 26.5 -56.499
c0 -26.667 -10.333 -48.834 -31 -66.501s-47.334 -26.5 -80.001 -26.5z" />
    <glyph glyph-name="Scaron" unicode="&#x160;" horiz-adv-x="623" 
d="M315 -11c-54.667 0 -105.336 9.83691 -152.003 29.5039s-91.667 49.5 -135 89.5l47 56c42 -39.333 81.5 -67.333 118.5 -84s78.167 -25 123.5 -25c36 0 68.167 6.16699 96.5 18.5s50.5 29.166 66.5 50.499s24 45.666 24 72.999c0 35.333 -11.667 62.166 -35 80.499
s-63.666 32.5 -120.999 42.5l-113 19c-64 11.333 -110.833 30.833 -140.5 58.5s-44.5 64.834 -44.5 111.501c0 39.333 10.167 74.166 30.5 104.499s48.5 54.166 84.5 71.499s77.667 26 125 26c52 0 100.333 -7.16699 145 -21.5s88.667 -36.833 132 -67.5l-40 -60
c-36 27.333 -74 48.166 -114 62.499s-80.667 21.5 -122 21.5c-32.667 0 -61.5 -5.66699 -86.5 -17s-44.667 -26.666 -59 -45.999s-21.5 -41.333 -21.5 -66c0 -30.667 10.333 -54.667 31 -72s54.334 -29.666 101.001 -36.999l112 -19
c74.667 -13.333 128.834 -34.833 162.501 -64.5s50.5 -70.834 50.5 -123.501c0 -40.667 -11.5 -77 -34.5 -109s-54.5 -57.167 -94.5 -75.5s-85.667 -27.5 -137 -27.5zM197.998 924.004l92 -83l92 83h61l-114 -127h-78l-114 127h61z" />
    <glyph glyph-name="scaron" unicode="&#x161;" horiz-adv-x="452" 
d="M226 -10c-40 0 -76.999 6.16797 -110.999 18.501s-63 30.166 -87 53.499l39 48c29.333 -21.333 56.333 -36.833 81 -46.5s50 -14.5 76 -14.5c35.333 0 64.666 8.33301 87.999 25s35 38 35 64c0 20 -6.83301 35.667 -20.5 47s-36.167 20 -67.5 26l-80 14
c-47.333 8.66699 -82.166 23.334 -104.499 44.001s-33.5 48.667 -33.5 84c0 28 7.5 52.667 22.5 74s35.833 38.166 62.5 50.499s57 18.5 91 18.5c33.333 0 65 -4.83301 95 -14.5s60.333 -25.167 91 -46.5l-36 -51c-25.333 18 -50.666 31.167 -75.999 39.5s-51 12.5 -77 12.5
c-32 0 -57.667 -7 -77 -21s-29 -33 -29 -57c0 -20 6.16699 -35.333 18.5 -46s34.166 -18.667 65.499 -24l82 -15c49.333 -8.66699 85.333 -23.667 108 -45s34 -50 34 -86c0 -28.667 -8.33301 -54.5 -25 -77.5s-39.334 -41.167 -68.001 -54.5s-61 -20 -97 -20z
M124.001 710.001l92 -83l92 83h61l-114 -127h-78l-114 127h61z" />
    <glyph glyph-name="Tcedilla" unicode="&#x162;" horiz-adv-x="617" 
d="M300 -239c-22.667 0 -43.3311 2.99902 -61.998 8.99902s-34.667 15 -48 27l28 32c23.333 -19.333 49.666 -29 78.999 -29c20.667 0 36.667 4.66699 48 14s17 22 17 38c0 15.333 -6.16699 27.333 -18.5 36s-29.833 13 -52.5 13h-29l25 99h-17v632h-242v68h561v-68h-242
v-632h-18l-15 -66c29.333 -1.33301 52.833 -9.16602 70.5 -23.499s26.5 -33.166 26.5 -56.499c0 -26.667 -10.333 -48.834 -31 -66.501s-47.334 -26.5 -80.001 -26.5z" />
    <glyph glyph-name="tcedilla" unicode="&#x163;" horiz-adv-x="378" 
d="M226 -239c-22.667 0 -43.3311 2.99902 -61.998 8.99902s-34.667 15 -48 27l28 32c23.333 -19.333 49.666 -29 78.999 -29c20.667 0 36.667 4.66699 48 14s17 22 17 38c0 15.333 -6.16699 27.333 -18.5 36s-29.833 13 -52.5 13h-29l24 95c-52.667 14 -79 51.667 -79 113
v319h-101v60h101v134l73 17v-151h140v-60h-140v-300c0 -26 5.5 -44.667 16.5 -56s29.167 -17 54.5 -17c12.667 0 24 1 34 3s21.667 5.33301 35 10v-65c-13.333 -4.66699 -27.333 -8 -42 -10s-29 -3 -43 -3h-4h-4l-13 -56c29.333 -1.33301 52.833 -9.16602 70.5 -23.499
s26.5 -33.166 26.5 -56.499c0 -26.667 -10.333 -48.834 -31 -66.501s-47.334 -26.5 -80.001 -26.5z" />
    <glyph glyph-name="Tcaron" unicode="&#x164;" horiz-adv-x="617" 
d="M270 0v632h-242v68h561v-68h-242v-632h-77zM216 922l92 -83l92 83h61l-114 -127h-78l-114 127h61z" />
    <glyph glyph-name="tcaron" unicode="&#x165;" horiz-adv-x="378" 
d="M293 587l5 185l76 15l-25 -200h-56zM261 -10c-42 0 -73.833 10.167 -95.5 30.5s-32.5 49.833 -32.5 88.5v319h-101v60h101v134l73 17v-151h140v-60h-140v-300c0 -26 5.5 -44.667 16.5 -56s29.167 -17 54.5 -17c12.667 0 24 1 34 3s21.667 5.33301 35 10v-65
c-13.333 -4.66699 -27.333 -8 -42 -10s-29 -3 -43 -3z" />
    <glyph glyph-name="Tbar" unicode="&#x166;" horiz-adv-x="617" 
d="M270 0v312h-154v61h154v259h-242v68h561v-68h-242v-259h154v-61h-154v-312h-77z" />
    <glyph glyph-name="tbar" unicode="&#x167;" horiz-adv-x="378" 
d="M261 -10c-42 0 -73.833 10.167 -95.5 30.5s-32.5 49.833 -32.5 88.5v142h-101v54h101v123h-101v60h101v134l73 17v-151h140v-60h-140v-123h140v-54h-140v-123c0 -26 5.5 -44.667 16.5 -56s29.167 -17 54.5 -17c12.667 0 24 1 34 3s21.667 5.33301 35 10v-65
c-13.333 -4.66699 -27.333 -8 -42 -10s-29 -3 -43 -3z" />
    <glyph glyph-name="Utilde" unicode="&#x168;" horiz-adv-x="712" 
d="M356 -11c-57.333 0 -107.169 12.5 -149.502 37.5s-74.833 60.5 -97.5 106.5s-34 100.333 -34 163v404h77v-404c0 -48 8.33301 -89.667 25 -125s40.334 -62.833 71.001 -82.5s66.667 -29.5 108 -29.5s77.333 9.83301 108 29.5s54.334 47.167 71.001 82.5s25 77 25 125v404
h77v-404c0 -62.667 -11.333 -117 -34 -163s-55 -81.5 -97 -106.5s-92 -37.5 -150 -37.5zM235.997 792l-50.9971 10c9.33301 34 22.333 59.833 39 77.5s37 26.5 61 26.5c19.333 0 37.5 -5 54.5 -15s33 -20 48 -30s29.167 -15 42.5 -15c11.333 0 20.166 4.66699 26.499 14
s12.833 26 19.5 50l51 -10c-8.66699 -34 -21.167 -59.833 -37.5 -77.5s-35.833 -26.5 -58.5 -26.5c-18.667 0 -36.334 5 -53.001 15s-32.5 20 -47.5 30s-29.5 15 -43.5 15c-12.667 0 -22.834 -4.83301 -30.501 -14.5s-14.5 -26.167 -20.5 -49.5z" />
    <glyph glyph-name="utilde" unicode="&#x169;" horiz-adv-x="552" 
d="M249 -8c-34.667 0 -65.333 7.66895 -92 23.002s-47.5 36.666 -62.5 63.999s-22.5 58.666 -22.5 93.999v315h74v-294c0 -43.333 11.667 -77.666 35 -102.999s55 -38 95 -38c27.333 0 51.833 6.33301 73.5 19s39.834 31 54.501 55v361h73v-488h-73v79
c-18.667 -28.667 -40.834 -50.334 -66.501 -65.001s-55.167 -22 -88.5 -22zM156.001 580.002l-50.9971 10c9.33301 34 22.333 59.833 39 77.5s37 26.5 61 26.5c19.333 0 37.5 -5 54.5 -15s33 -20 48 -30s29.167 -15 42.5 -15c11.333 0 20.166 4.66699 26.499 14
s12.833 26 19.5 50l51 -10c-8.66699 -34 -21.167 -59.833 -37.5 -77.5s-35.833 -26.5 -58.5 -26.5c-18.667 0 -36.334 5 -53.001 15s-32.5 20 -47.5 30s-29.5 15 -43.5 15c-12.667 0 -22.834 -4.83301 -30.501 -14.5s-14.5 -26.167 -20.5 -49.5z" />
    <glyph glyph-name="Umacron" unicode="&#x16a;" horiz-adv-x="712" 
d="M356 -11c-57.333 0 -107.169 12.5 -149.502 37.5s-74.833 60.5 -97.5 106.5s-34 100.333 -34 163v404h77v-404c0 -48 8.33301 -89.667 25 -125s40.334 -62.833 71.001 -82.5s66.667 -29.5 108 -29.5s77.333 9.83301 108 29.5s54.334 47.167 71.001 82.5s25 77 25 125v404
h77v-404c0 -62.667 -11.333 -117 -34 -163s-55 -81.5 -97 -106.5s-92 -37.5 -150 -37.5zM219.997 823v52h272v-52h-272z" />
    <glyph glyph-name="umacron" unicode="&#x16b;" horiz-adv-x="552" 
d="M249 -8c-34.667 0 -65.333 7.66895 -92 23.002s-47.5 36.666 -62.5 63.999s-22.5 58.666 -22.5 93.999v315h74v-294c0 -43.333 11.667 -77.666 35 -102.999s55 -38 95 -38c27.333 0 51.833 6.33301 73.5 19s39.834 31 54.501 55v361h73v-488h-73v79
c-18.667 -28.667 -40.834 -50.334 -66.501 -65.001s-55.167 -22 -88.5 -22zM140.001 611.002v52h272v-52h-272z" />
    <glyph glyph-name="Ubreve" unicode="&#x16c;" horiz-adv-x="712" 
d="M356 -11c-57.333 0 -107.169 12.5 -149.502 37.5s-74.833 60.5 -97.5 106.5s-34 100.333 -34 163v404h77v-404c0 -48 8.33301 -89.667 25 -125s40.334 -62.833 71.001 -82.5s66.667 -29.5 108 -29.5s77.333 9.83301 108 29.5s54.334 47.167 71.001 82.5s25 77 25 125v404
h77v-404c0 -62.667 -11.333 -117 -34 -163s-55 -81.5 -97 -106.5s-92 -37.5 -150 -37.5zM356.997 791c-40.667 0 -74.998 11.167 -102.998 33.5s-46.667 53.166 -56 92.499l51 12c15.333 -61.333 51.333 -92 108 -92c27.333 0 50.166 8 68.499 24s31.166 38.667 38.499 68
l50 -12c-8.66699 -39.333 -27 -70.166 -55 -92.499s-62 -33.5 -102 -33.5z" />
    <glyph glyph-name="ubreve" unicode="&#x16d;" horiz-adv-x="552" 
d="M249 -8c-34.667 0 -65.333 7.66895 -92 23.002s-47.5 36.666 -62.5 63.999s-22.5 58.666 -22.5 93.999v315h74v-294c0 -43.333 11.667 -77.666 35 -102.999s55 -38 95 -38c27.333 0 51.833 6.33301 73.5 19s39.834 31 54.501 55v361h73v-488h-73v79
c-18.667 -28.667 -40.834 -50.334 -66.501 -65.001s-55.167 -22 -88.5 -22zM277.001 579.002c-40.667 0 -74.998 11.167 -102.998 33.5s-46.667 53.166 -56 92.499l51 12c15.333 -61.333 51.333 -92 108 -92c27.333 0 50.166 8 68.499 24s31.166 38.667 38.499 68l50 -12
c-8.66699 -39.333 -27 -70.166 -55 -92.499s-62 -33.5 -102 -33.5z" />
    <glyph glyph-name="Uring" unicode="&#x16e;" horiz-adv-x="712" 
d="M356 -11c-57.333 0 -107.169 12.5 -149.502 37.5s-74.833 60.5 -97.5 106.5s-34 100.333 -34 163v404h77v-404c0 -48 8.33301 -89.667 25 -125s40.334 -62.833 71.001 -82.5s66.667 -29.5 108 -29.5s77.333 9.83301 108 29.5s54.334 47.167 71.001 82.5s25 77 25 125v404
h77v-404c0 -62.667 -11.333 -117 -34 -163s-55 -81.5 -97 -106.5s-92 -37.5 -150 -37.5zM355.997 784c-20.667 0 -39.5 5.00098 -56.5 15.001s-30.5 23.5 -40.5 40.5s-15 35.833 -15 56.5c0 20 5 38.333 15 55s23.5 30 40.5 40s35.833 15 56.5 15s39.5 -5 56.5 -15
s30.5 -23.333 40.5 -40s15 -35.334 15 -56.001c0 -20 -5 -38.5 -15 -55.5s-23.5 -30.5 -40.5 -40.5s-35.833 -15 -56.5 -15zM355.997 825.001c19.333 0 35.833 6.83301 49.5 20.5s20.5 30.167 20.5 49.5s-6.83301 35.833 -20.5 49.5s-30.167 20.5 -49.5 20.5
s-35.833 -6.83301 -49.5 -20.5s-20.5 -30.167 -20.5 -49.5s6.83301 -35.833 20.5 -49.5s30.167 -20.5 49.5 -20.5z" />
    <glyph glyph-name="uring" unicode="&#x16f;" horiz-adv-x="552" 
d="M249 -8c-34.667 0 -65.333 7.66895 -92 23.002s-47.5 36.666 -62.5 63.999s-22.5 58.666 -22.5 93.999v315h74v-294c0 -43.333 11.667 -77.666 35 -102.999s55 -38 95 -38c27.333 0 51.833 6.33301 73.5 19s39.834 31 54.501 55v361h73v-488h-73v79
c-18.667 -28.667 -40.834 -50.334 -66.501 -65.001s-55.167 -22 -88.5 -22zM276.001 572.002c-20.667 0 -39.5 5.00098 -56.5 15.001s-30.5 23.5 -40.5 40.5s-15 35.833 -15 56.5c0 20 5 38.333 15 55s23.5 30 40.5 40s35.833 15 56.5 15s39.5 -5 56.5 -15
s30.5 -23.333 40.5 -40s15 -35.334 15 -56.001c0 -20 -5 -38.5 -15 -55.5s-23.5 -30.5 -40.5 -40.5s-35.833 -15 -56.5 -15zM276.001 613.003c19.333 0 35.833 6.83301 49.5 20.5s20.5 30.167 20.5 49.5s-6.83301 35.833 -20.5 49.5s-30.167 20.5 -49.5 20.5
s-35.833 -6.83301 -49.5 -20.5s-20.5 -30.167 -20.5 -49.5s6.83301 -35.833 20.5 -49.5s30.167 -20.5 49.5 -20.5z" />
    <glyph glyph-name="Uhungarumlaut" unicode="&#x170;" horiz-adv-x="712" 
d="M356 -11c-57.333 0 -107.169 12.5 -149.502 37.5s-74.833 60.5 -97.5 106.5s-34 100.333 -34 163v404h77v-404c0 -48 8.33301 -89.667 25 -125s40.334 -62.833 71.001 -82.5s66.667 -29.5 108 -29.5s77.333 9.83301 108 29.5s54.334 47.167 71.001 82.5s25 77 25 125v404
h77v-404c0 -62.667 -11.333 -117 -34 -163s-55 -81.5 -97 -106.5s-92 -37.5 -150 -37.5zM220.997 794l129 124h84l-144 -124h-69zM393.997 794l129 124h85l-147 -124h-67z" />
    <glyph glyph-name="uhungarumlaut" unicode="&#x171;" horiz-adv-x="552" 
d="M249 -8c-34.667 0 -65.333 7.66895 -92 23.002s-47.5 36.666 -62.5 63.999s-22.5 58.666 -22.5 93.999v315h74v-294c0 -43.333 11.667 -77.666 35 -102.999s55 -38 95 -38c27.333 0 51.833 6.33301 73.5 19s39.834 31 54.501 55v361h73v-488h-73v79
c-18.667 -28.667 -40.834 -50.334 -66.501 -65.001s-55.167 -22 -88.5 -22zM141.001 582.002l129 124h84l-144 -124h-69zM314.001 582.002l129 124h85l-147 -124h-67z" />
    <glyph glyph-name="Uogonek" unicode="&#x172;" horiz-adv-x="712" 
d="M394 -231c-32 0 -57.6699 8.33594 -77.0029 25.0029s-29 38.667 -29 66c0 22.667 6.66699 44.167 20 64.5s35 41.833 65 64.5c-60 -2.66699 -112.333 8.16602 -157 32.499s-79.334 59.833 -104.001 106.5s-37 102.667 -37 168v404h77v-404c0 -48 8.33301 -89.667 25 -125
s40.334 -62.833 71.001 -82.5s66.667 -29.5 108 -29.5s77.333 9.83301 108 29.5s54.334 47.167 71.001 82.5s25 77 25 125v404h77v-404c0 -77.333 -17.167 -141.833 -51.5 -193.5s-82.166 -85.834 -143.499 -102.501c-36 -23.333 -62.333 -45.333 -79 -66
s-25 -41.334 -25 -62.001c0 -18 6 -32 18 -42s28.333 -15 49 -15c8.66699 0 17.334 1 26.001 3s16 5 22 9l14 -39c-20 -12.667 -44.333 -19 -73 -19z" />
    <glyph glyph-name="uogonek" unicode="&#x173;" horiz-adv-x="552" 
d="M429 -231c-32 0 -57.668 8.33594 -77.001 25.0029s-29 38.667 -29 66c0 24.667 7.83301 48 23.5 70s40.834 45.333 75.501 70h-18v79c-18.667 -28.667 -40.834 -50.334 -66.501 -65.001s-55.167 -22 -88.5 -22c-34.667 0 -65.334 7.66699 -92.001 23
s-47.5 36.666 -62.5 63.999s-22.5 58.666 -22.5 93.999v315h74v-294c0 -43.333 11.667 -77.666 35 -102.999s55 -38 95 -38c27.333 0 51.833 6.33301 73.5 19s39.834 31 54.501 55v361h73v-488c-36 -23.333 -62.333 -45.333 -79 -66s-25 -41.334 -25 -62.001
c0 -18 6 -32 18 -42s28.333 -15 49 -15c8.66699 0 17.334 1 26.001 3s16 5 22 9l14 -39c-20 -12.667 -44.333 -19 -73 -19z" />
    <glyph glyph-name="Wcircumflex" unicode="&#x174;" horiz-adv-x="897" 
d="M193 0l-151 700h78l119 -579l173 579h75l173 -577l120 577h75l-151 -700h-78l-177 594l-178 -594h-78zM543 791l-94 84l-93 -84h-59l114 127h78l114 -127h-60z" />
    <glyph glyph-name="wcircumflex" unicode="&#x175;" horiz-adv-x="698" 
d="M162 0l-134 488h71l102 -390l117 390h65l117 -390l101 390h69l-133 -488h-71l-116 394l-116 -394h-72zM443 579l-94 84l-93 -84h-59l114 127h78l114 -127h-60z" />
    <glyph glyph-name="Ycircumflex" unicode="&#x176;" horiz-adv-x="646" 
d="M284 0v286l-272 414h90l223 -347l224 347h85l-273 -416v-284h-77zM419 791l-94 84l-93 -84h-59l114 127h78l114 -127h-60z" />
    <glyph glyph-name="ycircumflex" unicode="&#x177;" horiz-adv-x="498" 
d="M96 -219c-15.333 0 -30.9971 2.33301 -46.9971 7v65c6.66699 -1.33301 13.667 -2.33301 21 -3s13.666 -1 18.999 -1c18.667 0 34.167 5 46.5 15s22.833 25.667 31.5 47l36 89l-188 488h81l148 -401l157 401h81l-246 -599c-10.667 -26 -22.334 -47 -35.001 -63
s-27.334 -27.5 -44.001 -34.5s-37 -10.5 -61 -10.5zM342.003 579l-94 84l-93 -84h-59l114 127h78l114 -127h-60z" />
    <glyph glyph-name="Ydieresis" unicode="&#x178;" horiz-adv-x="646" 
d="M284 0v286l-272 414h90l223 -347l224 347h85l-273 -416v-284h-77zM238 821c-14.667 0 -27.167 5.16699 -37.5 15.5s-15.5 22.5 -15.5 36.5s5.16699 26.167 15.5 36.5s22.833 15.5 37.5 15.5s27.167 -5.16699 37.5 -15.5s15.5 -22.5 15.5 -36.5
s-5.16699 -26.167 -15.5 -36.5s-22.833 -15.5 -37.5 -15.5zM414 821c-14.667 0 -27.167 5.16699 -37.5 15.5s-15.5 22.5 -15.5 36.5s5.16699 26.167 15.5 36.5s22.833 15.5 37.5 15.5s27.167 -5.16699 37.5 -15.5s15.5 -22.5 15.5 -36.5s-5.16699 -26.167 -15.5 -36.5
s-22.833 -15.5 -37.5 -15.5z" />
    <glyph glyph-name="Zacute" unicode="&#x179;" horiz-adv-x="605" 
d="M37 0v54l430 581l-427 -2v67h524v-54l-431 -581l439 2v-67h-535zM241 796l112 122h99l-144 -122h-67z" />
    <glyph glyph-name="zacute" unicode="&#x17a;" horiz-adv-x="459" 
d="M41 0v58l281 364l-278 -1v67h367v-57l-282 -366l286 1v-66h-374zM164 584l112 122h99l-144 -122h-67z" />
    <glyph glyph-name="Zdotaccent" unicode="&#x17b;" horiz-adv-x="605" 
d="M37 0v54l430 581l-427 -2v67h524v-54l-431 -581l439 2v-67h-535zM305 821c-14.667 0 -27.167 5.16699 -37.5 15.5s-15.5 22.5 -15.5 36.5s5.16699 26.167 15.5 36.5s22.833 15.5 37.5 15.5s27.167 -5.16699 37.5 -15.5s15.5 -22.5 15.5 -36.5
s-5.16699 -26.167 -15.5 -36.5s-22.833 -15.5 -37.5 -15.5z" />
    <glyph glyph-name="zdotaccent" unicode="&#x17c;" horiz-adv-x="459" 
d="M41 0v58l281 364l-278 -1v67h367v-57l-282 -366l286 1v-66h-374zM228 609c-14.667 0 -27.167 5.16699 -37.5 15.5s-15.5 22.5 -15.5 36.5s5.16699 26.167 15.5 36.5s22.833 15.5 37.5 15.5s27.167 -5.16699 37.5 -15.5s15.5 -22.5 15.5 -36.5
s-5.16699 -26.167 -15.5 -36.5s-22.833 -15.5 -37.5 -15.5z" />
    <glyph glyph-name="Zcaron" unicode="&#x17d;" horiz-adv-x="605" 
d="M37 0v54l430 581l-427 -2v67h524v-54l-431 -581l439 2v-67h-535zM213 922l92 -83l92 83h61l-114 -127h-78l-114 127h61z" />
    <glyph glyph-name="zcaron" unicode="&#x17e;" horiz-adv-x="459" 
d="M41 0v58l281 364l-278 -1v67h367v-57l-282 -366l286 1v-66h-374zM136 710l92 -83l92 83h61l-114 -127h-78l-114 127h61z" />
    <glyph glyph-name="Scommaaccent" unicode="&#x218;" horiz-adv-x="623" 
d="M315 -11c-54.667 0 -105.336 9.83691 -152.003 29.5039s-91.667 49.5 -135 89.5l47 56c42 -39.333 81.5 -67.333 118.5 -84s78.167 -25 123.5 -25c36 0 68.167 6.16699 96.5 18.5s50.5 29.166 66.5 50.499s24 45.666 24 72.999c0 35.333 -11.667 62.166 -35 80.499
s-63.666 32.5 -120.999 42.5l-113 19c-64 11.333 -110.833 30.833 -140.5 58.5s-44.5 64.834 -44.5 111.501c0 39.333 10.167 74.166 30.5 104.499s48.5 54.166 84.5 71.499s77.667 26 125 26c52 0 100.333 -7.16699 145 -21.5s88.667 -36.833 132 -67.5l-40 -60
c-36 27.333 -74 48.166 -114 62.499s-80.667 21.5 -122 21.5c-32.667 0 -61.5 -5.66699 -86.5 -17s-44.667 -26.666 -59 -45.999s-21.5 -41.333 -21.5 -66c0 -30.667 10.333 -54.667 31 -72s54.334 -29.666 101.001 -36.999l112 -19
c74.667 -13.333 128.834 -34.833 162.501 -64.5s50.5 -70.834 50.5 -123.501c0 -40.667 -11.5 -77 -34.5 -109s-54.5 -57.167 -94.5 -75.5s-85.667 -27.5 -137 -27.5zM232.998 -271.996l49 187h73l-69 -187h-53z" />
    <glyph glyph-name="scommaaccent" unicode="&#x219;" horiz-adv-x="452" 
d="M226 -10c-40 0 -76.999 6.16797 -110.999 18.501s-63 30.166 -87 53.499l39 48c29.333 -21.333 56.333 -36.833 81 -46.5s50 -14.5 76 -14.5c35.333 0 64.666 8.33301 87.999 25s35 38 35 64c0 20 -6.83301 35.667 -20.5 47s-36.167 20 -67.5 26l-80 14
c-47.333 8.66699 -82.166 23.334 -104.499 44.001s-33.5 48.667 -33.5 84c0 28 7.5 52.667 22.5 74s35.833 38.166 62.5 50.499s57 18.5 91 18.5c33.333 0 65 -4.83301 95 -14.5s60.333 -25.167 91 -46.5l-36 -51c-25.333 18 -50.666 31.167 -75.999 39.5s-51 12.5 -77 12.5
c-32 0 -57.667 -7 -77 -21s-29 -33 -29 -57c0 -20 6.16699 -35.333 18.5 -46s34.166 -18.667 65.499 -24l82 -15c49.333 -8.66699 85.333 -23.667 108 -45s34 -50 34 -86c0 -28.667 -8.33301 -54.5 -25 -77.5s-39.334 -41.167 -68.001 -54.5s-61 -20 -97 -20z
M145.001 -273.999l49 187h73l-69 -187h-53z" />
    <glyph glyph-name="uni021A" unicode="&#x21a;" horiz-adv-x="617" 
d="M270 0v632h-242v68h561v-68h-242v-632h-77zM227 -274l49 187h73l-69 -187h-53z" />
    <glyph glyph-name="uni021B" unicode="&#x21b;" horiz-adv-x="378" 
d="M261 -10c-42 0 -73.833 10.167 -95.5 30.5s-32.5 49.833 -32.5 88.5v319h-101v60h101v134l73 17v-151h140v-60h-140v-300c0 -26 5.5 -44.667 16.5 -56s29.167 -17 54.5 -17c12.667 0 24 1 34 3s21.667 5.33301 35 10v-65c-13.333 -4.66699 -27.333 -8 -42 -10
s-29 -3 -43 -3zM153 -274l49 187h73l-69 -187h-53z" />
    <glyph glyph-name="dotlessj" unicode="&#x237;" horiz-adv-x="223" 
d="M25 -219c-8 0 -15.834 0.667969 -23.501 2.00098s-14.834 2.66602 -21.501 3.99902v63c6 -1.33301 11.833 -2.33301 17.5 -3s11.834 -1 18.501 -1c21.333 0 36.5 5 45.5 15s13.5 26.333 13.5 49v578h73v-582c0 -39.333 -10.667 -70 -32 -92s-51.666 -33 -90.999 -33z" />
    <glyph glyph-name="uni02BB" unicode="&#x2bb;" horiz-adv-x="250" 
d="M200 750l-60 -231h-78l81 231h57z" />
    <glyph glyph-name="uni02BC" unicode="&#x2bc;" horiz-adv-x="250" 
d="M50 519l60 231h78l-81 -231h-57z" />
    <glyph glyph-name="circumflex" unicode="&#x2c6;" 
d="M393 579l-94 84l-93 -84h-59l114 127h78l114 -127h-60z" />
    <glyph glyph-name="caron" unicode="&#x2c7;" 
d="M208 710l92 -83l92 83h61l-114 -127h-78l-114 127h61z" />
    <glyph glyph-name="breve" unicode="&#x2d8;" 
d="M301 579c-40.667 0 -74.998 11.167 -102.998 33.5s-46.667 53.166 -56 92.499l51 12c15.333 -61.333 51.333 -92 108 -92c27.333 0 50.166 8 68.499 24s31.166 38.667 38.499 68l50 -12c-8.66699 -39.333 -27 -70.166 -55 -92.499s-62 -33.5 -102 -33.5z" />
    <glyph glyph-name="dotaccent" unicode="&#x2d9;" 
d="M300 609c-14.667 0 -27.167 5.16699 -37.5 15.5s-15.5 22.5 -15.5 36.5s5.16699 26.167 15.5 36.5s22.833 15.5 37.5 15.5s27.167 -5.16699 37.5 -15.5s15.5 -22.5 15.5 -36.5s-5.16699 -26.167 -15.5 -36.5s-22.833 -15.5 -37.5 -15.5z" />
    <glyph glyph-name="ring" unicode="&#x2da;" 
d="M300 572c-20.667 0 -39.5 5.00098 -56.5 15.001s-30.5 23.5 -40.5 40.5s-15 35.833 -15 56.5c0 20 5 38.333 15 55s23.5 30 40.5 40s35.833 15 56.5 15s39.5 -5 56.5 -15s30.5 -23.333 40.5 -40s15 -35.334 15 -56.001c0 -20 -5 -38.5 -15 -55.5s-23.5 -30.5 -40.5 -40.5
s-35.833 -15 -56.5 -15zM300 613.001c19.333 0 35.833 6.83301 49.5 20.5s20.5 30.167 20.5 49.5s-6.83301 35.833 -20.5 49.5s-30.167 20.5 -49.5 20.5s-35.833 -6.83301 -49.5 -20.5s-20.5 -30.167 -20.5 -49.5s6.83301 -35.833 20.5 -49.5s30.167 -20.5 49.5 -20.5z" />
    <glyph glyph-name="ogonek" unicode="&#x2db;" 
d="M305 -231c-32 0 -57.668 8.33398 -77.001 25.001s-29 38.667 -29 66s9.5 53 28.5 77s50.167 50.333 93.5 79l32 -16c-36 -23.333 -62.333 -45.333 -79 -66s-25 -41.334 -25 -62.001c0 -18 6 -32 18 -42s28.333 -15 49 -15c8.66699 0 17.334 1 26.001 3s16 5 22 9l14 -39
c-20 -12.667 -44.333 -19 -73 -19z" />
    <glyph glyph-name="tilde" unicode="&#x2dc;" 
d="M180 580l-50.9971 10c9.33301 34 22.333 59.833 39 77.5s37 26.5 61 26.5c19.333 0 37.5 -5 54.5 -15s33 -20 48 -30s29.167 -15 42.5 -15c11.333 0 20.166 4.66699 26.499 14s12.833 26 19.5 50l51 -10c-8.66699 -34 -21.167 -59.833 -37.5 -77.5
s-35.833 -26.5 -58.5 -26.5c-18.667 0 -36.334 5 -53.001 15s-32.5 20 -47.5 30s-29.5 15 -43.5 15c-12.667 0 -22.834 -4.83301 -30.501 -14.5s-14.5 -26.167 -20.5 -49.5z" />
    <glyph glyph-name="hungarumlaut" unicode="&#x2dd;" 
d="M165 582l129 124h84l-144 -124h-69zM338 582l129 124h85l-147 -124h-67z" />
    <glyph glyph-name="Wgrave" unicode="&#x1e80;" horiz-adv-x="897" 
d="M193 0l-151 700h78l119 -579l173 579h75l173 -577l120 577h75l-151 -700h-78l-177 594l-178 -594h-78zM444 796l-144 122h103l112 -122h-71z" />
    <glyph glyph-name="wgrave" unicode="&#x1e81;" horiz-adv-x="698" 
d="M162 0l-134 488h71l102 -390l117 390h65l117 -390l101 390h69l-133 -488h-71l-116 394l-116 -394h-72zM344 584l-144 122h103l112 -122h-71z" />
    <glyph glyph-name="Wacute" unicode="&#x1e82;" horiz-adv-x="897" 
d="M193 0l-151 700h78l119 -579l173 579h75l173 -577l120 577h75l-151 -700h-78l-177 594l-178 -594h-78zM386 796l112 122h99l-144 -122h-67z" />
    <glyph glyph-name="wacute" unicode="&#x1e83;" horiz-adv-x="698" 
d="M162 0l-134 488h71l102 -390l117 390h65l117 -390l101 390h69l-133 -488h-71l-116 394l-116 -394h-72zM286 584l112 122h99l-144 -122h-67z" />
    <glyph glyph-name="Wdieresis" unicode="&#x1e84;" horiz-adv-x="897" 
d="M193 0l-151 700h78l119 -579l173 579h75l173 -577l120 577h75l-151 -700h-78l-177 594l-178 -594h-78zM362 821c-14.667 0 -27.167 5.16699 -37.5 15.5s-15.5 22.5 -15.5 36.5s5.16699 26.167 15.5 36.5s22.833 15.5 37.5 15.5s27.167 -5.16699 37.5 -15.5
s15.5 -22.5 15.5 -36.5s-5.16699 -26.167 -15.5 -36.5s-22.833 -15.5 -37.5 -15.5zM538 821c-14.667 0 -27.167 5.16699 -37.5 15.5s-15.5 22.5 -15.5 36.5s5.16699 26.167 15.5 36.5s22.833 15.5 37.5 15.5s27.167 -5.16699 37.5 -15.5s15.5 -22.5 15.5 -36.5
s-5.16699 -26.167 -15.5 -36.5s-22.833 -15.5 -37.5 -15.5z" />
    <glyph glyph-name="wdieresis" unicode="&#x1e85;" horiz-adv-x="698" 
d="M162 0l-134 488h71l102 -390l117 390h65l117 -390l101 390h69l-133 -488h-71l-116 394l-116 -394h-72zM262 609c-14.667 0 -27.167 5.16699 -37.5 15.5s-15.5 22.5 -15.5 36.5s5.16699 26.167 15.5 36.5s22.833 15.5 37.5 15.5s27.167 -5.16699 37.5 -15.5
s15.5 -22.5 15.5 -36.5s-5.16699 -26.167 -15.5 -36.5s-22.833 -15.5 -37.5 -15.5zM438 609c-14.667 0 -27.167 5.16699 -37.5 15.5s-15.5 22.5 -15.5 36.5s5.16699 26.167 15.5 36.5s22.833 15.5 37.5 15.5s27.167 -5.16699 37.5 -15.5s15.5 -22.5 15.5 -36.5
s-5.16699 -26.167 -15.5 -36.5s-22.833 -15.5 -37.5 -15.5z" />
    <glyph glyph-name="Ygrave" unicode="&#x1ef2;" horiz-adv-x="646" 
d="M284 0v286l-272 414h90l223 -347l224 347h85l-273 -416v-284h-77zM320 796l-144 122h103l112 -122h-71z" />
    <glyph glyph-name="ygrave" unicode="&#x1ef3;" horiz-adv-x="498" 
d="M96 -219c-15.333 0 -30.9971 2.33301 -46.9971 7v65c6.66699 -1.33301 13.667 -2.33301 21 -3s13.666 -1 18.999 -1c18.667 0 34.167 5 46.5 15s22.833 25.667 31.5 47l36 89l-188 488h81l148 -401l157 401h81l-246 -599c-10.667 -26 -22.334 -47 -35.001 -63
s-27.334 -27.5 -44.001 -34.5s-37 -10.5 -61 -10.5zM243.003 584l-144 122h103l112 -122h-71z" />
    <glyph glyph-name="enspace" unicode="&#x2002;" horiz-adv-x="505" 
 />
    <glyph glyph-name="emspace" unicode="&#x2003;" horiz-adv-x="980" 
 />
    <glyph glyph-name="thinspace" unicode="&#x2009;" horiz-adv-x="198" 
 />
    <glyph glyph-name="hairspace" unicode="&#x200a;" horiz-adv-x="125" 
 />
    <glyph glyph-name="zerowidthspace" unicode="&#x200b;" horiz-adv-x="0" 
 />
    <glyph glyph-name="endash" unicode="&#x2013;" horiz-adv-x="550" 
d="M61 250v63h428v-63h-428z" />
    <glyph glyph-name="emdash" unicode="&#x2014;" horiz-adv-x="692" 
d="M61 250v63h570v-63h-570z" />
    <glyph glyph-name="uni2015" unicode="&#x2015;" horiz-adv-x="930" 
d="M61 250v63h808v-63h-808z" />
    <glyph glyph-name="quoteleft" unicode="&#x2018;" horiz-adv-x="250" 
d="M200 750l-60 -231h-78l81 231h57z" />
    <glyph glyph-name="quoteright" unicode="&#x2019;" horiz-adv-x="250" 
d="M50 519l60 231h78l-81 -231h-57z" />
    <glyph glyph-name="quotesinglbase" unicode="&#x201a;" horiz-adv-x="250" 
d="M50 -157l60 231h78l-81 -231h-57z" />
    <glyph glyph-name="quotedblleft" unicode="&#x201c;" horiz-adv-x="410" 
d="M200 750l-60 -231h-78l81 231h57zM360 750l-60 -231h-78l81 231h57z" />
    <glyph glyph-name="quotedblright" unicode="&#x201d;" horiz-adv-x="410" 
d="M210 519l60 231h78l-81 -231h-57zM50 519l60 231h78l-81 -231h-57z" />
    <glyph glyph-name="quotedblbase" unicode="&#x201e;" horiz-adv-x="413" 
d="M213 -157l60 231h78l-81 -231h-57zM50 -157l60 231h78l-81 -231h-57z" />
    <glyph glyph-name="dagger" unicode="&#x2020;" horiz-adv-x="432" 
d="M184 0v443h-134v57h134v200h64v-200h134v-57h-134v-443h-64z" />
    <glyph glyph-name="daggerdbl" unicode="&#x2021;" horiz-adv-x="432" 
d="M184 0v200h-134v57h134v186h-134v57h134v200h64v-200h134v-57h-134v-186h134v-57h-134v-200h-64z" />
    <glyph glyph-name="bullet" unicode="&#x2022;" horiz-adv-x="342" 
d="M172 252c-27.333 0 -50.999 9.66699 -70.999 29s-30 43.333 -30 72s10 52.667 30 72s43.333 29 70 29c27.333 0 50.833 -9.66699 70.5 -29s29.5 -43.333 29.5 -72s-9.83301 -52.667 -29.5 -72s-42.834 -29 -69.501 -29z" />
    <glyph glyph-name="ellipsis" unicode="&#x2026;" horiz-adv-x="689" 
d="M125 -8c-14.667 0 -27.167 5.33301 -37.5 16s-15.5 23.334 -15.5 38.001c0 15.333 5.16699 28.166 15.5 38.499s22.833 15.5 37.5 15.5s27.167 -5.16699 37.5 -15.5s15.5 -23.166 15.5 -38.499c0 -14.667 -5.16699 -27.334 -15.5 -38.001s-22.833 -16 -37.5 -16zM345 -8
c-14.667 0 -27.167 5.33301 -37.5 16s-15.5 23.334 -15.5 38.001c0 15.333 5.16699 28.166 15.5 38.499s22.833 15.5 37.5 15.5s27.167 -5.16699 37.5 -15.5s15.5 -23.166 15.5 -38.499c0 -14.667 -5.16699 -27.334 -15.5 -38.001s-22.833 -16 -37.5 -16zM564 -8
c-14.667 0 -27.167 5.33301 -37.5 16s-15.5 23.334 -15.5 38.001c0 15.333 5.16699 28.166 15.5 38.499s22.833 15.5 37.5 15.5s27.167 -5.16699 37.5 -15.5s15.5 -23.166 15.5 -38.499c0 -14.667 -5.16699 -27.334 -15.5 -38.001s-22.833 -16 -37.5 -16z" />
    <glyph glyph-name="perthousand" unicode="&#x2030;" horiz-adv-x="1084" 
d="M175 345c-43.333 0 -78.5 16.667 -105.5 50s-40.5 76.666 -40.5 129.999s13.5 96.666 40.5 129.999s62.167 50 105.5 50s78.5 -16.667 105.5 -50s40.5 -76.666 40.5 -129.999s-13.5 -96.666 -40.5 -129.999s-62.167 -50 -105.5 -50zM175 390
c29.333 0 52.666 12.167 69.999 36.5s26 57.166 26 98.499s-8.66699 74.166 -26 98.499s-40.666 36.5 -69.999 36.5c-28.667 0 -51.834 -12.167 -69.501 -36.5s-26.5 -57.166 -26.5 -98.499s8.83301 -74.166 26.5 -98.499s40.834 -36.5 69.501 -36.5zM144 0l393 700h58
l-394 -700h-57zM565 -5c-43.333 0 -78.5 16.667 -105.5 50s-40.5 76.666 -40.5 129.999s13.5 96.666 40.5 129.999s62.167 50 105.5 50s78.5 -16.667 105.5 -50s40.5 -76.666 40.5 -129.999s-13.5 -96.666 -40.5 -129.999s-62.167 -50 -105.5 -50zM565 40
c29.333 0 52.666 12.167 69.999 36.5s26 57.166 26 98.499s-8.66699 74.166 -26 98.499s-40.666 36.5 -69.999 36.5c-28.667 0 -51.834 -12.167 -69.501 -36.5s-26.5 -57.166 -26.5 -98.499s8.83301 -74.166 26.5 -98.499s40.834 -36.5 69.501 -36.5zM909 -5
c-43.333 0 -78.5 16.667 -105.5 50s-40.5 76.666 -40.5 129.999s13.5 96.666 40.5 129.999s62.167 50 105.5 50s78.5 -16.667 105.5 -50s40.5 -76.666 40.5 -129.999s-13.5 -96.666 -40.5 -129.999s-62.167 -50 -105.5 -50zM909 40c29.333 0 52.666 12.167 69.999 36.5
s26 57.166 26 98.499s-8.66699 74.166 -26 98.499s-40.666 36.5 -69.999 36.5c-28.667 0 -51.834 -12.167 -69.501 -36.5s-26.5 -57.166 -26.5 -98.499s8.83301 -74.166 26.5 -98.499s40.834 -36.5 69.501 -36.5z" />
    <glyph glyph-name="uni2032" unicode="&#x2032;" horiz-adv-x="250" 
d="M50 519l60 231h78l-81 -231h-57z" />
    <glyph glyph-name="uni2033" unicode="&#x2033;" horiz-adv-x="410" 
d="M210 519l60 231h78l-81 -231h-57zM50 519l60 231h78l-81 -231h-57z" />
    <glyph glyph-name="guilsinglleft" unicode="&#x2039;" horiz-adv-x="401" 
d="M267 0l-223 245l223 243h77l-217 -241l220 -247h-80z" />
    <glyph glyph-name="guilsinglright" unicode="&#x203a;" horiz-adv-x="401" 
d="M134 488l223 -245l-223 -243h-77l217 241l-220 247h80z" />
    <glyph glyph-name="fraction" unicode="&#x2044;" horiz-adv-x="578" 
d="M32 0l393 700h58l-394 -700h-57z" />
    <glyph glyph-name="uni2070" unicode="&#x2070;" horiz-adv-x="350" 
d="M175 345c-43.333 0 -78.5 16.667 -105.5 50s-40.5 76.666 -40.5 129.999s13.5 96.666 40.5 129.999s62.167 50 105.5 50s78.5 -16.667 105.5 -50s40.5 -76.666 40.5 -129.999s-13.5 -96.666 -40.5 -129.999s-62.167 -50 -105.5 -50zM175 390
c29.333 0 52.666 12.167 69.999 36.5s26 57.166 26 98.499s-8.66699 74.166 -26 98.499s-40.666 36.5 -69.999 36.5c-28.667 0 -51.834 -12.167 -69.501 -36.5s-26.5 -57.166 -26.5 -98.499s8.83301 -74.166 26.5 -98.499s40.834 -36.5 69.501 -36.5z" />
    <glyph glyph-name="uni2074" unicode="&#x2074;" horiz-adv-x="330" 
d="M219 350v88h-197v41l191 221h57v-220h42v-42h-42v-88h-51zM76 480h143v165z" />
    <glyph glyph-name="uni2075" unicode="&#x2075;" horiz-adv-x="309" 
d="M147 345c-44.667 0 -85.9971 12.3311 -123.997 36.998l25 40c19.333 -12 36.666 -20.833 51.999 -26.5s30.666 -8.5 45.999 -8.5c25.333 0 45.666 6.83301 60.999 20.5s23 30.834 23 51.501s-7.33301 37.334 -22 50.001s-34.667 19 -60 19
c-12.667 0 -25.167 -1.16699 -37.5 -3.5s-25.166 -6.16602 -38.499 -11.499l-32 10l8 177h215v-42h-173l-4 -105c22 9.33301 44.667 14 68 14c39.333 -0.666992 70.5 -10.834 93.5 -30.501s34.5 -45.167 34.5 -76.5c0 -34.667 -12.333 -62.5 -37 -83.5
s-57.334 -31.5 -98.001 -31.5z" />
    <glyph glyph-name="uni2076" unicode="&#x2076;" horiz-adv-x="326" 
d="M175 345c-43.333 0 -78.666 15.666 -105.999 46.999s-41 72.333 -41 123c0 57.333 15.5 103.166 46.5 137.499s71.833 51.5 122.5 51.5c30.667 0 59.667 -7.33301 87 -22l-21 -43c-12 6 -24.333 10.833 -37 14.5s-24 5.5 -34 5.5c-35.333 0 -63 -12.667 -83 -38
s-30 -59.666 -30 -102.999c12 14.667 27.167 26.167 45.5 34.5s37.833 12.5 58.5 12.5c34.667 0 63 -9.66699 85 -29s33 -44.666 33 -75.999c0 -32.667 -11.833 -60 -35.5 -82s-53.834 -33 -90.501 -33zM169 525.999c-16.667 0 -32.6689 -3.66699 -48.002 -11
s-28.666 -18 -39.999 -32c5.33301 -28.667 16.333 -51.5 33 -68.5s37.334 -25.5 62.001 -25.5c21.333 0 39 6.66699 53 20s21 30 21 50c0 19.333 -7.5 35.333 -22.5 48s-34.5 19 -58.5 19z" />
    <glyph glyph-name="uni2077" unicode="&#x2077;" horiz-adv-x="298" 
d="M57 350l172 305h-212v45h269v-39l-169 -311h-60z" />
    <glyph glyph-name="uni2078" unicode="&#x2078;" horiz-adv-x="327" 
d="M164 345c-38.667 0 -70.665 9.5 -95.998 28.5s-38 42.833 -38 71.5c0 20.667 7 38.834 21 54.501s32.333 26.5 55 32.5c-18.667 6 -33.834 16.167 -45.501 30.5s-17.5 30.833 -17.5 49.5c0 27.333 11.5 49.833 34.5 67.5s51.5 26.5 85.5 26.5
c23.333 0 44.166 -4.16699 62.499 -12.5s32.833 -19.5 43.5 -33.5s16 -30 16 -48c0 -18.667 -6 -35.167 -18 -49.5s-27.667 -24.5 -47 -30.5c23.333 -6 42 -16.833 56 -32.5s21 -33.834 21 -54.501c0 -28.667 -12.5 -52.5 -37.5 -71.5s-56.833 -28.5 -95.5 -28.5z
M164.002 552c19.333 0 35.833 5.33301 49.5 16s20.5 24 20.5 40s-6.83301 29.5 -20.5 40.5s-30.167 16.5 -49.5 16.5c-20.667 0 -37.667 -5.5 -51 -16.5s-20 -24.5 -20 -40.5s6.66699 -29.333 20 -40s30.333 -16 51 -16zM164.002 387c23.333 0 42.833 6 58.5 18
s23.5 26.667 23.5 44c0 18 -7.83301 33 -23.5 45s-35.167 18 -58.5 18c-24 0 -43.833 -6 -59.5 -18s-23.5 -27 -23.5 -45c0 -17.333 8 -32 24 -44s35.667 -18 59 -18z" />
    <glyph glyph-name="uni2079" unicode="&#x2079;" horiz-adv-x="326" 
d="M151 704c43.333 0 78.666 -15.666 105.999 -46.999s41 -72.333 41 -123c0 -56.667 -15.333 -102.334 -46 -137.001s-71.667 -52 -123 -52c-30.667 0 -59.667 7.33301 -87 22l21 43c12 -6 24.333 -10.833 37 -14.5s24 -5.5 34 -5.5c35.333 0 63 12.667 83 38
s30 59.666 30 102.999c-12 -14.667 -27.167 -26.167 -45.5 -34.5s-37.833 -12.5 -58.5 -12.5c-34.667 0 -63 9.83301 -85 29.5s-33 44.834 -33 75.501c0 33.333 11.833 60.833 35.5 82.5s53.834 32.5 90.501 32.5zM157 523.001c16.667 0 32.668 3.66699 48.001 11
s28.666 18 39.999 32c-4.66699 28.667 -15.5 51.5 -32.5 68.5s-37.833 25.5 -62.5 25.5c-21.333 0 -39 -6.66699 -53 -20s-21 -30 -21 -50c0 -19.333 7.5 -35.333 22.5 -48s34.5 -19 58.5 -19z" />
    <glyph glyph-name="uni2080" unicode="&#x2080;" horiz-adv-x="350" 
d="M175 -5c-43.333 0 -78.5 16.667 -105.5 50s-40.5 76.666 -40.5 129.999s13.5 96.666 40.5 129.999s62.167 50 105.5 50s78.5 -16.667 105.5 -50s40.5 -76.666 40.5 -129.999s-13.5 -96.666 -40.5 -129.999s-62.167 -50 -105.5 -50zM175 40
c29.333 0 52.666 12.167 69.999 36.5s26 57.166 26 98.499s-8.66699 74.166 -26 98.499s-40.666 36.5 -69.999 36.5c-28.667 0 -51.834 -12.167 -69.501 -36.5s-26.5 -57.166 -26.5 -98.499s8.83301 -74.166 26.5 -98.499s40.834 -36.5 69.501 -36.5z" />
    <glyph glyph-name="uni2081" unicode="&#x2081;" horiz-adv-x="166" 
d="M84 0v296l-63 -26v45l82 35h32v-350h-51z" />
    <glyph glyph-name="uni2082" unicode="&#x2082;" horiz-adv-x="292" 
d="M27 0l-0.000976562 38.001l140 130c17.333 16.667 29.5 31 36.5 43s10.5 25 10.5 39c0 17.333 -6.66699 31.666 -20 42.999s-30.333 17 -51 17c-16 0 -31.167 -3 -45.5 -9s-30.833 -17.333 -49.5 -34l-29 35c19.333 17.333 39.333 30.5 60 39.5s42.334 13.5 65.001 13.5
c35.333 0 64.166 -9.5 86.499 -28.5s33.5 -43.167 33.5 -72.5c0 -20 -4.66699 -38 -14 -54s-25.666 -34.667 -48.999 -56l-107 -100h175v-44h-242z" />
    <glyph glyph-name="uni2083" unicode="&#x2083;" horiz-adv-x="313" 
d="M151 -5c-49.333 0 -92.999 15.002 -130.999 45.002l30 38c17.333 -13.333 34.333 -23 51 -29s33.334 -9 50.001 -9c24 0 43.667 5.33301 59 16s23 24.667 23 42s-7.33301 31.166 -22 41.499s-34.334 15.5 -59.001 15.5h-33v40h28c21.333 0 38.833 5.66699 52.5 17
s20.5 25.666 20.5 42.999c0 16 -6.66699 29.167 -20 39.5s-30 15.5 -50 15.5c-16.667 0 -32.334 -3 -47.001 -9s-30.334 -15.667 -47.001 -29l-31 36c18 15.333 37.833 27.166 59.5 35.499s43.834 12.5 66.501 12.5c35.333 0 64.333 -9 87 -27s34 -41.333 34 -70
c0 -18.667 -6.5 -35.167 -19.5 -49.5s-30.833 -24.5 -53.5 -30.5c25.333 -4.66699 45.833 -14.167 61.5 -28.5s23.5 -32.166 23.5 -53.499c0 -30 -12.333 -54.5 -37 -73.5s-56.667 -28.5 -96 -28.5z" />
    <glyph glyph-name="uni2084" unicode="&#x2084;" horiz-adv-x="329" 
d="M219 0v88h-197v41l191 221h57v-220h42v-42h-42v-88h-51zM76 130h143v165z" />
    <glyph glyph-name="uni2085" unicode="&#x2085;" horiz-adv-x="309" 
d="M147 -5c-44.667 0 -85.9971 12.3311 -123.997 36.998l25 40c19.333 -12 36.666 -20.833 51.999 -26.5s30.666 -8.5 45.999 -8.5c25.333 0 45.666 6.83301 60.999 20.5s23 30.834 23 51.501s-7.33301 37.334 -22 50.001s-34.667 19 -60 19
c-12.667 0 -25.167 -1.16699 -37.5 -3.5s-25.166 -6.16602 -38.499 -11.499l-32 10l8 177h215v-42h-173l-4 -105c22 9.33301 44.667 14 68 14c39.333 -0.666992 70.5 -10.834 93.5 -30.501s34.5 -45.167 34.5 -76.5c0 -34.667 -12.333 -62.5 -37 -83.5
s-57.334 -31.5 -98.001 -31.5z" />
    <glyph glyph-name="uni2086" unicode="&#x2086;" horiz-adv-x="327" 
d="M175 -5c-43.333 0 -78.666 15.666 -105.999 46.999s-41 72.333 -41 123c0 57.333 15.5 103.166 46.5 137.499s71.833 51.5 122.5 51.5c30.667 0 59.667 -7.33301 87 -22l-21 -43c-12 6 -24.333 10.833 -37 14.5s-24 5.5 -34 5.5c-35.333 0 -63 -12.667 -83 -38
s-30 -59.666 -30 -102.999c12 14.667 27.167 26.167 45.5 34.5s37.833 12.5 58.5 12.5c34.667 0 63 -9.66699 85 -29s33 -44.666 33 -75.999c0 -32.667 -11.833 -60 -35.5 -82s-53.834 -33 -90.501 -33zM169 175.999c-16.667 0 -32.6689 -3.66699 -48.002 -11
s-28.666 -18 -39.999 -32c5.33301 -28.667 16.333 -51.5 33 -68.5s37.334 -25.5 62.001 -25.5c21.333 0 39 6.66699 53 20s21 30 21 50c0 19.333 -7.5 35.333 -22.5 48s-34.5 19 -58.5 19z" />
    <glyph glyph-name="uni2087" unicode="&#x2087;" horiz-adv-x="298" 
d="M57 0l172 305h-212v45h269v-39l-169 -311h-60z" />
    <glyph glyph-name="uni2088" unicode="&#x2088;" horiz-adv-x="327" 
d="M164 -5c-38.667 0 -70.665 9.5 -95.998 28.5s-38 42.833 -38 71.5c0 20.667 7 38.834 21 54.501s32.333 26.5 55 32.5c-18.667 6 -33.834 16.167 -45.501 30.5s-17.5 30.833 -17.5 49.5c0 27.333 11.5 49.833 34.5 67.5s51.5 26.5 85.5 26.5
c23.333 0 44.166 -4.16699 62.499 -12.5s32.833 -19.5 43.5 -33.5s16 -30 16 -48c0 -18.667 -6 -35.167 -18 -49.5s-27.667 -24.5 -47 -30.5c23.333 -6 42 -16.833 56 -32.5s21 -33.834 21 -54.501c0 -28.667 -12.5 -52.5 -37.5 -71.5s-56.833 -28.5 -95.5 -28.5z
M164.002 202c19.333 0 35.833 5.33301 49.5 16s20.5 24 20.5 40s-6.83301 29.5 -20.5 40.5s-30.167 16.5 -49.5 16.5c-20.667 0 -37.667 -5.5 -51 -16.5s-20 -24.5 -20 -40.5s6.66699 -29.333 20 -40s30.333 -16 51 -16zM164.002 37c23.333 0 42.833 6 58.5 18
s23.5 26.667 23.5 44c0 18 -7.83301 33 -23.5 45s-35.167 18 -58.5 18c-24 0 -43.833 -6 -59.5 -18s-23.5 -27 -23.5 -45c0 -17.333 8 -32 24 -44s35.667 -18 59 -18z" />
    <glyph glyph-name="uni2089" unicode="&#x2089;" horiz-adv-x="326" 
d="M151 354c43.333 0 78.666 -15.666 105.999 -46.999s41 -72.333 41 -123c0 -57.333 -15.5 -103.166 -46.5 -137.499s-71.833 -51.5 -122.5 -51.5c-30.667 0 -59.667 7.33301 -87 22l21 43c12 -6 24.333 -10.833 37 -14.5s24 -5.5 34 -5.5c35.333 0 63 12.667 83 38
s30 59.666 30 102.999c-12 -14.667 -27.167 -26.167 -45.5 -34.5s-37.833 -12.5 -58.5 -12.5c-34.667 0 -63 9.66699 -85 29s-33 44.666 -33 75.999c0 32.667 11.833 60 35.5 82s53.834 33 90.501 33zM157 173.001c16.667 0 32.6689 3.66699 48.002 11s28.666 18 39.999 32
c-5.33301 28.667 -16.333 51.5 -33 68.5s-37.334 25.5 -62.001 25.5c-21.333 0 -39 -6.66699 -53 -20s-21 -30 -21 -50c0 -19.333 7.5 -35.333 22.5 -48s34.5 -19 58.5 -19z" />
    <glyph glyph-name="Euro" unicode="&#x20ac;" horiz-adv-x="729" 
d="M439 -11c-49.333 0 -94.5 11.1689 -135.5 33.502s-75.333 53.5 -103 93.5s-46.834 86.667 -57.501 140h-99v54h92c-0.666992 6.66699 -1.16699 13.334 -1.5 20.001s-0.5 13.334 -0.5 20.001c0 7.33301 0.166992 14.166 0.5 20.499s0.833008 12.833 1.5 19.5h-92v54h99
c10.667 53.333 29.834 100 57.501 140s62 71.167 103 93.5s86.167 33.5 135.5 33.5c47.333 0 90.666 -10.5 129.999 -31.5s73.666 -52.167 102.999 -93.5l-53 -41c-22.667 33.333 -49.334 58.666 -80.001 75.999s-64.667 26 -102 26c-56 0 -103.667 -18.333 -143 -55
s-65.666 -86 -78.999 -148h269l-18 -54h-259c-0.666992 -6.66699 -1.16699 -13.167 -1.5 -19.5s-0.5 -13.166 -0.5 -20.499c0 -6.66699 0.166992 -13.334 0.5 -20.001s0.833008 -13.334 1.5 -20.001h231l-17 -54h-206c13.333 -62 39.666 -111.333 78.999 -148
s87 -55 143 -55c37.333 0 71.333 8.66699 102 26s57.334 42.666 80.001 75.999l53 -41c-29.333 -41.333 -63.666 -72.5 -102.999 -93.5s-82.666 -31.5 -129.999 -31.5z" />
    <glyph glyph-name="trademark" unicode="&#x2122;" horiz-adv-x="672" 
d="M323 421v279h53l83 -181l83 181h53v-279h-41l2 224l-97 -205l-97 203l1 -222h-40zM140 421v241h-93v38h229v-38h-94v-241h-42z" />
    <glyph glyph-name="uni2191" unicode="&#x2191;" horiz-adv-x="572" 
d="M251 0v609l-163 -215l-48 38l246 318l246 -318l-47 -37l-166 219v-614h-68z" />
    <glyph glyph-name="uni2193" unicode="&#x2193;" horiz-adv-x="572" 
d="M321 700v-609l163 215l48 -38l-246 -318l-246 318l47 37l166 -219v614h68z" />
    <glyph glyph-name="minus" unicode="&#x2212;" 
d="M102 328v60h396v-60h-396z" />
    <glyph glyph-name="uni2215" unicode="&#x2215;" horiz-adv-x="578" 
d="M32 0l393 700h58l-394 -700h-57z" />
    <glyph glyph-name="notequal" unicode="&#x2260;" 
d="M111 123l84 122h-93v60h134l71 103h-205v60h246l83 121h58l-83 -121h92v-60h-133l-71 -103h204v-60h-245l-84 -122h-58z" />
    <glyph glyph-name="fi" unicode="&#xfb01;" horiz-adv-x="587" 
d="M137 0l0.000976562 428h-109v60h109v102c0 48 12.667 85 38 111s61.333 39 108 39c13.333 0 25.5 -0.666992 36.5 -2s20.833 -3.66602 29.5 -6.99902v-66c-10.667 3.33301 -20.334 5.66602 -29.001 6.99902s-18.667 2 -30 2c-28 0 -48.333 -6.83301 -61 -20.5
s-19 -35.167 -19 -64.5v-101h139v-60h-139v-428h-73zM441.001 0v488h73v-488h-73zM478.001 609c-14.667 0 -27.167 5.16699 -37.5 15.5s-15.5 22.5 -15.5 36.5s5.16699 26.167 15.5 36.5s22.833 15.5 37.5 15.5s27.167 -5.16699 37.5 -15.5s15.5 -22.5 15.5 -36.5
s-5.16699 -26.167 -15.5 -36.5s-22.833 -15.5 -37.5 -15.5z" />
    <glyph glyph-name="fl" unicode="&#xfb02;" horiz-adv-x="587" 
d="M137 0l0.000976562 428h-109v60h109v102c0 48 12.667 85 38 111s61.333 39 108 39c13.333 0 25.5 -0.666992 36.5 -2s20.833 -3.66602 29.5 -6.99902v-66c-10.667 3.33301 -20.334 5.66602 -29.001 6.99902s-18.667 2 -30 2c-28 0 -48.333 -6.83301 -61 -20.5
s-19 -35.167 -19 -64.5v-101h139v-60h-139v-428h-73zM442.001 0v722l73 15v-737h-73z" />
    <glyph glyph-name="uniFEFF" unicode="&#xfeff;" horiz-adv-x="0" 
 />
    <glyph glyph-name="uniFFFD" unicode="&#xfffd;" horiz-adv-x="514" 
d="M60 -100v850h394v-850h-394z" />
    <glyph glyph-name="NULL" horiz-adv-x="233" 
 />
    <glyph glyph-name="CR" horiz-adv-x="233" 
 />
    <glyph glyph-name="idotaccent" horiz-adv-x="218" 
d="M74 0v488h73v-488h-73zM111 609c-14.667 0 -27.167 5.16699 -37.5 15.5s-15.5 22.5 -15.5 36.5s5.16699 26.167 15.5 36.5s22.833 15.5 37.5 15.5s27.167 -5.16699 37.5 -15.5s15.5 -22.5 15.5 -36.5s-5.16699 -26.167 -15.5 -36.5s-22.833 -15.5 -37.5 -15.5z" />
    <glyph glyph-name="a.school" horiz-adv-x="582" 
d="M278 -7c-42 0 -80 11.165 -114 33.498s-61 52.333 -81 90s-30 79.834 -30 126.501c0 47.333 10.167 89.833 30.5 127.5s47.833 67.667 82.5 90s73.334 33.5 116.001 33.5c30 0 58 -5.83301 84 -17.5s48.667 -28.5 68 -50.5v62h73v-488h-73v65
c-18.667 -23.333 -41.334 -41.166 -68.001 -53.499s-56 -18.5 -88 -18.5zM296 56.998c28.667 0 54.999 5.66406 78.999 16.9971s43.667 27.333 59 48v242c-16 20.667 -36.167 36.834 -60.5 48.501s-50.166 17.5 -77.499 17.5c-32.667 0 -61.834 -8 -87.501 -24
s-46 -38 -61 -66s-22.5 -60 -22.5 -96c0 -35.333 7.5 -67.166 22.5 -95.499s35.333 -50.666 61 -66.999s54.834 -24.5 87.501 -24.5z" />
    <glyph glyph-name="aacute.school" horiz-adv-x="582" 
d="M278 -7c-42 0 -80 11.165 -114 33.498s-61 52.333 -81 90s-30 79.834 -30 126.501c0 47.333 10.167 89.833 30.5 127.5s47.833 67.667 82.5 90s73.334 33.5 116.001 33.5c30 0 58 -5.83301 84 -17.5s48.667 -28.5 68 -50.5v62h73v-488h-73v65
c-18.667 -23.333 -41.334 -41.166 -68.001 -53.499s-56 -18.5 -88 -18.5zM296 56.998c28.667 0 54.999 5.66406 78.999 16.9971s43.667 27.333 59 48v242c-16 20.667 -36.167 36.834 -60.5 48.501s-50.166 17.5 -77.499 17.5c-32.667 0 -61.834 -8 -87.501 -24
s-46 -38 -61 -66s-22.5 -60 -22.5 -96c0 -35.333 7.5 -67.166 22.5 -95.499s35.333 -50.666 61 -66.999s54.834 -24.5 87.501 -24.5zM217.999 583.995l112 122h99l-144 -122h-67z" />
    <glyph glyph-name="abreve.school" horiz-adv-x="582" 
d="M278 -7c-42 0 -80 11.165 -114 33.498s-61 52.333 -81 90s-30 79.834 -30 126.501c0 47.333 10.167 89.833 30.5 127.5s47.833 67.667 82.5 90s73.334 33.5 116.001 33.5c30 0 58 -5.83301 84 -17.5s48.667 -28.5 68 -50.5v62h73v-488h-73v65
c-18.667 -23.333 -41.334 -41.166 -68.001 -53.499s-56 -18.5 -88 -18.5zM296 56.998c28.667 0 54.999 5.66406 78.999 16.9971s43.667 27.333 59 48v242c-16 20.667 -36.167 36.834 -60.5 48.501s-50.166 17.5 -77.499 17.5c-32.667 0 -61.834 -8 -87.501 -24
s-46 -38 -61 -66s-22.5 -60 -22.5 -96c0 -35.333 7.5 -67.166 22.5 -95.499s35.333 -50.666 61 -66.999s54.834 -24.5 87.501 -24.5zM282.999 578.995c-40.667 0 -74.998 11.167 -102.998 33.5s-46.667 53.166 -56 92.499l51 12c15.333 -61.333 51.333 -92 108 -92
c27.333 0 50.166 8 68.499 24s31.166 38.667 38.499 68l50 -12c-8.66699 -39.333 -27 -70.166 -55 -92.499s-62 -33.5 -102 -33.5z" />
    <glyph glyph-name="acircumflex.school" horiz-adv-x="582" 
d="M278 -7c-42 0 -80 11.165 -114 33.498s-61 52.333 -81 90s-30 79.834 -30 126.501c0 47.333 10.167 89.833 30.5 127.5s47.833 67.667 82.5 90s73.334 33.5 116.001 33.5c30 0 58 -5.83301 84 -17.5s48.667 -28.5 68 -50.5v62h73v-488h-73v65
c-18.667 -23.333 -41.334 -41.166 -68.001 -53.499s-56 -18.5 -88 -18.5zM296 56.998c28.667 0 54.999 5.66406 78.999 16.9971s43.667 27.333 59 48v242c-16 20.667 -36.167 36.834 -60.5 48.501s-50.166 17.5 -77.499 17.5c-32.667 0 -61.834 -8 -87.501 -24
s-46 -38 -61 -66s-22.5 -60 -22.5 -96c0 -35.333 7.5 -67.166 22.5 -95.499s35.333 -50.666 61 -66.999s54.834 -24.5 87.501 -24.5zM374.999 578.995l-94 84l-93 -84h-59l114 127h78l114 -127h-60z" />
    <glyph glyph-name="adieresis.school" horiz-adv-x="582" 
d="M278 -7c-42 0 -80 11.165 -114 33.498s-61 52.333 -81 90s-30 79.834 -30 126.501c0 47.333 10.167 89.833 30.5 127.5s47.833 67.667 82.5 90s73.334 33.5 116.001 33.5c30 0 58 -5.83301 84 -17.5s48.667 -28.5 68 -50.5v62h73v-488h-73v65
c-18.667 -23.333 -41.334 -41.166 -68.001 -53.499s-56 -18.5 -88 -18.5zM296 56.998c28.667 0 54.999 5.66406 78.999 16.9971s43.667 27.333 59 48v242c-16 20.667 -36.167 36.834 -60.5 48.501s-50.166 17.5 -77.499 17.5c-32.667 0 -61.834 -8 -87.501 -24
s-46 -38 -61 -66s-22.5 -60 -22.5 -96c0 -35.333 7.5 -67.166 22.5 -95.499s35.333 -50.666 61 -66.999s54.834 -24.5 87.501 -24.5zM193.999 608.995c-14.667 0 -27.167 5.16699 -37.5 15.5s-15.5 22.5 -15.5 36.5s5.16699 26.167 15.5 36.5s22.833 15.5 37.5 15.5
s27.167 -5.16699 37.5 -15.5s15.5 -22.5 15.5 -36.5s-5.16699 -26.167 -15.5 -36.5s-22.833 -15.5 -37.5 -15.5zM369.999 608.995c-14.667 0 -27.167 5.16699 -37.5 15.5s-15.5 22.5 -15.5 36.5s5.16699 26.167 15.5 36.5s22.833 15.5 37.5 15.5s27.167 -5.16699 37.5 -15.5
s15.5 -22.5 15.5 -36.5s-5.16699 -26.167 -15.5 -36.5s-22.833 -15.5 -37.5 -15.5z" />
    <glyph glyph-name="agrave.school" horiz-adv-x="582" 
d="M278 -7c-42 0 -80 11.165 -114 33.498s-61 52.333 -81 90s-30 79.834 -30 126.501c0 47.333 10.167 89.833 30.5 127.5s47.833 67.667 82.5 90s73.334 33.5 116.001 33.5c30 0 58 -5.83301 84 -17.5s48.667 -28.5 68 -50.5v62h73v-488h-73v65
c-18.667 -23.333 -41.334 -41.166 -68.001 -53.499s-56 -18.5 -88 -18.5zM296 56.998c28.667 0 54.999 5.66406 78.999 16.9971s43.667 27.333 59 48v242c-16 20.667 -36.167 36.834 -60.5 48.501s-50.166 17.5 -77.499 17.5c-32.667 0 -61.834 -8 -87.501 -24
s-46 -38 -61 -66s-22.5 -60 -22.5 -96c0 -35.333 7.5 -67.166 22.5 -95.499s35.333 -50.666 61 -66.999s54.834 -24.5 87.501 -24.5zM275.999 583.995l-144 122h103l112 -122h-71z" />
    <glyph glyph-name="amacron.school" horiz-adv-x="582" 
d="M278 -7c-42 0 -80 11.165 -114 33.498s-61 52.333 -81 90s-30 79.834 -30 126.501c0 47.333 10.167 89.833 30.5 127.5s47.833 67.667 82.5 90s73.334 33.5 116.001 33.5c30 0 58 -5.83301 84 -17.5s48.667 -28.5 68 -50.5v62h73v-488h-73v65
c-18.667 -23.333 -41.334 -41.166 -68.001 -53.499s-56 -18.5 -88 -18.5zM296 56.998c28.667 0 54.999 5.66406 78.999 16.9971s43.667 27.333 59 48v242c-16 20.667 -36.167 36.834 -60.5 48.501s-50.166 17.5 -77.499 17.5c-32.667 0 -61.834 -8 -87.501 -24
s-46 -38 -61 -66s-22.5 -60 -22.5 -96c0 -35.333 7.5 -67.166 22.5 -95.499s35.333 -50.666 61 -66.999s54.834 -24.5 87.501 -24.5zM145.999 610.995v52h272v-52h-272z" />
    <glyph glyph-name="aogonek.school" horiz-adv-x="582" 
d="M459 -231c-32 0 -57.6689 8.33203 -77.002 24.999s-29 38.667 -29 66c0 24.667 7.83301 48 23.5 70s40.834 45.333 75.501 70h-18v65c-18.667 -23.333 -41.334 -41.166 -68.001 -53.499s-56 -18.5 -88 -18.5c-42 0 -80 11.167 -114 33.5s-61 52.333 -81 90
s-30 79.834 -30 126.501c0 47.333 10.167 89.833 30.5 127.5s47.833 67.667 82.5 90s73.334 33.5 116.001 33.5c30 0 58 -5.83301 84 -17.5s48.667 -28.5 68 -50.5v62h73v-488c-36 -23.333 -62.333 -45.333 -79 -66s-25 -41.334 -25 -62.001c0 -18 6 -32 18 -42
s28.333 -15 49 -15c8.66699 0 17.334 1 26.001 3s16 5 22 9l14 -39c-20 -12.667 -44.333 -19 -73 -19zM124.998 243.999c0 -35.333 7.49902 -67.1689 22.499 -95.502s35.333 -50.666 61 -66.999s54.834 -24.5 87.501 -24.5c28.667 0 55 5.66699 79 17s43.667 27.333 59 48
v242c-16 20.667 -36.167 36.834 -60.5 48.501s-50.166 17.5 -77.499 17.5c-32.667 0 -61.834 -8 -87.501 -24s-46 -38 -61 -66s-22.5 -60 -22.5 -96z" />
    <glyph glyph-name="aring.school" horiz-adv-x="582" 
d="M278 -7c-42 0 -80 11.165 -114 33.498s-61 52.333 -81 90s-30 79.834 -30 126.501c0 47.333 10.167 89.833 30.5 127.5s47.833 67.667 82.5 90s73.334 33.5 116.001 33.5c30 0 58 -5.83301 84 -17.5s48.667 -28.5 68 -50.5v62h73v-488h-73v65
c-18.667 -23.333 -41.334 -41.166 -68.001 -53.499s-56 -18.5 -88 -18.5zM296 56.998c28.667 0 54.999 5.66406 78.999 16.9971s43.667 27.333 59 48v242c-16 20.667 -36.167 36.834 -60.5 48.501s-50.166 17.5 -77.499 17.5c-32.667 0 -61.834 -8 -87.501 -24
s-46 -38 -61 -66s-22.5 -60 -22.5 -96c0 -35.333 7.5 -67.166 22.5 -95.499s35.333 -50.666 61 -66.999s54.834 -24.5 87.501 -24.5zM281.999 571.995c-20.667 0 -39.5 5.00098 -56.5 15.001s-30.5 23.5 -40.5 40.5s-15 35.833 -15 56.5c0 20 5 38.333 15 55
s23.5 30 40.5 40s35.833 15 56.5 15s39.5 -5 56.5 -15s30.5 -23.333 40.5 -40s15 -35.334 15 -56.001c0 -20 -5 -38.5 -15 -55.5s-23.5 -30.5 -40.5 -40.5s-35.833 -15 -56.5 -15zM281.999 612.996c19.333 0 35.833 6.83301 49.5 20.5s20.5 30.167 20.5 49.5
s-6.83301 35.833 -20.5 49.5s-30.167 20.5 -49.5 20.5s-35.833 -6.83301 -49.5 -20.5s-20.5 -30.167 -20.5 -49.5s6.83301 -35.833 20.5 -49.5s30.167 -20.5 49.5 -20.5z" />
    </font>
</defs>
</svg>
